G04 #@! TF.GenerationSoftware,KiCad,Pcbnew,8.0.9-8.0.9-0~ubuntu24.04.1*
G04 #@! TF.CreationDate,2025-06-09T20:21:33+02:00*
G04 #@! TF.ProjectId,rpi_power_warden_hat,7270695f-706f-4776-9572-5f7761726465,rev?*
G04 #@! TF.SameCoordinates,Original*
G04 #@! TF.FileFunction,Profile,NP*
%FSLAX46Y46*%
G04 Gerber Fmt 4.6, Leading zero omitted, Abs format (unit mm)*
G04 Created by KiCad (PCBNEW 8.0.9-8.0.9-0~ubuntu24.04.1) date 2025-06-09 20:21:33*
%MOMM*%
%LPD*%
G01*
G04 APERTURE LIST*
G04 #@! TA.AperFunction,Profile*
%ADD10C,0.100000*%
G04 #@! TD*
G04 APERTURE END LIST*
D10*
X126895599Y-72817001D02*
X126895599Y-88817001D01*
X126895599Y-107817001D02*
X126895599Y-123317001D01*
X127895599Y-89817001D02*
X130895599Y-89817001D01*
X127895599Y-106817001D02*
X130895599Y-106817001D01*
X129895599Y-69817001D02*
X188895599Y-69817001D01*
X129895599Y-126317001D02*
X188895599Y-126317001D01*
X131895599Y-90817001D02*
X131895599Y-105817001D01*
X170895599Y-122317001D02*
X170895599Y-107317001D01*
X172895599Y-122317001D02*
X172895599Y-107317001D01*
X191895599Y-72817001D02*
X191895599Y-123317001D01*
X126895599Y-72817001D02*
G75*
G02*
X129895599Y-69817001I3000001J-1D01*
G01*
X126895599Y-107817001D02*
G75*
G02*
X127895599Y-106817001I999999J1D01*
G01*
X127895599Y-89817001D02*
G75*
G02*
X126895599Y-88817001I-1J999999D01*
G01*
X129895599Y-126317001D02*
G75*
G02*
X126895599Y-123317001I1J3000001D01*
G01*
X130895599Y-89817001D02*
G75*
G02*
X131895599Y-90817001I1J-999999D01*
G01*
X131895599Y-105817001D02*
G75*
G02*
X130895599Y-106817001I-999999J-1D01*
G01*
X170895599Y-107317001D02*
G75*
G02*
X172895599Y-107317001I1000000J0D01*
G01*
X172895599Y-122317001D02*
G75*
G02*
X170895599Y-122317001I-1000000J0D01*
G01*
X188895599Y-69817001D02*
G75*
G02*
X191895599Y-72817001I0J-3000000D01*
G01*
X191895599Y-123317001D02*
G75*
G02*
X188895599Y-126317001I-3000000J0D01*
G01*
M02*
