M48
; DRILL file {KiCad 8.0.9-8.0.9-0~ubuntu24.04.1} date 2025-06-09T20:21:50+0200
; FORMAT={-:-/ absolute / metric / decimal}
; #@! TF.CreationDate,2025-06-09T20:21:50+02:00
; #@! TF.GenerationSoftware,Kicad,Pcbnew,8.0.9-8.0.9-0~ubuntu24.04.1
; #@! TF.FileFunction,Plated,1,4,PTH
FMAT,2
METRIC
; #@! TA.AperFunction,Plated,PTH,ViaDrill
T1C0.200
; #@! TA.AperFunction,Plated,PTH,ComponentDrill
T2C1.020
; #@! TA.AperFunction,Plated,PTH,ComponentDrill
T3C2.300
%
G90
G05
T1
X130.274Y-107.938
X134.574Y-78.638
X135.274Y-80.438
X135.274Y-82.938
X135.274Y-85.438
X135.274Y-107.938
X135.374Y-78.638
X136.174Y-78.638
X136.981Y-105.373
X137.774Y-80.438
X138.62Y-93.028
X140.982Y-84.773
X140.982Y-86.195
X140.982Y-87.491
X141.744Y-74.003
X141.774Y-76.838
X142.023Y-80.448
X142.774Y-122.938
X142.862Y-120.231
X142.913Y-114.034
X143.374Y-80.638
X144.399Y-92.588
X144.774Y-85.538
X144.774Y-88.038
X145.707Y-97.981
X145.732Y-100.013
X145.984Y-92.063
X146.57Y-97.371
X146.836Y-76.838
X146.875Y-107.608
X146.974Y-100.138
X147.713Y-114.034
X147.739Y-120.257
X147.774Y-122.938
X147.84Y-107.582
X148.272Y-80.658
X149.009Y-104.534
X149.174Y-86.038
X149.186Y-74.003
X149.216Y-87.664
X149.282Y-84.731
X149.774Y-115.538
X149.974Y-80.838
X150.774Y-85.438
X150.888Y-92.647
X151.218Y-98.184
X151.32Y-82.919
X151.374Y-113.438
X151.447Y-125.159
X151.549Y-87.719
X152.336Y-90.92
X152.565Y-81.674
X152.895Y-118.504
X153.774Y-112.638
X153.774Y-113.438
X154.343Y-81.776
X154.574Y-87.838
X154.974Y-79.038
X155.726Y-105.373
X155.774Y-78.438
X156.174Y-79.038
X156.603Y-110.503
X156.679Y-114.288
X157.441Y-125.134
X157.848Y-92.901
X159.374Y-85.638
X159.397Y-86.5
X159.431Y-87.438
X159.499Y-73.953
X160.007Y-119.546
X161.953Y-81.619
X162.191Y-125.134
X162.242Y-117.209
X162.654Y-92.904
X162.902Y-89.167
X163.774Y-80.038
X164.299Y-95.552
X164.352Y-87.632
X164.474Y-71.038
X164.503Y-98.006
X164.503Y-100.089
X164.604Y-108.522
X164.63Y-110.757
X165.417Y-92.068
X165.747Y-83.986
X165.747Y-107.633
X165.774Y-100.142
X166.128Y-110.783
X166.585Y-86.703
X166.974Y-73.838
X167.174Y-87.638
X167.678Y-110.783
X167.678Y-111.57
X167.678Y-115.863
X167.741Y-119.584
X167.774Y-122.938
X168.059Y-102.934
X168.574Y-80.638
X168.973Y-104.56
X169.456Y-99.2
X169.574Y-76.838
X169.989Y-92.723
X170.645Y-88.852
X170.974Y-78.638
X171.791Y-87.743
X171.996Y-85.56
X171.996Y-86.627
X172.097Y-73.927
X172.774Y-102.938
X175.274Y-120.438
X175.882Y-115.99
X176.491Y-83.376
X176.669Y-118.403
X176.847Y-116.574
X178.219Y-80.607
X178.219Y-83.376
X178.422Y-112.408
X178.422Y-113.526
X178.422Y-114.618
X180.352Y-112.408
X180.759Y-100.8
X180.835Y-85.078
X180.962Y-92.037
X182.003Y-118.123
X182.079Y-98.489
X182.841Y-117.437
X183.756Y-118.098
X183.883Y-98.489
X184.289Y-80.734
X184.619Y-116.167
X185.458Y-76.823
X185.813Y-100.775
X186.423Y-119.292
X188.257Y-119.574
X189.403Y-118.465
X190.274Y-102.938
X190.474Y-82.938
X190.474Y-87.938
X190.474Y-92.938
X190.474Y-97.938
X190.474Y-107.938
X190.474Y-110.438
X190.817Y-114.948
X190.817Y-116.421
X190.842Y-117.793
T2
X135.296Y-72.655
X135.296Y-75.195
X137.836Y-72.655
X137.836Y-75.195
X140.376Y-72.655
X140.376Y-75.195
X142.916Y-72.655
X142.916Y-75.195
X145.456Y-72.655
X145.456Y-75.195
X147.996Y-72.655
X147.996Y-75.195
X150.536Y-72.655
X150.536Y-75.195
X153.076Y-72.655
X153.076Y-75.195
X155.616Y-72.655
X155.616Y-75.195
X158.156Y-72.655
X158.156Y-75.195
X160.696Y-72.655
X160.696Y-75.195
X163.236Y-72.655
X163.236Y-75.195
X165.776Y-72.655
X165.776Y-75.195
X168.316Y-72.655
X168.316Y-75.195
X170.856Y-72.655
X170.856Y-75.195
X173.396Y-72.655
X173.396Y-75.195
X175.936Y-72.655
X175.936Y-75.195
X178.476Y-72.655
X178.476Y-75.195
X181.016Y-72.655
X181.016Y-75.195
X183.556Y-72.655
X183.556Y-75.195
T3
X180.936Y-82.183
X180.936Y-94.983
M30
