G04 #@! TF.GenerationSoftware,KiCad,Pcbnew,8.0.9-8.0.9-0~ubuntu24.04.1*
G04 #@! TF.CreationDate,2025-06-14T07:54:04+02:00*
G04 #@! TF.ProjectId,rpi_power_warden_hat,7270695f-706f-4776-9572-5f7761726465,rev?*
G04 #@! TF.SameCoordinates,Original*
G04 #@! TF.FileFunction,Copper,L4,Bot*
G04 #@! TF.FilePolarity,Positive*
%FSLAX46Y46*%
G04 Gerber Fmt 4.6, Leading zero omitted, Abs format (unit mm)*
G04 Created by KiCad (PCBNEW 8.0.9-8.0.9-0~ubuntu24.04.1) date 2025-06-14 07:54:04*
%MOMM*%
%LPD*%
G01*
G04 APERTURE LIST*
G04 #@! TA.AperFunction,ComponentPad*
%ADD10O,1.800000X1.000000*%
G04 #@! TD*
G04 #@! TA.AperFunction,ComponentPad*
%ADD11C,1.370000*%
G04 #@! TD*
G04 #@! TA.AperFunction,ViaPad*
%ADD12C,0.600000*%
G04 #@! TD*
G04 #@! TA.AperFunction,Conductor*
%ADD13C,0.254000*%
G04 #@! TD*
G04 #@! TA.AperFunction,Conductor*
%ADD14C,0.200000*%
G04 #@! TD*
G04 APERTURE END LIST*
D10*
X183624279Y-92338321D03*
X187424279Y-92338321D03*
X183624279Y-83938321D03*
X187424279Y-83938321D03*
D11*
X135295599Y-75195001D03*
X135295599Y-72655001D03*
X137835599Y-75195001D03*
X137835599Y-72655001D03*
X140375599Y-75195001D03*
X140375599Y-72655001D03*
X142915599Y-75195001D03*
X142915599Y-72655001D03*
X145455599Y-75195001D03*
X145455599Y-72655001D03*
X147995599Y-75195001D03*
X147995599Y-72655001D03*
X150535599Y-75195001D03*
X150535599Y-72655001D03*
X153075599Y-75195001D03*
X153075599Y-72655001D03*
X155615599Y-75195001D03*
X155615599Y-72655001D03*
X158155599Y-75195001D03*
X158155599Y-72655001D03*
X160695599Y-75195001D03*
X160695599Y-72655001D03*
X163235599Y-75195001D03*
X163235599Y-72655001D03*
X165775599Y-75195001D03*
X165775599Y-72655001D03*
X168315599Y-75195001D03*
X168315599Y-72655001D03*
X170855599Y-75195001D03*
X170855599Y-72655001D03*
X173395599Y-75195001D03*
X173395599Y-72655001D03*
X175935599Y-75195001D03*
X175935599Y-72655001D03*
X178475599Y-75195001D03*
X178475599Y-72655001D03*
X181015599Y-75195001D03*
X181015599Y-72655001D03*
X183555599Y-75195001D03*
X183555599Y-72655001D03*
D12*
X164604279Y-108521921D03*
X150888279Y-92646921D03*
X162242079Y-117208721D03*
X147713279Y-114033721D03*
X146875079Y-107607521D03*
X135274279Y-85438321D03*
X166585479Y-86703321D03*
X148272079Y-80658121D03*
X145706679Y-97980921D03*
X151218479Y-98184121D03*
X142774279Y-122938321D03*
X190817079Y-114948121D03*
X185813279Y-100774921D03*
X164502679Y-100089121D03*
X164502679Y-98006321D03*
X149186479Y-74003321D03*
X147840279Y-107582121D03*
X175274279Y-120438321D03*
X135274279Y-82938321D03*
X190474279Y-110438321D03*
X162191279Y-125133521D03*
X167677679Y-115862521D03*
X145732079Y-100012921D03*
X190474279Y-97938321D03*
X157441479Y-125133521D03*
X135274279Y-107938321D03*
X178218679Y-80607321D03*
X183674279Y-95238321D03*
X142861879Y-120231321D03*
X165747279Y-83985521D03*
X156674279Y-117038321D03*
X178218679Y-83375921D03*
X182841479Y-117437321D03*
X190474279Y-87938321D03*
X130274279Y-107938321D03*
X159498879Y-73952521D03*
X147774279Y-122938321D03*
X190842479Y-117792921D03*
X190274279Y-102938321D03*
X172097279Y-73927121D03*
X190474279Y-82938321D03*
X175881879Y-115989521D03*
X152564679Y-81674121D03*
X162902479Y-89167121D03*
X180758679Y-100800321D03*
X135274279Y-80438321D03*
X172774279Y-102938321D03*
X169455679Y-99200121D03*
X183882879Y-98488921D03*
X171995679Y-86627121D03*
X156674279Y-114238321D03*
X137774279Y-80438321D03*
X182079479Y-98488921D03*
X147738679Y-120256721D03*
X169989079Y-92723121D03*
X190474279Y-92938321D03*
X152336079Y-90919721D03*
X159397279Y-86500121D03*
X151548679Y-87719321D03*
X151320079Y-82918721D03*
X186422879Y-119291521D03*
X140982279Y-87490721D03*
X141744279Y-74003321D03*
X190474279Y-107938321D03*
X184289279Y-80734321D03*
X140982279Y-84772921D03*
X185457679Y-76822721D03*
X185824279Y-85688321D03*
X142912679Y-114033721D03*
X167774279Y-122938321D03*
X190817079Y-116421321D03*
X165747279Y-107632921D03*
X151447079Y-125158921D03*
X156603279Y-110503121D03*
X140982279Y-86195321D03*
X171995679Y-85560321D03*
X171791286Y-87743139D03*
X143374279Y-80638321D03*
X149174279Y-86038321D03*
X168574279Y-80638321D03*
X154974279Y-79038321D03*
X170644978Y-88851921D03*
X149215825Y-87664321D03*
X134574279Y-78638321D03*
X188256871Y-119574104D03*
X136174279Y-78638321D03*
X154342679Y-81775721D03*
X155774279Y-78438321D03*
X156174279Y-79038321D03*
X176847079Y-116573721D03*
X153774279Y-112638321D03*
X135374279Y-78638321D03*
X189403179Y-118465322D03*
X142022585Y-80448087D03*
X153474279Y-113538321D03*
X149282052Y-84730548D03*
X159374279Y-85638321D03*
X155726279Y-105372721D03*
X165774279Y-100142371D03*
X168973079Y-104559521D03*
X164299479Y-95552121D03*
X146974279Y-100138321D03*
X136981079Y-105372721D03*
X149008679Y-104534121D03*
X146570279Y-97371321D03*
X185000000Y-88688321D03*
X180024279Y-95288321D03*
X180024279Y-80788321D03*
X185000000Y-87638321D03*
X164352378Y-87632121D03*
X161953432Y-81619433D03*
X182003279Y-118123121D03*
X151374279Y-113438321D03*
X141774279Y-76838321D03*
X146836279Y-76838321D03*
X176669279Y-118402521D03*
X149772662Y-115277689D03*
X144774279Y-85538321D03*
X166974279Y-73838321D03*
X170974279Y-78638321D03*
X159430778Y-87438321D03*
X150571019Y-85138321D03*
X164474279Y-71038321D03*
X149974279Y-80838321D03*
X152894879Y-118504121D03*
X138620079Y-93027921D03*
X169574279Y-76838321D03*
X144774279Y-88038321D03*
X167174279Y-87638321D03*
X183755879Y-118097721D03*
X163774279Y-80038321D03*
X162653630Y-92903621D03*
X165417079Y-92068121D03*
X160006879Y-119545521D03*
X157847879Y-92900921D03*
X144399279Y-92588321D03*
X145984142Y-92063157D03*
X154374279Y-87738321D03*
X168058679Y-102933921D03*
X164629679Y-110757121D03*
X167677679Y-111569921D03*
X184619479Y-116167321D03*
X178421879Y-112408121D03*
X167677679Y-110782521D03*
X178421879Y-114617921D03*
X166128279Y-110782521D03*
X180352279Y-112408121D03*
X167740779Y-119584021D03*
X178421879Y-113525721D03*
D13*
X176847079Y-116573721D02*
X180377679Y-120104321D01*
X180377679Y-120104321D02*
X187426654Y-120104321D01*
X187426654Y-120104321D02*
X188256871Y-119274104D01*
X161403479Y-105372721D02*
X155624679Y-105372721D01*
X165774279Y-101001921D02*
X161403479Y-105372721D01*
X165774279Y-100142371D02*
X165774279Y-101001921D01*
X168973079Y-104559521D02*
X168973079Y-100225721D01*
X168973079Y-100225721D02*
X164299479Y-95552121D01*
X141739879Y-105372721D02*
X136981079Y-105372721D01*
X146974279Y-100138321D02*
X141739879Y-105372721D01*
X146570279Y-97371321D02*
X146570279Y-97396721D01*
X146570279Y-97396721D02*
X149008679Y-99835121D01*
X149008679Y-99835121D02*
X149008679Y-104534121D01*
X180024279Y-95288321D02*
X180024279Y-92338321D01*
X180024279Y-92338321D02*
X183674279Y-88688321D01*
X183674279Y-88688321D02*
X185000000Y-88688321D01*
X180024279Y-80788321D02*
X180024279Y-83988321D01*
X183674279Y-87638321D02*
X185000000Y-87638321D01*
X180024279Y-83988321D02*
X183674279Y-87638321D01*
X161974279Y-81640280D02*
X161974279Y-86638321D01*
X164352378Y-87632121D02*
X164352378Y-87660222D01*
X164352378Y-87660222D02*
X163674279Y-88338321D01*
X182003279Y-112255721D02*
X182003279Y-118097721D01*
X161953432Y-81619433D02*
X161974279Y-81640280D01*
X175856479Y-106108921D02*
X182003279Y-112255721D01*
X163674279Y-88338321D02*
X175856479Y-100520521D01*
X175856479Y-100520521D02*
X175856479Y-106108921D01*
X161974279Y-86638321D02*
X163674279Y-88338321D01*
X139974279Y-89403721D02*
X151374279Y-100803721D01*
X139974279Y-78638321D02*
X139974279Y-89403721D01*
X141774279Y-76838321D02*
X139974279Y-78638321D01*
X151374279Y-100803721D02*
X151374279Y-113438321D01*
X153071662Y-115277689D02*
X158974279Y-115277689D01*
X168374279Y-124638321D02*
X159013647Y-115277689D01*
X146695365Y-80359407D02*
X146836279Y-80218493D01*
X153071662Y-115277689D02*
X152774279Y-115277689D01*
X153071662Y-115277689D02*
X149771662Y-115277689D01*
X159013647Y-115277689D02*
X158974279Y-115277689D01*
X176643879Y-123268721D02*
X175274279Y-124638321D01*
X143174279Y-83880492D02*
X146695365Y-80359407D01*
X176643879Y-118427921D02*
X176643879Y-123268721D01*
X146836279Y-80218493D02*
X146836279Y-76838321D01*
X152774279Y-97377721D02*
X143174279Y-87777721D01*
X176669279Y-118402521D02*
X176643879Y-118427921D01*
X175274279Y-124638321D02*
X168374279Y-124638321D01*
X143174279Y-87777721D02*
X143174279Y-83880492D01*
X152774279Y-115277689D02*
X152774279Y-97377721D01*
X166407679Y-76695721D02*
X166974279Y-76129121D01*
X149974279Y-82438321D02*
X155716879Y-76695721D01*
X144774279Y-85538321D02*
X147874279Y-82438321D01*
X155716879Y-76695721D02*
X166407679Y-76695721D01*
X147874279Y-82438321D02*
X149974279Y-82438321D01*
X166974279Y-76129121D02*
X166974279Y-73838321D01*
X157774279Y-85138321D02*
X150574279Y-85138321D01*
X162278479Y-79134121D02*
X157774279Y-83638321D01*
X157774279Y-86950321D02*
X158262279Y-87438321D01*
X170478479Y-79134121D02*
X162278479Y-79134121D01*
X170974279Y-78638321D02*
X170478479Y-79134121D01*
X157774279Y-83638321D02*
X157774279Y-86950321D01*
X158262279Y-87438321D02*
X159430778Y-87438321D01*
X151774279Y-79038321D02*
X149974279Y-80838321D01*
X152374279Y-71138321D02*
X151774279Y-71738321D01*
X164474279Y-71038321D02*
X164374279Y-71138321D01*
X151774279Y-71738321D02*
X151774279Y-79038321D01*
X164374279Y-71138321D02*
X152374279Y-71138321D01*
X148974279Y-83838321D02*
X144774279Y-88038321D01*
X161348479Y-77864121D02*
X155374279Y-83838321D01*
X169574279Y-76838321D02*
X168548479Y-77864121D01*
X155374279Y-83838321D02*
X148974279Y-83838321D01*
X168548479Y-77864121D02*
X161348479Y-77864121D01*
X183755879Y-109334721D02*
X183755879Y-118097721D01*
X163774279Y-80038321D02*
X163774279Y-85240084D01*
X178910679Y-100376484D02*
X178910679Y-104489521D01*
X163774279Y-85240084D02*
X166773397Y-88239203D01*
X167174279Y-87638321D02*
X166773397Y-88039203D01*
X166773397Y-88239203D02*
X178910679Y-100376484D01*
X178910679Y-104489521D02*
X183755879Y-109334721D01*
D14*
X162653630Y-92903621D02*
X163489130Y-92068121D01*
X163489130Y-92068121D02*
X165417079Y-92068121D01*
X145984142Y-92063157D02*
X144924443Y-92063157D01*
X144924443Y-92063157D02*
X144399279Y-92588321D01*
D13*
X168058679Y-100522721D02*
X168058679Y-102933921D01*
X154374279Y-87738321D02*
X155274279Y-87738321D01*
X155274279Y-87738321D02*
X168058679Y-100522721D01*
G04 #@! TA.AperFunction,Conductor*
G36*
X188713483Y-70151110D02*
G01*
X189001014Y-70167873D01*
X189014802Y-70169455D01*
X189288858Y-70216577D01*
X189295343Y-70217692D01*
X189308876Y-70220808D01*
X189582258Y-70300107D01*
X189595346Y-70304712D01*
X189858159Y-70414084D01*
X189870652Y-70420125D01*
X190119586Y-70558195D01*
X190131333Y-70565599D01*
X190360313Y-70728532D01*
X190363258Y-70730627D01*
X190374091Y-70739288D01*
X190586142Y-70929241D01*
X190595930Y-70939052D01*
X190714041Y-71071491D01*
X190785391Y-71151497D01*
X190794037Y-71162359D01*
X190935435Y-71362010D01*
X190958558Y-71394658D01*
X190965932Y-71406416D01*
X191071112Y-71597043D01*
X191103450Y-71655652D01*
X191109467Y-71668167D01*
X191218252Y-71931209D01*
X191222832Y-71944318D01*
X191301524Y-72217872D01*
X191304610Y-72231410D01*
X191352225Y-72512058D01*
X191353777Y-72525857D01*
X191369904Y-72813416D01*
X191370099Y-72820359D01*
X191370099Y-123337369D01*
X191369873Y-123344857D01*
X191353957Y-123607959D01*
X191352152Y-123622823D01*
X191300961Y-123902164D01*
X191297377Y-123916702D01*
X191212894Y-124187820D01*
X191207585Y-124201821D01*
X191091030Y-124460796D01*
X191084071Y-124474055D01*
X190937153Y-124717086D01*
X190928647Y-124729409D01*
X190753504Y-124952963D01*
X190743574Y-124964171D01*
X190542769Y-125164975D01*
X190531561Y-125174905D01*
X190308008Y-125350048D01*
X190295684Y-125358554D01*
X190052653Y-125505470D01*
X190039395Y-125512429D01*
X189780419Y-125628985D01*
X189766418Y-125634294D01*
X189495301Y-125718777D01*
X189480763Y-125722361D01*
X189201421Y-125773553D01*
X189186556Y-125775358D01*
X188923423Y-125791275D01*
X188915936Y-125791501D01*
X129875809Y-125791501D01*
X129868322Y-125791275D01*
X129604646Y-125775325D01*
X129589781Y-125773520D01*
X129310443Y-125722329D01*
X129295905Y-125718745D01*
X129024792Y-125634263D01*
X129010791Y-125628954D01*
X128751819Y-125512401D01*
X128738560Y-125505442D01*
X128495530Y-125358524D01*
X128483209Y-125350020D01*
X128259659Y-125174879D01*
X128248451Y-125164949D01*
X128047650Y-124964148D01*
X128037720Y-124952940D01*
X127862579Y-124729390D01*
X127854077Y-124717073D01*
X127707154Y-124474033D01*
X127700202Y-124460787D01*
X127583643Y-124201804D01*
X127578336Y-124187807D01*
X127550428Y-124098248D01*
X127493853Y-123916693D01*
X127490270Y-123902156D01*
X127439079Y-123622818D01*
X127437274Y-123607953D01*
X127421325Y-123344277D01*
X127421099Y-123336790D01*
X127421099Y-122705550D01*
X128695099Y-122705550D01*
X128695099Y-122928451D01*
X128695100Y-122928467D01*
X128724193Y-123149453D01*
X128724194Y-123149458D01*
X128724195Y-123149464D01*
X128774389Y-123336790D01*
X128781889Y-123364781D01*
X128781892Y-123364791D01*
X128838110Y-123500513D01*
X128867194Y-123570727D01*
X128978651Y-123763775D01*
X128978656Y-123763781D01*
X128978657Y-123763783D01*
X129114350Y-123940623D01*
X129114356Y-123940630D01*
X129271969Y-124098243D01*
X129271975Y-124098248D01*
X129448825Y-124233949D01*
X129641873Y-124345406D01*
X129847818Y-124430711D01*
X130063136Y-124488405D01*
X130284142Y-124517501D01*
X130284149Y-124517501D01*
X130507049Y-124517501D01*
X130507056Y-124517501D01*
X130728062Y-124488405D01*
X130943380Y-124430711D01*
X131149325Y-124345406D01*
X131342373Y-124233949D01*
X131519223Y-124098248D01*
X131676846Y-123940625D01*
X131812547Y-123763775D01*
X131924004Y-123570727D01*
X132009309Y-123364782D01*
X132067003Y-123149464D01*
X132096099Y-122928458D01*
X132096099Y-122705544D01*
X132067003Y-122484538D01*
X132009309Y-122269220D01*
X131924004Y-122063275D01*
X131812547Y-121870227D01*
X131676846Y-121693377D01*
X131676841Y-121693371D01*
X131519228Y-121535758D01*
X131519221Y-121535752D01*
X131342381Y-121400059D01*
X131342379Y-121400058D01*
X131342373Y-121400053D01*
X131149325Y-121288596D01*
X131149321Y-121288594D01*
X130943389Y-121203294D01*
X130943382Y-121203292D01*
X130943380Y-121203291D01*
X130728062Y-121145597D01*
X130728056Y-121145596D01*
X130728051Y-121145595D01*
X130507065Y-121116502D01*
X130507062Y-121116501D01*
X130507056Y-121116501D01*
X130284142Y-121116501D01*
X130284136Y-121116501D01*
X130284132Y-121116502D01*
X130063146Y-121145595D01*
X130063139Y-121145596D01*
X130063136Y-121145597D01*
X129858719Y-121200370D01*
X129847818Y-121203291D01*
X129847808Y-121203294D01*
X129641876Y-121288594D01*
X129641872Y-121288596D01*
X129448825Y-121400053D01*
X129448816Y-121400059D01*
X129271976Y-121535752D01*
X129271969Y-121535758D01*
X129114356Y-121693371D01*
X129114350Y-121693378D01*
X128978657Y-121870218D01*
X128978651Y-121870227D01*
X128867194Y-122063274D01*
X128867192Y-122063278D01*
X128781892Y-122269210D01*
X128781889Y-122269220D01*
X128737014Y-122436699D01*
X128724196Y-122484535D01*
X128724193Y-122484548D01*
X128695100Y-122705534D01*
X128695099Y-122705550D01*
X127421099Y-122705550D01*
X127421099Y-120336864D01*
X139036278Y-120336864D01*
X139074726Y-120530150D01*
X139074729Y-120530160D01*
X139150143Y-120712228D01*
X139150150Y-120712241D01*
X139259639Y-120876102D01*
X139259642Y-120876106D01*
X139398993Y-121015457D01*
X139398997Y-121015460D01*
X139562858Y-121124949D01*
X139562871Y-121124956D01*
X139744939Y-121200370D01*
X139744944Y-121200372D01*
X139744948Y-121200372D01*
X139744949Y-121200373D01*
X139938235Y-121238821D01*
X139938238Y-121238821D01*
X140135322Y-121238821D01*
X140313939Y-121203291D01*
X140328614Y-121200372D01*
X140510693Y-121124953D01*
X140674561Y-121015460D01*
X140813918Y-120876103D01*
X140923411Y-120712235D01*
X140998830Y-120530156D01*
X141037279Y-120336862D01*
X141037279Y-120139780D01*
X141037279Y-120139777D01*
X140998831Y-119946491D01*
X140998830Y-119946490D01*
X140998830Y-119946486D01*
X140995374Y-119938142D01*
X140923414Y-119764413D01*
X140923407Y-119764400D01*
X140813918Y-119600539D01*
X140813915Y-119600535D01*
X140758900Y-119545520D01*
X159451629Y-119545520D01*
X159451629Y-119545521D01*
X159470549Y-119689229D01*
X159470550Y-119689233D01*
X159526016Y-119823143D01*
X159526017Y-119823145D01*
X159526018Y-119823146D01*
X159614258Y-119938142D01*
X159729254Y-120026382D01*
X159863170Y-120081851D01*
X159990159Y-120098569D01*
X160006878Y-120100771D01*
X160006879Y-120100771D01*
X160006880Y-120100771D01*
X160021856Y-120098799D01*
X160150588Y-120081851D01*
X160284504Y-120026382D01*
X160399500Y-119938142D01*
X160487740Y-119823146D01*
X160543209Y-119689230D01*
X160562129Y-119545521D01*
X160543209Y-119401812D01*
X160487740Y-119267896D01*
X160399500Y-119152900D01*
X160284504Y-119064660D01*
X160284503Y-119064659D01*
X160284501Y-119064658D01*
X160150591Y-119009192D01*
X160150589Y-119009191D01*
X160150588Y-119009191D01*
X160078733Y-118999731D01*
X160006880Y-118990271D01*
X160006878Y-118990271D01*
X159863170Y-119009191D01*
X159863166Y-119009192D01*
X159729256Y-119064658D01*
X159614258Y-119152900D01*
X159526016Y-119267898D01*
X159470550Y-119401808D01*
X159470549Y-119401812D01*
X159451629Y-119545520D01*
X140758900Y-119545520D01*
X140674564Y-119461184D01*
X140674560Y-119461181D01*
X140510699Y-119351692D01*
X140510686Y-119351685D01*
X140328618Y-119276271D01*
X140328608Y-119276268D01*
X140135322Y-119237821D01*
X140135320Y-119237821D01*
X139938238Y-119237821D01*
X139938236Y-119237821D01*
X139744949Y-119276268D01*
X139744939Y-119276271D01*
X139562871Y-119351685D01*
X139562858Y-119351692D01*
X139398997Y-119461181D01*
X139398993Y-119461184D01*
X139259642Y-119600535D01*
X139259639Y-119600539D01*
X139150150Y-119764400D01*
X139150143Y-119764413D01*
X139074729Y-119946481D01*
X139074726Y-119946491D01*
X139036279Y-120139777D01*
X139036279Y-120139780D01*
X139036279Y-120336862D01*
X139036279Y-120336864D01*
X139036278Y-120336864D01*
X127421099Y-120336864D01*
X127421099Y-118504121D01*
X152339629Y-118504121D01*
X152353115Y-118606559D01*
X152358549Y-118647829D01*
X152358550Y-118647833D01*
X152414016Y-118781743D01*
X152414017Y-118781745D01*
X152414018Y-118781746D01*
X152502258Y-118896742D01*
X152617254Y-118984982D01*
X152617255Y-118984982D01*
X152617256Y-118984983D01*
X152661892Y-119003471D01*
X152751170Y-119040451D01*
X152872244Y-119056391D01*
X152894878Y-119059371D01*
X152894879Y-119059371D01*
X152894880Y-119059371D01*
X152909856Y-119057399D01*
X153038588Y-119040451D01*
X153172504Y-118984982D01*
X153287500Y-118896742D01*
X153375740Y-118781746D01*
X153431209Y-118647830D01*
X153450129Y-118504121D01*
X153431209Y-118360412D01*
X153375740Y-118226496D01*
X153287500Y-118111500D01*
X153172504Y-118023260D01*
X153172503Y-118023259D01*
X153172501Y-118023258D01*
X153038591Y-117967792D01*
X153038589Y-117967791D01*
X153038588Y-117967791D01*
X152952089Y-117956403D01*
X152894880Y-117948871D01*
X152894878Y-117948871D01*
X152751170Y-117967791D01*
X152751166Y-117967792D01*
X152617256Y-118023258D01*
X152502258Y-118111500D01*
X152414016Y-118226498D01*
X152358550Y-118360408D01*
X152358549Y-118360412D01*
X152339629Y-118504121D01*
X127421099Y-118504121D01*
X127421099Y-115651710D01*
X138936279Y-115651710D01*
X138936279Y-115824932D01*
X138963377Y-115996022D01*
X139016906Y-116160766D01*
X139095547Y-116315109D01*
X139197365Y-116455249D01*
X139319851Y-116577735D01*
X139459991Y-116679553D01*
X139614334Y-116758194D01*
X139779078Y-116811723D01*
X139950168Y-116838821D01*
X139950169Y-116838821D01*
X140123389Y-116838821D01*
X140123390Y-116838821D01*
X140294480Y-116811723D01*
X140459224Y-116758194D01*
X140613567Y-116679553D01*
X140753707Y-116577735D01*
X140876193Y-116455249D01*
X140978011Y-116315109D01*
X141056652Y-116160766D01*
X141110181Y-115996022D01*
X141137279Y-115824932D01*
X141137279Y-115651710D01*
X141110181Y-115480620D01*
X141056652Y-115315876D01*
X140978011Y-115161533D01*
X140876193Y-115021393D01*
X140753707Y-114898907D01*
X140613567Y-114797089D01*
X140459224Y-114718448D01*
X140294480Y-114664919D01*
X140294478Y-114664918D01*
X140294477Y-114664918D01*
X140163050Y-114644102D01*
X140123390Y-114637821D01*
X139950168Y-114637821D01*
X139910507Y-114644102D01*
X139779081Y-114664918D01*
X139614331Y-114718449D01*
X139459990Y-114797089D01*
X139396486Y-114843228D01*
X139319851Y-114898907D01*
X139319849Y-114898909D01*
X139319848Y-114898909D01*
X139197367Y-115021390D01*
X139197367Y-115021391D01*
X139197365Y-115021393D01*
X139153638Y-115081577D01*
X139095547Y-115161532D01*
X139016907Y-115315873D01*
X138963376Y-115480623D01*
X138945264Y-115594981D01*
X138936279Y-115651710D01*
X127421099Y-115651710D01*
X127421099Y-107892985D01*
X127423482Y-107868791D01*
X127424862Y-107861853D01*
X127424862Y-107825125D01*
X127425923Y-107808940D01*
X127437301Y-107722520D01*
X127438771Y-107711349D01*
X127447149Y-107680082D01*
X127481682Y-107596712D01*
X127497867Y-107568679D01*
X127552799Y-107497089D01*
X127575686Y-107474201D01*
X127647280Y-107419265D01*
X127675309Y-107403082D01*
X127758682Y-107368548D01*
X127789948Y-107360171D01*
X127887525Y-107347325D01*
X127903710Y-107346264D01*
X127940455Y-107346264D01*
X127947393Y-107344884D01*
X127971584Y-107342501D01*
X130952275Y-107342501D01*
X130952295Y-107342499D01*
X131004703Y-107342499D01*
X131004706Y-107342499D01*
X131220696Y-107311445D01*
X131430069Y-107249967D01*
X131628561Y-107159319D01*
X131812132Y-107041345D01*
X131977045Y-106898447D01*
X132119944Y-106733534D01*
X132237918Y-106549963D01*
X132328567Y-106351471D01*
X132390044Y-106142098D01*
X132421099Y-105926108D01*
X132421099Y-105817002D01*
X132421099Y-105772148D01*
X132421099Y-105772147D01*
X132421099Y-105372720D01*
X136425829Y-105372720D01*
X136425829Y-105372721D01*
X136444749Y-105516429D01*
X136444750Y-105516433D01*
X136500216Y-105650343D01*
X136500217Y-105650345D01*
X136500218Y-105650346D01*
X136588458Y-105765342D01*
X136703454Y-105853582D01*
X136837370Y-105909051D01*
X136964359Y-105925769D01*
X136981078Y-105927971D01*
X136981079Y-105927971D01*
X136981080Y-105927971D01*
X136997798Y-105925769D01*
X137124788Y-105909051D01*
X137147845Y-105899499D01*
X137175695Y-105892441D01*
X137175613Y-105892040D01*
X137181568Y-105890820D01*
X137181580Y-105890819D01*
X137617957Y-105755764D01*
X137654618Y-105750221D01*
X141789576Y-105750221D01*
X141789578Y-105750221D01*
X141885589Y-105724495D01*
X141971669Y-105674796D01*
X146764951Y-100881513D01*
X146794787Y-100859514D01*
X147198853Y-100646447D01*
X147200543Y-100645141D01*
X147228895Y-100628712D01*
X147251904Y-100619182D01*
X147366900Y-100530942D01*
X147455140Y-100415946D01*
X147510609Y-100282030D01*
X147529529Y-100138321D01*
X147510609Y-99994612D01*
X147464693Y-99883759D01*
X147455141Y-99860698D01*
X147455140Y-99860697D01*
X147455140Y-99860696D01*
X147366900Y-99745700D01*
X147251904Y-99657460D01*
X147251903Y-99657459D01*
X147251901Y-99657458D01*
X147117991Y-99601992D01*
X147117989Y-99601991D01*
X147117988Y-99601991D01*
X147046133Y-99592531D01*
X146974280Y-99583071D01*
X146974278Y-99583071D01*
X146830570Y-99601991D01*
X146830566Y-99601992D01*
X146696656Y-99657458D01*
X146581658Y-99745700D01*
X146493417Y-99860697D01*
X146483864Y-99883759D01*
X146469168Y-99908438D01*
X146469508Y-99908662D01*
X146466149Y-99913749D01*
X146253084Y-100317809D01*
X146231080Y-100347652D01*
X141619833Y-104958902D01*
X141558510Y-104992387D01*
X141532152Y-104995221D01*
X137654621Y-104995221D01*
X137617960Y-104989678D01*
X137181576Y-104854621D01*
X137181570Y-104854619D01*
X137179445Y-104854347D01*
X137147795Y-104845920D01*
X137124792Y-104836392D01*
X137124788Y-104836391D01*
X137052933Y-104826931D01*
X136981080Y-104817471D01*
X136981078Y-104817471D01*
X136837370Y-104836391D01*
X136837366Y-104836392D01*
X136703456Y-104891858D01*
X136588458Y-104980100D01*
X136500216Y-105095098D01*
X136444750Y-105229008D01*
X136444749Y-105229012D01*
X136425829Y-105372720D01*
X132421099Y-105372720D01*
X132421099Y-93027921D01*
X138064829Y-93027921D01*
X138077200Y-93121890D01*
X138083749Y-93171629D01*
X138083750Y-93171633D01*
X138139216Y-93305543D01*
X138139217Y-93305545D01*
X138139218Y-93305546D01*
X138227458Y-93420542D01*
X138342454Y-93508782D01*
X138476370Y-93564251D01*
X138603359Y-93580969D01*
X138620078Y-93583171D01*
X138620079Y-93583171D01*
X138620080Y-93583171D01*
X138635056Y-93581199D01*
X138763788Y-93564251D01*
X138897704Y-93508782D01*
X139012700Y-93420542D01*
X139100940Y-93305546D01*
X139156409Y-93171630D01*
X139175329Y-93027921D01*
X139156409Y-92884212D01*
X139100940Y-92750296D01*
X139012700Y-92635300D01*
X138897704Y-92547060D01*
X138897703Y-92547059D01*
X138897701Y-92547058D01*
X138763791Y-92491592D01*
X138763789Y-92491591D01*
X138763788Y-92491591D01*
X138668220Y-92479009D01*
X138620080Y-92472671D01*
X138620078Y-92472671D01*
X138476370Y-92491591D01*
X138476366Y-92491592D01*
X138342456Y-92547058D01*
X138227458Y-92635300D01*
X138139216Y-92750298D01*
X138083750Y-92884208D01*
X138083749Y-92884212D01*
X138068116Y-93002958D01*
X138064829Y-93027921D01*
X132421099Y-93027921D01*
X132421099Y-90772146D01*
X132421099Y-90763890D01*
X132420327Y-90756052D01*
X132420327Y-90707952D01*
X132420327Y-90707949D01*
X132389288Y-90492068D01*
X132327842Y-90282801D01*
X132327841Y-90282799D01*
X132327840Y-90282795D01*
X132237245Y-90084420D01*
X132237236Y-90084403D01*
X132119325Y-89900931D01*
X131976499Y-89736100D01*
X131811668Y-89593274D01*
X131628196Y-89475363D01*
X131628179Y-89475354D01*
X131429804Y-89384759D01*
X131220530Y-89323311D01*
X131066727Y-89301198D01*
X131004651Y-89292273D01*
X131004649Y-89292273D01*
X130956548Y-89292273D01*
X130948709Y-89291501D01*
X130940454Y-89291501D01*
X127872849Y-89291501D01*
X127856664Y-89290440D01*
X127787923Y-89281390D01*
X127756656Y-89273012D01*
X127671397Y-89237696D01*
X127643367Y-89221513D01*
X127610109Y-89195993D01*
X127570153Y-89165333D01*
X127547266Y-89142446D01*
X127508131Y-89091445D01*
X127491084Y-89069230D01*
X127474904Y-89041204D01*
X127439585Y-88955938D01*
X127431210Y-88924680D01*
X127422160Y-88855934D01*
X127421099Y-88839750D01*
X127421099Y-78638320D01*
X134019029Y-78638320D01*
X134019029Y-78638321D01*
X134037949Y-78782029D01*
X134037950Y-78782033D01*
X134093416Y-78915943D01*
X134093417Y-78915945D01*
X134093418Y-78915946D01*
X134181658Y-79030942D01*
X134296654Y-79119182D01*
X134296655Y-79119182D01*
X134296656Y-79119183D01*
X134341292Y-79137671D01*
X134430570Y-79174651D01*
X134557559Y-79191369D01*
X134574278Y-79193571D01*
X134574279Y-79193571D01*
X134574280Y-79193571D01*
X134589256Y-79191599D01*
X134717988Y-79174651D01*
X134851904Y-79119182D01*
X134898793Y-79083202D01*
X134963961Y-79058008D01*
X135032406Y-79072046D01*
X135049762Y-79083201D01*
X135096654Y-79119182D01*
X135230570Y-79174651D01*
X135357559Y-79191369D01*
X135374278Y-79193571D01*
X135374279Y-79193571D01*
X135374280Y-79193571D01*
X135389256Y-79191599D01*
X135517988Y-79174651D01*
X135651904Y-79119182D01*
X135698793Y-79083202D01*
X135763961Y-79058008D01*
X135832406Y-79072046D01*
X135849762Y-79083201D01*
X135896654Y-79119182D01*
X136030570Y-79174651D01*
X136157559Y-79191369D01*
X136174278Y-79193571D01*
X136174279Y-79193571D01*
X136174280Y-79193571D01*
X136189256Y-79191599D01*
X136317988Y-79174651D01*
X136451904Y-79119182D01*
X136566900Y-79030942D01*
X136655140Y-78915946D01*
X136710609Y-78782030D01*
X136729529Y-78638321D01*
X136722986Y-78588622D01*
X139596779Y-78588622D01*
X139596779Y-89354022D01*
X139596779Y-89453420D01*
X139622505Y-89549431D01*
X139672204Y-89635511D01*
X139672206Y-89635513D01*
X146642100Y-96605407D01*
X146675585Y-96666730D01*
X146670601Y-96736422D01*
X146628729Y-96792355D01*
X146570606Y-96816027D01*
X146426570Y-96834991D01*
X146426566Y-96834992D01*
X146292656Y-96890458D01*
X146177658Y-96978700D01*
X146089416Y-97093698D01*
X146033950Y-97227608D01*
X146033949Y-97227612D01*
X146015029Y-97371320D01*
X146015029Y-97371321D01*
X146033949Y-97515029D01*
X146033950Y-97515033D01*
X146089416Y-97648943D01*
X146089417Y-97648945D01*
X146089418Y-97648946D01*
X146177658Y-97763942D01*
X146292654Y-97852182D01*
X146309344Y-97859095D01*
X146333499Y-97872423D01*
X146338020Y-97875621D01*
X146735089Y-98101651D01*
X146761424Y-98121732D01*
X148594860Y-99955167D01*
X148628345Y-100016490D01*
X148631179Y-100042848D01*
X148631179Y-103860577D01*
X148625636Y-103897238D01*
X148490578Y-104333624D01*
X148490305Y-104335756D01*
X148481879Y-104367403D01*
X148472349Y-104390411D01*
X148472349Y-104390412D01*
X148453429Y-104534120D01*
X148453429Y-104534121D01*
X148472349Y-104677829D01*
X148472350Y-104677833D01*
X148527816Y-104811743D01*
X148527817Y-104811745D01*
X148527818Y-104811746D01*
X148616058Y-104926742D01*
X148731054Y-105014982D01*
X148864970Y-105070451D01*
X148991959Y-105087169D01*
X149008678Y-105089371D01*
X149008679Y-105089371D01*
X149008680Y-105089371D01*
X149023656Y-105087399D01*
X149152388Y-105070451D01*
X149286304Y-105014982D01*
X149401300Y-104926742D01*
X149489540Y-104811746D01*
X149545009Y-104677830D01*
X149563929Y-104534121D01*
X149545009Y-104390412D01*
X149535456Y-104367350D01*
X149528400Y-104339503D01*
X149527998Y-104339586D01*
X149526778Y-104333628D01*
X149526777Y-104333619D01*
X149391722Y-103897238D01*
X149386179Y-103860578D01*
X149386179Y-99785424D01*
X149386179Y-99785422D01*
X149360453Y-99689412D01*
X149331898Y-99639954D01*
X149315426Y-99572055D01*
X149338279Y-99506028D01*
X149393200Y-99462837D01*
X149462753Y-99456196D01*
X149524856Y-99488212D01*
X149526967Y-99490274D01*
X150960460Y-100923767D01*
X150993945Y-100985090D01*
X150996779Y-101011448D01*
X150996779Y-112764777D01*
X150991236Y-112801438D01*
X150856178Y-113237824D01*
X150855905Y-113239956D01*
X150847479Y-113271603D01*
X150837949Y-113294611D01*
X150837949Y-113294612D01*
X150824784Y-113394612D01*
X150819029Y-113438321D01*
X150832194Y-113538321D01*
X150837949Y-113582029D01*
X150837950Y-113582033D01*
X150893416Y-113715943D01*
X150893417Y-113715945D01*
X150893418Y-113715946D01*
X150981658Y-113830942D01*
X151096654Y-113919182D01*
X151096655Y-113919182D01*
X151096656Y-113919183D01*
X151141292Y-113937671D01*
X151230570Y-113974651D01*
X151357559Y-113991369D01*
X151374278Y-113993571D01*
X151374279Y-113993571D01*
X151374280Y-113993571D01*
X151389256Y-113991599D01*
X151517988Y-113974651D01*
X151651904Y-113919182D01*
X151766900Y-113830942D01*
X151855140Y-113715946D01*
X151910609Y-113582030D01*
X151929529Y-113438321D01*
X151923774Y-113394612D01*
X151910609Y-113294613D01*
X151910609Y-113294612D01*
X151901056Y-113271550D01*
X151894000Y-113243703D01*
X151893598Y-113243786D01*
X151892378Y-113237828D01*
X151892377Y-113237819D01*
X151757322Y-112801438D01*
X151751779Y-112764778D01*
X151751779Y-100754024D01*
X151751778Y-100754020D01*
X151731560Y-100678561D01*
X151726054Y-100658015D01*
X151726053Y-100658011D01*
X151715982Y-100640567D01*
X151676359Y-100571937D01*
X151676353Y-100571929D01*
X148083124Y-96978700D01*
X144443392Y-93338969D01*
X144409908Y-93277647D01*
X144414892Y-93207955D01*
X144456764Y-93152022D01*
X144514887Y-93128350D01*
X144542988Y-93124651D01*
X144676904Y-93069182D01*
X144791900Y-92980942D01*
X144880140Y-92865946D01*
X144894048Y-92832368D01*
X144908534Y-92806599D01*
X144912829Y-92800731D01*
X145014806Y-92581450D01*
X145059489Y-92485368D01*
X145105607Y-92432881D01*
X145171925Y-92413657D01*
X145303333Y-92413657D01*
X145345864Y-92421179D01*
X145637455Y-92527651D01*
X145637456Y-92527651D01*
X145771203Y-92576487D01*
X145780167Y-92577981D01*
X145807221Y-92585729D01*
X145840433Y-92599487D01*
X145878138Y-92604451D01*
X145984141Y-92618407D01*
X145984142Y-92618407D01*
X145984143Y-92618407D01*
X145999119Y-92616435D01*
X146127851Y-92599487D01*
X146261767Y-92544018D01*
X146376763Y-92455778D01*
X146465003Y-92340782D01*
X146520472Y-92206866D01*
X146539392Y-92063157D01*
X146528479Y-91980270D01*
X146539244Y-91911238D01*
X146585623Y-91858982D01*
X146652892Y-91840096D01*
X146719693Y-91860576D01*
X146739099Y-91876406D01*
X152360460Y-97497767D01*
X152393945Y-97559090D01*
X152396779Y-97585448D01*
X152396779Y-114776189D01*
X152377094Y-114843228D01*
X152324290Y-114888983D01*
X152272779Y-114900189D01*
X150446204Y-114900189D01*
X150409543Y-114894646D01*
X149973159Y-114759589D01*
X149973153Y-114759587D01*
X149971028Y-114759315D01*
X149939378Y-114750888D01*
X149916375Y-114741360D01*
X149916371Y-114741359D01*
X149844516Y-114731899D01*
X149772663Y-114722439D01*
X149772661Y-114722439D01*
X149628953Y-114741359D01*
X149628949Y-114741360D01*
X149495039Y-114796826D01*
X149380041Y-114885068D01*
X149291799Y-115000066D01*
X149236333Y-115133976D01*
X149236332Y-115133980D01*
X149217412Y-115277688D01*
X149217412Y-115277689D01*
X149236332Y-115421397D01*
X149236333Y-115421401D01*
X149291799Y-115555311D01*
X149291800Y-115555313D01*
X149291801Y-115555314D01*
X149380041Y-115670310D01*
X149495037Y-115758550D01*
X149628953Y-115814019D01*
X149755942Y-115830737D01*
X149772661Y-115832939D01*
X149772662Y-115832939D01*
X149772663Y-115832939D01*
X149789381Y-115830737D01*
X149916371Y-115814019D01*
X149939428Y-115804467D01*
X149967278Y-115797409D01*
X149967196Y-115797008D01*
X149973151Y-115795788D01*
X149973163Y-115795787D01*
X150409540Y-115660732D01*
X150446201Y-115655189D01*
X152724580Y-115655189D01*
X152823978Y-115655189D01*
X153021963Y-115655189D01*
X158805920Y-115655189D01*
X158872959Y-115674874D01*
X158893600Y-115691507D01*
X168142489Y-124940397D01*
X168142491Y-124940398D01*
X168142495Y-124940401D01*
X168183627Y-124964148D01*
X168228569Y-124990095D01*
X168324580Y-125015821D01*
X168324582Y-125015821D01*
X175323976Y-125015821D01*
X175323978Y-125015821D01*
X175419989Y-124990095D01*
X175506069Y-124940396D01*
X176945954Y-123500511D01*
X176995653Y-123414431D01*
X177021379Y-123318420D01*
X177021379Y-123219022D01*
X177021379Y-122705550D01*
X186695099Y-122705550D01*
X186695099Y-122928451D01*
X186695100Y-122928467D01*
X186724193Y-123149453D01*
X186724194Y-123149458D01*
X186724195Y-123149464D01*
X186774389Y-123336790D01*
X186781889Y-123364781D01*
X186781892Y-123364791D01*
X186838110Y-123500513D01*
X186867194Y-123570727D01*
X186978651Y-123763775D01*
X186978656Y-123763781D01*
X186978657Y-123763783D01*
X187114350Y-123940623D01*
X187114356Y-123940630D01*
X187271969Y-124098243D01*
X187271975Y-124098248D01*
X187448825Y-124233949D01*
X187641873Y-124345406D01*
X187847818Y-124430711D01*
X188063136Y-124488405D01*
X188284142Y-124517501D01*
X188284149Y-124517501D01*
X188507049Y-124517501D01*
X188507056Y-124517501D01*
X188728062Y-124488405D01*
X188943380Y-124430711D01*
X189149325Y-124345406D01*
X189342373Y-124233949D01*
X189519223Y-124098248D01*
X189676846Y-123940625D01*
X189812547Y-123763775D01*
X189924004Y-123570727D01*
X190009309Y-123364782D01*
X190067003Y-123149464D01*
X190096099Y-122928458D01*
X190096099Y-122705544D01*
X190067003Y-122484538D01*
X190009309Y-122269220D01*
X189924004Y-122063275D01*
X189812547Y-121870227D01*
X189676846Y-121693377D01*
X189676841Y-121693371D01*
X189519228Y-121535758D01*
X189519221Y-121535752D01*
X189342381Y-121400059D01*
X189342379Y-121400058D01*
X189342373Y-121400053D01*
X189149325Y-121288596D01*
X189149321Y-121288594D01*
X188943389Y-121203294D01*
X188943382Y-121203292D01*
X188943380Y-121203291D01*
X188728062Y-121145597D01*
X188728056Y-121145596D01*
X188728051Y-121145595D01*
X188507065Y-121116502D01*
X188507062Y-121116501D01*
X188507056Y-121116501D01*
X188284142Y-121116501D01*
X188284136Y-121116501D01*
X188284132Y-121116502D01*
X188063146Y-121145595D01*
X188063139Y-121145596D01*
X188063136Y-121145597D01*
X187858719Y-121200370D01*
X187847818Y-121203291D01*
X187847808Y-121203294D01*
X187641876Y-121288594D01*
X187641872Y-121288596D01*
X187448825Y-121400053D01*
X187448816Y-121400059D01*
X187271976Y-121535752D01*
X187271969Y-121535758D01*
X187114356Y-121693371D01*
X187114350Y-121693378D01*
X186978657Y-121870218D01*
X186978651Y-121870227D01*
X186867194Y-122063274D01*
X186867192Y-122063278D01*
X186781892Y-122269210D01*
X186781889Y-122269220D01*
X186737014Y-122436699D01*
X186724196Y-122484535D01*
X186724193Y-122484548D01*
X186695100Y-122705534D01*
X186695099Y-122705550D01*
X177021379Y-122705550D01*
X177021379Y-119078350D01*
X177028920Y-119035767D01*
X177038637Y-119009192D01*
X177182564Y-118615571D01*
X177184069Y-118606557D01*
X177191812Y-118579537D01*
X177205609Y-118546230D01*
X177224529Y-118402521D01*
X177205609Y-118258812D01*
X177150140Y-118124896D01*
X177061900Y-118009900D01*
X176946904Y-117921660D01*
X176946903Y-117921659D01*
X176946901Y-117921658D01*
X176812991Y-117866192D01*
X176812989Y-117866191D01*
X176812988Y-117866191D01*
X176741133Y-117856731D01*
X176669280Y-117847271D01*
X176669278Y-117847271D01*
X176525570Y-117866191D01*
X176525566Y-117866192D01*
X176391656Y-117921658D01*
X176276658Y-118009900D01*
X176188416Y-118124898D01*
X176132950Y-118258808D01*
X176132949Y-118258812D01*
X176114029Y-118402520D01*
X176114029Y-118402521D01*
X176132949Y-118546231D01*
X176139117Y-118561123D01*
X176147045Y-118589288D01*
X176147377Y-118591399D01*
X176214813Y-118850920D01*
X176255939Y-119009191D01*
X176262393Y-119034026D01*
X176266379Y-119065212D01*
X176266379Y-123060994D01*
X176246694Y-123128033D01*
X176230060Y-123148675D01*
X175154233Y-124224502D01*
X175092910Y-124257987D01*
X175066552Y-124260821D01*
X168582007Y-124260821D01*
X168514968Y-124241136D01*
X168494326Y-124224502D01*
X163853844Y-119584021D01*
X167185529Y-119584021D01*
X167203143Y-119717813D01*
X167204449Y-119727729D01*
X167204450Y-119727733D01*
X167259916Y-119861643D01*
X167259917Y-119861645D01*
X167259918Y-119861646D01*
X167348158Y-119976642D01*
X167463154Y-120064882D01*
X167597070Y-120120351D01*
X167724059Y-120137069D01*
X167740778Y-120139271D01*
X167740779Y-120139271D01*
X167740780Y-120139271D01*
X167755756Y-120137299D01*
X167884488Y-120120351D01*
X168018404Y-120064882D01*
X168133400Y-119976642D01*
X168221640Y-119861646D01*
X168277109Y-119727730D01*
X168296029Y-119584021D01*
X168277109Y-119440312D01*
X168221640Y-119306396D01*
X168133400Y-119191400D01*
X168018404Y-119103160D01*
X168018403Y-119103159D01*
X168018401Y-119103158D01*
X167884491Y-119047692D01*
X167884489Y-119047691D01*
X167884488Y-119047691D01*
X167780694Y-119034026D01*
X167740780Y-119028771D01*
X167740778Y-119028771D01*
X167597070Y-119047691D01*
X167597066Y-119047692D01*
X167463156Y-119103158D01*
X167348158Y-119191400D01*
X167259916Y-119306398D01*
X167204450Y-119440308D01*
X167204449Y-119440312D01*
X167186835Y-119574104D01*
X167185529Y-119584021D01*
X163853844Y-119584021D01*
X159245439Y-114975616D01*
X159245437Y-114975614D01*
X159159357Y-114925915D01*
X159063346Y-114900189D01*
X159063345Y-114900189D01*
X153275779Y-114900189D01*
X153208740Y-114880504D01*
X153162985Y-114827700D01*
X153151779Y-114776189D01*
X153151779Y-114186172D01*
X153171464Y-114119133D01*
X153224268Y-114073378D01*
X153293426Y-114063434D01*
X153323226Y-114071609D01*
X153330570Y-114074651D01*
X153383284Y-114081591D01*
X153474278Y-114093571D01*
X153474279Y-114093571D01*
X153474280Y-114093571D01*
X153489256Y-114091599D01*
X153617988Y-114074651D01*
X153751904Y-114019182D01*
X153866900Y-113930942D01*
X153955140Y-113815946D01*
X154010609Y-113682030D01*
X154029529Y-113538321D01*
X154010609Y-113394612D01*
X153966730Y-113288677D01*
X153959261Y-113219208D01*
X153990536Y-113156729D01*
X154033836Y-113126665D01*
X154051904Y-113119182D01*
X154166900Y-113030942D01*
X154255140Y-112915946D01*
X154310609Y-112782030D01*
X154329529Y-112638321D01*
X154310609Y-112494612D01*
X154255140Y-112360696D01*
X154166900Y-112245700D01*
X154051904Y-112157460D01*
X154051903Y-112157459D01*
X154051901Y-112157458D01*
X153917991Y-112101992D01*
X153917989Y-112101991D01*
X153917988Y-112101991D01*
X153846133Y-112092531D01*
X153774280Y-112083071D01*
X153774278Y-112083071D01*
X153630570Y-112101991D01*
X153630566Y-112101992D01*
X153496656Y-112157458D01*
X153381657Y-112245701D01*
X153374154Y-112255480D01*
X153317725Y-112296682D01*
X153247979Y-112300836D01*
X153187059Y-112266622D01*
X153154307Y-112204905D01*
X153151779Y-112179992D01*
X153151779Y-110757120D01*
X164074429Y-110757120D01*
X164074429Y-110757121D01*
X164093349Y-110900829D01*
X164093350Y-110900833D01*
X164148816Y-111034743D01*
X164148817Y-111034745D01*
X164148818Y-111034746D01*
X164237058Y-111149742D01*
X164352054Y-111237982D01*
X164352055Y-111237982D01*
X164352056Y-111237983D01*
X164385194Y-111251709D01*
X164485970Y-111293451D01*
X164612959Y-111310169D01*
X164629678Y-111312371D01*
X164629679Y-111312371D01*
X164629680Y-111312371D01*
X164644656Y-111310399D01*
X164773388Y-111293451D01*
X164907304Y-111237982D01*
X165022300Y-111149742D01*
X165110540Y-111034746D01*
X165166009Y-110900830D01*
X165181585Y-110782520D01*
X165573029Y-110782520D01*
X165573029Y-110782521D01*
X165591949Y-110926229D01*
X165591950Y-110926233D01*
X165647416Y-111060143D01*
X165647417Y-111060144D01*
X165647418Y-111060146D01*
X165735658Y-111175142D01*
X165850654Y-111263382D01*
X165984570Y-111318851D01*
X166111559Y-111335569D01*
X166128278Y-111337771D01*
X166128279Y-111337771D01*
X166128280Y-111337771D01*
X166143256Y-111335799D01*
X166271988Y-111318851D01*
X166405904Y-111263382D01*
X166520900Y-111175142D01*
X166609140Y-111060146D01*
X166664609Y-110926230D01*
X166683529Y-110782521D01*
X166683529Y-110782520D01*
X167122429Y-110782520D01*
X167122429Y-110782521D01*
X167141349Y-110926229D01*
X167141350Y-110926233D01*
X167196817Y-111060144D01*
X167196818Y-111060146D01*
X167227963Y-111100735D01*
X167253157Y-111165904D01*
X167239119Y-111234349D01*
X167227963Y-111251707D01*
X167196818Y-111292295D01*
X167196817Y-111292297D01*
X167141350Y-111426208D01*
X167141349Y-111426212D01*
X167122429Y-111569920D01*
X167122429Y-111569921D01*
X167141349Y-111713629D01*
X167141350Y-111713633D01*
X167196816Y-111847543D01*
X167196817Y-111847545D01*
X167196818Y-111847546D01*
X167285058Y-111962542D01*
X167400054Y-112050782D01*
X167533970Y-112106251D01*
X167660959Y-112122969D01*
X167677678Y-112125171D01*
X167677679Y-112125171D01*
X167677680Y-112125171D01*
X167692656Y-112123199D01*
X167821388Y-112106251D01*
X167955304Y-112050782D01*
X168070300Y-111962542D01*
X168158540Y-111847546D01*
X168214009Y-111713630D01*
X168232929Y-111569921D01*
X168214009Y-111426212D01*
X168169539Y-111318850D01*
X168158541Y-111292298D01*
X168158540Y-111292297D01*
X168158540Y-111292296D01*
X168127393Y-111251705D01*
X168102200Y-111186540D01*
X168116238Y-111118095D01*
X168127388Y-111100743D01*
X168158540Y-111060146D01*
X168214009Y-110926230D01*
X168232929Y-110782521D01*
X168214009Y-110638812D01*
X168158540Y-110504896D01*
X168070300Y-110389900D01*
X167955304Y-110301660D01*
X167955303Y-110301659D01*
X167955301Y-110301658D01*
X167821391Y-110246192D01*
X167821389Y-110246191D01*
X167821388Y-110246191D01*
X167749533Y-110236731D01*
X167677680Y-110227271D01*
X167677678Y-110227271D01*
X167533970Y-110246191D01*
X167533966Y-110246192D01*
X167400056Y-110301658D01*
X167285058Y-110389900D01*
X167196816Y-110504898D01*
X167141350Y-110638808D01*
X167141349Y-110638812D01*
X167122429Y-110782520D01*
X166683529Y-110782520D01*
X166664609Y-110638812D01*
X166609140Y-110504896D01*
X166520900Y-110389900D01*
X166405904Y-110301660D01*
X166405903Y-110301659D01*
X166405901Y-110301658D01*
X166271991Y-110246192D01*
X166271989Y-110246191D01*
X166271988Y-110246191D01*
X166200133Y-110236731D01*
X166128280Y-110227271D01*
X166128278Y-110227271D01*
X165984570Y-110246191D01*
X165984566Y-110246192D01*
X165850656Y-110301658D01*
X165735658Y-110389900D01*
X165647416Y-110504898D01*
X165591950Y-110638808D01*
X165591949Y-110638812D01*
X165573029Y-110782520D01*
X165181585Y-110782520D01*
X165184929Y-110757121D01*
X165166009Y-110613412D01*
X165110540Y-110479496D01*
X165022300Y-110364500D01*
X164907304Y-110276260D01*
X164907303Y-110276259D01*
X164907301Y-110276258D01*
X164773391Y-110220792D01*
X164773389Y-110220791D01*
X164773388Y-110220791D01*
X164701533Y-110211331D01*
X164629680Y-110201871D01*
X164629678Y-110201871D01*
X164485970Y-110220791D01*
X164485966Y-110220792D01*
X164352056Y-110276258D01*
X164237058Y-110364500D01*
X164148816Y-110479498D01*
X164093350Y-110613408D01*
X164093349Y-110613412D01*
X164074429Y-110757120D01*
X153151779Y-110757120D01*
X153151779Y-107272148D01*
X170370099Y-107272148D01*
X170370099Y-122361858D01*
X170372298Y-122372913D01*
X170374681Y-122397104D01*
X170374681Y-122436699D01*
X170412131Y-122673151D01*
X170412131Y-122673154D01*
X170486107Y-122900828D01*
X170500190Y-122928467D01*
X170594793Y-123114136D01*
X170735508Y-123307813D01*
X170904787Y-123477092D01*
X171098464Y-123617807D01*
X171311769Y-123726491D01*
X171311771Y-123726492D01*
X171539446Y-123800468D01*
X171539447Y-123800468D01*
X171539450Y-123800469D01*
X171775900Y-123837919D01*
X171775901Y-123837919D01*
X172015297Y-123837919D01*
X172015298Y-123837919D01*
X172251748Y-123800469D01*
X172251751Y-123800468D01*
X172251752Y-123800468D01*
X172479426Y-123726492D01*
X172479426Y-123726491D01*
X172479429Y-123726491D01*
X172692734Y-123617807D01*
X172886411Y-123477092D01*
X173055690Y-123307813D01*
X173196405Y-123114136D01*
X173305089Y-122900831D01*
X173379067Y-122673150D01*
X173416517Y-122436700D01*
X173416517Y-122397104D01*
X173418900Y-122372913D01*
X173421099Y-122361858D01*
X173421099Y-116573720D01*
X176291829Y-116573720D01*
X176291829Y-116573721D01*
X176310749Y-116717429D01*
X176310750Y-116717433D01*
X176366216Y-116851343D01*
X176366217Y-116851345D01*
X176366218Y-116851346D01*
X176454458Y-116966342D01*
X176569454Y-117054582D01*
X176578698Y-117058411D01*
X176592514Y-117064134D01*
X176617202Y-117078834D01*
X176617427Y-117078495D01*
X176622499Y-117081843D01*
X176622504Y-117081847D01*
X176622508Y-117081849D01*
X177026568Y-117294914D01*
X177056410Y-117316917D01*
X180145888Y-120406396D01*
X180145889Y-120406397D01*
X180145891Y-120406398D01*
X180195584Y-120435087D01*
X180195586Y-120435089D01*
X180195587Y-120435089D01*
X180231970Y-120456095D01*
X180327980Y-120481821D01*
X180327983Y-120481821D01*
X187476351Y-120481821D01*
X187476353Y-120481821D01*
X187572364Y-120456095D01*
X187658444Y-120406396D01*
X187942320Y-120122518D01*
X188003639Y-120089036D01*
X188073331Y-120094020D01*
X188077434Y-120095635D01*
X188113162Y-120110434D01*
X188240151Y-120127152D01*
X188256870Y-120129354D01*
X188256871Y-120129354D01*
X188256872Y-120129354D01*
X188271848Y-120127382D01*
X188400580Y-120110434D01*
X188534496Y-120054965D01*
X188649492Y-119966725D01*
X188737732Y-119851729D01*
X188793201Y-119717813D01*
X188812121Y-119574104D01*
X188793201Y-119430395D01*
X188737732Y-119296479D01*
X188649492Y-119181483D01*
X188649490Y-119181482D01*
X188649490Y-119181481D01*
X188648208Y-119180498D01*
X188647219Y-119179209D01*
X188643742Y-119175732D01*
X188644199Y-119175274D01*
X188613346Y-119135065D01*
X188612709Y-119135434D01*
X188609911Y-119130588D01*
X188609133Y-119129574D01*
X188608647Y-119128404D01*
X188608645Y-119128394D01*
X188558946Y-119042314D01*
X188488661Y-118972029D01*
X188402581Y-118922330D01*
X188402578Y-118922328D01*
X188306573Y-118896605D01*
X188306570Y-118896605D01*
X188207172Y-118896605D01*
X188207168Y-118896605D01*
X188111163Y-118922328D01*
X188025082Y-118972028D01*
X187797792Y-119199317D01*
X187791073Y-119205556D01*
X187785459Y-119210394D01*
X187779897Y-119216682D01*
X187779570Y-119216393D01*
X187774297Y-119222811D01*
X187306608Y-119690502D01*
X187245285Y-119723987D01*
X187218927Y-119726821D01*
X180585407Y-119726821D01*
X180518368Y-119707136D01*
X180497726Y-119690502D01*
X177590276Y-116783053D01*
X177568272Y-116753210D01*
X177549406Y-116717433D01*
X177355205Y-116349146D01*
X177353894Y-116347449D01*
X177337470Y-116319104D01*
X177327940Y-116296096D01*
X177327937Y-116296092D01*
X177317809Y-116282893D01*
X177239700Y-116181100D01*
X177124704Y-116092860D01*
X177124703Y-116092859D01*
X177124701Y-116092858D01*
X176990791Y-116037392D01*
X176990789Y-116037391D01*
X176990788Y-116037391D01*
X176918933Y-116027931D01*
X176847080Y-116018471D01*
X176847078Y-116018471D01*
X176703370Y-116037391D01*
X176703366Y-116037392D01*
X176569456Y-116092858D01*
X176454458Y-116181100D01*
X176366216Y-116296098D01*
X176310750Y-116430008D01*
X176310749Y-116430012D01*
X176291829Y-116573720D01*
X173421099Y-116573720D01*
X173421099Y-112408121D01*
X177866629Y-112408121D01*
X177878015Y-112494608D01*
X177885549Y-112551829D01*
X177885550Y-112551833D01*
X177941016Y-112685743D01*
X177941017Y-112685745D01*
X177941018Y-112685746D01*
X178029258Y-112800742D01*
X178084054Y-112842789D01*
X178117621Y-112868546D01*
X178158823Y-112924974D01*
X178162978Y-112994720D01*
X178128765Y-113055640D01*
X178117621Y-113065296D01*
X178029260Y-113133098D01*
X177941016Y-113248098D01*
X177885550Y-113382008D01*
X177885549Y-113382012D01*
X177866629Y-113525720D01*
X177866629Y-113525721D01*
X177885549Y-113669429D01*
X177885550Y-113669433D01*
X177941016Y-113803343D01*
X177941017Y-113803345D01*
X177941018Y-113803346D01*
X178029258Y-113918342D01*
X178045679Y-113930942D01*
X178101070Y-113973446D01*
X178142272Y-114029874D01*
X178146427Y-114099620D01*
X178112214Y-114160540D01*
X178101070Y-114170196D01*
X178029260Y-114225298D01*
X177941016Y-114340298D01*
X177885550Y-114474208D01*
X177885549Y-114474212D01*
X177866629Y-114617921D01*
X177885280Y-114759590D01*
X177885549Y-114761629D01*
X177885550Y-114761633D01*
X177941016Y-114895543D01*
X177941017Y-114895545D01*
X177941018Y-114895546D01*
X178029258Y-115010542D01*
X178144254Y-115098782D01*
X178278170Y-115154251D01*
X178405159Y-115170969D01*
X178421878Y-115173171D01*
X178421879Y-115173171D01*
X178421880Y-115173171D01*
X178436856Y-115171199D01*
X178565588Y-115154251D01*
X178699504Y-115098782D01*
X178814500Y-115010542D01*
X178902740Y-114895546D01*
X178958209Y-114761630D01*
X178977129Y-114617921D01*
X178958209Y-114474212D01*
X178902740Y-114340296D01*
X178814500Y-114225300D01*
X178814498Y-114225299D01*
X178814498Y-114225298D01*
X178782423Y-114200686D01*
X178742687Y-114170195D01*
X178701485Y-114113769D01*
X178697330Y-114044023D01*
X178731542Y-113983103D01*
X178742687Y-113973446D01*
X178814500Y-113918342D01*
X178902740Y-113803346D01*
X178958209Y-113669430D01*
X178977129Y-113525721D01*
X178958209Y-113382012D01*
X178907959Y-113260696D01*
X178902741Y-113248098D01*
X178902740Y-113248097D01*
X178902740Y-113248096D01*
X178814500Y-113133100D01*
X178814498Y-113133099D01*
X178814498Y-113133098D01*
X178760798Y-113091893D01*
X178726135Y-113065295D01*
X178684934Y-113008869D01*
X178680779Y-112939123D01*
X178714991Y-112878203D01*
X178726130Y-112868550D01*
X178814500Y-112800742D01*
X178902740Y-112685746D01*
X178958209Y-112551830D01*
X178977129Y-112408121D01*
X179797029Y-112408121D01*
X179808415Y-112494608D01*
X179815949Y-112551829D01*
X179815950Y-112551833D01*
X179871416Y-112685743D01*
X179871417Y-112685745D01*
X179871418Y-112685746D01*
X179959658Y-112800742D01*
X180074654Y-112888982D01*
X180208570Y-112944451D01*
X180335559Y-112961169D01*
X180352278Y-112963371D01*
X180352279Y-112963371D01*
X180352280Y-112963371D01*
X180367256Y-112961399D01*
X180495988Y-112944451D01*
X180629904Y-112888982D01*
X180744900Y-112800742D01*
X180833140Y-112685746D01*
X180888609Y-112551830D01*
X180907529Y-112408121D01*
X180888609Y-112264412D01*
X180833140Y-112130496D01*
X180744900Y-112015500D01*
X180629904Y-111927260D01*
X180629903Y-111927259D01*
X180629901Y-111927258D01*
X180495991Y-111871792D01*
X180495989Y-111871791D01*
X180495988Y-111871791D01*
X180424133Y-111862331D01*
X180352280Y-111852871D01*
X180352278Y-111852871D01*
X180208570Y-111871791D01*
X180208566Y-111871792D01*
X180074656Y-111927258D01*
X179959658Y-112015500D01*
X179871416Y-112130498D01*
X179815950Y-112264408D01*
X179815949Y-112264412D01*
X179801289Y-112375767D01*
X179797029Y-112408121D01*
X178977129Y-112408121D01*
X178958209Y-112264412D01*
X178902740Y-112130496D01*
X178814500Y-112015500D01*
X178699504Y-111927260D01*
X178699503Y-111927259D01*
X178699501Y-111927258D01*
X178565591Y-111871792D01*
X178565589Y-111871791D01*
X178565588Y-111871791D01*
X178493733Y-111862331D01*
X178421880Y-111852871D01*
X178421878Y-111852871D01*
X178278170Y-111871791D01*
X178278166Y-111871792D01*
X178144256Y-111927258D01*
X178029258Y-112015500D01*
X177941016Y-112130498D01*
X177885550Y-112264408D01*
X177885549Y-112264412D01*
X177870889Y-112375767D01*
X177866629Y-112408121D01*
X173421099Y-112408121D01*
X173421099Y-107272148D01*
X173419011Y-107261651D01*
X173416629Y-107237461D01*
X173416629Y-107197293D01*
X173391929Y-107041345D01*
X173379176Y-106960826D01*
X173305192Y-106733128D01*
X173196500Y-106519808D01*
X173055775Y-106326117D01*
X172886483Y-106156825D01*
X172692792Y-106016100D01*
X172479472Y-105907408D01*
X172251774Y-105833424D01*
X172251772Y-105833423D01*
X172251770Y-105833423D01*
X172086665Y-105807273D01*
X172015307Y-105795971D01*
X171775891Y-105795971D01*
X171721074Y-105804653D01*
X171539427Y-105833423D01*
X171539424Y-105833424D01*
X171362785Y-105890818D01*
X171311723Y-105907409D01*
X171098405Y-106016100D01*
X170987898Y-106096388D01*
X170904715Y-106156825D01*
X170904713Y-106156827D01*
X170904712Y-106156827D01*
X170735425Y-106326114D01*
X170735425Y-106326115D01*
X170735423Y-106326117D01*
X170674986Y-106409300D01*
X170594698Y-106519807D01*
X170486007Y-106733125D01*
X170412021Y-106960829D01*
X170374569Y-107197293D01*
X170374569Y-107237461D01*
X170372187Y-107261651D01*
X170370099Y-107272148D01*
X153151779Y-107272148D01*
X153151779Y-105372720D01*
X155171029Y-105372720D01*
X155171029Y-105372721D01*
X155189949Y-105516429D01*
X155189950Y-105516433D01*
X155245416Y-105650343D01*
X155245417Y-105650345D01*
X155245418Y-105650346D01*
X155333658Y-105765342D01*
X155448654Y-105853582D01*
X155582570Y-105909051D01*
X155709559Y-105925769D01*
X155726278Y-105927971D01*
X155726279Y-105927971D01*
X155726280Y-105927971D01*
X155742998Y-105925769D01*
X155869988Y-105909051D01*
X155893045Y-105899499D01*
X155920895Y-105892441D01*
X155920813Y-105892040D01*
X155926768Y-105890820D01*
X155926780Y-105890819D01*
X156363157Y-105755764D01*
X156399818Y-105750221D01*
X161453176Y-105750221D01*
X161453178Y-105750221D01*
X161549189Y-105724495D01*
X161635269Y-105674796D01*
X166076355Y-101233711D01*
X166126053Y-101147631D01*
X166151779Y-101051620D01*
X166151779Y-100952222D01*
X166151779Y-100815912D01*
X166157322Y-100779251D01*
X166162455Y-100762665D01*
X166292377Y-100342872D01*
X166292648Y-100340756D01*
X166301078Y-100309087D01*
X166310609Y-100286080D01*
X166329529Y-100142371D01*
X166310609Y-99998662D01*
X166255140Y-99864746D01*
X166166900Y-99749750D01*
X166051904Y-99661510D01*
X166051903Y-99661509D01*
X166051901Y-99661508D01*
X165917991Y-99606042D01*
X165917989Y-99606041D01*
X165917988Y-99606041D01*
X165846133Y-99596581D01*
X165774280Y-99587121D01*
X165774278Y-99587121D01*
X165630570Y-99606041D01*
X165630566Y-99606042D01*
X165496656Y-99661508D01*
X165381658Y-99749750D01*
X165293416Y-99864748D01*
X165237950Y-99998658D01*
X165237949Y-99998662D01*
X165219029Y-100142370D01*
X165219029Y-100142371D01*
X165237949Y-100286079D01*
X165237949Y-100286080D01*
X165247500Y-100309140D01*
X165254559Y-100336983D01*
X165254957Y-100336902D01*
X165256177Y-100342863D01*
X165386102Y-100762665D01*
X165387117Y-100832527D01*
X165355326Y-100887007D01*
X161283433Y-104958902D01*
X161222110Y-104992387D01*
X161195752Y-104995221D01*
X156399821Y-104995221D01*
X156363160Y-104989678D01*
X155926776Y-104854621D01*
X155926770Y-104854619D01*
X155924645Y-104854347D01*
X155892995Y-104845920D01*
X155869992Y-104836392D01*
X155869988Y-104836391D01*
X155798133Y-104826931D01*
X155726280Y-104817471D01*
X155726278Y-104817471D01*
X155582570Y-104836391D01*
X155582566Y-104836392D01*
X155448656Y-104891858D01*
X155333658Y-104980100D01*
X155245416Y-105095098D01*
X155189950Y-105229008D01*
X155189949Y-105229012D01*
X155171029Y-105372720D01*
X153151779Y-105372720D01*
X153151779Y-97328024D01*
X153151779Y-97328022D01*
X153126053Y-97232012D01*
X153076354Y-97145931D01*
X153006069Y-97075646D01*
X148831343Y-92900920D01*
X157292629Y-92900920D01*
X157292629Y-92900921D01*
X157311549Y-93044629D01*
X157311550Y-93044633D01*
X157367016Y-93178543D01*
X157367017Y-93178545D01*
X157367018Y-93178546D01*
X157455258Y-93293542D01*
X157570254Y-93381782D01*
X157704170Y-93437251D01*
X157831159Y-93453969D01*
X157847878Y-93456171D01*
X157847879Y-93456171D01*
X157847880Y-93456171D01*
X157862856Y-93454199D01*
X157991588Y-93437251D01*
X158125504Y-93381782D01*
X158240500Y-93293542D01*
X158328740Y-93178546D01*
X158384209Y-93044630D01*
X158403129Y-92900921D01*
X158384209Y-92757212D01*
X158347229Y-92667934D01*
X158328741Y-92623298D01*
X158328740Y-92623297D01*
X158328740Y-92623296D01*
X158240500Y-92508300D01*
X158125504Y-92420060D01*
X158125503Y-92420059D01*
X158125501Y-92420058D01*
X157991591Y-92364592D01*
X157991589Y-92364591D01*
X157991588Y-92364591D01*
X157919733Y-92355131D01*
X157847880Y-92345671D01*
X157847878Y-92345671D01*
X157704170Y-92364591D01*
X157704166Y-92364592D01*
X157570256Y-92420058D01*
X157455258Y-92508300D01*
X157367016Y-92623298D01*
X157311550Y-92757208D01*
X157311549Y-92757212D01*
X157292629Y-92900920D01*
X148831343Y-92900920D01*
X144730910Y-88800487D01*
X144697425Y-88739164D01*
X144702409Y-88669472D01*
X144744281Y-88613539D01*
X144802402Y-88589868D01*
X144917988Y-88574651D01*
X145051904Y-88519182D01*
X145166900Y-88430942D01*
X145255140Y-88315946D01*
X145264694Y-88292878D01*
X145279392Y-88268202D01*
X145279051Y-88267977D01*
X145282402Y-88262899D01*
X145282402Y-88262898D01*
X145282405Y-88262895D01*
X145495473Y-87858827D01*
X145517472Y-87828991D01*
X145682142Y-87664321D01*
X148660575Y-87664321D01*
X148670317Y-87738321D01*
X148679495Y-87808029D01*
X148679496Y-87808033D01*
X148734962Y-87941943D01*
X148734963Y-87941945D01*
X148734964Y-87941946D01*
X148823204Y-88056942D01*
X148938200Y-88145182D01*
X149072116Y-88200651D01*
X149199105Y-88217369D01*
X149215824Y-88219571D01*
X149215825Y-88219571D01*
X149215826Y-88219571D01*
X149230802Y-88217599D01*
X149359534Y-88200651D01*
X149493450Y-88145182D01*
X149608446Y-88056942D01*
X149696686Y-87941946D01*
X149752155Y-87808030D01*
X149761333Y-87738320D01*
X153819029Y-87738320D01*
X153819029Y-87738321D01*
X153837949Y-87882029D01*
X153837950Y-87882033D01*
X153893416Y-88015943D01*
X153893417Y-88015945D01*
X153893418Y-88015946D01*
X153981658Y-88130942D01*
X154096654Y-88219182D01*
X154230570Y-88274651D01*
X154357559Y-88291369D01*
X154374278Y-88293571D01*
X154374279Y-88293571D01*
X154374280Y-88293571D01*
X154390998Y-88291369D01*
X154517988Y-88274651D01*
X154541045Y-88265099D01*
X154568895Y-88258041D01*
X154568813Y-88257640D01*
X154574768Y-88256420D01*
X154574780Y-88256419D01*
X155011157Y-88121364D01*
X155047818Y-88115821D01*
X155066552Y-88115821D01*
X155133591Y-88135506D01*
X155154233Y-88152140D01*
X167644860Y-100642767D01*
X167678345Y-100704090D01*
X167681179Y-100730448D01*
X167681179Y-102260377D01*
X167675636Y-102297038D01*
X167540578Y-102733424D01*
X167540305Y-102735556D01*
X167531879Y-102767203D01*
X167522349Y-102790211D01*
X167522349Y-102790212D01*
X167503429Y-102933920D01*
X167503429Y-102933921D01*
X167522349Y-103077629D01*
X167522350Y-103077633D01*
X167577816Y-103211543D01*
X167577817Y-103211545D01*
X167577818Y-103211546D01*
X167666058Y-103326542D01*
X167781054Y-103414782D01*
X167914970Y-103470251D01*
X168041959Y-103486969D01*
X168058678Y-103489171D01*
X168058679Y-103489171D01*
X168058680Y-103489171D01*
X168073656Y-103487199D01*
X168202388Y-103470251D01*
X168336304Y-103414782D01*
X168396095Y-103368902D01*
X168461260Y-103343709D01*
X168529705Y-103357747D01*
X168579696Y-103406560D01*
X168595579Y-103467279D01*
X168595579Y-103885977D01*
X168590036Y-103922638D01*
X168454978Y-104359024D01*
X168454705Y-104361156D01*
X168446279Y-104392803D01*
X168436749Y-104415811D01*
X168436749Y-104415812D01*
X168417829Y-104559520D01*
X168417829Y-104559521D01*
X168436749Y-104703229D01*
X168436750Y-104703233D01*
X168492216Y-104837143D01*
X168492217Y-104837145D01*
X168492218Y-104837146D01*
X168580458Y-104952142D01*
X168695454Y-105040382D01*
X168829370Y-105095851D01*
X168956359Y-105112569D01*
X168973078Y-105114771D01*
X168973079Y-105114771D01*
X168973080Y-105114771D01*
X168988056Y-105112799D01*
X169116788Y-105095851D01*
X169250704Y-105040382D01*
X169365700Y-104952142D01*
X169453940Y-104837146D01*
X169509409Y-104703230D01*
X169528329Y-104559521D01*
X169520541Y-104500370D01*
X169509409Y-104415813D01*
X169509409Y-104415812D01*
X169499856Y-104392750D01*
X169492800Y-104364903D01*
X169492398Y-104364986D01*
X169491178Y-104359028D01*
X169491177Y-104359019D01*
X169356122Y-103922638D01*
X169350579Y-103885978D01*
X169350579Y-100176024D01*
X169350579Y-100176022D01*
X169324853Y-100080012D01*
X169324853Y-100080011D01*
X169324853Y-100080010D01*
X169275157Y-99993934D01*
X169275153Y-99993929D01*
X167382874Y-98101650D01*
X165042675Y-95761452D01*
X165020672Y-95731610D01*
X164807605Y-95327546D01*
X164806295Y-95325850D01*
X164789870Y-95297504D01*
X164780340Y-95274496D01*
X164780337Y-95274492D01*
X164770209Y-95261293D01*
X164692100Y-95159500D01*
X164577104Y-95071260D01*
X164577103Y-95071259D01*
X164577101Y-95071258D01*
X164443191Y-95015792D01*
X164443189Y-95015791D01*
X164443188Y-95015791D01*
X164371333Y-95006331D01*
X164299480Y-94996871D01*
X164299478Y-94996871D01*
X164155770Y-95015791D01*
X164155766Y-95015792D01*
X164021856Y-95071258D01*
X163906858Y-95159500D01*
X163818616Y-95274498D01*
X163763150Y-95408408D01*
X163763147Y-95408417D01*
X163762822Y-95410892D01*
X163761967Y-95412823D01*
X163761046Y-95416262D01*
X163760509Y-95416118D01*
X163734551Y-95474787D01*
X163676224Y-95513254D01*
X163606360Y-95514081D01*
X163552203Y-95482380D01*
X160973444Y-92903621D01*
X162098380Y-92903621D01*
X162116944Y-93044629D01*
X162117300Y-93047329D01*
X162117301Y-93047333D01*
X162172767Y-93181243D01*
X162172768Y-93181245D01*
X162172769Y-93181246D01*
X162261009Y-93296242D01*
X162376005Y-93384482D01*
X162509921Y-93439951D01*
X162633122Y-93456171D01*
X162653629Y-93458871D01*
X162653630Y-93458871D01*
X162653631Y-93458871D01*
X162674138Y-93456171D01*
X162797339Y-93439951D01*
X162931255Y-93384482D01*
X163046251Y-93296242D01*
X163134491Y-93181246D01*
X163148399Y-93147667D01*
X163162893Y-93121890D01*
X163167177Y-93116035D01*
X163167176Y-93116035D01*
X163167180Y-93116031D01*
X163358121Y-92705445D01*
X163382870Y-92670060D01*
X163597993Y-92454937D01*
X163659315Y-92421455D01*
X163685673Y-92418621D01*
X164736270Y-92418621D01*
X164778801Y-92426143D01*
X165070392Y-92532615D01*
X165070393Y-92532615D01*
X165204140Y-92581451D01*
X165213104Y-92582945D01*
X165240158Y-92590693D01*
X165273370Y-92604451D01*
X165345224Y-92613911D01*
X165417078Y-92623371D01*
X165417079Y-92623371D01*
X165417080Y-92623371D01*
X165432056Y-92621399D01*
X165560788Y-92604451D01*
X165694704Y-92548982D01*
X165809700Y-92460742D01*
X165897940Y-92345746D01*
X165953409Y-92211830D01*
X165972329Y-92068121D01*
X165971675Y-92063157D01*
X165961131Y-91983066D01*
X165953409Y-91924412D01*
X165897940Y-91790496D01*
X165809700Y-91675500D01*
X165694704Y-91587260D01*
X165694703Y-91587259D01*
X165694701Y-91587258D01*
X165560791Y-91531792D01*
X165560789Y-91531791D01*
X165560788Y-91531791D01*
X165488933Y-91522331D01*
X165417080Y-91512871D01*
X165417078Y-91512871D01*
X165273368Y-91531791D01*
X165239787Y-91545700D01*
X165211339Y-91553672D01*
X165204151Y-91554786D01*
X165204144Y-91554788D01*
X164778798Y-91710099D01*
X164736267Y-91717621D01*
X163442986Y-91717621D01*
X163353842Y-91741507D01*
X163353841Y-91741507D01*
X163353839Y-91741508D01*
X163353836Y-91741509D01*
X163273924Y-91787647D01*
X163273915Y-91787654D01*
X162887197Y-92174371D01*
X162851805Y-92199126D01*
X162441215Y-92390072D01*
X162441214Y-92390073D01*
X162433815Y-92395357D01*
X162409210Y-92409005D01*
X162376006Y-92422759D01*
X162261009Y-92511000D01*
X162172767Y-92625998D01*
X162117301Y-92759908D01*
X162117300Y-92759912D01*
X162098736Y-92900920D01*
X162098380Y-92903621D01*
X160973444Y-92903621D01*
X155506071Y-87436248D01*
X155506069Y-87436246D01*
X155419989Y-87386547D01*
X155323978Y-87360821D01*
X155323977Y-87360821D01*
X155047821Y-87360821D01*
X155011160Y-87355278D01*
X154574776Y-87220221D01*
X154574770Y-87220219D01*
X154572645Y-87219947D01*
X154540995Y-87211520D01*
X154517992Y-87201992D01*
X154517988Y-87201991D01*
X154410875Y-87187889D01*
X154374280Y-87183071D01*
X154374278Y-87183071D01*
X154230570Y-87201991D01*
X154230566Y-87201992D01*
X154096656Y-87257458D01*
X153981658Y-87345700D01*
X153893416Y-87460698D01*
X153837950Y-87594608D01*
X153837949Y-87594612D01*
X153819029Y-87738320D01*
X149761333Y-87738320D01*
X149771075Y-87664321D01*
X149752155Y-87520612D01*
X149709298Y-87417144D01*
X149696687Y-87386698D01*
X149696686Y-87386697D01*
X149696686Y-87386696D01*
X149608446Y-87271700D01*
X149493450Y-87183460D01*
X149493449Y-87183459D01*
X149493447Y-87183458D01*
X149359537Y-87127992D01*
X149359535Y-87127991D01*
X149359534Y-87127991D01*
X149287679Y-87118531D01*
X149215826Y-87109071D01*
X149215824Y-87109071D01*
X149072116Y-87127991D01*
X149072112Y-87127992D01*
X148938202Y-87183458D01*
X148823204Y-87271700D01*
X148734962Y-87386698D01*
X148679496Y-87520608D01*
X148679495Y-87520612D01*
X148663027Y-87645700D01*
X148660575Y-87664321D01*
X145682142Y-87664321D01*
X148536104Y-84810359D01*
X148597425Y-84776876D01*
X148667117Y-84781860D01*
X148723050Y-84823732D01*
X148740778Y-84867168D01*
X148743619Y-84866407D01*
X148745723Y-84874260D01*
X148801189Y-85008170D01*
X148801190Y-85008171D01*
X148801191Y-85008173D01*
X148889431Y-85123169D01*
X149004427Y-85211409D01*
X149115520Y-85257424D01*
X149169921Y-85301263D01*
X149191986Y-85367557D01*
X149174707Y-85435256D01*
X149123571Y-85482867D01*
X149084252Y-85494923D01*
X149030570Y-85501991D01*
X149030566Y-85501992D01*
X148896656Y-85557458D01*
X148781658Y-85645700D01*
X148693416Y-85760698D01*
X148637950Y-85894608D01*
X148637949Y-85894612D01*
X148620001Y-86030941D01*
X148619029Y-86038321D01*
X148636977Y-86174650D01*
X148637949Y-86182029D01*
X148637950Y-86182033D01*
X148693416Y-86315943D01*
X148693417Y-86315945D01*
X148693418Y-86315946D01*
X148781658Y-86430942D01*
X148896654Y-86519182D01*
X149030570Y-86574651D01*
X149157559Y-86591369D01*
X149174278Y-86593571D01*
X149174279Y-86593571D01*
X149174280Y-86593571D01*
X149189256Y-86591599D01*
X149317988Y-86574651D01*
X149451904Y-86519182D01*
X149566900Y-86430942D01*
X149655140Y-86315946D01*
X149710609Y-86182030D01*
X149729529Y-86038321D01*
X149710609Y-85894612D01*
X149658156Y-85767977D01*
X149655141Y-85760698D01*
X149655140Y-85760697D01*
X149655140Y-85760696D01*
X149566900Y-85645700D01*
X149451904Y-85557460D01*
X149451903Y-85557459D01*
X149451901Y-85557458D01*
X149340813Y-85511445D01*
X149286409Y-85467605D01*
X149264344Y-85401310D01*
X149281623Y-85333611D01*
X149332760Y-85286000D01*
X149372077Y-85273945D01*
X149425761Y-85266878D01*
X149559677Y-85211409D01*
X149654927Y-85138321D01*
X150015769Y-85138321D01*
X150022623Y-85190385D01*
X150034689Y-85282029D01*
X150034690Y-85282033D01*
X150090156Y-85415943D01*
X150090157Y-85415945D01*
X150090158Y-85415946D01*
X150178398Y-85530942D01*
X150293394Y-85619182D01*
X150427310Y-85674651D01*
X150554299Y-85691369D01*
X150571018Y-85693571D01*
X150571019Y-85693571D01*
X150571020Y-85693571D01*
X150587738Y-85691369D01*
X150714728Y-85674651D01*
X150737785Y-85665099D01*
X150765635Y-85658041D01*
X150765553Y-85657640D01*
X150771508Y-85656420D01*
X150771520Y-85656419D01*
X151207897Y-85521364D01*
X151244558Y-85515821D01*
X157272779Y-85515821D01*
X157339818Y-85535506D01*
X157385573Y-85588310D01*
X157396779Y-85639821D01*
X157396779Y-86900622D01*
X157396779Y-87000020D01*
X157422505Y-87096031D01*
X157472204Y-87182111D01*
X157960204Y-87670111D01*
X158030489Y-87740396D01*
X158116570Y-87790095D01*
X158212580Y-87815821D01*
X158757239Y-87815821D01*
X158793899Y-87821363D01*
X159230276Y-87956419D01*
X159232403Y-87956692D01*
X159264061Y-87965121D01*
X159287069Y-87974651D01*
X159404376Y-87990095D01*
X159430777Y-87993571D01*
X159430778Y-87993571D01*
X159430779Y-87993571D01*
X159457180Y-87990095D01*
X159574487Y-87974651D01*
X159708403Y-87919182D01*
X159823399Y-87830942D01*
X159911639Y-87715946D01*
X159967108Y-87582030D01*
X159986028Y-87438321D01*
X159967108Y-87294612D01*
X159911639Y-87160696D01*
X159823399Y-87045700D01*
X159708403Y-86957460D01*
X159708402Y-86957459D01*
X159708400Y-86957458D01*
X159574490Y-86901992D01*
X159574488Y-86901991D01*
X159574487Y-86901991D01*
X159502632Y-86892531D01*
X159430779Y-86883071D01*
X159430777Y-86883071D01*
X159358923Y-86892531D01*
X159287069Y-86901991D01*
X159287067Y-86901991D01*
X159287062Y-86901993D01*
X159264007Y-86911542D01*
X159236166Y-86918600D01*
X159236248Y-86918999D01*
X159230282Y-86920220D01*
X158793895Y-87055278D01*
X158757234Y-87060821D01*
X158470006Y-87060821D01*
X158402967Y-87041136D01*
X158382325Y-87024502D01*
X158188098Y-86830275D01*
X158154613Y-86768952D01*
X158151779Y-86742594D01*
X158151779Y-85638321D01*
X158819029Y-85638321D01*
X158836128Y-85768202D01*
X158837949Y-85782029D01*
X158837950Y-85782033D01*
X158893416Y-85915943D01*
X158893417Y-85915945D01*
X158893418Y-85915946D01*
X158981658Y-86030942D01*
X159096654Y-86119182D01*
X159230570Y-86174651D01*
X159357559Y-86191369D01*
X159374278Y-86193571D01*
X159374279Y-86193571D01*
X159374280Y-86193571D01*
X159389256Y-86191599D01*
X159517988Y-86174651D01*
X159651904Y-86119182D01*
X159766900Y-86030942D01*
X159855140Y-85915946D01*
X159910609Y-85782030D01*
X159929529Y-85638321D01*
X159910609Y-85494612D01*
X159855140Y-85360696D01*
X159766900Y-85245700D01*
X159651904Y-85157460D01*
X159651903Y-85157459D01*
X159651901Y-85157458D01*
X159517991Y-85101992D01*
X159517989Y-85101991D01*
X159517988Y-85101991D01*
X159446133Y-85092531D01*
X159374280Y-85083071D01*
X159374278Y-85083071D01*
X159230570Y-85101991D01*
X159230566Y-85101992D01*
X159096656Y-85157458D01*
X158981658Y-85245700D01*
X158893416Y-85360698D01*
X158837950Y-85494608D01*
X158837949Y-85494612D01*
X158821549Y-85619183D01*
X158819029Y-85638321D01*
X158151779Y-85638321D01*
X158151779Y-83846048D01*
X158171464Y-83779009D01*
X158188098Y-83758367D01*
X160327034Y-81619432D01*
X161398182Y-81619432D01*
X161398182Y-81619433D01*
X161417102Y-81763143D01*
X161430247Y-81794879D01*
X161438379Y-81824380D01*
X161439239Y-81830260D01*
X161439239Y-81830262D01*
X161439240Y-81830263D01*
X161589100Y-82251814D01*
X161589616Y-82253264D01*
X161596779Y-82294799D01*
X161596779Y-86588622D01*
X161596779Y-86688020D01*
X161622505Y-86784031D01*
X161672204Y-86870111D01*
X161672206Y-86870113D01*
X175442660Y-100640567D01*
X175476145Y-100701890D01*
X175478979Y-100728248D01*
X175478979Y-106059222D01*
X175478979Y-106158620D01*
X175504705Y-106254631D01*
X175554404Y-106340711D01*
X175554406Y-106340713D01*
X181589460Y-112375767D01*
X181622945Y-112437090D01*
X181625779Y-112463448D01*
X181625779Y-117449577D01*
X181620236Y-117486238D01*
X181485178Y-117922624D01*
X181484905Y-117924756D01*
X181476478Y-117956403D01*
X181466949Y-117979412D01*
X181448029Y-118123121D01*
X181465893Y-118258812D01*
X181466949Y-118266829D01*
X181466950Y-118266833D01*
X181522416Y-118400743D01*
X181522417Y-118400745D01*
X181522418Y-118400746D01*
X181610658Y-118515742D01*
X181725654Y-118603982D01*
X181725655Y-118603982D01*
X181725656Y-118603983D01*
X181753628Y-118615569D01*
X181859570Y-118659451D01*
X181986559Y-118676169D01*
X182003278Y-118678371D01*
X182003279Y-118678371D01*
X182003280Y-118678371D01*
X182018256Y-118676399D01*
X182146988Y-118659451D01*
X182280904Y-118603982D01*
X182395900Y-118515742D01*
X182484140Y-118400746D01*
X182539609Y-118266830D01*
X182558529Y-118123121D01*
X182539609Y-117979412D01*
X182530056Y-117956350D01*
X182523000Y-117928503D01*
X182522598Y-117928586D01*
X182521378Y-117922628D01*
X182521377Y-117922619D01*
X182386322Y-117486238D01*
X182380779Y-117449578D01*
X182380779Y-112206024D01*
X182380779Y-112206022D01*
X182355053Y-112110012D01*
X182355053Y-112110011D01*
X182305354Y-112023931D01*
X176270298Y-105988875D01*
X176236813Y-105927552D01*
X176233979Y-105901194D01*
X176233979Y-100470824D01*
X176233979Y-100470822D01*
X176208253Y-100374812D01*
X176170026Y-100308601D01*
X176158554Y-100288730D01*
X176158553Y-100288729D01*
X176158552Y-100288727D01*
X164331746Y-88461923D01*
X164298261Y-88400600D01*
X164303245Y-88330908D01*
X164345117Y-88274975D01*
X164357692Y-88266702D01*
X164585461Y-88135991D01*
X164585470Y-88135983D01*
X164589640Y-88133115D01*
X164590124Y-88133819D01*
X164613639Y-88119759D01*
X164630003Y-88112982D01*
X164744999Y-88024742D01*
X164833239Y-87909746D01*
X164888708Y-87775830D01*
X164907628Y-87632121D01*
X164888708Y-87488412D01*
X164846577Y-87386698D01*
X164833240Y-87354498D01*
X164833239Y-87354497D01*
X164833239Y-87354496D01*
X164744999Y-87239500D01*
X164630003Y-87151260D01*
X164630002Y-87151259D01*
X164630000Y-87151258D01*
X164496090Y-87095792D01*
X164496088Y-87095791D01*
X164496087Y-87095791D01*
X164399471Y-87083071D01*
X164352379Y-87076871D01*
X164352377Y-87076871D01*
X164208669Y-87095791D01*
X164208665Y-87095792D01*
X164074755Y-87151258D01*
X164002359Y-87206810D01*
X163959757Y-87239500D01*
X163874570Y-87350518D01*
X163871515Y-87354499D01*
X163858541Y-87385819D01*
X163843295Y-87412611D01*
X163839915Y-87417130D01*
X163839907Y-87417144D01*
X163736710Y-87633106D01*
X163690045Y-87685107D01*
X163622674Y-87703624D01*
X163555986Y-87682778D01*
X163537147Y-87667324D01*
X162388098Y-86518275D01*
X162354613Y-86456952D01*
X162351779Y-86430594D01*
X162351779Y-82284005D01*
X162356030Y-82251814D01*
X162378469Y-82168342D01*
X162474678Y-81810453D01*
X162474678Y-81810443D01*
X162475588Y-81805478D01*
X162476480Y-81805641D01*
X162483119Y-81779178D01*
X162489762Y-81763142D01*
X162508682Y-81619433D01*
X162489762Y-81475724D01*
X162434293Y-81341808D01*
X162346053Y-81226812D01*
X162231057Y-81138572D01*
X162231056Y-81138571D01*
X162231054Y-81138570D01*
X162097144Y-81083104D01*
X162097142Y-81083103D01*
X162097141Y-81083103D01*
X162025286Y-81073643D01*
X161953433Y-81064183D01*
X161953431Y-81064183D01*
X161809723Y-81083103D01*
X161809719Y-81083104D01*
X161675809Y-81138570D01*
X161560811Y-81226812D01*
X161472569Y-81341810D01*
X161417103Y-81475720D01*
X161417102Y-81475724D01*
X161398182Y-81619432D01*
X160327034Y-81619432D01*
X162398526Y-79547940D01*
X162459849Y-79514455D01*
X162486207Y-79511621D01*
X163233093Y-79511621D01*
X163300132Y-79531306D01*
X163345887Y-79584110D01*
X163355831Y-79653268D01*
X163331469Y-79711107D01*
X163293418Y-79760695D01*
X163293417Y-79760697D01*
X163237950Y-79894608D01*
X163237949Y-79894612D01*
X163219029Y-80038321D01*
X163227411Y-80101991D01*
X163237949Y-80182029D01*
X163237949Y-80182030D01*
X163247500Y-80205090D01*
X163254559Y-80232933D01*
X163254957Y-80232852D01*
X163256177Y-80238813D01*
X163260256Y-80251992D01*
X163381767Y-80644608D01*
X163391236Y-80675201D01*
X163396779Y-80711862D01*
X163396779Y-85190385D01*
X163396779Y-85289783D01*
X163422505Y-85385794D01*
X163472204Y-85471874D01*
X163472206Y-85471876D01*
X166471321Y-88470992D01*
X166471322Y-88470993D01*
X178496860Y-100496530D01*
X178530345Y-100557853D01*
X178533179Y-100584211D01*
X178533179Y-104439822D01*
X178533179Y-104539220D01*
X178558905Y-104635231D01*
X178608604Y-104721311D01*
X178608606Y-104721313D01*
X183342060Y-109454767D01*
X183375545Y-109516090D01*
X183378379Y-109542448D01*
X183378379Y-117424177D01*
X183372836Y-117460838D01*
X183237778Y-117897224D01*
X183237505Y-117899356D01*
X183229079Y-117931003D01*
X183219549Y-117954011D01*
X183219549Y-117954012D01*
X183200629Y-118097720D01*
X183200629Y-118097721D01*
X183219549Y-118241429D01*
X183219550Y-118241433D01*
X183275016Y-118375343D01*
X183275017Y-118375345D01*
X183275018Y-118375346D01*
X183363258Y-118490342D01*
X183478254Y-118578582D01*
X183478255Y-118578582D01*
X183478256Y-118578583D01*
X183504101Y-118589288D01*
X183612170Y-118634051D01*
X183739159Y-118650769D01*
X183755878Y-118652971D01*
X183755879Y-118652971D01*
X183755880Y-118652971D01*
X183770856Y-118650999D01*
X183899588Y-118634051D01*
X184033504Y-118578582D01*
X184148500Y-118490342D01*
X184167699Y-118465322D01*
X188847929Y-118465322D01*
X188866184Y-118603983D01*
X188866849Y-118609030D01*
X188866850Y-118609034D01*
X188922316Y-118742944D01*
X188922317Y-118742946D01*
X188922318Y-118742947D01*
X189010558Y-118857943D01*
X189125554Y-118946183D01*
X189259470Y-119001652D01*
X189386459Y-119018370D01*
X189403178Y-119020572D01*
X189403179Y-119020572D01*
X189403180Y-119020572D01*
X189418156Y-119018600D01*
X189546888Y-119001652D01*
X189680804Y-118946183D01*
X189795800Y-118857943D01*
X189884040Y-118742947D01*
X189939509Y-118609031D01*
X189958429Y-118465322D01*
X189939509Y-118321613D01*
X189884040Y-118187697D01*
X189795800Y-118072701D01*
X189680804Y-117984461D01*
X189680803Y-117984460D01*
X189680801Y-117984459D01*
X189546891Y-117928993D01*
X189546889Y-117928992D01*
X189546888Y-117928992D01*
X189475033Y-117919532D01*
X189403180Y-117910072D01*
X189403178Y-117910072D01*
X189259470Y-117928992D01*
X189259466Y-117928993D01*
X189125556Y-117984459D01*
X189010558Y-118072701D01*
X188922316Y-118187699D01*
X188866850Y-118321609D01*
X188866849Y-118321613D01*
X188847929Y-118465322D01*
X184167699Y-118465322D01*
X184236740Y-118375346D01*
X184292209Y-118241430D01*
X184311129Y-118097721D01*
X184292209Y-117954012D01*
X184282656Y-117930950D01*
X184275600Y-117903103D01*
X184275198Y-117903186D01*
X184273978Y-117897228D01*
X184273977Y-117897219D01*
X184138922Y-117460838D01*
X184133379Y-117424178D01*
X184133379Y-116739660D01*
X184153064Y-116672621D01*
X184205868Y-116626866D01*
X184275026Y-116616922D01*
X184332865Y-116641285D01*
X184341854Y-116648182D01*
X184475770Y-116703651D01*
X184602759Y-116720369D01*
X184619478Y-116722571D01*
X184619479Y-116722571D01*
X184619480Y-116722571D01*
X184634456Y-116720599D01*
X184763188Y-116703651D01*
X184897104Y-116648182D01*
X185012100Y-116559942D01*
X185100340Y-116444946D01*
X185155809Y-116311030D01*
X185174729Y-116167321D01*
X185155809Y-116023612D01*
X185100340Y-115889696D01*
X185012100Y-115774700D01*
X184897104Y-115686460D01*
X184897103Y-115686459D01*
X184897101Y-115686458D01*
X184763191Y-115630992D01*
X184763189Y-115630991D01*
X184763188Y-115630991D01*
X184691333Y-115621531D01*
X184619480Y-115612071D01*
X184619478Y-115612071D01*
X184475770Y-115630991D01*
X184475766Y-115630992D01*
X184341855Y-115686459D01*
X184341853Y-115686460D01*
X184332864Y-115693358D01*
X184267694Y-115718551D01*
X184199249Y-115704512D01*
X184149261Y-115655697D01*
X184133379Y-115594981D01*
X184133379Y-109285024D01*
X184133379Y-109285022D01*
X184107653Y-109189012D01*
X184107653Y-109189011D01*
X184107653Y-109189010D01*
X184057957Y-109102934D01*
X184057953Y-109102929D01*
X179324498Y-104369474D01*
X179291013Y-104308151D01*
X179288179Y-104281793D01*
X179288179Y-103451710D01*
X180573779Y-103451710D01*
X180573779Y-103624932D01*
X180600877Y-103796022D01*
X180654406Y-103960766D01*
X180733047Y-104115109D01*
X180834865Y-104255249D01*
X180957351Y-104377735D01*
X181097491Y-104479553D01*
X181251834Y-104558194D01*
X181416578Y-104611723D01*
X181587668Y-104638821D01*
X181587669Y-104638821D01*
X181760889Y-104638821D01*
X181760890Y-104638821D01*
X181931980Y-104611723D01*
X182096724Y-104558194D01*
X182251067Y-104479553D01*
X182391207Y-104377735D01*
X182513693Y-104255249D01*
X182615511Y-104115109D01*
X182694152Y-103960766D01*
X182747681Y-103796022D01*
X182772889Y-103636864D01*
X185173778Y-103636864D01*
X185212226Y-103830150D01*
X185212229Y-103830160D01*
X185287643Y-104012228D01*
X185287650Y-104012241D01*
X185397139Y-104176102D01*
X185397142Y-104176106D01*
X185536493Y-104315457D01*
X185536497Y-104315460D01*
X185700358Y-104424949D01*
X185700371Y-104424956D01*
X185832182Y-104479553D01*
X185882444Y-104500372D01*
X185882448Y-104500372D01*
X185882449Y-104500373D01*
X186075735Y-104538821D01*
X186075738Y-104538821D01*
X186272822Y-104538821D01*
X186402861Y-104512953D01*
X186466114Y-104500372D01*
X186648193Y-104424953D01*
X186812061Y-104315460D01*
X186951418Y-104176103D01*
X187060911Y-104012235D01*
X187136330Y-103830156D01*
X187174779Y-103636862D01*
X187174779Y-103439780D01*
X187174779Y-103439777D01*
X187136331Y-103246491D01*
X187136330Y-103246490D01*
X187136330Y-103246486D01*
X187136328Y-103246481D01*
X187060914Y-103064413D01*
X187060907Y-103064400D01*
X186951418Y-102900539D01*
X186951415Y-102900535D01*
X186812064Y-102761184D01*
X186812060Y-102761181D01*
X186648199Y-102651692D01*
X186648186Y-102651685D01*
X186466118Y-102576271D01*
X186466108Y-102576268D01*
X186272822Y-102537821D01*
X186272820Y-102537821D01*
X186075738Y-102537821D01*
X186075736Y-102537821D01*
X185882449Y-102576268D01*
X185882439Y-102576271D01*
X185700371Y-102651685D01*
X185700358Y-102651692D01*
X185536497Y-102761181D01*
X185536493Y-102761184D01*
X185397142Y-102900535D01*
X185397139Y-102900539D01*
X185287650Y-103064400D01*
X185287643Y-103064413D01*
X185212229Y-103246481D01*
X185212226Y-103246491D01*
X185173779Y-103439777D01*
X185173779Y-103439780D01*
X185173779Y-103636862D01*
X185173779Y-103636864D01*
X185173778Y-103636864D01*
X182772889Y-103636864D01*
X182774779Y-103624932D01*
X182774779Y-103451710D01*
X182747681Y-103280620D01*
X182694152Y-103115876D01*
X182615511Y-102961533D01*
X182513693Y-102821393D01*
X182391207Y-102698907D01*
X182251067Y-102597089D01*
X182096724Y-102518448D01*
X181931980Y-102464919D01*
X181931978Y-102464918D01*
X181931977Y-102464918D01*
X181800550Y-102444102D01*
X181760890Y-102437821D01*
X181587668Y-102437821D01*
X181548007Y-102444102D01*
X181416581Y-102464918D01*
X181251831Y-102518449D01*
X181097490Y-102597089D01*
X181022346Y-102651685D01*
X180957351Y-102698907D01*
X180957349Y-102698909D01*
X180957348Y-102698909D01*
X180834867Y-102821390D01*
X180834867Y-102821391D01*
X180834865Y-102821393D01*
X180791138Y-102881577D01*
X180733047Y-102961532D01*
X180654407Y-103115873D01*
X180600876Y-103280623D01*
X180573779Y-103451710D01*
X179288179Y-103451710D01*
X179288179Y-100326787D01*
X179288179Y-100326785D01*
X179262453Y-100230775D01*
X179262453Y-100230774D01*
X179212754Y-100144694D01*
X167919979Y-88851920D01*
X170089728Y-88851920D01*
X170089728Y-88851921D01*
X170108648Y-88995629D01*
X170108649Y-88995633D01*
X170164115Y-89129543D01*
X170164116Y-89129545D01*
X170164117Y-89129546D01*
X170252357Y-89244542D01*
X170367353Y-89332782D01*
X170501269Y-89388251D01*
X170628258Y-89404969D01*
X170644977Y-89407171D01*
X170644978Y-89407171D01*
X170644979Y-89407171D01*
X170659955Y-89405199D01*
X170788687Y-89388251D01*
X170922603Y-89332782D01*
X171037599Y-89244542D01*
X171125839Y-89129546D01*
X171181308Y-88995630D01*
X171200228Y-88851921D01*
X171181308Y-88708212D01*
X171125839Y-88574296D01*
X171037599Y-88459300D01*
X170922603Y-88371060D01*
X170922602Y-88371059D01*
X170922600Y-88371058D01*
X170788690Y-88315592D01*
X170788688Y-88315591D01*
X170788687Y-88315591D01*
X170716832Y-88306131D01*
X170644979Y-88296671D01*
X170644977Y-88296671D01*
X170501269Y-88315591D01*
X170501265Y-88315592D01*
X170367355Y-88371058D01*
X170252357Y-88459300D01*
X170164115Y-88574298D01*
X170108649Y-88708208D01*
X170108648Y-88708212D01*
X170089728Y-88851920D01*
X167919979Y-88851920D01*
X167395981Y-88327922D01*
X167362497Y-88266600D01*
X167367481Y-88196908D01*
X167409353Y-88140975D01*
X167436209Y-88125682D01*
X167451904Y-88119182D01*
X167566900Y-88030942D01*
X167655140Y-87915946D01*
X167710609Y-87782030D01*
X167715729Y-87743139D01*
X171236036Y-87743139D01*
X171251267Y-87858831D01*
X171254956Y-87886847D01*
X171254957Y-87886851D01*
X171310423Y-88020761D01*
X171310424Y-88020763D01*
X171310425Y-88020764D01*
X171398665Y-88135760D01*
X171513661Y-88224000D01*
X171647577Y-88279469D01*
X171774566Y-88296187D01*
X171791285Y-88298389D01*
X171791286Y-88298389D01*
X171791287Y-88298389D01*
X171806263Y-88296417D01*
X171934995Y-88279469D01*
X172068911Y-88224000D01*
X172183907Y-88135760D01*
X172272147Y-88020764D01*
X172327616Y-87886848D01*
X172346536Y-87743139D01*
X172346174Y-87740393D01*
X172342956Y-87715946D01*
X172327616Y-87599430D01*
X172272147Y-87465514D01*
X172183907Y-87350518D01*
X172068911Y-87262278D01*
X172068910Y-87262277D01*
X172068908Y-87262276D01*
X171934998Y-87206810D01*
X171934996Y-87206809D01*
X171934995Y-87206809D01*
X171863140Y-87197349D01*
X171791287Y-87187889D01*
X171791285Y-87187889D01*
X171647577Y-87206809D01*
X171647573Y-87206810D01*
X171513663Y-87262276D01*
X171398665Y-87350518D01*
X171310423Y-87465516D01*
X171254957Y-87599426D01*
X171254956Y-87599430D01*
X171236398Y-87740393D01*
X171236036Y-87743139D01*
X167715729Y-87743139D01*
X167729529Y-87638321D01*
X167728842Y-87633106D01*
X167724408Y-87599426D01*
X167710609Y-87494612D01*
X167665546Y-87385819D01*
X167655141Y-87360698D01*
X167655140Y-87360697D01*
X167655140Y-87360696D01*
X167566900Y-87245700D01*
X167451904Y-87157460D01*
X167451903Y-87157459D01*
X167451901Y-87157458D01*
X167317991Y-87101992D01*
X167317989Y-87101991D01*
X167317988Y-87101991D01*
X167246133Y-87092531D01*
X167174280Y-87083071D01*
X167174278Y-87083071D01*
X167030570Y-87101991D01*
X167030566Y-87101992D01*
X166896656Y-87157458D01*
X166781658Y-87245700D01*
X166693415Y-87360699D01*
X166693415Y-87360700D01*
X166686915Y-87376392D01*
X166643071Y-87430793D01*
X166576776Y-87452855D01*
X166509078Y-87435573D01*
X166484675Y-87416615D01*
X164188098Y-85120038D01*
X164154613Y-85058715D01*
X164151779Y-85032357D01*
X164151779Y-80711862D01*
X164157322Y-80675201D01*
X164166790Y-80644608D01*
X164168736Y-80638321D01*
X168019029Y-80638321D01*
X168030534Y-80725712D01*
X168037949Y-80782029D01*
X168037950Y-80782033D01*
X168093416Y-80915943D01*
X168093417Y-80915945D01*
X168093418Y-80915946D01*
X168181658Y-81030942D01*
X168296654Y-81119182D01*
X168430570Y-81174651D01*
X168557559Y-81191369D01*
X168574278Y-81193571D01*
X168574279Y-81193571D01*
X168574280Y-81193571D01*
X168589256Y-81191599D01*
X168717988Y-81174651D01*
X168851904Y-81119182D01*
X168966900Y-81030942D01*
X169055140Y-80915946D01*
X169108003Y-80788321D01*
X179469029Y-80788321D01*
X179485831Y-80915946D01*
X179487949Y-80932029D01*
X179487950Y-80932033D01*
X179528919Y-81030942D01*
X179543418Y-81065946D01*
X179621154Y-81167254D01*
X179646349Y-81232421D01*
X179646779Y-81242739D01*
X179646779Y-83938622D01*
X179646779Y-84038020D01*
X179672505Y-84134031D01*
X179722204Y-84220111D01*
X183442489Y-87940397D01*
X183442491Y-87940398D01*
X183442495Y-87940401D01*
X183501817Y-87974650D01*
X183528569Y-87990095D01*
X183624580Y-88015821D01*
X183723978Y-88015821D01*
X184545581Y-88015821D01*
X184612620Y-88035506D01*
X184621057Y-88041437D01*
X184651694Y-88064946D01*
X184692896Y-88121375D01*
X184697050Y-88191121D01*
X184662837Y-88252041D01*
X184651696Y-88261693D01*
X184621066Y-88285196D01*
X184555900Y-88310391D01*
X184545581Y-88310821D01*
X183624580Y-88310821D01*
X183528569Y-88336547D01*
X183528562Y-88336550D01*
X183442495Y-88386240D01*
X183442487Y-88386246D01*
X179722206Y-92106528D01*
X179722204Y-92106531D01*
X179672504Y-92192611D01*
X179672503Y-92192614D01*
X179666486Y-92215067D01*
X179666487Y-92215068D01*
X179646779Y-92288620D01*
X179646779Y-94833901D01*
X179627094Y-94900940D01*
X179621155Y-94909387D01*
X179543418Y-95010695D01*
X179543417Y-95010697D01*
X179487950Y-95144608D01*
X179487949Y-95144612D01*
X179469029Y-95288320D01*
X179469029Y-95288321D01*
X179487949Y-95432029D01*
X179487950Y-95432033D01*
X179543416Y-95565943D01*
X179543417Y-95565945D01*
X179543418Y-95565946D01*
X179631658Y-95680942D01*
X179746654Y-95769182D01*
X179880570Y-95824651D01*
X180007559Y-95841369D01*
X180024278Y-95843571D01*
X180024279Y-95843571D01*
X180024280Y-95843571D01*
X180039256Y-95841599D01*
X180167988Y-95824651D01*
X180301904Y-95769182D01*
X180416900Y-95680942D01*
X180505140Y-95565946D01*
X180560609Y-95432030D01*
X180579529Y-95288321D01*
X180560609Y-95144612D01*
X180505140Y-95010696D01*
X180481733Y-94980192D01*
X180427403Y-94909387D01*
X180402209Y-94844218D01*
X180401779Y-94833901D01*
X180401779Y-92546048D01*
X180421464Y-92479009D01*
X180438098Y-92458367D01*
X180808145Y-92088320D01*
X182516038Y-92088320D01*
X182516038Y-92088321D01*
X183057291Y-92088321D01*
X183040074Y-92098261D01*
X182984219Y-92154116D01*
X182944723Y-92222525D01*
X182924279Y-92298825D01*
X182924279Y-92377817D01*
X182944723Y-92454117D01*
X182984219Y-92522526D01*
X183040074Y-92578381D01*
X183057291Y-92588321D01*
X182516038Y-92588321D01*
X182559636Y-92693575D01*
X182559641Y-92693585D01*
X182641715Y-92816417D01*
X182641718Y-92816421D01*
X182746178Y-92920881D01*
X182746182Y-92920884D01*
X182869014Y-93002958D01*
X182869024Y-93002963D01*
X183005511Y-93059498D01*
X183005519Y-93059500D01*
X183150405Y-93088320D01*
X183150408Y-93088321D01*
X183374279Y-93088321D01*
X183374279Y-92638321D01*
X183874279Y-92638321D01*
X183874279Y-93088321D01*
X184098150Y-93088321D01*
X184098152Y-93088320D01*
X184243038Y-93059500D01*
X184243046Y-93059498D01*
X184379533Y-93002963D01*
X184379543Y-93002958D01*
X184502375Y-92920884D01*
X184502379Y-92920881D01*
X184606839Y-92816421D01*
X184606842Y-92816417D01*
X184688916Y-92693585D01*
X184688921Y-92693575D01*
X184732520Y-92588321D01*
X184191267Y-92588321D01*
X184208484Y-92578381D01*
X184264339Y-92522526D01*
X184303835Y-92454117D01*
X184324279Y-92377817D01*
X184324279Y-92298825D01*
X184303835Y-92222525D01*
X184264339Y-92154116D01*
X184208484Y-92098261D01*
X184191267Y-92088321D01*
X184732520Y-92088321D01*
X184732519Y-92088320D01*
X186316038Y-92088320D01*
X186316038Y-92088321D01*
X186857291Y-92088321D01*
X186840074Y-92098261D01*
X186784219Y-92154116D01*
X186744723Y-92222525D01*
X186724279Y-92298825D01*
X186724279Y-92377817D01*
X186744723Y-92454117D01*
X186784219Y-92522526D01*
X186840074Y-92578381D01*
X186857291Y-92588321D01*
X186316038Y-92588321D01*
X186359636Y-92693575D01*
X186359641Y-92693585D01*
X186441715Y-92816417D01*
X186441718Y-92816421D01*
X186546178Y-92920881D01*
X186546182Y-92920884D01*
X186669014Y-93002958D01*
X186669024Y-93002963D01*
X186805511Y-93059498D01*
X186805519Y-93059500D01*
X186950405Y-93088320D01*
X186950408Y-93088321D01*
X187174279Y-93088321D01*
X187174279Y-92638321D01*
X187674279Y-92638321D01*
X187674279Y-93088321D01*
X187898150Y-93088321D01*
X187898152Y-93088320D01*
X188043038Y-93059500D01*
X188043046Y-93059498D01*
X188179533Y-93002963D01*
X188179543Y-93002958D01*
X188302375Y-92920884D01*
X188302379Y-92920881D01*
X188406839Y-92816421D01*
X188406842Y-92816417D01*
X188488916Y-92693585D01*
X188488921Y-92693575D01*
X188532520Y-92588321D01*
X187991267Y-92588321D01*
X188008484Y-92578381D01*
X188064339Y-92522526D01*
X188103835Y-92454117D01*
X188124279Y-92377817D01*
X188124279Y-92298825D01*
X188103835Y-92222525D01*
X188064339Y-92154116D01*
X188008484Y-92098261D01*
X187991267Y-92088321D01*
X188532520Y-92088321D01*
X188532519Y-92088320D01*
X188488921Y-91983066D01*
X188488916Y-91983056D01*
X188406842Y-91860224D01*
X188406839Y-91860220D01*
X188302379Y-91755760D01*
X188302375Y-91755757D01*
X188179543Y-91673683D01*
X188179533Y-91673678D01*
X188043046Y-91617143D01*
X188043038Y-91617141D01*
X187898151Y-91588321D01*
X187674279Y-91588321D01*
X187674279Y-92038321D01*
X187174279Y-92038321D01*
X187174279Y-91588321D01*
X186950407Y-91588321D01*
X186805519Y-91617141D01*
X186805511Y-91617143D01*
X186669024Y-91673678D01*
X186669014Y-91673683D01*
X186546182Y-91755757D01*
X186546178Y-91755760D01*
X186441718Y-91860220D01*
X186441715Y-91860224D01*
X186359641Y-91983056D01*
X186359636Y-91983066D01*
X186316038Y-92088320D01*
X184732519Y-92088320D01*
X184688921Y-91983066D01*
X184688916Y-91983056D01*
X184606842Y-91860224D01*
X184606839Y-91860220D01*
X184502379Y-91755760D01*
X184502375Y-91755757D01*
X184379543Y-91673683D01*
X184379533Y-91673678D01*
X184243046Y-91617143D01*
X184243038Y-91617141D01*
X184098151Y-91588321D01*
X183874279Y-91588321D01*
X183874279Y-92038321D01*
X183374279Y-92038321D01*
X183374279Y-91588321D01*
X183150407Y-91588321D01*
X183005519Y-91617141D01*
X183005511Y-91617143D01*
X182869024Y-91673678D01*
X182869014Y-91673683D01*
X182746182Y-91755757D01*
X182746178Y-91755760D01*
X182641718Y-91860220D01*
X182641715Y-91860224D01*
X182559641Y-91983056D01*
X182559636Y-91983066D01*
X182516038Y-92088320D01*
X180808145Y-92088320D01*
X183794326Y-89102140D01*
X183855649Y-89068655D01*
X183882007Y-89065821D01*
X184545581Y-89065821D01*
X184612620Y-89085506D01*
X184621052Y-89091434D01*
X184722375Y-89169182D01*
X184856291Y-89224651D01*
X184983280Y-89241369D01*
X184999999Y-89243571D01*
X185000000Y-89243571D01*
X185000001Y-89243571D01*
X185014977Y-89241599D01*
X185143709Y-89224651D01*
X185277625Y-89169182D01*
X185392621Y-89080942D01*
X185480861Y-88965946D01*
X185536330Y-88832030D01*
X185555250Y-88688321D01*
X185536330Y-88544612D01*
X185480861Y-88410696D01*
X185392621Y-88295700D01*
X185392619Y-88295699D01*
X185392619Y-88295698D01*
X185365612Y-88274975D01*
X185348306Y-88261695D01*
X185307104Y-88205269D01*
X185302949Y-88135523D01*
X185337161Y-88074603D01*
X185348306Y-88064946D01*
X185392621Y-88030942D01*
X185480861Y-87915946D01*
X185536330Y-87782030D01*
X185555250Y-87638321D01*
X185554563Y-87633106D01*
X185550129Y-87599426D01*
X185536330Y-87494612D01*
X185491267Y-87385819D01*
X185480862Y-87360698D01*
X185480861Y-87360697D01*
X185480861Y-87360696D01*
X185392621Y-87245700D01*
X185277625Y-87157460D01*
X185277624Y-87157459D01*
X185277622Y-87157458D01*
X185143712Y-87101992D01*
X185143710Y-87101991D01*
X185143709Y-87101991D01*
X185071854Y-87092531D01*
X185000001Y-87083071D01*
X184999999Y-87083071D01*
X184856291Y-87101991D01*
X184856287Y-87101992D01*
X184722377Y-87157458D01*
X184718155Y-87160698D01*
X184621065Y-87235198D01*
X184555899Y-87260391D01*
X184545581Y-87260821D01*
X183882007Y-87260821D01*
X183814968Y-87241136D01*
X183794326Y-87224502D01*
X180438098Y-83868274D01*
X180404613Y-83806951D01*
X180401779Y-83780593D01*
X180401779Y-83688320D01*
X182516038Y-83688320D01*
X182516038Y-83688321D01*
X183057291Y-83688321D01*
X183040074Y-83698261D01*
X182984219Y-83754116D01*
X182944723Y-83822525D01*
X182924279Y-83898825D01*
X182924279Y-83977817D01*
X182944723Y-84054117D01*
X182984219Y-84122526D01*
X183040074Y-84178381D01*
X183057291Y-84188321D01*
X182516038Y-84188321D01*
X182559636Y-84293575D01*
X182559641Y-84293585D01*
X182641715Y-84416417D01*
X182641718Y-84416421D01*
X182746178Y-84520881D01*
X182746182Y-84520884D01*
X182869014Y-84602958D01*
X182869024Y-84602963D01*
X183005511Y-84659498D01*
X183005519Y-84659500D01*
X183150405Y-84688320D01*
X183150408Y-84688321D01*
X183374279Y-84688321D01*
X183374279Y-84238321D01*
X183874279Y-84238321D01*
X183874279Y-84688321D01*
X184098150Y-84688321D01*
X184098152Y-84688320D01*
X184243038Y-84659500D01*
X184243046Y-84659498D01*
X184379533Y-84602963D01*
X184379543Y-84602958D01*
X184502375Y-84520884D01*
X184502379Y-84520881D01*
X184606839Y-84416421D01*
X184606842Y-84416417D01*
X184688916Y-84293585D01*
X184688921Y-84293575D01*
X184732520Y-84188321D01*
X184191267Y-84188321D01*
X184208484Y-84178381D01*
X184264339Y-84122526D01*
X184303835Y-84054117D01*
X184324279Y-83977817D01*
X184324279Y-83898825D01*
X184303835Y-83822525D01*
X184264339Y-83754116D01*
X184208484Y-83698261D01*
X184191267Y-83688321D01*
X184732520Y-83688321D01*
X184732519Y-83688320D01*
X186316038Y-83688320D01*
X186316038Y-83688321D01*
X186857291Y-83688321D01*
X186840074Y-83698261D01*
X186784219Y-83754116D01*
X186744723Y-83822525D01*
X186724279Y-83898825D01*
X186724279Y-83977817D01*
X186744723Y-84054117D01*
X186784219Y-84122526D01*
X186840074Y-84178381D01*
X186857291Y-84188321D01*
X186316038Y-84188321D01*
X186359636Y-84293575D01*
X186359641Y-84293585D01*
X186441715Y-84416417D01*
X186441718Y-84416421D01*
X186546178Y-84520881D01*
X186546182Y-84520884D01*
X186669014Y-84602958D01*
X186669024Y-84602963D01*
X186805511Y-84659498D01*
X186805519Y-84659500D01*
X186950405Y-84688320D01*
X186950408Y-84688321D01*
X187174279Y-84688321D01*
X187174279Y-84238321D01*
X187674279Y-84238321D01*
X187674279Y-84688321D01*
X187898150Y-84688321D01*
X187898152Y-84688320D01*
X188043038Y-84659500D01*
X188043046Y-84659498D01*
X188179533Y-84602963D01*
X188179543Y-84602958D01*
X188302375Y-84520884D01*
X188302379Y-84520881D01*
X188406839Y-84416421D01*
X188406842Y-84416417D01*
X188488916Y-84293585D01*
X188488921Y-84293575D01*
X188532520Y-84188321D01*
X187991267Y-84188321D01*
X188008484Y-84178381D01*
X188064339Y-84122526D01*
X188103835Y-84054117D01*
X188124279Y-83977817D01*
X188124279Y-83898825D01*
X188103835Y-83822525D01*
X188064339Y-83754116D01*
X188008484Y-83698261D01*
X187991267Y-83688321D01*
X188532520Y-83688321D01*
X188532519Y-83688320D01*
X188488921Y-83583066D01*
X188488916Y-83583056D01*
X188406842Y-83460224D01*
X188406839Y-83460220D01*
X188302379Y-83355760D01*
X188302375Y-83355757D01*
X188179543Y-83273683D01*
X188179533Y-83273678D01*
X188043046Y-83217143D01*
X188043038Y-83217141D01*
X187898151Y-83188321D01*
X187674279Y-83188321D01*
X187674279Y-83638321D01*
X187174279Y-83638321D01*
X187174279Y-83188321D01*
X186950407Y-83188321D01*
X186805519Y-83217141D01*
X186805511Y-83217143D01*
X186669024Y-83273678D01*
X186669014Y-83273683D01*
X186546182Y-83355757D01*
X186546178Y-83355760D01*
X186441718Y-83460220D01*
X186441715Y-83460224D01*
X186359641Y-83583056D01*
X186359636Y-83583066D01*
X186316038Y-83688320D01*
X184732519Y-83688320D01*
X184688921Y-83583066D01*
X184688916Y-83583056D01*
X184606842Y-83460224D01*
X184606839Y-83460220D01*
X184502379Y-83355760D01*
X184502375Y-83355757D01*
X184379543Y-83273683D01*
X184379533Y-83273678D01*
X184243046Y-83217143D01*
X184243038Y-83217141D01*
X184098151Y-83188321D01*
X183874279Y-83188321D01*
X183874279Y-83638321D01*
X183374279Y-83638321D01*
X183374279Y-83188321D01*
X183150407Y-83188321D01*
X183005519Y-83217141D01*
X183005511Y-83217143D01*
X182869024Y-83273678D01*
X182869014Y-83273683D01*
X182746182Y-83355757D01*
X182746178Y-83355760D01*
X182641718Y-83460220D01*
X182641715Y-83460224D01*
X182559641Y-83583056D01*
X182559636Y-83583066D01*
X182516038Y-83688320D01*
X180401779Y-83688320D01*
X180401779Y-81242739D01*
X180421464Y-81175700D01*
X180427395Y-81167263D01*
X180505140Y-81065946D01*
X180560609Y-80932030D01*
X180579529Y-80788321D01*
X180560609Y-80644612D01*
X180523629Y-80555334D01*
X180505141Y-80510698D01*
X180505140Y-80510697D01*
X180505140Y-80510696D01*
X180416900Y-80395700D01*
X180301904Y-80307460D01*
X180301903Y-80307459D01*
X180301901Y-80307458D01*
X180167991Y-80251992D01*
X180167989Y-80251991D01*
X180167988Y-80251991D01*
X180096133Y-80242531D01*
X180024280Y-80233071D01*
X180024278Y-80233071D01*
X179880570Y-80251991D01*
X179880566Y-80251992D01*
X179746656Y-80307458D01*
X179631658Y-80395700D01*
X179543416Y-80510698D01*
X179487950Y-80644608D01*
X179487949Y-80644612D01*
X179469029Y-80788321D01*
X169108003Y-80788321D01*
X169110609Y-80782030D01*
X169129529Y-80638321D01*
X169110609Y-80494612D01*
X169069639Y-80395700D01*
X169055141Y-80360698D01*
X169055140Y-80360697D01*
X169055140Y-80360696D01*
X168966900Y-80245700D01*
X168851904Y-80157460D01*
X168851903Y-80157459D01*
X168851901Y-80157458D01*
X168717991Y-80101992D01*
X168717989Y-80101991D01*
X168717988Y-80101991D01*
X168646133Y-80092531D01*
X168574280Y-80083071D01*
X168574278Y-80083071D01*
X168430570Y-80101991D01*
X168430566Y-80101992D01*
X168296656Y-80157458D01*
X168181658Y-80245700D01*
X168093416Y-80360698D01*
X168037950Y-80494608D01*
X168037949Y-80494612D01*
X168020258Y-80628989D01*
X168019029Y-80638321D01*
X164168736Y-80638321D01*
X164292377Y-80238822D01*
X164292648Y-80236706D01*
X164301078Y-80205037D01*
X164310609Y-80182030D01*
X164329529Y-80038321D01*
X164310609Y-79894612D01*
X164255140Y-79760696D01*
X164217089Y-79711107D01*
X164191895Y-79645938D01*
X164205933Y-79577493D01*
X164254747Y-79527504D01*
X164315465Y-79511621D01*
X170528176Y-79511621D01*
X170528178Y-79511621D01*
X170624189Y-79485895D01*
X170710269Y-79436196D01*
X170764951Y-79381512D01*
X170794786Y-79359514D01*
X171198853Y-79146447D01*
X171200543Y-79145141D01*
X171228895Y-79128712D01*
X171251904Y-79119182D01*
X171366900Y-79030942D01*
X171455140Y-78915946D01*
X171510609Y-78782030D01*
X171529529Y-78638321D01*
X171510609Y-78494612D01*
X171455140Y-78360696D01*
X171366900Y-78245700D01*
X171251904Y-78157460D01*
X171251903Y-78157459D01*
X171251901Y-78157458D01*
X171117991Y-78101992D01*
X171117989Y-78101991D01*
X171117988Y-78101991D01*
X171046133Y-78092531D01*
X170974280Y-78083071D01*
X170974278Y-78083071D01*
X170830570Y-78101991D01*
X170830566Y-78101992D01*
X170696656Y-78157458D01*
X170581658Y-78245700D01*
X170493417Y-78360697D01*
X170483864Y-78383759D01*
X170469168Y-78408438D01*
X170469508Y-78408662D01*
X170466149Y-78413749D01*
X170373938Y-78588622D01*
X170342730Y-78647807D01*
X170320239Y-78690459D01*
X170271557Y-78740577D01*
X170210554Y-78756621D01*
X162228780Y-78756621D01*
X162132769Y-78782347D01*
X162132762Y-78782350D01*
X162046695Y-78832040D01*
X162046687Y-78832046D01*
X157472206Y-83406528D01*
X157472204Y-83406531D01*
X157422504Y-83492611D01*
X157422503Y-83492614D01*
X157412829Y-83528715D01*
X157412830Y-83528716D01*
X157396779Y-83588620D01*
X157396779Y-84636821D01*
X157377094Y-84703860D01*
X157324290Y-84749615D01*
X157272779Y-84760821D01*
X151244561Y-84760821D01*
X151207900Y-84755278D01*
X150771516Y-84620221D01*
X150771510Y-84620219D01*
X150769385Y-84619947D01*
X150737735Y-84611520D01*
X150714732Y-84601992D01*
X150714728Y-84601991D01*
X150642873Y-84592531D01*
X150571020Y-84583071D01*
X150571018Y-84583071D01*
X150427310Y-84601991D01*
X150427306Y-84601992D01*
X150293396Y-84657458D01*
X150178398Y-84745700D01*
X150090157Y-84860697D01*
X150054778Y-84946111D01*
X150034045Y-84971838D01*
X150036143Y-84983463D01*
X150035576Y-84986532D01*
X150035750Y-84986555D01*
X150034689Y-84994611D01*
X150034689Y-84994612D01*
X150015769Y-85138321D01*
X149654927Y-85138321D01*
X149674673Y-85123169D01*
X149762913Y-85008173D01*
X149798293Y-84922756D01*
X149819024Y-84897029D01*
X149816927Y-84885403D01*
X149817505Y-84882338D01*
X149817321Y-84882314D01*
X149830547Y-84781860D01*
X149837302Y-84730548D01*
X149818382Y-84586839D01*
X149762913Y-84452923D01*
X149734048Y-84415305D01*
X149708855Y-84350139D01*
X149722893Y-84281694D01*
X149771707Y-84231704D01*
X149832425Y-84215821D01*
X155423976Y-84215821D01*
X155423978Y-84215821D01*
X155519989Y-84190095D01*
X155606069Y-84140396D01*
X161468526Y-78277940D01*
X161529849Y-78244455D01*
X161556207Y-78241621D01*
X168598176Y-78241621D01*
X168598178Y-78241621D01*
X168694189Y-78215895D01*
X168780269Y-78166196D01*
X169364950Y-77581513D01*
X169394786Y-77559514D01*
X169798853Y-77346447D01*
X169800543Y-77345141D01*
X169828895Y-77328712D01*
X169851904Y-77319182D01*
X169966900Y-77230942D01*
X170055140Y-77115946D01*
X170110609Y-76982030D01*
X170129529Y-76838321D01*
X170110609Y-76694612D01*
X170055140Y-76560696D01*
X169966900Y-76445700D01*
X169851904Y-76357460D01*
X169851903Y-76357459D01*
X169851901Y-76357458D01*
X169717991Y-76301992D01*
X169717989Y-76301991D01*
X169717988Y-76301991D01*
X169646133Y-76292531D01*
X169574280Y-76283071D01*
X169574278Y-76283071D01*
X169430570Y-76301991D01*
X169430566Y-76301992D01*
X169296656Y-76357458D01*
X169181658Y-76445700D01*
X169093417Y-76560697D01*
X169083864Y-76583759D01*
X169069168Y-76608438D01*
X169069508Y-76608662D01*
X169066149Y-76613749D01*
X168853084Y-77017810D01*
X168831080Y-77047653D01*
X168428433Y-77450302D01*
X168367110Y-77483787D01*
X168340752Y-77486621D01*
X161298780Y-77486621D01*
X161202769Y-77512347D01*
X161202762Y-77512350D01*
X161116695Y-77562040D01*
X161116687Y-77562046D01*
X155254233Y-83424502D01*
X155192910Y-83457987D01*
X155166552Y-83460821D01*
X148924580Y-83460821D01*
X148828568Y-83486547D01*
X148742489Y-83536246D01*
X148742486Y-83536248D01*
X144983613Y-87295120D01*
X144953770Y-87317124D01*
X144549709Y-87530191D01*
X144549697Y-87530198D01*
X144547988Y-87531519D01*
X144519665Y-87547928D01*
X144496655Y-87557459D01*
X144381658Y-87645700D01*
X144293416Y-87760698D01*
X144237950Y-87894608D01*
X144237949Y-87894612D01*
X144222732Y-88010194D01*
X144194465Y-88074090D01*
X144136141Y-88112561D01*
X144066276Y-88113392D01*
X144012112Y-88081689D01*
X143588098Y-87657675D01*
X143554613Y-87596352D01*
X143551779Y-87569994D01*
X143551779Y-85538321D01*
X144219029Y-85538321D01*
X144236977Y-85674650D01*
X144237949Y-85682029D01*
X144237950Y-85682033D01*
X144293416Y-85815943D01*
X144293417Y-85815945D01*
X144293418Y-85815946D01*
X144381658Y-85930942D01*
X144496654Y-86019182D01*
X144496655Y-86019182D01*
X144496656Y-86019183D01*
X144541292Y-86037671D01*
X144630570Y-86074651D01*
X144757559Y-86091369D01*
X144774278Y-86093571D01*
X144774279Y-86093571D01*
X144774280Y-86093571D01*
X144789256Y-86091599D01*
X144917988Y-86074651D01*
X145051904Y-86019182D01*
X145166900Y-85930942D01*
X145255140Y-85815946D01*
X145264694Y-85792878D01*
X145279392Y-85768202D01*
X145279051Y-85767977D01*
X145282402Y-85762899D01*
X145282402Y-85762898D01*
X145282405Y-85762895D01*
X145495473Y-85358827D01*
X145517472Y-85328991D01*
X147994325Y-82852140D01*
X148055648Y-82818655D01*
X148082006Y-82815821D01*
X150023976Y-82815821D01*
X150023978Y-82815821D01*
X150119989Y-82790095D01*
X150206069Y-82740396D01*
X151170745Y-81775720D01*
X153787429Y-81775720D01*
X153787429Y-81775721D01*
X153806349Y-81919429D01*
X153806350Y-81919433D01*
X153861816Y-82053343D01*
X153861817Y-82053345D01*
X153861818Y-82053346D01*
X153950058Y-82168342D01*
X154065054Y-82256582D01*
X154198970Y-82312051D01*
X154325959Y-82328769D01*
X154342678Y-82330971D01*
X154342679Y-82330971D01*
X154342680Y-82330971D01*
X154357656Y-82328999D01*
X154486388Y-82312051D01*
X154620304Y-82256582D01*
X154735300Y-82168342D01*
X154823540Y-82053346D01*
X154879009Y-81919430D01*
X154897929Y-81775721D01*
X154879009Y-81632012D01*
X154823540Y-81498096D01*
X154735300Y-81383100D01*
X154620304Y-81294860D01*
X154620303Y-81294859D01*
X154620301Y-81294858D01*
X154486391Y-81239392D01*
X154486389Y-81239391D01*
X154486388Y-81239391D01*
X154390843Y-81226812D01*
X154342680Y-81220471D01*
X154342678Y-81220471D01*
X154198970Y-81239391D01*
X154198966Y-81239392D01*
X154065056Y-81294858D01*
X153950058Y-81383100D01*
X153861816Y-81498098D01*
X153806350Y-81632008D01*
X153806349Y-81632012D01*
X153787429Y-81775720D01*
X151170745Y-81775720D01*
X154270158Y-78676306D01*
X154331479Y-78642823D01*
X154401171Y-78647807D01*
X154457104Y-78689679D01*
X154481521Y-78755143D01*
X154472399Y-78811440D01*
X154437949Y-78894612D01*
X154420001Y-79030941D01*
X154419029Y-79038321D01*
X154436977Y-79174650D01*
X154437949Y-79182029D01*
X154437950Y-79182033D01*
X154493416Y-79315943D01*
X154493417Y-79315945D01*
X154493418Y-79315946D01*
X154581658Y-79430942D01*
X154696654Y-79519182D01*
X154830570Y-79574651D01*
X154957559Y-79591369D01*
X154974278Y-79593571D01*
X154974279Y-79593571D01*
X154974280Y-79593571D01*
X154989256Y-79591599D01*
X155117988Y-79574651D01*
X155251904Y-79519182D01*
X155366900Y-79430942D01*
X155455140Y-79315946D01*
X155459718Y-79304891D01*
X155503558Y-79250491D01*
X155569852Y-79228425D01*
X155637551Y-79245704D01*
X155685162Y-79296840D01*
X155688832Y-79304874D01*
X155693418Y-79315946D01*
X155781658Y-79430942D01*
X155896654Y-79519182D01*
X156030570Y-79574651D01*
X156157559Y-79591369D01*
X156174278Y-79593571D01*
X156174279Y-79593571D01*
X156174280Y-79593571D01*
X156189256Y-79591599D01*
X156317988Y-79574651D01*
X156451904Y-79519182D01*
X156566900Y-79430942D01*
X156655140Y-79315946D01*
X156710609Y-79182030D01*
X156729529Y-79038321D01*
X156710609Y-78894612D01*
X156655140Y-78760696D01*
X156566900Y-78645700D01*
X156451904Y-78557460D01*
X156433722Y-78549929D01*
X156405201Y-78538115D01*
X156350798Y-78494274D01*
X156329715Y-78439739D01*
X156329528Y-78438323D01*
X156329529Y-78438321D01*
X156310609Y-78294612D01*
X156255140Y-78160696D01*
X156166900Y-78045700D01*
X156051904Y-77957460D01*
X156051903Y-77957459D01*
X156051901Y-77957458D01*
X155917991Y-77901992D01*
X155917989Y-77901991D01*
X155917988Y-77901991D01*
X155846133Y-77892531D01*
X155774280Y-77883071D01*
X155774278Y-77883071D01*
X155630570Y-77901991D01*
X155630566Y-77901992D01*
X155496656Y-77957458D01*
X155381658Y-78045700D01*
X155293416Y-78160698D01*
X155237950Y-78294608D01*
X155237949Y-78294613D01*
X155225253Y-78391043D01*
X155196986Y-78454940D01*
X155138661Y-78493410D01*
X155086129Y-78497796D01*
X154974281Y-78483071D01*
X154974278Y-78483071D01*
X154830570Y-78501991D01*
X154747398Y-78536441D01*
X154677929Y-78543908D01*
X154615450Y-78512633D01*
X154579798Y-78452543D01*
X154582293Y-78382718D01*
X154612264Y-78334200D01*
X155836925Y-77109540D01*
X155898248Y-77076055D01*
X155924606Y-77073221D01*
X166457376Y-77073221D01*
X166457378Y-77073221D01*
X166553389Y-77047495D01*
X166639469Y-76997796D01*
X167276354Y-76360912D01*
X167305047Y-76311213D01*
X167326053Y-76274830D01*
X167351779Y-76178820D01*
X167351779Y-75845684D01*
X167371464Y-75778645D01*
X167424268Y-75732890D01*
X167493426Y-75722946D01*
X167556982Y-75751971D01*
X167567929Y-75762712D01*
X167686173Y-75894037D01*
X167686176Y-75894039D01*
X167686179Y-75894042D01*
X167794518Y-75972755D01*
X167845272Y-76009630D01*
X168024916Y-76089613D01*
X168024921Y-76089615D01*
X168217274Y-76130501D01*
X168413924Y-76130501D01*
X168606277Y-76089615D01*
X168785926Y-76009630D01*
X168945019Y-75894042D01*
X168948562Y-75890108D01*
X169008923Y-75823069D01*
X169076603Y-75747903D01*
X169174928Y-75577599D01*
X169235696Y-75390574D01*
X169256252Y-75195001D01*
X169914946Y-75195001D01*
X169935502Y-75390576D01*
X169935503Y-75390578D01*
X169996267Y-75577593D01*
X169996270Y-75577599D01*
X170094594Y-75747902D01*
X170226173Y-75894037D01*
X170226176Y-75894039D01*
X170226179Y-75894042D01*
X170334518Y-75972755D01*
X170385272Y-76009630D01*
X170564916Y-76089613D01*
X170564921Y-76089615D01*
X170757274Y-76130501D01*
X170953924Y-76130501D01*
X171146277Y-76089615D01*
X171325926Y-76009630D01*
X171485019Y-75894042D01*
X171488562Y-75890108D01*
X171548923Y-75823069D01*
X171616603Y-75747903D01*
X171714928Y-75577599D01*
X171775696Y-75390574D01*
X171796252Y-75195001D01*
X172454946Y-75195001D01*
X172475502Y-75390576D01*
X172475503Y-75390578D01*
X172536267Y-75577593D01*
X172536270Y-75577599D01*
X172634594Y-75747902D01*
X172766173Y-75894037D01*
X172766176Y-75894039D01*
X172766179Y-75894042D01*
X172874518Y-75972755D01*
X172925272Y-76009630D01*
X173104916Y-76089613D01*
X173104921Y-76089615D01*
X173297274Y-76130501D01*
X173493924Y-76130501D01*
X173686277Y-76089615D01*
X173865926Y-76009630D01*
X174025019Y-75894042D01*
X174028562Y-75890108D01*
X174088923Y-75823069D01*
X174156603Y-75747903D01*
X174254928Y-75577599D01*
X174315696Y-75390574D01*
X174336252Y-75195001D01*
X174994946Y-75195001D01*
X175015502Y-75390576D01*
X175015503Y-75390578D01*
X175076267Y-75577593D01*
X175076270Y-75577599D01*
X175174594Y-75747902D01*
X175306173Y-75894037D01*
X175306176Y-75894039D01*
X175306179Y-75894042D01*
X175414518Y-75972755D01*
X175465272Y-76009630D01*
X175644916Y-76089613D01*
X175644921Y-76089615D01*
X175837274Y-76130501D01*
X176033924Y-76130501D01*
X176226277Y-76089615D01*
X176405926Y-76009630D01*
X176565019Y-75894042D01*
X176568562Y-75890108D01*
X176628923Y-75823069D01*
X176696603Y-75747903D01*
X176794928Y-75577599D01*
X176855696Y-75390574D01*
X176876252Y-75195001D01*
X177534946Y-75195001D01*
X177555502Y-75390576D01*
X177555503Y-75390578D01*
X177616267Y-75577593D01*
X177616270Y-75577599D01*
X177714594Y-75747902D01*
X177846173Y-75894037D01*
X177846176Y-75894039D01*
X177846179Y-75894042D01*
X177954518Y-75972755D01*
X178005272Y-76009630D01*
X178184916Y-76089613D01*
X178184921Y-76089615D01*
X178377274Y-76130501D01*
X178573924Y-76130501D01*
X178766277Y-76089615D01*
X178945926Y-76009630D01*
X179105019Y-75894042D01*
X179108562Y-75890108D01*
X179168923Y-75823069D01*
X179236603Y-75747903D01*
X179334928Y-75577599D01*
X179395696Y-75390574D01*
X179416252Y-75195001D01*
X179395696Y-74999428D01*
X179357494Y-74881854D01*
X179334930Y-74812408D01*
X179334927Y-74812402D01*
X179306852Y-74763775D01*
X179236603Y-74642099D01*
X179223268Y-74627289D01*
X179105024Y-74495964D01*
X179105021Y-74495962D01*
X179105020Y-74495961D01*
X179105019Y-74495960D01*
X178960721Y-74391121D01*
X178945925Y-74380371D01*
X178766281Y-74300388D01*
X178766276Y-74300386D01*
X178573924Y-74259501D01*
X178377274Y-74259501D01*
X178184921Y-74300386D01*
X178184916Y-74300388D01*
X178005273Y-74380371D01*
X178005268Y-74380374D01*
X177846180Y-74495958D01*
X177846173Y-74495964D01*
X177714594Y-74642099D01*
X177616270Y-74812402D01*
X177616267Y-74812408D01*
X177555503Y-74999423D01*
X177555502Y-74999425D01*
X177534946Y-75195001D01*
X176876252Y-75195001D01*
X176855696Y-74999428D01*
X176817494Y-74881854D01*
X176794930Y-74812408D01*
X176794927Y-74812402D01*
X176766852Y-74763775D01*
X176696603Y-74642099D01*
X176683268Y-74627289D01*
X176565024Y-74495964D01*
X176565021Y-74495962D01*
X176565020Y-74495961D01*
X176565019Y-74495960D01*
X176420721Y-74391121D01*
X176405925Y-74380371D01*
X176226281Y-74300388D01*
X176226276Y-74300386D01*
X176033924Y-74259501D01*
X175837274Y-74259501D01*
X175644921Y-74300386D01*
X175644916Y-74300388D01*
X175465273Y-74380371D01*
X175465268Y-74380374D01*
X175306180Y-74495958D01*
X175306173Y-74495964D01*
X175174594Y-74642099D01*
X175076270Y-74812402D01*
X175076267Y-74812408D01*
X175015503Y-74999423D01*
X175015502Y-74999425D01*
X174994946Y-75195001D01*
X174336252Y-75195001D01*
X174315696Y-74999428D01*
X174277494Y-74881854D01*
X174254930Y-74812408D01*
X174254927Y-74812402D01*
X174226852Y-74763775D01*
X174156603Y-74642099D01*
X174143268Y-74627289D01*
X174025024Y-74495964D01*
X174025021Y-74495962D01*
X174025020Y-74495961D01*
X174025019Y-74495960D01*
X173880721Y-74391121D01*
X173865925Y-74380371D01*
X173686281Y-74300388D01*
X173686276Y-74300386D01*
X173493924Y-74259501D01*
X173297274Y-74259501D01*
X173104921Y-74300386D01*
X173104916Y-74300388D01*
X172925273Y-74380371D01*
X172925268Y-74380374D01*
X172766180Y-74495958D01*
X172766173Y-74495964D01*
X172634594Y-74642099D01*
X172536270Y-74812402D01*
X172536267Y-74812408D01*
X172475503Y-74999423D01*
X172475502Y-74999425D01*
X172454946Y-75195001D01*
X171796252Y-75195001D01*
X171775696Y-74999428D01*
X171737494Y-74881854D01*
X171714930Y-74812408D01*
X171714927Y-74812402D01*
X171686852Y-74763775D01*
X171616603Y-74642099D01*
X171603268Y-74627289D01*
X171485024Y-74495964D01*
X171485021Y-74495962D01*
X171485020Y-74495961D01*
X171485019Y-74495960D01*
X171340721Y-74391121D01*
X171325925Y-74380371D01*
X171146281Y-74300388D01*
X171146276Y-74300386D01*
X170953924Y-74259501D01*
X170757274Y-74259501D01*
X170564921Y-74300386D01*
X170564916Y-74300388D01*
X170385273Y-74380371D01*
X170385268Y-74380374D01*
X170226180Y-74495958D01*
X170226173Y-74495964D01*
X170094594Y-74642099D01*
X169996270Y-74812402D01*
X169996267Y-74812408D01*
X169935503Y-74999423D01*
X169935502Y-74999425D01*
X169914946Y-75195001D01*
X169256252Y-75195001D01*
X169235696Y-74999428D01*
X169197494Y-74881854D01*
X169174930Y-74812408D01*
X169174927Y-74812402D01*
X169146852Y-74763775D01*
X169076603Y-74642099D01*
X169063268Y-74627289D01*
X168945024Y-74495964D01*
X168945021Y-74495962D01*
X168945020Y-74495961D01*
X168945019Y-74495960D01*
X168800721Y-74391121D01*
X168785925Y-74380371D01*
X168606281Y-74300388D01*
X168606276Y-74300386D01*
X168413924Y-74259501D01*
X168217274Y-74259501D01*
X168024921Y-74300386D01*
X168024916Y-74300388D01*
X167845273Y-74380371D01*
X167845268Y-74380374D01*
X167686180Y-74495958D01*
X167686173Y-74495964D01*
X167567929Y-74627289D01*
X167508442Y-74663938D01*
X167438585Y-74662607D01*
X167380537Y-74623721D01*
X167352727Y-74559624D01*
X167351779Y-74544317D01*
X167351779Y-74511862D01*
X167357322Y-74475201D01*
X167364985Y-74450442D01*
X167492377Y-74038822D01*
X167492648Y-74036706D01*
X167501078Y-74005037D01*
X167510609Y-73982030D01*
X167529529Y-73838321D01*
X167510609Y-73694612D01*
X167467491Y-73590514D01*
X167455141Y-73560698D01*
X167455140Y-73560697D01*
X167455140Y-73560696D01*
X167366900Y-73445700D01*
X167251904Y-73357460D01*
X167251903Y-73357459D01*
X167251901Y-73357458D01*
X167117991Y-73301992D01*
X167117989Y-73301991D01*
X167117988Y-73301991D01*
X167046133Y-73292531D01*
X166974280Y-73283071D01*
X166974278Y-73283071D01*
X166830572Y-73301990D01*
X166775525Y-73324790D01*
X166739959Y-73339523D01*
X166710295Y-73351810D01*
X166640825Y-73359278D01*
X166578346Y-73328002D01*
X166542694Y-73267913D01*
X166545189Y-73198088D01*
X166555456Y-73175248D01*
X166581438Y-73130246D01*
X166634928Y-73037599D01*
X166695696Y-72850574D01*
X166716252Y-72655001D01*
X167374946Y-72655001D01*
X167395502Y-72850576D01*
X167395503Y-72850578D01*
X167456267Y-73037593D01*
X167456270Y-73037599D01*
X167554594Y-73207902D01*
X167686173Y-73354037D01*
X167686176Y-73354039D01*
X167686179Y-73354042D01*
X167812335Y-73445700D01*
X167845272Y-73469630D01*
X168024916Y-73549613D01*
X168024921Y-73549615D01*
X168217274Y-73590501D01*
X168413924Y-73590501D01*
X168606277Y-73549615D01*
X168785926Y-73469630D01*
X168945019Y-73354042D01*
X168948562Y-73350108D01*
X168994301Y-73299309D01*
X169076603Y-73207903D01*
X169174928Y-73037599D01*
X169235696Y-72850574D01*
X169256252Y-72655001D01*
X169235696Y-72459428D01*
X169218011Y-72405000D01*
X169953712Y-72405000D01*
X169953712Y-72405001D01*
X170411039Y-72405001D01*
X170380354Y-72458148D01*
X170345599Y-72587858D01*
X170345599Y-72722144D01*
X170380354Y-72851854D01*
X170411039Y-72905001D01*
X169953712Y-72905001D01*
X169996726Y-73037388D01*
X169996729Y-73037394D01*
X170095001Y-73207605D01*
X170226515Y-73353668D01*
X170226517Y-73353670D01*
X170385519Y-73469192D01*
X170565078Y-73549137D01*
X170605598Y-73557750D01*
X170605599Y-73557750D01*
X170605599Y-73099561D01*
X170658746Y-73130246D01*
X170788456Y-73165001D01*
X170922742Y-73165001D01*
X171052452Y-73130246D01*
X171105599Y-73099561D01*
X171105599Y-73557750D01*
X171146119Y-73549137D01*
X171325678Y-73469192D01*
X171484680Y-73353670D01*
X171484682Y-73353668D01*
X171616196Y-73207605D01*
X171714468Y-73037394D01*
X171714471Y-73037388D01*
X171757486Y-72905001D01*
X171300159Y-72905001D01*
X171330844Y-72851854D01*
X171365599Y-72722144D01*
X171365599Y-72655001D01*
X172454946Y-72655001D01*
X172475502Y-72850576D01*
X172475503Y-72850578D01*
X172536267Y-73037593D01*
X172536270Y-73037599D01*
X172634594Y-73207902D01*
X172766173Y-73354037D01*
X172766176Y-73354039D01*
X172766179Y-73354042D01*
X172892335Y-73445700D01*
X172925272Y-73469630D01*
X173104916Y-73549613D01*
X173104921Y-73549615D01*
X173297274Y-73590501D01*
X173493924Y-73590501D01*
X173686277Y-73549615D01*
X173865926Y-73469630D01*
X174025019Y-73354042D01*
X174028562Y-73350108D01*
X174074301Y-73299309D01*
X174156603Y-73207903D01*
X174254928Y-73037599D01*
X174315696Y-72850574D01*
X174336252Y-72655001D01*
X174315696Y-72459428D01*
X174298011Y-72405000D01*
X175033712Y-72405000D01*
X175033712Y-72405001D01*
X175491039Y-72405001D01*
X175460354Y-72458148D01*
X175425599Y-72587858D01*
X175425599Y-72722144D01*
X175460354Y-72851854D01*
X175491039Y-72905001D01*
X175033712Y-72905001D01*
X175076726Y-73037388D01*
X175076729Y-73037394D01*
X175175001Y-73207605D01*
X175306515Y-73353668D01*
X175306517Y-73353670D01*
X175465519Y-73469192D01*
X175645078Y-73549137D01*
X175685598Y-73557750D01*
X175685599Y-73557750D01*
X175685599Y-73099561D01*
X175738746Y-73130246D01*
X175868456Y-73165001D01*
X176002742Y-73165001D01*
X176132452Y-73130246D01*
X176185599Y-73099561D01*
X176185599Y-73557750D01*
X176226119Y-73549137D01*
X176405678Y-73469192D01*
X176564680Y-73353670D01*
X176564682Y-73353668D01*
X176696196Y-73207605D01*
X176794468Y-73037394D01*
X176794471Y-73037388D01*
X176837486Y-72905001D01*
X176380159Y-72905001D01*
X176410844Y-72851854D01*
X176445599Y-72722144D01*
X176445599Y-72655001D01*
X177534946Y-72655001D01*
X177555502Y-72850576D01*
X177555503Y-72850578D01*
X177616267Y-73037593D01*
X177616270Y-73037599D01*
X177714594Y-73207902D01*
X177846173Y-73354037D01*
X177846176Y-73354039D01*
X177846179Y-73354042D01*
X177972335Y-73445700D01*
X178005272Y-73469630D01*
X178184916Y-73549613D01*
X178184921Y-73549615D01*
X178377274Y-73590501D01*
X178573924Y-73590501D01*
X178766277Y-73549615D01*
X178945926Y-73469630D01*
X179105019Y-73354042D01*
X179108562Y-73350108D01*
X179154301Y-73299309D01*
X179236603Y-73207903D01*
X179334928Y-73037599D01*
X179395696Y-72850574D01*
X179416252Y-72655001D01*
X180074946Y-72655001D01*
X180095502Y-72850576D01*
X180095503Y-72850578D01*
X180156267Y-73037593D01*
X180156270Y-73037599D01*
X180254594Y-73207902D01*
X180386173Y-73354037D01*
X180386176Y-73354039D01*
X180386179Y-73354042D01*
X180512335Y-73445700D01*
X180545272Y-73469630D01*
X180724916Y-73549613D01*
X180724921Y-73549615D01*
X180917274Y-73590501D01*
X181079176Y-73590501D01*
X181146215Y-73610186D01*
X181191970Y-73662990D01*
X181201914Y-73732148D01*
X181201654Y-73733863D01*
X181185099Y-73838390D01*
X181185099Y-74011612D01*
X181189409Y-74038827D01*
X181201649Y-74116103D01*
X181192694Y-74185396D01*
X181147698Y-74238848D01*
X181080947Y-74259488D01*
X181079176Y-74259501D01*
X180917274Y-74259501D01*
X180724921Y-74300386D01*
X180724916Y-74300388D01*
X180545273Y-74380371D01*
X180545268Y-74380374D01*
X180386180Y-74495958D01*
X180386173Y-74495964D01*
X180254594Y-74642099D01*
X180156270Y-74812402D01*
X180156267Y-74812408D01*
X180095503Y-74999423D01*
X180095502Y-74999425D01*
X180074946Y-75195001D01*
X180095502Y-75390576D01*
X180095503Y-75390578D01*
X180156267Y-75577593D01*
X180156270Y-75577599D01*
X180254594Y-75747902D01*
X180386173Y-75894037D01*
X180386176Y-75894039D01*
X180386179Y-75894042D01*
X180494518Y-75972755D01*
X180545272Y-76009630D01*
X180724916Y-76089613D01*
X180724921Y-76089615D01*
X180917274Y-76130501D01*
X181113924Y-76130501D01*
X181306277Y-76089615D01*
X181485926Y-76009630D01*
X181645019Y-75894042D01*
X181648562Y-75890108D01*
X181708923Y-75823069D01*
X181776603Y-75747903D01*
X181874928Y-75577599D01*
X181935696Y-75390574D01*
X181956252Y-75195001D01*
X181950917Y-75144247D01*
X181963486Y-75075520D01*
X182011218Y-75024495D01*
X182078958Y-75007377D01*
X182093619Y-75008812D01*
X182198988Y-75025501D01*
X182198990Y-75025501D01*
X182372209Y-75025501D01*
X182372210Y-75025501D01*
X182543300Y-74998403D01*
X182688975Y-74951070D01*
X182727293Y-74945001D01*
X183111039Y-74945001D01*
X183080354Y-74998148D01*
X183045599Y-75127858D01*
X183045599Y-75262144D01*
X183080354Y-75391854D01*
X183111039Y-75445001D01*
X182653712Y-75445001D01*
X182696726Y-75577388D01*
X182696729Y-75577394D01*
X182795001Y-75747605D01*
X182926515Y-75893668D01*
X182926517Y-75893670D01*
X183085519Y-76009192D01*
X183265078Y-76089137D01*
X183305598Y-76097750D01*
X183305599Y-76097750D01*
X183305599Y-75639561D01*
X183358746Y-75670246D01*
X183488456Y-75705001D01*
X183622742Y-75705001D01*
X183752452Y-75670246D01*
X183805599Y-75639561D01*
X183805599Y-76097750D01*
X183846119Y-76089137D01*
X184025678Y-76009192D01*
X184184680Y-75893670D01*
X184184682Y-75893668D01*
X184316196Y-75747605D01*
X184414468Y-75577394D01*
X184414471Y-75577388D01*
X184457486Y-75445001D01*
X184000159Y-75445001D01*
X184030844Y-75391854D01*
X184065599Y-75262144D01*
X184065599Y-75127858D01*
X184030844Y-74998148D01*
X184000159Y-74945001D01*
X184457486Y-74945001D01*
X184457485Y-74945000D01*
X184414471Y-74812613D01*
X184414468Y-74812607D01*
X184316196Y-74642396D01*
X184184682Y-74496333D01*
X184184680Y-74496331D01*
X184025678Y-74380809D01*
X184025673Y-74380807D01*
X183846123Y-74300865D01*
X183805599Y-74292250D01*
X183805599Y-74750440D01*
X183752452Y-74719756D01*
X183622742Y-74685001D01*
X183488456Y-74685001D01*
X183358746Y-74719756D01*
X183305599Y-74750440D01*
X183305599Y-74366694D01*
X183311668Y-74328376D01*
X183359001Y-74182702D01*
X183386099Y-74011612D01*
X183386099Y-73838390D01*
X183369549Y-73733898D01*
X183373213Y-73705550D01*
X186695099Y-73705550D01*
X186695099Y-73928451D01*
X186695100Y-73928467D01*
X186724193Y-74149453D01*
X186724194Y-74149458D01*
X186724195Y-74149464D01*
X186764635Y-74300388D01*
X186781889Y-74364781D01*
X186781892Y-74364791D01*
X186862595Y-74559624D01*
X186867194Y-74570727D01*
X186978651Y-74763775D01*
X186978656Y-74763781D01*
X186978657Y-74763783D01*
X187114350Y-74940623D01*
X187114356Y-74940630D01*
X187271969Y-75098243D01*
X187271975Y-75098248D01*
X187448825Y-75233949D01*
X187641873Y-75345406D01*
X187847818Y-75430711D01*
X188063136Y-75488405D01*
X188284142Y-75517501D01*
X188284149Y-75517501D01*
X188507049Y-75517501D01*
X188507056Y-75517501D01*
X188728062Y-75488405D01*
X188943380Y-75430711D01*
X189149325Y-75345406D01*
X189342373Y-75233949D01*
X189519223Y-75098248D01*
X189676846Y-74940625D01*
X189812547Y-74763775D01*
X189924004Y-74570727D01*
X190009309Y-74364782D01*
X190067003Y-74149464D01*
X190096099Y-73928458D01*
X190096099Y-73705544D01*
X190067003Y-73484538D01*
X190009309Y-73269220D01*
X189924004Y-73063275D01*
X189812547Y-72870227D01*
X189741103Y-72777119D01*
X189676847Y-72693378D01*
X189676841Y-72693371D01*
X189519228Y-72535758D01*
X189519221Y-72535752D01*
X189342381Y-72400059D01*
X189342379Y-72400058D01*
X189342373Y-72400053D01*
X189149325Y-72288596D01*
X189149321Y-72288594D01*
X188943389Y-72203294D01*
X188943382Y-72203292D01*
X188943380Y-72203291D01*
X188728062Y-72145597D01*
X188728056Y-72145596D01*
X188728051Y-72145595D01*
X188507065Y-72116502D01*
X188507062Y-72116501D01*
X188507056Y-72116501D01*
X188284142Y-72116501D01*
X188284136Y-72116501D01*
X188284132Y-72116502D01*
X188063146Y-72145595D01*
X188063139Y-72145596D01*
X188063136Y-72145597D01*
X187847818Y-72203291D01*
X187847808Y-72203294D01*
X187641876Y-72288594D01*
X187641872Y-72288596D01*
X187448825Y-72400053D01*
X187448816Y-72400059D01*
X187271976Y-72535752D01*
X187271969Y-72535758D01*
X187114356Y-72693371D01*
X187114350Y-72693378D01*
X186978657Y-72870218D01*
X186978651Y-72870227D01*
X186867194Y-73063274D01*
X186867192Y-73063278D01*
X186781892Y-73269210D01*
X186781889Y-73269220D01*
X186759163Y-73354037D01*
X186724196Y-73484535D01*
X186724193Y-73484548D01*
X186695100Y-73705534D01*
X186695099Y-73705550D01*
X183373213Y-73705550D01*
X183378504Y-73664606D01*
X183423500Y-73611154D01*
X183490251Y-73590514D01*
X183492022Y-73590501D01*
X183653924Y-73590501D01*
X183846277Y-73549615D01*
X184025926Y-73469630D01*
X184185019Y-73354042D01*
X184188562Y-73350108D01*
X184234301Y-73299309D01*
X184316603Y-73207903D01*
X184414928Y-73037599D01*
X184475696Y-72850574D01*
X184496252Y-72655001D01*
X184475696Y-72459428D01*
X184428978Y-72315645D01*
X184414930Y-72272408D01*
X184414927Y-72272402D01*
X184391260Y-72231410D01*
X184316603Y-72102099D01*
X184185024Y-71955964D01*
X184185021Y-71955962D01*
X184185020Y-71955961D01*
X184185019Y-71955960D01*
X184050694Y-71858367D01*
X184025925Y-71840371D01*
X183846281Y-71760388D01*
X183846276Y-71760386D01*
X183653924Y-71719501D01*
X183457274Y-71719501D01*
X183264921Y-71760386D01*
X183264916Y-71760388D01*
X183085273Y-71840371D01*
X183085268Y-71840374D01*
X182926180Y-71955958D01*
X182926173Y-71955964D01*
X182794594Y-72102099D01*
X182696270Y-72272402D01*
X182696267Y-72272408D01*
X182635503Y-72459423D01*
X182635502Y-72459425D01*
X182614946Y-72655001D01*
X182620280Y-72705753D01*
X182607710Y-72774483D01*
X182559978Y-72825507D01*
X182492237Y-72842624D01*
X182477561Y-72841187D01*
X182372210Y-72824501D01*
X182198988Y-72824501D01*
X182139331Y-72833949D01*
X182093636Y-72841187D01*
X182024342Y-72832232D01*
X181970890Y-72787236D01*
X181950251Y-72720484D01*
X181950916Y-72705765D01*
X181956252Y-72655001D01*
X181935696Y-72459428D01*
X181888978Y-72315645D01*
X181874930Y-72272408D01*
X181874927Y-72272402D01*
X181851260Y-72231410D01*
X181776603Y-72102099D01*
X181645024Y-71955964D01*
X181645021Y-71955962D01*
X181645020Y-71955961D01*
X181645019Y-71955960D01*
X181510694Y-71858367D01*
X181485925Y-71840371D01*
X181306281Y-71760388D01*
X181306276Y-71760386D01*
X181113924Y-71719501D01*
X180917274Y-71719501D01*
X180724921Y-71760386D01*
X180724916Y-71760388D01*
X180545273Y-71840371D01*
X180545268Y-71840374D01*
X180386180Y-71955958D01*
X180386173Y-71955964D01*
X180254594Y-72102099D01*
X180156270Y-72272402D01*
X180156267Y-72272408D01*
X180095503Y-72459423D01*
X180095502Y-72459425D01*
X180074946Y-72655001D01*
X179416252Y-72655001D01*
X179395696Y-72459428D01*
X179348978Y-72315645D01*
X179334930Y-72272408D01*
X179334927Y-72272402D01*
X179311260Y-72231410D01*
X179236603Y-72102099D01*
X179105024Y-71955964D01*
X179105021Y-71955962D01*
X179105020Y-71955961D01*
X179105019Y-71955960D01*
X178970694Y-71858367D01*
X178945925Y-71840371D01*
X178766281Y-71760388D01*
X178766276Y-71760386D01*
X178573924Y-71719501D01*
X178377274Y-71719501D01*
X178184921Y-71760386D01*
X178184916Y-71760388D01*
X178005273Y-71840371D01*
X178005268Y-71840374D01*
X177846180Y-71955958D01*
X177846173Y-71955964D01*
X177714594Y-72102099D01*
X177616270Y-72272402D01*
X177616267Y-72272408D01*
X177555503Y-72459423D01*
X177555502Y-72459425D01*
X177534946Y-72655001D01*
X176445599Y-72655001D01*
X176445599Y-72587858D01*
X176410844Y-72458148D01*
X176380159Y-72405001D01*
X176837486Y-72405001D01*
X176837485Y-72405000D01*
X176794471Y-72272613D01*
X176794468Y-72272607D01*
X176696196Y-72102396D01*
X176564682Y-71956333D01*
X176564680Y-71956331D01*
X176405678Y-71840809D01*
X176405673Y-71840807D01*
X176226123Y-71760865D01*
X176185599Y-71752250D01*
X176185599Y-72210440D01*
X176132452Y-72179756D01*
X176002742Y-72145001D01*
X175868456Y-72145001D01*
X175738746Y-72179756D01*
X175685599Y-72210440D01*
X175685599Y-71752251D01*
X175685598Y-71752250D01*
X175645075Y-71760865D01*
X175645074Y-71760865D01*
X175465524Y-71840807D01*
X175465519Y-71840809D01*
X175306517Y-71956331D01*
X175306515Y-71956333D01*
X175175001Y-72102396D01*
X175076729Y-72272607D01*
X175076726Y-72272613D01*
X175033712Y-72405000D01*
X174298011Y-72405000D01*
X174268978Y-72315645D01*
X174254930Y-72272408D01*
X174254927Y-72272402D01*
X174231260Y-72231410D01*
X174156603Y-72102099D01*
X174025024Y-71955964D01*
X174025021Y-71955962D01*
X174025020Y-71955961D01*
X174025019Y-71955960D01*
X173890694Y-71858367D01*
X173865925Y-71840371D01*
X173686281Y-71760388D01*
X173686276Y-71760386D01*
X173493924Y-71719501D01*
X173297274Y-71719501D01*
X173104921Y-71760386D01*
X173104916Y-71760388D01*
X172925273Y-71840371D01*
X172925268Y-71840374D01*
X172766180Y-71955958D01*
X172766173Y-71955964D01*
X172634594Y-72102099D01*
X172536270Y-72272402D01*
X172536267Y-72272408D01*
X172475503Y-72459423D01*
X172475502Y-72459425D01*
X172454946Y-72655001D01*
X171365599Y-72655001D01*
X171365599Y-72587858D01*
X171330844Y-72458148D01*
X171300159Y-72405001D01*
X171757486Y-72405001D01*
X171757485Y-72405000D01*
X171714471Y-72272613D01*
X171714468Y-72272607D01*
X171616196Y-72102396D01*
X171484682Y-71956333D01*
X171484680Y-71956331D01*
X171325678Y-71840809D01*
X171325673Y-71840807D01*
X171146123Y-71760865D01*
X171105599Y-71752250D01*
X171105599Y-72210440D01*
X171052452Y-72179756D01*
X170922742Y-72145001D01*
X170788456Y-72145001D01*
X170658746Y-72179756D01*
X170605599Y-72210440D01*
X170605599Y-71752251D01*
X170605598Y-71752250D01*
X170565075Y-71760865D01*
X170565074Y-71760865D01*
X170385524Y-71840807D01*
X170385519Y-71840809D01*
X170226517Y-71956331D01*
X170226515Y-71956333D01*
X170095001Y-72102396D01*
X169996729Y-72272607D01*
X169996726Y-72272613D01*
X169953712Y-72405000D01*
X169218011Y-72405000D01*
X169188978Y-72315645D01*
X169174930Y-72272408D01*
X169174927Y-72272402D01*
X169151260Y-72231410D01*
X169076603Y-72102099D01*
X168945024Y-71955964D01*
X168945021Y-71955962D01*
X168945020Y-71955961D01*
X168945019Y-71955960D01*
X168810694Y-71858367D01*
X168785925Y-71840371D01*
X168606281Y-71760388D01*
X168606276Y-71760386D01*
X168413924Y-71719501D01*
X168217274Y-71719501D01*
X168024921Y-71760386D01*
X168024916Y-71760388D01*
X167845273Y-71840371D01*
X167845268Y-71840374D01*
X167686180Y-71955958D01*
X167686173Y-71955964D01*
X167554594Y-72102099D01*
X167456270Y-72272402D01*
X167456267Y-72272408D01*
X167395503Y-72459423D01*
X167395502Y-72459425D01*
X167374946Y-72655001D01*
X166716252Y-72655001D01*
X166695696Y-72459428D01*
X166648978Y-72315645D01*
X166634930Y-72272408D01*
X166634927Y-72272402D01*
X166611260Y-72231410D01*
X166536603Y-72102099D01*
X166405024Y-71955964D01*
X166405021Y-71955962D01*
X166405020Y-71955961D01*
X166405019Y-71955960D01*
X166270694Y-71858367D01*
X166245925Y-71840371D01*
X166066281Y-71760388D01*
X166066276Y-71760386D01*
X165873924Y-71719501D01*
X165677274Y-71719501D01*
X165484921Y-71760386D01*
X165484916Y-71760388D01*
X165305273Y-71840371D01*
X165305268Y-71840374D01*
X165146180Y-71955958D01*
X165146173Y-71955964D01*
X165014594Y-72102099D01*
X164916270Y-72272402D01*
X164916267Y-72272408D01*
X164855503Y-72459423D01*
X164855502Y-72459425D01*
X164834946Y-72655001D01*
X164855502Y-72850576D01*
X164855503Y-72850578D01*
X164916267Y-73037593D01*
X164916270Y-73037599D01*
X165014594Y-73207902D01*
X165146173Y-73354037D01*
X165146176Y-73354039D01*
X165146179Y-73354042D01*
X165272335Y-73445700D01*
X165305272Y-73469630D01*
X165484916Y-73549613D01*
X165484921Y-73549615D01*
X165677274Y-73590501D01*
X165873924Y-73590501D01*
X166066277Y-73549615D01*
X166245926Y-73469630D01*
X166298223Y-73431633D01*
X166364026Y-73408154D01*
X166432080Y-73423979D01*
X166480776Y-73474084D01*
X166494652Y-73542561D01*
X166485669Y-73579403D01*
X166437949Y-73694612D01*
X166419029Y-73838320D01*
X166419029Y-73838321D01*
X166437949Y-73982029D01*
X166437949Y-73982030D01*
X166447500Y-74005090D01*
X166454559Y-74032933D01*
X166454957Y-74032852D01*
X166456177Y-74038813D01*
X166543592Y-74321259D01*
X166544608Y-74391121D01*
X166507692Y-74450442D01*
X166444565Y-74480388D01*
X166375269Y-74471451D01*
X166352250Y-74458238D01*
X166245678Y-74380809D01*
X166245673Y-74380807D01*
X166066123Y-74300865D01*
X166025599Y-74292250D01*
X166025599Y-74750440D01*
X165972452Y-74719756D01*
X165842742Y-74685001D01*
X165708456Y-74685001D01*
X165578746Y-74719756D01*
X165525599Y-74750440D01*
X165525599Y-74292251D01*
X165525598Y-74292250D01*
X165485075Y-74300865D01*
X165485074Y-74300865D01*
X165305524Y-74380807D01*
X165305519Y-74380809D01*
X165146517Y-74496331D01*
X165146515Y-74496333D01*
X165015001Y-74642396D01*
X164916729Y-74812607D01*
X164916726Y-74812613D01*
X164873712Y-74945000D01*
X164873712Y-74945001D01*
X165331039Y-74945001D01*
X165300354Y-74998148D01*
X165265599Y-75127858D01*
X165265599Y-75262144D01*
X165300354Y-75391854D01*
X165331039Y-75445001D01*
X164873712Y-75445001D01*
X164916726Y-75577388D01*
X164916729Y-75577394D01*
X165015001Y-75747605D01*
X165146515Y-75893668D01*
X165146517Y-75893670D01*
X165305519Y-76009192D01*
X165305524Y-76009194D01*
X165466669Y-76080942D01*
X165519906Y-76126192D01*
X165540227Y-76193041D01*
X165521182Y-76260265D01*
X165468815Y-76306520D01*
X165416233Y-76318221D01*
X163596194Y-76318221D01*
X163529155Y-76298536D01*
X163483400Y-76245732D01*
X163473456Y-76176574D01*
X163502481Y-76113018D01*
X163545758Y-76080942D01*
X163631439Y-76042793D01*
X163705926Y-76009630D01*
X163865019Y-75894042D01*
X163868562Y-75890108D01*
X163928923Y-75823069D01*
X163996603Y-75747903D01*
X164094928Y-75577599D01*
X164155696Y-75390574D01*
X164176252Y-75195001D01*
X164155696Y-74999428D01*
X164117494Y-74881854D01*
X164094930Y-74812408D01*
X164094927Y-74812402D01*
X164066852Y-74763775D01*
X163996603Y-74642099D01*
X163983268Y-74627289D01*
X163865024Y-74495964D01*
X163865021Y-74495962D01*
X163865020Y-74495961D01*
X163865019Y-74495960D01*
X163720721Y-74391121D01*
X163705925Y-74380371D01*
X163526281Y-74300388D01*
X163526276Y-74300386D01*
X163333924Y-74259501D01*
X163137274Y-74259501D01*
X162944921Y-74300386D01*
X162944916Y-74300388D01*
X162765273Y-74380371D01*
X162765268Y-74380374D01*
X162606180Y-74495958D01*
X162606173Y-74495964D01*
X162474594Y-74642099D01*
X162376270Y-74812402D01*
X162376267Y-74812408D01*
X162315503Y-74999423D01*
X162315502Y-74999425D01*
X162294946Y-75195001D01*
X162315502Y-75390576D01*
X162315503Y-75390578D01*
X162376267Y-75577593D01*
X162376270Y-75577599D01*
X162474594Y-75747902D01*
X162606173Y-75894037D01*
X162606176Y-75894039D01*
X162606179Y-75894042D01*
X162714518Y-75972755D01*
X162765272Y-76009630D01*
X162925440Y-76080942D01*
X162978677Y-76126192D01*
X162998998Y-76193041D01*
X162979953Y-76260265D01*
X162927586Y-76306520D01*
X162875004Y-76318221D01*
X161056194Y-76318221D01*
X160989155Y-76298536D01*
X160943400Y-76245732D01*
X160933456Y-76176574D01*
X160962481Y-76113018D01*
X161005758Y-76080942D01*
X161091439Y-76042793D01*
X161165926Y-76009630D01*
X161325019Y-75894042D01*
X161328562Y-75890108D01*
X161388923Y-75823069D01*
X161456603Y-75747903D01*
X161554928Y-75577599D01*
X161615696Y-75390574D01*
X161636252Y-75195001D01*
X161615696Y-74999428D01*
X161577494Y-74881854D01*
X161554930Y-74812408D01*
X161554927Y-74812402D01*
X161526852Y-74763775D01*
X161456603Y-74642099D01*
X161443268Y-74627289D01*
X161325024Y-74495964D01*
X161325021Y-74495962D01*
X161325020Y-74495961D01*
X161325019Y-74495960D01*
X161180721Y-74391121D01*
X161165925Y-74380371D01*
X160986281Y-74300388D01*
X160986276Y-74300386D01*
X160793924Y-74259501D01*
X160597274Y-74259501D01*
X160404921Y-74300386D01*
X160404916Y-74300388D01*
X160225273Y-74380371D01*
X160225268Y-74380374D01*
X160066180Y-74495958D01*
X160066173Y-74495964D01*
X159934594Y-74642099D01*
X159836270Y-74812402D01*
X159836267Y-74812408D01*
X159775503Y-74999423D01*
X159775502Y-74999425D01*
X159754946Y-75195001D01*
X159775502Y-75390576D01*
X159775503Y-75390578D01*
X159836267Y-75577593D01*
X159836270Y-75577599D01*
X159934594Y-75747902D01*
X160066173Y-75894037D01*
X160066176Y-75894039D01*
X160066179Y-75894042D01*
X160174518Y-75972755D01*
X160225272Y-76009630D01*
X160385440Y-76080942D01*
X160438677Y-76126192D01*
X160458998Y-76193041D01*
X160439953Y-76260265D01*
X160387586Y-76306520D01*
X160335004Y-76318221D01*
X158516194Y-76318221D01*
X158449155Y-76298536D01*
X158403400Y-76245732D01*
X158393456Y-76176574D01*
X158422481Y-76113018D01*
X158465758Y-76080942D01*
X158551439Y-76042793D01*
X158625926Y-76009630D01*
X158785019Y-75894042D01*
X158788562Y-75890108D01*
X158848923Y-75823069D01*
X158916603Y-75747903D01*
X159014928Y-75577599D01*
X159075696Y-75390574D01*
X159096252Y-75195001D01*
X159075696Y-74999428D01*
X159037494Y-74881854D01*
X159014930Y-74812408D01*
X159014927Y-74812402D01*
X158986852Y-74763775D01*
X158916603Y-74642099D01*
X158903268Y-74627289D01*
X158785024Y-74495964D01*
X158785021Y-74495962D01*
X158785020Y-74495961D01*
X158785019Y-74495960D01*
X158640721Y-74391121D01*
X158625925Y-74380371D01*
X158446281Y-74300388D01*
X158446276Y-74300386D01*
X158253924Y-74259501D01*
X158057274Y-74259501D01*
X157864921Y-74300386D01*
X157864916Y-74300388D01*
X157685273Y-74380371D01*
X157685268Y-74380374D01*
X157526180Y-74495958D01*
X157526173Y-74495964D01*
X157394594Y-74642099D01*
X157296270Y-74812402D01*
X157296267Y-74812408D01*
X157235503Y-74999423D01*
X157235502Y-74999425D01*
X157214946Y-75195001D01*
X157235502Y-75390576D01*
X157235503Y-75390578D01*
X157296267Y-75577593D01*
X157296270Y-75577599D01*
X157394594Y-75747902D01*
X157526173Y-75894037D01*
X157526176Y-75894039D01*
X157526179Y-75894042D01*
X157634518Y-75972755D01*
X157685272Y-76009630D01*
X157845440Y-76080942D01*
X157898677Y-76126192D01*
X157918998Y-76193041D01*
X157899953Y-76260265D01*
X157847586Y-76306520D01*
X157795004Y-76318221D01*
X155976194Y-76318221D01*
X155909155Y-76298536D01*
X155863400Y-76245732D01*
X155853456Y-76176574D01*
X155882481Y-76113018D01*
X155925758Y-76080942D01*
X156011439Y-76042793D01*
X156085926Y-76009630D01*
X156245019Y-75894042D01*
X156248562Y-75890108D01*
X156308923Y-75823069D01*
X156376603Y-75747903D01*
X156474928Y-75577599D01*
X156535696Y-75390574D01*
X156556252Y-75195001D01*
X156535696Y-74999428D01*
X156497494Y-74881854D01*
X156474930Y-74812408D01*
X156474927Y-74812402D01*
X156446852Y-74763775D01*
X156376603Y-74642099D01*
X156363268Y-74627289D01*
X156245024Y-74495964D01*
X156245021Y-74495962D01*
X156245020Y-74495961D01*
X156245019Y-74495960D01*
X156100721Y-74391121D01*
X156085925Y-74380371D01*
X155906281Y-74300388D01*
X155906276Y-74300386D01*
X155713924Y-74259501D01*
X155517274Y-74259501D01*
X155324921Y-74300386D01*
X155324916Y-74300388D01*
X155145273Y-74380371D01*
X155145268Y-74380374D01*
X154986180Y-74495958D01*
X154986173Y-74495964D01*
X154854594Y-74642099D01*
X154756270Y-74812402D01*
X154756267Y-74812408D01*
X154695503Y-74999423D01*
X154695502Y-74999425D01*
X154674946Y-75195001D01*
X154695502Y-75390576D01*
X154695503Y-75390578D01*
X154756267Y-75577593D01*
X154756270Y-75577599D01*
X154854594Y-75747902D01*
X154986173Y-75894037D01*
X154986176Y-75894039D01*
X154986179Y-75894042D01*
X155094518Y-75972755D01*
X155145272Y-76009630D01*
X155324916Y-76089613D01*
X155324921Y-76089615D01*
X155510912Y-76129148D01*
X155572393Y-76162340D01*
X155606169Y-76223503D01*
X155601517Y-76293218D01*
X155559912Y-76349350D01*
X155547132Y-76357824D01*
X155485092Y-76393644D01*
X155485086Y-76393648D01*
X150690313Y-81188421D01*
X150628990Y-81221906D01*
X150559298Y-81216922D01*
X150503365Y-81175050D01*
X150478948Y-81109586D01*
X150492947Y-81042902D01*
X150499254Y-81030942D01*
X150695472Y-80658828D01*
X150717471Y-80628992D01*
X152076354Y-79270112D01*
X152100422Y-79228425D01*
X152117891Y-79198168D01*
X152122762Y-79189729D01*
X152126052Y-79184031D01*
X152126053Y-79184030D01*
X152151779Y-79088020D01*
X152151779Y-75890108D01*
X152171464Y-75823069D01*
X152224268Y-75777314D01*
X152293426Y-75767370D01*
X152356982Y-75796395D01*
X152367925Y-75807132D01*
X152382275Y-75823069D01*
X152446174Y-75894038D01*
X152446176Y-75894039D01*
X152446179Y-75894042D01*
X152554518Y-75972755D01*
X152605272Y-76009630D01*
X152784916Y-76089613D01*
X152784921Y-76089615D01*
X152977274Y-76130501D01*
X153173924Y-76130501D01*
X153366277Y-76089615D01*
X153545926Y-76009630D01*
X153705019Y-75894042D01*
X153708562Y-75890108D01*
X153768923Y-75823069D01*
X153836603Y-75747903D01*
X153934928Y-75577599D01*
X153995696Y-75390574D01*
X154016252Y-75195001D01*
X153995696Y-74999428D01*
X153957494Y-74881854D01*
X153934930Y-74812408D01*
X153934927Y-74812402D01*
X153906852Y-74763775D01*
X153836603Y-74642099D01*
X153823268Y-74627289D01*
X153705024Y-74495964D01*
X153705021Y-74495962D01*
X153705020Y-74495961D01*
X153705019Y-74495960D01*
X153560721Y-74391121D01*
X153545925Y-74380371D01*
X153366281Y-74300388D01*
X153366276Y-74300386D01*
X153173924Y-74259501D01*
X152977274Y-74259501D01*
X152784921Y-74300386D01*
X152784916Y-74300388D01*
X152605273Y-74380371D01*
X152605268Y-74380374D01*
X152446180Y-74495958D01*
X152446173Y-74495964D01*
X152367929Y-74582865D01*
X152308443Y-74619514D01*
X152238586Y-74618184D01*
X152180537Y-74579297D01*
X152152727Y-74515200D01*
X152151779Y-74499893D01*
X152151779Y-73350108D01*
X152171464Y-73283069D01*
X152224268Y-73237314D01*
X152293426Y-73227370D01*
X152356982Y-73256395D01*
X152367925Y-73267132D01*
X152389324Y-73290898D01*
X152446174Y-73354038D01*
X152446176Y-73354039D01*
X152446179Y-73354042D01*
X152572335Y-73445700D01*
X152605272Y-73469630D01*
X152784916Y-73549613D01*
X152784921Y-73549615D01*
X152977274Y-73590501D01*
X153173924Y-73590501D01*
X153366277Y-73549615D01*
X153545926Y-73469630D01*
X153705019Y-73354042D01*
X153708562Y-73350108D01*
X153754301Y-73299309D01*
X153836603Y-73207903D01*
X153934928Y-73037599D01*
X153995696Y-72850574D01*
X154016252Y-72655001D01*
X153995696Y-72459428D01*
X153948978Y-72315645D01*
X153934930Y-72272408D01*
X153934927Y-72272402D01*
X153911260Y-72231410D01*
X153836603Y-72102099D01*
X153705024Y-71955964D01*
X153705021Y-71955962D01*
X153705020Y-71955961D01*
X153705019Y-71955960D01*
X153570694Y-71858367D01*
X153545925Y-71840371D01*
X153366281Y-71760388D01*
X153360100Y-71758380D01*
X153360775Y-71756301D01*
X153308203Y-71727920D01*
X153274426Y-71666757D01*
X153279078Y-71597043D01*
X153320682Y-71540910D01*
X153386029Y-71516181D01*
X153395465Y-71515821D01*
X155295733Y-71515821D01*
X155362772Y-71535506D01*
X155408527Y-71588310D01*
X155418471Y-71657468D01*
X155389446Y-71721024D01*
X155330668Y-71758798D01*
X155326811Y-71759772D01*
X155324916Y-71760388D01*
X155145273Y-71840371D01*
X155145268Y-71840374D01*
X154986180Y-71955958D01*
X154986173Y-71955964D01*
X154854594Y-72102099D01*
X154756270Y-72272402D01*
X154756267Y-72272408D01*
X154695503Y-72459423D01*
X154695502Y-72459425D01*
X154674946Y-72655001D01*
X154695502Y-72850576D01*
X154695503Y-72850578D01*
X154756267Y-73037593D01*
X154756270Y-73037599D01*
X154854594Y-73207902D01*
X154986173Y-73354037D01*
X154986176Y-73354039D01*
X154986179Y-73354042D01*
X155112335Y-73445700D01*
X155145272Y-73469630D01*
X155324916Y-73549613D01*
X155324921Y-73549615D01*
X155517274Y-73590501D01*
X155713924Y-73590501D01*
X155906277Y-73549615D01*
X156085926Y-73469630D01*
X156245019Y-73354042D01*
X156248562Y-73350108D01*
X156294301Y-73299309D01*
X156376603Y-73207903D01*
X156474928Y-73037599D01*
X156535696Y-72850574D01*
X156556252Y-72655001D01*
X156535696Y-72459428D01*
X156488978Y-72315645D01*
X156474930Y-72272408D01*
X156474927Y-72272402D01*
X156451260Y-72231410D01*
X156376603Y-72102099D01*
X156245024Y-71955964D01*
X156245021Y-71955962D01*
X156245020Y-71955961D01*
X156245019Y-71955960D01*
X156110694Y-71858367D01*
X156085925Y-71840371D01*
X155906281Y-71760388D01*
X155900100Y-71758380D01*
X155900775Y-71756301D01*
X155848203Y-71727920D01*
X155814426Y-71666757D01*
X155819078Y-71597043D01*
X155860682Y-71540910D01*
X155926029Y-71516181D01*
X155935465Y-71515821D01*
X157838138Y-71515821D01*
X157905177Y-71535506D01*
X157950932Y-71588310D01*
X157960876Y-71657468D01*
X157931851Y-71721024D01*
X157873073Y-71758798D01*
X157865714Y-71760657D01*
X157865072Y-71760866D01*
X157685524Y-71840807D01*
X157685519Y-71840809D01*
X157526517Y-71956331D01*
X157526515Y-71956333D01*
X157395001Y-72102396D01*
X157296729Y-72272607D01*
X157296726Y-72272613D01*
X157253712Y-72405000D01*
X157253712Y-72405001D01*
X157711039Y-72405001D01*
X157680354Y-72458148D01*
X157645599Y-72587858D01*
X157645599Y-72722144D01*
X157680354Y-72851854D01*
X157711039Y-72905001D01*
X157253712Y-72905001D01*
X157296726Y-73037388D01*
X157296729Y-73037394D01*
X157395001Y-73207605D01*
X157526515Y-73353668D01*
X157526517Y-73353670D01*
X157685519Y-73469192D01*
X157865078Y-73549137D01*
X157905599Y-73557750D01*
X157905599Y-73099561D01*
X157958746Y-73130246D01*
X158088456Y-73165001D01*
X158222742Y-73165001D01*
X158352452Y-73130246D01*
X158405599Y-73099561D01*
X158405599Y-73557750D01*
X158446119Y-73549137D01*
X158625678Y-73469192D01*
X158784680Y-73353670D01*
X158784682Y-73353668D01*
X158916196Y-73207605D01*
X159014468Y-73037394D01*
X159014471Y-73037388D01*
X159057486Y-72905001D01*
X158600159Y-72905001D01*
X158630844Y-72851854D01*
X158665599Y-72722144D01*
X158665599Y-72587858D01*
X158630844Y-72458148D01*
X158600159Y-72405001D01*
X159057486Y-72405001D01*
X159057485Y-72405000D01*
X159014471Y-72272613D01*
X159014468Y-72272607D01*
X158916196Y-72102396D01*
X158784682Y-71956333D01*
X158784680Y-71956331D01*
X158625678Y-71840809D01*
X158625673Y-71840807D01*
X158446125Y-71760866D01*
X158439944Y-71758858D01*
X158440415Y-71757405D01*
X158385798Y-71727920D01*
X158352021Y-71666757D01*
X158356673Y-71597043D01*
X158398276Y-71540910D01*
X158463623Y-71516181D01*
X158473060Y-71515821D01*
X160375733Y-71515821D01*
X160442772Y-71535506D01*
X160488527Y-71588310D01*
X160498471Y-71657468D01*
X160469446Y-71721024D01*
X160410668Y-71758798D01*
X160406811Y-71759772D01*
X160404916Y-71760388D01*
X160225273Y-71840371D01*
X160225268Y-71840374D01*
X160066180Y-71955958D01*
X160066173Y-71955964D01*
X159934594Y-72102099D01*
X159836270Y-72272402D01*
X159836267Y-72272408D01*
X159775503Y-72459423D01*
X159775502Y-72459425D01*
X159754946Y-72655001D01*
X159775502Y-72850576D01*
X159775503Y-72850578D01*
X159836267Y-73037593D01*
X159836270Y-73037599D01*
X159934594Y-73207902D01*
X160066173Y-73354037D01*
X160066176Y-73354039D01*
X160066179Y-73354042D01*
X160192335Y-73445700D01*
X160225272Y-73469630D01*
X160404916Y-73549613D01*
X160404921Y-73549615D01*
X160597274Y-73590501D01*
X160793924Y-73590501D01*
X160986277Y-73549615D01*
X161165926Y-73469630D01*
X161325019Y-73354042D01*
X161328562Y-73350108D01*
X161374301Y-73299309D01*
X161456603Y-73207903D01*
X161554928Y-73037599D01*
X161615696Y-72850574D01*
X161636252Y-72655001D01*
X161615696Y-72459428D01*
X161568978Y-72315645D01*
X161554930Y-72272408D01*
X161554927Y-72272402D01*
X161531260Y-72231410D01*
X161456603Y-72102099D01*
X161325024Y-71955964D01*
X161325021Y-71955962D01*
X161325020Y-71955961D01*
X161325019Y-71955960D01*
X161190694Y-71858367D01*
X161165925Y-71840371D01*
X160986281Y-71760388D01*
X160980100Y-71758380D01*
X160980775Y-71756301D01*
X160928203Y-71727920D01*
X160894426Y-71666757D01*
X160899078Y-71597043D01*
X160940682Y-71540910D01*
X161006029Y-71516181D01*
X161015465Y-71515821D01*
X162915733Y-71515821D01*
X162982772Y-71535506D01*
X163028527Y-71588310D01*
X163038471Y-71657468D01*
X163009446Y-71721024D01*
X162950668Y-71758798D01*
X162946811Y-71759772D01*
X162944916Y-71760388D01*
X162765273Y-71840371D01*
X162765268Y-71840374D01*
X162606180Y-71955958D01*
X162606173Y-71955964D01*
X162474594Y-72102099D01*
X162376270Y-72272402D01*
X162376267Y-72272408D01*
X162315503Y-72459423D01*
X162315502Y-72459425D01*
X162294946Y-72655001D01*
X162315502Y-72850576D01*
X162315503Y-72850578D01*
X162376267Y-73037593D01*
X162376270Y-73037599D01*
X162474594Y-73207902D01*
X162606173Y-73354037D01*
X162606176Y-73354039D01*
X162606179Y-73354042D01*
X162732335Y-73445700D01*
X162765272Y-73469630D01*
X162944916Y-73549613D01*
X162944921Y-73549615D01*
X163137274Y-73590501D01*
X163333924Y-73590501D01*
X163526277Y-73549615D01*
X163705926Y-73469630D01*
X163865019Y-73354042D01*
X163868562Y-73350108D01*
X163914301Y-73299309D01*
X163996603Y-73207903D01*
X164094928Y-73037599D01*
X164155696Y-72850574D01*
X164176252Y-72655001D01*
X164155696Y-72459428D01*
X164108978Y-72315645D01*
X164094930Y-72272408D01*
X164094927Y-72272402D01*
X164071260Y-72231410D01*
X163996603Y-72102099D01*
X163865024Y-71955964D01*
X163865021Y-71955962D01*
X163865020Y-71955961D01*
X163865019Y-71955960D01*
X163730694Y-71858367D01*
X163705925Y-71840371D01*
X163526281Y-71760388D01*
X163520100Y-71758380D01*
X163520775Y-71756301D01*
X163468203Y-71727920D01*
X163434426Y-71666757D01*
X163439078Y-71597043D01*
X163480682Y-71540910D01*
X163546029Y-71516181D01*
X163555465Y-71515821D01*
X163839722Y-71515821D01*
X163867190Y-71518901D01*
X163872493Y-71520104D01*
X163872509Y-71520110D01*
X164429262Y-71590171D01*
X164444666Y-71591637D01*
X164446088Y-71591729D01*
X164459249Y-71592176D01*
X164471196Y-71593164D01*
X164474279Y-71593571D01*
X164617988Y-71574651D01*
X164751904Y-71519182D01*
X164866900Y-71430942D01*
X164955140Y-71315946D01*
X165010609Y-71182030D01*
X165029529Y-71038321D01*
X165010609Y-70894612D01*
X164955140Y-70760696D01*
X164866900Y-70645700D01*
X164751904Y-70557460D01*
X164751903Y-70557459D01*
X164751901Y-70557458D01*
X164617991Y-70501992D01*
X164617989Y-70501991D01*
X164617988Y-70501991D01*
X164546133Y-70492531D01*
X164474280Y-70483071D01*
X164474278Y-70483071D01*
X164330568Y-70501991D01*
X164256756Y-70532564D01*
X164245593Y-70536574D01*
X164227124Y-70542226D01*
X164227116Y-70542229D01*
X164211443Y-70550655D01*
X164200193Y-70555993D01*
X164196661Y-70557456D01*
X164191509Y-70560430D01*
X164182843Y-70566031D01*
X163848038Y-70746037D01*
X163789319Y-70760821D01*
X152324576Y-70760821D01*
X152248862Y-70781107D01*
X152248863Y-70781108D01*
X152228573Y-70786545D01*
X152228568Y-70786547D01*
X152142489Y-70836246D01*
X152142486Y-70836248D01*
X151472206Y-71506528D01*
X151472204Y-71506531D01*
X151422505Y-71592609D01*
X151403982Y-71661740D01*
X151403981Y-71661739D01*
X151396779Y-71688617D01*
X151396779Y-71891072D01*
X151377094Y-71958111D01*
X151324290Y-72003866D01*
X151255132Y-72013810D01*
X151191576Y-71984785D01*
X151180629Y-71974044D01*
X151164682Y-71956333D01*
X151164680Y-71956331D01*
X151005678Y-71840809D01*
X151005673Y-71840807D01*
X150826123Y-71760865D01*
X150785599Y-71752250D01*
X150785599Y-72210440D01*
X150732452Y-72179756D01*
X150602742Y-72145001D01*
X150468456Y-72145001D01*
X150338746Y-72179756D01*
X150285599Y-72210440D01*
X150285599Y-71752251D01*
X150285598Y-71752250D01*
X150245075Y-71760865D01*
X150245074Y-71760865D01*
X150065524Y-71840807D01*
X150065519Y-71840809D01*
X149906517Y-71956331D01*
X149906515Y-71956333D01*
X149775001Y-72102396D01*
X149676729Y-72272607D01*
X149676726Y-72272613D01*
X149633712Y-72405000D01*
X149633712Y-72405001D01*
X150091039Y-72405001D01*
X150060354Y-72458148D01*
X150025599Y-72587858D01*
X150025599Y-72722144D01*
X150060354Y-72851854D01*
X150091039Y-72905001D01*
X149633712Y-72905001D01*
X149676726Y-73037388D01*
X149676729Y-73037394D01*
X149775001Y-73207605D01*
X149906515Y-73353668D01*
X149906517Y-73353670D01*
X150065519Y-73469192D01*
X150245078Y-73549137D01*
X150285599Y-73557750D01*
X150285599Y-73099561D01*
X150338746Y-73130246D01*
X150468456Y-73165001D01*
X150602742Y-73165001D01*
X150732452Y-73130246D01*
X150785599Y-73099561D01*
X150785599Y-73557750D01*
X150826119Y-73549137D01*
X151005678Y-73469192D01*
X151164680Y-73353670D01*
X151180627Y-73335959D01*
X151240113Y-73299309D01*
X151309970Y-73300638D01*
X151368019Y-73339523D01*
X151395830Y-73403619D01*
X151396779Y-73418929D01*
X151396779Y-74430323D01*
X151377094Y-74497362D01*
X151324290Y-74543117D01*
X151255132Y-74553061D01*
X151191576Y-74524036D01*
X151180630Y-74513296D01*
X151165025Y-74495965D01*
X151165021Y-74495962D01*
X151165020Y-74495961D01*
X151165019Y-74495960D01*
X151020721Y-74391121D01*
X151005925Y-74380371D01*
X150826281Y-74300388D01*
X150826276Y-74300386D01*
X150633924Y-74259501D01*
X150437274Y-74259501D01*
X150244921Y-74300386D01*
X150244916Y-74300388D01*
X150065273Y-74380371D01*
X150065268Y-74380374D01*
X149906180Y-74495958D01*
X149906173Y-74495964D01*
X149774594Y-74642099D01*
X149676270Y-74812402D01*
X149676267Y-74812408D01*
X149615503Y-74999423D01*
X149615502Y-74999425D01*
X149594946Y-75195001D01*
X149615502Y-75390576D01*
X149615503Y-75390578D01*
X149676267Y-75577593D01*
X149676270Y-75577599D01*
X149774594Y-75747902D01*
X149906173Y-75894037D01*
X149906176Y-75894039D01*
X149906179Y-75894042D01*
X150014518Y-75972755D01*
X150065272Y-76009630D01*
X150244916Y-76089613D01*
X150244921Y-76089615D01*
X150437274Y-76130501D01*
X150633924Y-76130501D01*
X150826277Y-76089615D01*
X151005926Y-76009630D01*
X151165019Y-75894042D01*
X151165356Y-75893668D01*
X151180628Y-75876707D01*
X151240115Y-75840058D01*
X151309972Y-75841387D01*
X151368020Y-75880273D01*
X151395830Y-75944370D01*
X151396779Y-75959678D01*
X151396779Y-78830592D01*
X151377094Y-78897631D01*
X151360460Y-78918273D01*
X150183612Y-80095120D01*
X150153770Y-80117124D01*
X149749704Y-80330194D01*
X149749697Y-80330198D01*
X149747988Y-80331519D01*
X149719665Y-80347928D01*
X149696655Y-80357459D01*
X149581658Y-80445700D01*
X149493416Y-80560698D01*
X149437950Y-80694608D01*
X149437949Y-80694612D01*
X149419029Y-80838321D01*
X149430960Y-80928948D01*
X149437949Y-80982029D01*
X149437950Y-80982033D01*
X149493416Y-81115943D01*
X149493417Y-81115945D01*
X149493418Y-81115946D01*
X149581658Y-81230942D01*
X149696654Y-81319182D01*
X149830570Y-81374651D01*
X149957559Y-81391369D01*
X149974278Y-81393571D01*
X149974279Y-81393571D01*
X149974280Y-81393571D01*
X149989256Y-81391599D01*
X150117988Y-81374651D01*
X150201159Y-81340200D01*
X150270627Y-81332732D01*
X150333106Y-81364007D01*
X150368758Y-81424096D01*
X150366264Y-81493921D01*
X150336291Y-81542443D01*
X149854233Y-82024502D01*
X149792910Y-82057987D01*
X149766552Y-82060821D01*
X147824580Y-82060821D01*
X147728568Y-82086547D01*
X147642489Y-82136246D01*
X147642486Y-82136248D01*
X144983613Y-84795120D01*
X144953770Y-84817124D01*
X144549709Y-85030191D01*
X144549697Y-85030198D01*
X144547988Y-85031519D01*
X144519665Y-85047928D01*
X144496655Y-85057459D01*
X144381658Y-85145700D01*
X144293416Y-85260698D01*
X144237950Y-85394608D01*
X144237949Y-85394612D01*
X144219400Y-85535506D01*
X144219029Y-85538321D01*
X143551779Y-85538321D01*
X143551779Y-84088219D01*
X143571464Y-84021180D01*
X143588098Y-84000538D01*
X145257665Y-82330971D01*
X146997440Y-80591197D01*
X147056021Y-80532616D01*
X147056021Y-80532615D01*
X147138354Y-80450284D01*
X147176755Y-80383770D01*
X147188053Y-80364202D01*
X147213779Y-80268192D01*
X147213779Y-77511862D01*
X147219322Y-77475201D01*
X147259170Y-77346447D01*
X147354377Y-77038822D01*
X147354648Y-77036706D01*
X147363078Y-77005037D01*
X147372609Y-76982030D01*
X147391529Y-76838321D01*
X147372609Y-76694612D01*
X147317140Y-76560696D01*
X147228900Y-76445700D01*
X147113904Y-76357460D01*
X147113903Y-76357459D01*
X147113901Y-76357458D01*
X146979991Y-76301992D01*
X146979989Y-76301991D01*
X146979988Y-76301991D01*
X146908133Y-76292531D01*
X146836280Y-76283071D01*
X146836278Y-76283071D01*
X146692570Y-76301991D01*
X146692566Y-76301992D01*
X146558656Y-76357458D01*
X146443658Y-76445700D01*
X146355416Y-76560698D01*
X146299950Y-76694608D01*
X146299949Y-76694612D01*
X146281029Y-76838320D01*
X146281029Y-76838321D01*
X146299949Y-76982029D01*
X146299949Y-76982030D01*
X146309500Y-77005090D01*
X146316559Y-77032933D01*
X146316957Y-77032852D01*
X146318177Y-77038813D01*
X146320864Y-77047494D01*
X146413387Y-77346447D01*
X146453236Y-77475201D01*
X146458779Y-77511862D01*
X146458779Y-80010765D01*
X146439094Y-80077804D01*
X146422460Y-80098446D01*
X142872206Y-83648699D01*
X142872204Y-83648702D01*
X142822505Y-83734780D01*
X142810655Y-83779009D01*
X142809309Y-83784031D01*
X142796779Y-83830793D01*
X142796779Y-87728022D01*
X142796779Y-87827420D01*
X142822505Y-87923431D01*
X142872204Y-88009511D01*
X142872206Y-88009513D01*
X146170892Y-91308199D01*
X146204377Y-91369522D01*
X146199393Y-91439214D01*
X146157521Y-91495147D01*
X146092057Y-91519564D01*
X146067025Y-91518819D01*
X145984143Y-91507907D01*
X145984141Y-91507907D01*
X145840431Y-91526827D01*
X145806850Y-91540736D01*
X145778402Y-91548708D01*
X145771214Y-91549822D01*
X145771207Y-91549824D01*
X145345861Y-91705135D01*
X145303330Y-91712657D01*
X144878299Y-91712657D01*
X144789155Y-91736543D01*
X144789152Y-91736544D01*
X144709229Y-91782687D01*
X144632843Y-91859072D01*
X144597452Y-91883826D01*
X144186864Y-92074772D01*
X144186863Y-92074773D01*
X144179464Y-92080057D01*
X144154859Y-92093705D01*
X144121655Y-92107459D01*
X144006658Y-92195700D01*
X143918416Y-92310698D01*
X143862950Y-92444608D01*
X143862949Y-92444612D01*
X143859249Y-92472713D01*
X143830980Y-92536609D01*
X143772655Y-92575079D01*
X143702790Y-92575909D01*
X143648629Y-92544206D01*
X140388098Y-89283674D01*
X140354613Y-89222351D01*
X140351779Y-89195993D01*
X140351779Y-80448086D01*
X141467335Y-80448086D01*
X141467335Y-80448087D01*
X141486255Y-80591795D01*
X141486256Y-80591799D01*
X141541722Y-80725709D01*
X141541723Y-80725711D01*
X141541724Y-80725712D01*
X141629964Y-80840708D01*
X141744960Y-80928948D01*
X141744961Y-80928948D01*
X141744962Y-80928949D01*
X141752408Y-80932033D01*
X141878876Y-80984417D01*
X142005865Y-81001135D01*
X142022584Y-81003337D01*
X142022585Y-81003337D01*
X142022586Y-81003337D01*
X142037562Y-81001365D01*
X142166294Y-80984417D01*
X142300210Y-80928948D01*
X142415206Y-80840708D01*
X142503446Y-80725712D01*
X142539644Y-80638321D01*
X142819029Y-80638321D01*
X142830534Y-80725712D01*
X142837949Y-80782029D01*
X142837950Y-80782033D01*
X142893416Y-80915943D01*
X142893417Y-80915945D01*
X142893418Y-80915946D01*
X142981658Y-81030942D01*
X143096654Y-81119182D01*
X143230570Y-81174651D01*
X143357559Y-81191369D01*
X143374278Y-81193571D01*
X143374279Y-81193571D01*
X143374280Y-81193571D01*
X143389256Y-81191599D01*
X143517988Y-81174651D01*
X143651904Y-81119182D01*
X143766900Y-81030942D01*
X143855140Y-80915946D01*
X143910609Y-80782030D01*
X143929529Y-80638321D01*
X143910609Y-80494612D01*
X143869639Y-80395700D01*
X143855141Y-80360698D01*
X143855140Y-80360697D01*
X143855140Y-80360696D01*
X143766900Y-80245700D01*
X143651904Y-80157460D01*
X143651903Y-80157459D01*
X143651901Y-80157458D01*
X143517991Y-80101992D01*
X143517989Y-80101991D01*
X143517988Y-80101991D01*
X143446133Y-80092531D01*
X143374280Y-80083071D01*
X143374278Y-80083071D01*
X143230570Y-80101991D01*
X143230566Y-80101992D01*
X143096656Y-80157458D01*
X142981658Y-80245700D01*
X142893416Y-80360698D01*
X142837950Y-80494608D01*
X142837949Y-80494612D01*
X142820258Y-80628989D01*
X142819029Y-80638321D01*
X142539644Y-80638321D01*
X142558915Y-80591796D01*
X142577835Y-80448087D01*
X142558915Y-80304378D01*
X142503446Y-80170462D01*
X142415206Y-80055466D01*
X142300210Y-79967226D01*
X142300209Y-79967225D01*
X142300207Y-79967224D01*
X142166297Y-79911758D01*
X142166295Y-79911757D01*
X142166294Y-79911757D01*
X142094439Y-79902297D01*
X142022586Y-79892837D01*
X142022584Y-79892837D01*
X141878876Y-79911757D01*
X141878872Y-79911758D01*
X141744962Y-79967224D01*
X141629964Y-80055466D01*
X141541722Y-80170464D01*
X141486256Y-80304374D01*
X141486255Y-80304378D01*
X141467335Y-80448086D01*
X140351779Y-80448086D01*
X140351779Y-78846048D01*
X140371464Y-78779009D01*
X140388098Y-78758367D01*
X140953026Y-78193439D01*
X141564951Y-77581513D01*
X141594787Y-77559514D01*
X141998853Y-77346447D01*
X142000543Y-77345141D01*
X142028895Y-77328712D01*
X142051904Y-77319182D01*
X142166900Y-77230942D01*
X142255140Y-77115946D01*
X142310609Y-76982030D01*
X142329529Y-76838321D01*
X142310609Y-76694612D01*
X142255140Y-76560696D01*
X142166900Y-76445700D01*
X142051904Y-76357460D01*
X142051903Y-76357459D01*
X142051901Y-76357458D01*
X141917991Y-76301992D01*
X141917989Y-76301991D01*
X141917988Y-76301991D01*
X141846133Y-76292531D01*
X141774280Y-76283071D01*
X141774278Y-76283071D01*
X141630570Y-76301991D01*
X141630566Y-76301992D01*
X141496656Y-76357458D01*
X141381658Y-76445700D01*
X141293417Y-76560697D01*
X141283864Y-76583759D01*
X141269168Y-76608438D01*
X141269508Y-76608662D01*
X141266149Y-76613749D01*
X141053084Y-77017809D01*
X141031080Y-77047652D01*
X139672206Y-78406528D01*
X139672204Y-78406531D01*
X139622505Y-78492609D01*
X139619659Y-78503231D01*
X139605129Y-78557460D01*
X139596779Y-78588622D01*
X136722986Y-78588622D01*
X136710609Y-78494612D01*
X136655140Y-78360696D01*
X136566900Y-78245700D01*
X136451904Y-78157460D01*
X136451903Y-78157459D01*
X136451901Y-78157458D01*
X136317991Y-78101992D01*
X136317989Y-78101991D01*
X136317988Y-78101991D01*
X136246133Y-78092531D01*
X136174280Y-78083071D01*
X136174278Y-78083071D01*
X136030570Y-78101991D01*
X136030566Y-78101992D01*
X135896655Y-78157459D01*
X135896653Y-78157460D01*
X135849765Y-78193439D01*
X135784596Y-78218633D01*
X135716151Y-78204595D01*
X135698793Y-78193439D01*
X135651904Y-78157460D01*
X135651902Y-78157459D01*
X135517991Y-78101992D01*
X135517989Y-78101991D01*
X135517988Y-78101991D01*
X135446133Y-78092531D01*
X135374280Y-78083071D01*
X135374278Y-78083071D01*
X135230570Y-78101991D01*
X135230566Y-78101992D01*
X135096655Y-78157459D01*
X135096653Y-78157460D01*
X135049765Y-78193439D01*
X134984596Y-78218633D01*
X134916151Y-78204595D01*
X134898793Y-78193439D01*
X134851904Y-78157460D01*
X134851902Y-78157459D01*
X134717991Y-78101992D01*
X134717989Y-78101991D01*
X134717988Y-78101991D01*
X134646133Y-78092531D01*
X134574280Y-78083071D01*
X134574278Y-78083071D01*
X134430570Y-78101991D01*
X134430566Y-78101992D01*
X134296656Y-78157458D01*
X134181658Y-78245700D01*
X134093416Y-78360698D01*
X134037950Y-78494608D01*
X134037949Y-78494612D01*
X134019029Y-78638320D01*
X127421099Y-78638320D01*
X127421099Y-73705550D01*
X128695099Y-73705550D01*
X128695099Y-73928451D01*
X128695100Y-73928467D01*
X128724193Y-74149453D01*
X128724194Y-74149458D01*
X128724195Y-74149464D01*
X128764635Y-74300388D01*
X128781889Y-74364781D01*
X128781892Y-74364791D01*
X128862595Y-74559624D01*
X128867194Y-74570727D01*
X128978651Y-74763775D01*
X128978656Y-74763781D01*
X128978657Y-74763783D01*
X129114350Y-74940623D01*
X129114356Y-74940630D01*
X129271969Y-75098243D01*
X129271975Y-75098248D01*
X129448825Y-75233949D01*
X129641873Y-75345406D01*
X129847818Y-75430711D01*
X130063136Y-75488405D01*
X130284142Y-75517501D01*
X130284149Y-75517501D01*
X130507049Y-75517501D01*
X130507056Y-75517501D01*
X130728062Y-75488405D01*
X130943380Y-75430711D01*
X131149325Y-75345406D01*
X131342373Y-75233949D01*
X131519223Y-75098248D01*
X131676846Y-74940625D01*
X131812547Y-74763775D01*
X131924004Y-74570727D01*
X132009309Y-74364782D01*
X132067003Y-74149464D01*
X132096099Y-73928458D01*
X132096099Y-73705544D01*
X132067003Y-73484538D01*
X132009309Y-73269220D01*
X131924004Y-73063275D01*
X131812547Y-72870227D01*
X131741103Y-72777119D01*
X131676847Y-72693378D01*
X131676841Y-72693371D01*
X131638471Y-72655001D01*
X134354946Y-72655001D01*
X134375502Y-72850576D01*
X134375503Y-72850578D01*
X134436267Y-73037593D01*
X134436270Y-73037599D01*
X134534594Y-73207902D01*
X134666173Y-73354037D01*
X134666176Y-73354039D01*
X134666179Y-73354042D01*
X134792335Y-73445700D01*
X134825272Y-73469630D01*
X135004916Y-73549613D01*
X135004921Y-73549615D01*
X135197274Y-73590501D01*
X135359176Y-73590501D01*
X135426215Y-73610186D01*
X135471970Y-73662990D01*
X135481914Y-73732148D01*
X135481654Y-73733863D01*
X135465099Y-73838390D01*
X135465099Y-74011612D01*
X135469409Y-74038827D01*
X135481649Y-74116103D01*
X135472694Y-74185396D01*
X135427698Y-74238848D01*
X135360947Y-74259488D01*
X135359176Y-74259501D01*
X135197274Y-74259501D01*
X135004921Y-74300386D01*
X135004916Y-74300388D01*
X134825273Y-74380371D01*
X134825268Y-74380374D01*
X134666180Y-74495958D01*
X134666173Y-74495964D01*
X134534594Y-74642099D01*
X134436270Y-74812402D01*
X134436267Y-74812408D01*
X134375503Y-74999423D01*
X134375502Y-74999425D01*
X134354946Y-75195001D01*
X134375502Y-75390576D01*
X134375503Y-75390578D01*
X134436267Y-75577593D01*
X134436270Y-75577599D01*
X134534594Y-75747902D01*
X134666173Y-75894037D01*
X134666176Y-75894039D01*
X134666179Y-75894042D01*
X134774518Y-75972755D01*
X134825272Y-76009630D01*
X135004916Y-76089613D01*
X135004921Y-76089615D01*
X135197274Y-76130501D01*
X135393924Y-76130501D01*
X135586277Y-76089615D01*
X135765926Y-76009630D01*
X135925019Y-75894042D01*
X135928562Y-75890108D01*
X135988923Y-75823069D01*
X136056603Y-75747903D01*
X136154928Y-75577599D01*
X136215696Y-75390574D01*
X136236252Y-75195001D01*
X136230917Y-75144247D01*
X136243486Y-75075520D01*
X136291218Y-75024495D01*
X136358958Y-75007377D01*
X136373619Y-75008812D01*
X136478988Y-75025501D01*
X136478990Y-75025501D01*
X136652208Y-75025501D01*
X136652210Y-75025501D01*
X136757564Y-75008814D01*
X136826854Y-75017768D01*
X136880306Y-75062764D01*
X136900946Y-75129515D01*
X136900280Y-75144247D01*
X136894946Y-75194999D01*
X136915502Y-75390576D01*
X136915503Y-75390578D01*
X136976267Y-75577593D01*
X136976270Y-75577599D01*
X137074594Y-75747902D01*
X137206173Y-75894037D01*
X137206176Y-75894039D01*
X137206179Y-75894042D01*
X137314518Y-75972755D01*
X137365272Y-76009630D01*
X137544916Y-76089613D01*
X137544921Y-76089615D01*
X137737274Y-76130501D01*
X137933924Y-76130501D01*
X138126277Y-76089615D01*
X138305926Y-76009630D01*
X138465019Y-75894042D01*
X138468562Y-75890108D01*
X138528923Y-75823069D01*
X138596603Y-75747903D01*
X138694928Y-75577599D01*
X138755696Y-75390574D01*
X138776252Y-75195001D01*
X139434946Y-75195001D01*
X139455502Y-75390576D01*
X139455503Y-75390578D01*
X139516267Y-75577593D01*
X139516270Y-75577599D01*
X139614594Y-75747902D01*
X139746173Y-75894037D01*
X139746176Y-75894039D01*
X139746179Y-75894042D01*
X139854518Y-75972755D01*
X139905272Y-76009630D01*
X140084916Y-76089613D01*
X140084921Y-76089615D01*
X140277274Y-76130501D01*
X140473924Y-76130501D01*
X140666277Y-76089615D01*
X140845926Y-76009630D01*
X141005019Y-75894042D01*
X141008562Y-75890108D01*
X141068923Y-75823069D01*
X141136603Y-75747903D01*
X141234928Y-75577599D01*
X141295696Y-75390574D01*
X141316252Y-75195001D01*
X141974946Y-75195001D01*
X141995502Y-75390576D01*
X141995503Y-75390578D01*
X142056267Y-75577593D01*
X142056270Y-75577599D01*
X142154594Y-75747902D01*
X142286173Y-75894037D01*
X142286176Y-75894039D01*
X142286179Y-75894042D01*
X142394518Y-75972755D01*
X142445272Y-76009630D01*
X142624916Y-76089613D01*
X142624921Y-76089615D01*
X142817274Y-76130501D01*
X143013924Y-76130501D01*
X143206277Y-76089615D01*
X143385926Y-76009630D01*
X143545019Y-75894042D01*
X143548562Y-75890108D01*
X143608923Y-75823069D01*
X143676603Y-75747903D01*
X143774928Y-75577599D01*
X143835696Y-75390574D01*
X143856252Y-75195001D01*
X143835696Y-74999428D01*
X143818011Y-74945000D01*
X144553712Y-74945000D01*
X144553712Y-74945001D01*
X145011039Y-74945001D01*
X144980354Y-74998148D01*
X144945599Y-75127858D01*
X144945599Y-75262144D01*
X144980354Y-75391854D01*
X145011039Y-75445001D01*
X144553712Y-75445001D01*
X144596726Y-75577388D01*
X144596729Y-75577394D01*
X144695001Y-75747605D01*
X144826515Y-75893668D01*
X144826517Y-75893670D01*
X144985519Y-76009192D01*
X145165078Y-76089137D01*
X145205598Y-76097750D01*
X145205599Y-76097750D01*
X145205599Y-75639561D01*
X145258746Y-75670246D01*
X145388456Y-75705001D01*
X145522742Y-75705001D01*
X145652452Y-75670246D01*
X145705599Y-75639561D01*
X145705599Y-76097750D01*
X145746119Y-76089137D01*
X145925678Y-76009192D01*
X146084680Y-75893670D01*
X146084682Y-75893668D01*
X146216196Y-75747605D01*
X146314468Y-75577394D01*
X146314471Y-75577388D01*
X146357486Y-75445001D01*
X145900159Y-75445001D01*
X145930844Y-75391854D01*
X145965599Y-75262144D01*
X145965599Y-75195001D01*
X147054946Y-75195001D01*
X147075502Y-75390576D01*
X147075503Y-75390578D01*
X147136267Y-75577593D01*
X147136270Y-75577599D01*
X147234594Y-75747902D01*
X147366173Y-75894037D01*
X147366176Y-75894039D01*
X147366179Y-75894042D01*
X147474518Y-75972755D01*
X147525272Y-76009630D01*
X147704916Y-76089613D01*
X147704921Y-76089615D01*
X147897274Y-76130501D01*
X148093924Y-76130501D01*
X148286277Y-76089615D01*
X148465926Y-76009630D01*
X148625019Y-75894042D01*
X148628562Y-75890108D01*
X148688923Y-75823069D01*
X148756603Y-75747903D01*
X148854928Y-75577599D01*
X148915696Y-75390574D01*
X148936252Y-75195001D01*
X148915696Y-74999428D01*
X148877494Y-74881854D01*
X148854930Y-74812408D01*
X148854927Y-74812402D01*
X148826852Y-74763775D01*
X148756603Y-74642099D01*
X148743268Y-74627289D01*
X148625024Y-74495964D01*
X148625021Y-74495962D01*
X148625020Y-74495961D01*
X148625019Y-74495960D01*
X148480721Y-74391121D01*
X148465925Y-74380371D01*
X148286281Y-74300388D01*
X148286276Y-74300386D01*
X148093924Y-74259501D01*
X147897274Y-74259501D01*
X147704921Y-74300386D01*
X147704916Y-74300388D01*
X147525273Y-74380371D01*
X147525268Y-74380374D01*
X147366180Y-74495958D01*
X147366173Y-74495964D01*
X147234594Y-74642099D01*
X147136270Y-74812402D01*
X147136267Y-74812408D01*
X147075503Y-74999423D01*
X147075502Y-74999425D01*
X147054946Y-75195001D01*
X145965599Y-75195001D01*
X145965599Y-75127858D01*
X145930844Y-74998148D01*
X145900159Y-74945001D01*
X146357486Y-74945001D01*
X146357485Y-74945000D01*
X146314471Y-74812613D01*
X146314468Y-74812607D01*
X146216196Y-74642396D01*
X146084682Y-74496333D01*
X146084680Y-74496331D01*
X145925678Y-74380809D01*
X145925673Y-74380807D01*
X145746123Y-74300865D01*
X145705599Y-74292250D01*
X145705599Y-74750440D01*
X145652452Y-74719756D01*
X145522742Y-74685001D01*
X145388456Y-74685001D01*
X145258746Y-74719756D01*
X145205599Y-74750440D01*
X145205599Y-74292251D01*
X145205598Y-74292250D01*
X145165075Y-74300865D01*
X145165074Y-74300865D01*
X144985524Y-74380807D01*
X144985519Y-74380809D01*
X144826517Y-74496331D01*
X144826515Y-74496333D01*
X144695001Y-74642396D01*
X144596729Y-74812607D01*
X144596726Y-74812613D01*
X144553712Y-74945000D01*
X143818011Y-74945000D01*
X143797494Y-74881854D01*
X143774930Y-74812408D01*
X143774927Y-74812402D01*
X143746852Y-74763775D01*
X143676603Y-74642099D01*
X143663268Y-74627289D01*
X143545024Y-74495964D01*
X143545021Y-74495962D01*
X143545020Y-74495961D01*
X143545019Y-74495960D01*
X143400721Y-74391121D01*
X143385925Y-74380371D01*
X143206281Y-74300388D01*
X143206276Y-74300386D01*
X143013924Y-74259501D01*
X142817274Y-74259501D01*
X142624921Y-74300386D01*
X142624916Y-74300388D01*
X142445273Y-74380371D01*
X142445268Y-74380374D01*
X142286180Y-74495958D01*
X142286173Y-74495964D01*
X142154594Y-74642099D01*
X142056270Y-74812402D01*
X142056267Y-74812408D01*
X141995503Y-74999423D01*
X141995502Y-74999425D01*
X141974946Y-75195001D01*
X141316252Y-75195001D01*
X141295696Y-74999428D01*
X141257494Y-74881854D01*
X141234930Y-74812408D01*
X141234927Y-74812402D01*
X141206852Y-74763775D01*
X141136603Y-74642099D01*
X141123268Y-74627289D01*
X141005024Y-74495964D01*
X141005021Y-74495962D01*
X141005020Y-74495961D01*
X141005019Y-74495960D01*
X140860721Y-74391121D01*
X140845925Y-74380371D01*
X140666281Y-74300388D01*
X140666276Y-74300386D01*
X140473924Y-74259501D01*
X140277274Y-74259501D01*
X140084921Y-74300386D01*
X140084916Y-74300388D01*
X139905273Y-74380371D01*
X139905268Y-74380374D01*
X139746180Y-74495958D01*
X139746173Y-74495964D01*
X139614594Y-74642099D01*
X139516270Y-74812402D01*
X139516267Y-74812408D01*
X139455503Y-74999423D01*
X139455502Y-74999425D01*
X139434946Y-75195001D01*
X138776252Y-75195001D01*
X138755696Y-74999428D01*
X138717494Y-74881854D01*
X138694930Y-74812408D01*
X138694927Y-74812402D01*
X138666852Y-74763775D01*
X138596603Y-74642099D01*
X138583268Y-74627289D01*
X138465024Y-74495964D01*
X138465021Y-74495962D01*
X138465020Y-74495961D01*
X138465019Y-74495960D01*
X138320721Y-74391121D01*
X138305925Y-74380371D01*
X138126281Y-74300388D01*
X138126276Y-74300386D01*
X137933924Y-74259501D01*
X137772022Y-74259501D01*
X137704983Y-74239816D01*
X137659228Y-74187012D01*
X137649284Y-74117854D01*
X137649549Y-74116103D01*
X137661789Y-74038827D01*
X137666099Y-74011612D01*
X137666099Y-73838390D01*
X137649549Y-73733898D01*
X137658504Y-73664606D01*
X137703500Y-73611154D01*
X137770251Y-73590514D01*
X137772022Y-73590501D01*
X137933924Y-73590501D01*
X138126277Y-73549615D01*
X138305926Y-73469630D01*
X138465019Y-73354042D01*
X138468562Y-73350108D01*
X138514301Y-73299309D01*
X138596603Y-73207903D01*
X138694928Y-73037599D01*
X138755696Y-72850574D01*
X138776252Y-72655001D01*
X138755696Y-72459428D01*
X138738011Y-72405000D01*
X139473712Y-72405000D01*
X139473712Y-72405001D01*
X139931039Y-72405001D01*
X139900354Y-72458148D01*
X139865599Y-72587858D01*
X139865599Y-72722144D01*
X139900354Y-72851854D01*
X139931039Y-72905001D01*
X139473712Y-72905001D01*
X139516726Y-73037388D01*
X139516729Y-73037394D01*
X139615001Y-73207605D01*
X139746515Y-73353668D01*
X139746517Y-73353670D01*
X139905519Y-73469192D01*
X140085078Y-73549137D01*
X140125598Y-73557750D01*
X140125599Y-73557750D01*
X140125599Y-73099561D01*
X140178746Y-73130246D01*
X140308456Y-73165001D01*
X140442742Y-73165001D01*
X140572452Y-73130246D01*
X140625599Y-73099561D01*
X140625599Y-73557750D01*
X140666119Y-73549137D01*
X140845678Y-73469192D01*
X141004680Y-73353670D01*
X141004682Y-73353668D01*
X141136196Y-73207605D01*
X141234468Y-73037394D01*
X141234471Y-73037388D01*
X141277486Y-72905001D01*
X140820159Y-72905001D01*
X140850844Y-72851854D01*
X140885599Y-72722144D01*
X140885599Y-72655001D01*
X141974946Y-72655001D01*
X141995502Y-72850576D01*
X141995503Y-72850578D01*
X142056267Y-73037593D01*
X142056270Y-73037599D01*
X142154594Y-73207902D01*
X142286173Y-73354037D01*
X142286176Y-73354039D01*
X142286179Y-73354042D01*
X142412335Y-73445700D01*
X142445272Y-73469630D01*
X142624916Y-73549613D01*
X142624921Y-73549615D01*
X142817274Y-73590501D01*
X143013924Y-73590501D01*
X143206277Y-73549615D01*
X143385926Y-73469630D01*
X143545019Y-73354042D01*
X143548562Y-73350108D01*
X143594301Y-73299309D01*
X143676603Y-73207903D01*
X143774928Y-73037599D01*
X143835696Y-72850574D01*
X143856252Y-72655001D01*
X144514946Y-72655001D01*
X144535502Y-72850576D01*
X144535503Y-72850578D01*
X144596267Y-73037593D01*
X144596270Y-73037599D01*
X144694594Y-73207902D01*
X144826173Y-73354037D01*
X144826176Y-73354039D01*
X144826179Y-73354042D01*
X144952335Y-73445700D01*
X144985272Y-73469630D01*
X145164916Y-73549613D01*
X145164921Y-73549615D01*
X145357274Y-73590501D01*
X145553924Y-73590501D01*
X145746277Y-73549615D01*
X145925926Y-73469630D01*
X146085019Y-73354042D01*
X146088562Y-73350108D01*
X146134301Y-73299309D01*
X146216603Y-73207903D01*
X146314928Y-73037599D01*
X146375696Y-72850574D01*
X146396252Y-72655001D01*
X147054946Y-72655001D01*
X147075502Y-72850576D01*
X147075503Y-72850578D01*
X147136267Y-73037593D01*
X147136270Y-73037599D01*
X147234594Y-73207902D01*
X147366173Y-73354037D01*
X147366176Y-73354039D01*
X147366179Y-73354042D01*
X147492335Y-73445700D01*
X147525272Y-73469630D01*
X147704916Y-73549613D01*
X147704921Y-73549615D01*
X147897274Y-73590501D01*
X148093924Y-73590501D01*
X148286277Y-73549615D01*
X148465926Y-73469630D01*
X148625019Y-73354042D01*
X148628562Y-73350108D01*
X148674301Y-73299309D01*
X148756603Y-73207903D01*
X148854928Y-73037599D01*
X148915696Y-72850574D01*
X148936252Y-72655001D01*
X148915696Y-72459428D01*
X148868978Y-72315645D01*
X148854930Y-72272408D01*
X148854927Y-72272402D01*
X148831260Y-72231410D01*
X148756603Y-72102099D01*
X148625024Y-71955964D01*
X148625021Y-71955962D01*
X148625020Y-71955961D01*
X148625019Y-71955960D01*
X148490694Y-71858367D01*
X148465925Y-71840371D01*
X148286281Y-71760388D01*
X148286276Y-71760386D01*
X148093924Y-71719501D01*
X147897274Y-71719501D01*
X147704921Y-71760386D01*
X147704916Y-71760388D01*
X147525273Y-71840371D01*
X147525268Y-71840374D01*
X147366180Y-71955958D01*
X147366173Y-71955964D01*
X147234594Y-72102099D01*
X147136270Y-72272402D01*
X147136267Y-72272408D01*
X147075503Y-72459423D01*
X147075502Y-72459425D01*
X147054946Y-72655001D01*
X146396252Y-72655001D01*
X146375696Y-72459428D01*
X146328978Y-72315645D01*
X146314930Y-72272408D01*
X146314927Y-72272402D01*
X146291260Y-72231410D01*
X146216603Y-72102099D01*
X146085024Y-71955964D01*
X146085021Y-71955962D01*
X146085020Y-71955961D01*
X146085019Y-71955960D01*
X145950694Y-71858367D01*
X145925925Y-71840371D01*
X145746281Y-71760388D01*
X145746276Y-71760386D01*
X145553924Y-71719501D01*
X145357274Y-71719501D01*
X145164921Y-71760386D01*
X145164916Y-71760388D01*
X144985273Y-71840371D01*
X144985268Y-71840374D01*
X144826180Y-71955958D01*
X144826173Y-71955964D01*
X144694594Y-72102099D01*
X144596270Y-72272402D01*
X144596267Y-72272408D01*
X144535503Y-72459423D01*
X144535502Y-72459425D01*
X144514946Y-72655001D01*
X143856252Y-72655001D01*
X143835696Y-72459428D01*
X143788978Y-72315645D01*
X143774930Y-72272408D01*
X143774927Y-72272402D01*
X143751260Y-72231410D01*
X143676603Y-72102099D01*
X143545024Y-71955964D01*
X143545021Y-71955962D01*
X143545020Y-71955961D01*
X143545019Y-71955960D01*
X143410694Y-71858367D01*
X143385925Y-71840371D01*
X143206281Y-71760388D01*
X143206276Y-71760386D01*
X143013924Y-71719501D01*
X142817274Y-71719501D01*
X142624921Y-71760386D01*
X142624916Y-71760388D01*
X142445273Y-71840371D01*
X142445268Y-71840374D01*
X142286180Y-71955958D01*
X142286173Y-71955964D01*
X142154594Y-72102099D01*
X142056270Y-72272402D01*
X142056267Y-72272408D01*
X141995503Y-72459423D01*
X141995502Y-72459425D01*
X141974946Y-72655001D01*
X140885599Y-72655001D01*
X140885599Y-72587858D01*
X140850844Y-72458148D01*
X140820159Y-72405001D01*
X141277486Y-72405001D01*
X141277485Y-72405000D01*
X141234471Y-72272613D01*
X141234468Y-72272607D01*
X141136196Y-72102396D01*
X141004682Y-71956333D01*
X141004680Y-71956331D01*
X140845678Y-71840809D01*
X140845673Y-71840807D01*
X140666123Y-71760865D01*
X140625599Y-71752250D01*
X140625599Y-72210440D01*
X140572452Y-72179756D01*
X140442742Y-72145001D01*
X140308456Y-72145001D01*
X140178746Y-72179756D01*
X140125599Y-72210440D01*
X140125599Y-71752251D01*
X140125598Y-71752250D01*
X140085075Y-71760865D01*
X140085074Y-71760865D01*
X139905524Y-71840807D01*
X139905519Y-71840809D01*
X139746517Y-71956331D01*
X139746515Y-71956333D01*
X139615001Y-72102396D01*
X139516729Y-72272607D01*
X139516726Y-72272613D01*
X139473712Y-72405000D01*
X138738011Y-72405000D01*
X138708978Y-72315645D01*
X138694930Y-72272408D01*
X138694927Y-72272402D01*
X138671260Y-72231410D01*
X138596603Y-72102099D01*
X138465024Y-71955964D01*
X138465021Y-71955962D01*
X138465020Y-71955961D01*
X138465019Y-71955960D01*
X138330694Y-71858367D01*
X138305925Y-71840371D01*
X138126281Y-71760388D01*
X138126276Y-71760386D01*
X137933924Y-71719501D01*
X137737274Y-71719501D01*
X137544921Y-71760386D01*
X137544916Y-71760388D01*
X137365273Y-71840371D01*
X137365268Y-71840374D01*
X137206180Y-71955958D01*
X137206173Y-71955964D01*
X137074594Y-72102099D01*
X136976270Y-72272402D01*
X136976267Y-72272408D01*
X136915503Y-72459423D01*
X136915502Y-72459425D01*
X136894946Y-72655001D01*
X136900280Y-72705753D01*
X136887710Y-72774483D01*
X136839978Y-72825507D01*
X136772237Y-72842624D01*
X136757561Y-72841187D01*
X136652210Y-72824501D01*
X136478988Y-72824501D01*
X136419331Y-72833949D01*
X136373636Y-72841187D01*
X136304342Y-72832232D01*
X136250890Y-72787236D01*
X136230251Y-72720484D01*
X136230916Y-72705765D01*
X136236252Y-72655001D01*
X136215696Y-72459428D01*
X136168978Y-72315645D01*
X136154930Y-72272408D01*
X136154927Y-72272402D01*
X136131260Y-72231410D01*
X136056603Y-72102099D01*
X135925024Y-71955964D01*
X135925021Y-71955962D01*
X135925020Y-71955961D01*
X135925019Y-71955960D01*
X135790694Y-71858367D01*
X135765925Y-71840371D01*
X135586281Y-71760388D01*
X135586276Y-71760386D01*
X135393924Y-71719501D01*
X135197274Y-71719501D01*
X135004921Y-71760386D01*
X135004916Y-71760388D01*
X134825273Y-71840371D01*
X134825268Y-71840374D01*
X134666180Y-71955958D01*
X134666173Y-71955964D01*
X134534594Y-72102099D01*
X134436270Y-72272402D01*
X134436267Y-72272408D01*
X134375503Y-72459423D01*
X134375502Y-72459425D01*
X134354946Y-72655001D01*
X131638471Y-72655001D01*
X131519228Y-72535758D01*
X131519221Y-72535752D01*
X131342381Y-72400059D01*
X131342379Y-72400058D01*
X131342373Y-72400053D01*
X131149325Y-72288596D01*
X131149321Y-72288594D01*
X130943389Y-72203294D01*
X130943382Y-72203292D01*
X130943380Y-72203291D01*
X130728062Y-72145597D01*
X130728056Y-72145596D01*
X130728051Y-72145595D01*
X130507065Y-72116502D01*
X130507062Y-72116501D01*
X130507056Y-72116501D01*
X130284142Y-72116501D01*
X130284136Y-72116501D01*
X130284132Y-72116502D01*
X130063146Y-72145595D01*
X130063139Y-72145596D01*
X130063136Y-72145597D01*
X129847818Y-72203291D01*
X129847808Y-72203294D01*
X129641876Y-72288594D01*
X129641872Y-72288596D01*
X129448825Y-72400053D01*
X129448816Y-72400059D01*
X129271976Y-72535752D01*
X129271969Y-72535758D01*
X129114356Y-72693371D01*
X129114350Y-72693378D01*
X128978657Y-72870218D01*
X128978651Y-72870227D01*
X128867194Y-73063274D01*
X128867192Y-73063278D01*
X128781892Y-73269210D01*
X128781889Y-73269220D01*
X128759163Y-73354037D01*
X128724196Y-73484535D01*
X128724193Y-73484548D01*
X128695100Y-73705534D01*
X128695099Y-73705550D01*
X127421099Y-73705550D01*
X127421099Y-72820480D01*
X127421294Y-72813527D01*
X127421300Y-72813416D01*
X127437473Y-72525433D01*
X127439027Y-72511636D01*
X127486777Y-72230599D01*
X127489871Y-72217047D01*
X127493834Y-72203294D01*
X127568786Y-71943127D01*
X127573378Y-71930007D01*
X127643438Y-71760866D01*
X127682463Y-71666650D01*
X127688486Y-71654143D01*
X127826391Y-71404619D01*
X127833763Y-71392888D01*
X127998740Y-71160375D01*
X128007380Y-71149541D01*
X128197350Y-70936964D01*
X128207171Y-70927144D01*
X128419726Y-70737192D01*
X128430573Y-70728541D01*
X128663074Y-70563573D01*
X128674837Y-70556182D01*
X128924341Y-70418287D01*
X128936841Y-70412267D01*
X129200208Y-70303176D01*
X129213325Y-70298586D01*
X129487250Y-70219669D01*
X129500797Y-70216577D01*
X129781834Y-70168827D01*
X129795631Y-70167273D01*
X130083690Y-70151096D01*
X130090643Y-70150901D01*
X130132053Y-70150901D01*
X188706270Y-70150901D01*
X188713483Y-70151110D01*
G37*
G04 #@! TD.AperFunction*
G04 #@! TA.AperFunction,Conductor*
G36*
X177123363Y-116462981D02*
G01*
X177129201Y-116468320D01*
X177357121Y-116900551D01*
X177357949Y-116909467D01*
X177355045Y-116914281D01*
X177187639Y-117081687D01*
X177179366Y-117085114D01*
X177173909Y-117083763D01*
X176741678Y-116855843D01*
X176735958Y-116848953D01*
X176736312Y-116841050D01*
X176844515Y-116577536D01*
X176850825Y-116571185D01*
X177114408Y-116462954D01*
X177123363Y-116462981D01*
G37*
G04 #@! TD.AperFunction*
G04 #@! TA.AperFunction,Conductor*
G36*
X188146551Y-119307806D02*
G01*
X188147016Y-119308788D01*
X188250821Y-119557227D01*
X188250848Y-119566182D01*
X188244536Y-119572534D01*
X188240052Y-119573438D01*
X188137056Y-119573679D01*
X188128775Y-119570271D01*
X187966118Y-119407614D01*
X187962691Y-119399341D01*
X187966118Y-119391068D01*
X187968898Y-119389010D01*
X188130728Y-119302967D01*
X188139641Y-119302110D01*
X188146551Y-119307806D01*
G37*
G04 #@! TD.AperFunction*
G04 #@! TA.AperFunction,Conductor*
G36*
X156318038Y-105243170D02*
G01*
X156324928Y-105248890D01*
X156326279Y-105254347D01*
X156326279Y-105491094D01*
X156322852Y-105499367D01*
X156318038Y-105502271D01*
X155851240Y-105646741D01*
X155842324Y-105645913D01*
X155836985Y-105640075D01*
X155727162Y-105377230D01*
X155727136Y-105368277D01*
X155727141Y-105368263D01*
X155836986Y-105105364D01*
X155843337Y-105099054D01*
X155851239Y-105098700D01*
X156318038Y-105243170D01*
G37*
G04 #@! TD.AperFunction*
G04 #@! TA.AperFunction,Conductor*
G36*
X166041633Y-100253077D02*
G01*
X166047945Y-100259429D01*
X166048299Y-100267332D01*
X165903830Y-100734130D01*
X165898110Y-100741020D01*
X165892653Y-100742371D01*
X165655905Y-100742371D01*
X165647632Y-100738944D01*
X165644728Y-100734130D01*
X165500258Y-100267332D01*
X165501086Y-100258416D01*
X165506922Y-100253078D01*
X165769769Y-100143254D01*
X165778723Y-100143228D01*
X166041633Y-100253077D01*
G37*
G04 #@! TD.AperFunction*
G04 #@! TA.AperFunction,Conductor*
G36*
X169099726Y-103962948D02*
G01*
X169102630Y-103967762D01*
X169247099Y-104434559D01*
X169246271Y-104443475D01*
X169240433Y-104448814D01*
X168977590Y-104558636D01*
X168968635Y-104558663D01*
X168968568Y-104558636D01*
X168705724Y-104448814D01*
X168699412Y-104442462D01*
X168699058Y-104434560D01*
X168843528Y-103967761D01*
X168849248Y-103960872D01*
X168854705Y-103959521D01*
X169091453Y-103959521D01*
X169099726Y-103962948D01*
G37*
G04 #@! TD.AperFunction*
G04 #@! TA.AperFunction,Conductor*
G36*
X164575763Y-95441381D02*
G01*
X164581601Y-95446720D01*
X164809521Y-95878951D01*
X164810349Y-95887867D01*
X164807445Y-95892681D01*
X164640039Y-96060087D01*
X164631766Y-96063514D01*
X164626309Y-96062163D01*
X164194078Y-95834243D01*
X164188358Y-95827353D01*
X164188712Y-95819450D01*
X164296915Y-95555936D01*
X164303225Y-95549585D01*
X164566808Y-95441354D01*
X164575763Y-95441381D01*
G37*
G04 #@! TD.AperFunction*
G04 #@! TA.AperFunction,Conductor*
G36*
X137572838Y-105243170D02*
G01*
X137579728Y-105248890D01*
X137581079Y-105254347D01*
X137581079Y-105491094D01*
X137577652Y-105499367D01*
X137572838Y-105502271D01*
X137106040Y-105646741D01*
X137097124Y-105645913D01*
X137091785Y-105640075D01*
X136981962Y-105377230D01*
X136981936Y-105368277D01*
X136981941Y-105368263D01*
X137091786Y-105105364D01*
X137098137Y-105099054D01*
X137106039Y-105098700D01*
X137572838Y-105243170D01*
G37*
G04 #@! TD.AperFunction*
G04 #@! TA.AperFunction,Conductor*
G36*
X146706949Y-100027554D02*
G01*
X146970463Y-100135757D01*
X146976815Y-100142069D01*
X146976842Y-100142136D01*
X147085045Y-100405650D01*
X147085018Y-100414605D01*
X147079679Y-100420443D01*
X146647448Y-100648363D01*
X146638532Y-100649191D01*
X146633718Y-100646287D01*
X146466312Y-100478881D01*
X146462885Y-100470608D01*
X146464235Y-100465154D01*
X146692156Y-100032919D01*
X146699046Y-100027200D01*
X146706949Y-100027554D01*
G37*
G04 #@! TD.AperFunction*
G04 #@! TA.AperFunction,Conductor*
G36*
X146846204Y-97260728D02*
G01*
X146852231Y-97266440D01*
X147065508Y-97708474D01*
X147066016Y-97717414D01*
X147063243Y-97721831D01*
X146895822Y-97889252D01*
X146887549Y-97892679D01*
X146881761Y-97891147D01*
X146464418Y-97653576D01*
X146458923Y-97646505D01*
X146459383Y-97638964D01*
X146567715Y-97375136D01*
X146574025Y-97368785D01*
X146837250Y-97260701D01*
X146846204Y-97260728D01*
G37*
G04 #@! TD.AperFunction*
G04 #@! TA.AperFunction,Conductor*
G36*
X149135326Y-103937548D02*
G01*
X149138230Y-103942362D01*
X149282699Y-104409159D01*
X149281871Y-104418075D01*
X149276033Y-104423414D01*
X149013190Y-104533236D01*
X149004235Y-104533263D01*
X149004168Y-104533236D01*
X148741324Y-104423414D01*
X148735012Y-104417062D01*
X148734658Y-104409160D01*
X148879128Y-103942361D01*
X148884848Y-103935472D01*
X148890305Y-103934121D01*
X149127053Y-103934121D01*
X149135326Y-103937548D01*
G37*
G04 #@! TD.AperFunction*
G04 #@! TA.AperFunction,Conductor*
G36*
X162221150Y-81730291D02*
G01*
X162227462Y-81736643D01*
X162227938Y-81744124D01*
X162103608Y-82206623D01*
X162098151Y-82213723D01*
X162092309Y-82215286D01*
X161855537Y-82215286D01*
X161847264Y-82211859D01*
X161844513Y-82207505D01*
X161679980Y-81744680D01*
X161680438Y-81735737D01*
X161686491Y-81729966D01*
X161948922Y-81620316D01*
X161957876Y-81620290D01*
X162221150Y-81730291D01*
G37*
G04 #@! TD.AperFunction*
G04 #@! TA.AperFunction,Conductor*
G36*
X164085445Y-87521517D02*
G01*
X164348562Y-87629557D01*
X164354914Y-87635869D01*
X164354941Y-87635936D01*
X164463287Y-87899797D01*
X164463260Y-87908752D01*
X164458288Y-87914389D01*
X164042527Y-88152986D01*
X164033645Y-88154131D01*
X164028430Y-88151111D01*
X163861008Y-87983689D01*
X163857581Y-87975416D01*
X163858723Y-87970374D01*
X164070445Y-87527294D01*
X164077103Y-87521308D01*
X164085445Y-87521517D01*
G37*
G04 #@! TD.AperFunction*
G04 #@! TA.AperFunction,Conductor*
G36*
X182129926Y-117526548D02*
G01*
X182132830Y-117531362D01*
X182277299Y-117998159D01*
X182276471Y-118007075D01*
X182270633Y-118012414D01*
X182007790Y-118122236D01*
X181998835Y-118122263D01*
X181998768Y-118122236D01*
X181735924Y-118012414D01*
X181729612Y-118006062D01*
X181729258Y-117998160D01*
X181873728Y-117531361D01*
X181879448Y-117524472D01*
X181884905Y-117523121D01*
X182121653Y-117523121D01*
X182129926Y-117526548D01*
G37*
G04 #@! TD.AperFunction*
G04 #@! TA.AperFunction,Conductor*
G36*
X141506949Y-76727554D02*
G01*
X141770463Y-76835757D01*
X141776815Y-76842069D01*
X141776842Y-76842136D01*
X141885045Y-77105650D01*
X141885018Y-77114605D01*
X141879679Y-77120443D01*
X141447448Y-77348363D01*
X141438532Y-77349191D01*
X141433718Y-77346287D01*
X141266312Y-77178881D01*
X141262885Y-77170608D01*
X141264235Y-77165154D01*
X141492156Y-76732919D01*
X141499046Y-76727200D01*
X141506949Y-76727554D01*
G37*
G04 #@! TD.AperFunction*
G04 #@! TA.AperFunction,Conductor*
G36*
X151500926Y-112841748D02*
G01*
X151503830Y-112846562D01*
X151648299Y-113313359D01*
X151647471Y-113322275D01*
X151641633Y-113327614D01*
X151378790Y-113437436D01*
X151369835Y-113437463D01*
X151369768Y-113437436D01*
X151106924Y-113327614D01*
X151100612Y-113321262D01*
X151100258Y-113313360D01*
X151244728Y-112846561D01*
X151250448Y-112839672D01*
X151255905Y-112838321D01*
X151492653Y-112838321D01*
X151500926Y-112841748D01*
G37*
G04 #@! TD.AperFunction*
G04 #@! TA.AperFunction,Conductor*
G36*
X150364421Y-115148138D02*
G01*
X150371311Y-115153858D01*
X150372662Y-115159315D01*
X150372662Y-115396062D01*
X150369235Y-115404335D01*
X150364421Y-115407239D01*
X149897623Y-115551709D01*
X149888707Y-115550881D01*
X149883368Y-115545043D01*
X149773545Y-115282198D01*
X149773519Y-115273245D01*
X149773524Y-115273231D01*
X149883369Y-115010332D01*
X149889720Y-115004022D01*
X149897622Y-115003668D01*
X150364421Y-115148138D01*
G37*
G04 #@! TD.AperFunction*
G04 #@! TA.AperFunction,Conductor*
G36*
X176912228Y-118503030D02*
G01*
X176936125Y-118513015D01*
X176942437Y-118519367D01*
X176942602Y-118527829D01*
X176773688Y-118989787D01*
X176767629Y-118996380D01*
X176762700Y-118997469D01*
X176525927Y-118997469D01*
X176517654Y-118994042D01*
X176514603Y-118988713D01*
X176394667Y-118527148D01*
X176395903Y-118518281D01*
X176401477Y-118513414D01*
X176664769Y-118403404D01*
X176673723Y-118403378D01*
X176912228Y-118503030D01*
G37*
G04 #@! TD.AperFunction*
G04 #@! TA.AperFunction,Conductor*
G36*
X147103633Y-76949027D02*
G01*
X147109945Y-76955379D01*
X147110299Y-76963282D01*
X146965830Y-77430080D01*
X146960110Y-77436970D01*
X146954653Y-77438321D01*
X146717905Y-77438321D01*
X146709632Y-77434894D01*
X146706728Y-77430080D01*
X146562258Y-76963282D01*
X146563086Y-76954366D01*
X146568922Y-76949028D01*
X146831769Y-76839204D01*
X146840723Y-76839178D01*
X147103633Y-76949027D01*
G37*
G04 #@! TD.AperFunction*
G04 #@! TA.AperFunction,Conductor*
G36*
X145114839Y-85030354D02*
G01*
X145282245Y-85197760D01*
X145285672Y-85206033D01*
X145284321Y-85211490D01*
X145056401Y-85643721D01*
X145049511Y-85649441D01*
X145041608Y-85649087D01*
X144778094Y-85540884D01*
X144771742Y-85534572D01*
X144771715Y-85534505D01*
X144663512Y-85270991D01*
X144663539Y-85262036D01*
X144668878Y-85256198D01*
X145101111Y-85028277D01*
X145110025Y-85027450D01*
X145114839Y-85030354D01*
G37*
G04 #@! TD.AperFunction*
G04 #@! TA.AperFunction,Conductor*
G36*
X167241633Y-73949027D02*
G01*
X167247945Y-73955379D01*
X167248299Y-73963282D01*
X167103830Y-74430080D01*
X167098110Y-74436970D01*
X167092653Y-74438321D01*
X166855905Y-74438321D01*
X166847632Y-74434894D01*
X166844728Y-74430080D01*
X166700258Y-73963282D01*
X166701086Y-73954366D01*
X166706922Y-73949028D01*
X166969769Y-73839204D01*
X166978723Y-73839178D01*
X167241633Y-73949027D01*
G37*
G04 #@! TD.AperFunction*
G04 #@! TA.AperFunction,Conductor*
G36*
X151162778Y-85008770D02*
G01*
X151169668Y-85014490D01*
X151171019Y-85019947D01*
X151171019Y-85256694D01*
X151167592Y-85264967D01*
X151162778Y-85267871D01*
X150695980Y-85412341D01*
X150687064Y-85411513D01*
X150681725Y-85405675D01*
X150571902Y-85142830D01*
X150571876Y-85133877D01*
X150571881Y-85133863D01*
X150681726Y-84870964D01*
X150688077Y-84864654D01*
X150695979Y-84864300D01*
X151162778Y-85008770D01*
G37*
G04 #@! TD.AperFunction*
G04 #@! TA.AperFunction,Conductor*
G36*
X170706949Y-78527554D02*
G01*
X170970463Y-78635757D01*
X170976815Y-78642069D01*
X170976842Y-78642136D01*
X171085045Y-78905650D01*
X171085018Y-78914605D01*
X171079679Y-78920443D01*
X170647448Y-79148363D01*
X170638532Y-79149191D01*
X170633718Y-79146287D01*
X170466312Y-78978881D01*
X170462885Y-78970608D01*
X170464235Y-78965154D01*
X170692156Y-78532919D01*
X170699046Y-78527200D01*
X170706949Y-78527554D01*
G37*
G04 #@! TD.AperFunction*
G04 #@! TA.AperFunction,Conductor*
G36*
X159314732Y-87165128D02*
G01*
X159320071Y-87170966D01*
X159429893Y-87433810D01*
X159429920Y-87442765D01*
X159429893Y-87442832D01*
X159320071Y-87705675D01*
X159313719Y-87711987D01*
X159305816Y-87712341D01*
X158839019Y-87567871D01*
X158832129Y-87562151D01*
X158830778Y-87556694D01*
X158830778Y-87319947D01*
X158834205Y-87311674D01*
X158839017Y-87308770D01*
X159305817Y-87164300D01*
X159314732Y-87165128D01*
G37*
G04 #@! TD.AperFunction*
G04 #@! TA.AperFunction,Conductor*
G36*
X150314839Y-80330354D02*
G01*
X150482245Y-80497760D01*
X150485672Y-80506033D01*
X150484321Y-80511490D01*
X150256401Y-80943721D01*
X150249511Y-80949441D01*
X150241608Y-80949087D01*
X149978094Y-80840884D01*
X149971742Y-80834572D01*
X149971715Y-80834505D01*
X149863512Y-80570991D01*
X149863539Y-80562036D01*
X149868878Y-80556198D01*
X150301111Y-80328277D01*
X150310025Y-80327450D01*
X150314839Y-80330354D01*
G37*
G04 #@! TD.AperFunction*
G04 #@! TA.AperFunction,Conductor*
G36*
X164363956Y-70772030D02*
G01*
X164364447Y-70773059D01*
X164474367Y-71036138D01*
X164475271Y-71040688D01*
X164474323Y-71325101D01*
X164470869Y-71333363D01*
X164462584Y-71336762D01*
X164461162Y-71336670D01*
X163904409Y-71266609D01*
X163896629Y-71262176D01*
X163894170Y-71255001D01*
X163894170Y-71018314D01*
X163897597Y-71010041D01*
X163900330Y-71008009D01*
X164348113Y-70767264D01*
X164357020Y-70766366D01*
X164363956Y-70772030D01*
G37*
G04 #@! TD.AperFunction*
G04 #@! TA.AperFunction,Conductor*
G36*
X145114839Y-87530354D02*
G01*
X145282245Y-87697760D01*
X145285672Y-87706033D01*
X145284321Y-87711490D01*
X145056401Y-88143721D01*
X145049511Y-88149441D01*
X145041608Y-88149087D01*
X144778094Y-88040884D01*
X144771742Y-88034572D01*
X144771715Y-88034505D01*
X144663512Y-87770991D01*
X144663539Y-87762036D01*
X144668878Y-87756198D01*
X145101111Y-87528277D01*
X145110025Y-87527450D01*
X145114839Y-87530354D01*
G37*
G04 #@! TD.AperFunction*
G04 #@! TA.AperFunction,Conductor*
G36*
X169306949Y-76727554D02*
G01*
X169570463Y-76835757D01*
X169576815Y-76842069D01*
X169576842Y-76842136D01*
X169685045Y-77105650D01*
X169685018Y-77114605D01*
X169679679Y-77120443D01*
X169247448Y-77348363D01*
X169238532Y-77349191D01*
X169233718Y-77346287D01*
X169066312Y-77178881D01*
X169062885Y-77170608D01*
X169064235Y-77165154D01*
X169292156Y-76732919D01*
X169299046Y-76727200D01*
X169306949Y-76727554D01*
G37*
G04 #@! TD.AperFunction*
G04 #@! TA.AperFunction,Conductor*
G36*
X183882526Y-117501148D02*
G01*
X183885430Y-117505962D01*
X184029899Y-117972759D01*
X184029071Y-117981675D01*
X184023233Y-117987014D01*
X183760390Y-118096836D01*
X183751435Y-118096863D01*
X183751368Y-118096836D01*
X183488524Y-117987014D01*
X183482212Y-117980662D01*
X183481858Y-117972760D01*
X183626328Y-117505961D01*
X183632048Y-117499072D01*
X183637505Y-117497721D01*
X183874253Y-117497721D01*
X183882526Y-117501148D01*
G37*
G04 #@! TD.AperFunction*
G04 #@! TA.AperFunction,Conductor*
G36*
X164041633Y-80149027D02*
G01*
X164047945Y-80155379D01*
X164048299Y-80163282D01*
X163903830Y-80630080D01*
X163898110Y-80636970D01*
X163892653Y-80638321D01*
X163655905Y-80638321D01*
X163647632Y-80634894D01*
X163644728Y-80630080D01*
X163500258Y-80163282D01*
X163501086Y-80154366D01*
X163506922Y-80149028D01*
X163769769Y-80039204D01*
X163778723Y-80039178D01*
X164041633Y-80149027D01*
G37*
G04 #@! TD.AperFunction*
G04 #@! TA.AperFunction,Conductor*
G36*
X166907154Y-87527638D02*
G01*
X167170463Y-87635757D01*
X167176815Y-87642069D01*
X167176842Y-87642136D01*
X167284961Y-87905445D01*
X167284934Y-87914400D01*
X167279382Y-87920348D01*
X166870748Y-88125220D01*
X166861816Y-88125865D01*
X166857231Y-88123034D01*
X166689565Y-87955368D01*
X166686138Y-87947095D01*
X166687377Y-87941855D01*
X166892251Y-87533216D01*
X166899022Y-87527357D01*
X166907154Y-87527638D01*
G37*
G04 #@! TD.AperFunction*
G04 #@! TA.AperFunction,Conductor*
G36*
X163012969Y-92414433D02*
G01*
X163142817Y-92544281D01*
X163146244Y-92552554D01*
X163145153Y-92557488D01*
X162935507Y-93008291D01*
X162928911Y-93014347D01*
X162920454Y-93014180D01*
X162657445Y-92906184D01*
X162651093Y-92899872D01*
X162651066Y-92899805D01*
X162543070Y-92636796D01*
X162543097Y-92627841D01*
X162548956Y-92621745D01*
X162999764Y-92412096D01*
X163008709Y-92411716D01*
X163012969Y-92414433D01*
G37*
G04 #@! TD.AperFunction*
G04 #@! TA.AperFunction,Conductor*
G36*
X165300720Y-91795171D02*
G01*
X165306582Y-91801269D01*
X165416194Y-92063610D01*
X165416221Y-92072565D01*
X165416194Y-92072632D01*
X165306582Y-92334972D01*
X165300230Y-92341284D01*
X165291773Y-92341450D01*
X165158026Y-92292614D01*
X164824766Y-92170927D01*
X164818170Y-92164871D01*
X164817079Y-92159937D01*
X164817079Y-91976304D01*
X164820506Y-91968031D01*
X164824766Y-91965314D01*
X165291776Y-91794790D01*
X165300720Y-91795171D01*
G37*
G04 #@! TD.AperFunction*
G04 #@! TA.AperFunction,Conductor*
G36*
X145867783Y-91790207D02*
G01*
X145873645Y-91796305D01*
X145983257Y-92058646D01*
X145983284Y-92067601D01*
X145983257Y-92067668D01*
X145873645Y-92330008D01*
X145867293Y-92336320D01*
X145858836Y-92336486D01*
X145725089Y-92287650D01*
X145391829Y-92165963D01*
X145385233Y-92159907D01*
X145384142Y-92154973D01*
X145384142Y-91971340D01*
X145387569Y-91963067D01*
X145391829Y-91960350D01*
X145858839Y-91789826D01*
X145867783Y-91790207D01*
G37*
G04 #@! TD.AperFunction*
G04 #@! TA.AperFunction,Conductor*
G36*
X144758618Y-92099133D02*
G01*
X144888466Y-92228981D01*
X144891893Y-92237254D01*
X144890802Y-92242188D01*
X144681156Y-92692991D01*
X144674560Y-92699047D01*
X144666103Y-92698880D01*
X144403094Y-92590884D01*
X144396742Y-92584572D01*
X144396715Y-92584505D01*
X144288719Y-92321496D01*
X144288746Y-92312541D01*
X144294605Y-92306445D01*
X144745413Y-92096796D01*
X144754358Y-92096416D01*
X144758618Y-92099133D01*
G37*
G04 #@! TD.AperFunction*
G04 #@! TA.AperFunction,Conductor*
G36*
X168185326Y-102337348D02*
G01*
X168188230Y-102342162D01*
X168332699Y-102808959D01*
X168331871Y-102817875D01*
X168326033Y-102823214D01*
X168063190Y-102933036D01*
X168054235Y-102933063D01*
X168054168Y-102933036D01*
X167791324Y-102823214D01*
X167785012Y-102816862D01*
X167784658Y-102808960D01*
X167929128Y-102342161D01*
X167934848Y-102335272D01*
X167940305Y-102333921D01*
X168177053Y-102333921D01*
X168185326Y-102337348D01*
G37*
G04 #@! TD.AperFunction*
G04 #@! TA.AperFunction,Conductor*
G36*
X154966038Y-87608770D02*
G01*
X154972928Y-87614490D01*
X154974279Y-87619947D01*
X154974279Y-87856694D01*
X154970852Y-87864967D01*
X154966038Y-87867871D01*
X154499240Y-88012341D01*
X154490324Y-88011513D01*
X154484985Y-88005675D01*
X154375162Y-87742830D01*
X154375136Y-87733877D01*
X154375141Y-87733863D01*
X154484986Y-87470964D01*
X154491337Y-87464654D01*
X154499239Y-87464300D01*
X154966038Y-87608770D01*
G37*
G04 #@! TD.AperFunction*
M02*
