G04 #@! TF.GenerationSoftware,KiCad,Pcbnew,8.0.9-8.0.9-0~ubuntu24.04.1*
G04 #@! TF.CreationDate,2025-06-14T07:54:04+02:00*
G04 #@! TF.ProjectId,rpi_power_warden_hat,7270695f-706f-4776-9572-5f7761726465,rev?*
G04 #@! TF.SameCoordinates,Original*
G04 #@! TF.FileFunction,Legend,Bot*
G04 #@! TF.FilePolarity,Positive*
%FSLAX46Y46*%
G04 Gerber Fmt 4.6, Leading zero omitted, Abs format (unit mm)*
G04 Created by KiCad (PCBNEW 8.0.9-8.0.9-0~ubuntu24.04.1) date 2025-06-14 07:54:04*
%MOMM*%
%LPD*%
G01*
G04 APERTURE LIST*
%ADD10O,1.800000X1.000000*%
%ADD11C,1.800000*%
%ADD12C,1.600000*%
%ADD13C,3.000000*%
%ADD14C,1.370000*%
G04 APERTURE END LIST*
%LPC*%
D10*
X183624279Y-92338321D03*
X187424279Y-92338321D03*
X183624279Y-83938321D03*
X187424279Y-83938321D03*
D11*
X181674279Y-103538321D03*
D12*
X186174279Y-103538321D03*
D13*
X130395599Y-73817001D03*
X130395599Y-122817001D03*
D11*
X136565599Y-73925001D03*
X182285599Y-73925001D03*
D13*
X188395599Y-73817001D03*
X188395599Y-122817001D03*
D14*
X135295599Y-75195001D03*
X135295599Y-72655001D03*
X137835599Y-75195001D03*
X137835599Y-72655001D03*
X140375599Y-75195001D03*
X140375599Y-72655001D03*
X142915599Y-75195001D03*
X142915599Y-72655001D03*
X145455599Y-75195001D03*
X145455599Y-72655001D03*
X147995599Y-75195001D03*
X147995599Y-72655001D03*
X150535599Y-75195001D03*
X150535599Y-72655001D03*
X153075599Y-75195001D03*
X153075599Y-72655001D03*
X155615599Y-75195001D03*
X155615599Y-72655001D03*
X158155599Y-75195001D03*
X158155599Y-72655001D03*
X160695599Y-75195001D03*
X160695599Y-72655001D03*
X163235599Y-75195001D03*
X163235599Y-72655001D03*
X165775599Y-75195001D03*
X165775599Y-72655001D03*
X168315599Y-75195001D03*
X168315599Y-72655001D03*
X170855599Y-75195001D03*
X170855599Y-72655001D03*
X173395599Y-75195001D03*
X173395599Y-72655001D03*
X175935599Y-75195001D03*
X175935599Y-72655001D03*
X178475599Y-75195001D03*
X178475599Y-72655001D03*
X181015599Y-75195001D03*
X181015599Y-72655001D03*
X183555599Y-75195001D03*
X183555599Y-72655001D03*
D11*
X140036779Y-115738321D03*
D12*
X140036779Y-120238321D03*
%LPD*%
M02*
