G04 #@! TF.GenerationSoftware,KiCad,Pcbnew,8.0.9-8.0.9-0~ubuntu24.04.1*
G04 #@! TF.CreationDate,2025-06-14T07:54:04+02:00*
G04 #@! TF.ProjectId,rpi_power_warden_hat,7270695f-706f-4776-9572-5f7761726465,rev?*
G04 #@! TF.SameCoordinates,Original*
G04 #@! TF.FileFunction,Copper,L2,Inr*
G04 #@! TF.FilePolarity,Positive*
%FSLAX46Y46*%
G04 Gerber Fmt 4.6, Leading zero omitted, Abs format (unit mm)*
G04 Created by KiCad (PCBNEW 8.0.9-8.0.9-0~ubuntu24.04.1) date 2025-06-14 07:54:04*
%MOMM*%
%LPD*%
G01*
G04 APERTURE LIST*
G04 #@! TA.AperFunction,ComponentPad*
%ADD10O,1.800000X1.000000*%
G04 #@! TD*
G04 #@! TA.AperFunction,ComponentPad*
%ADD11C,1.370000*%
G04 #@! TD*
G04 #@! TA.AperFunction,ViaPad*
%ADD12C,0.600000*%
G04 #@! TD*
G04 APERTURE END LIST*
D10*
X183624279Y-92338321D03*
X187424279Y-92338321D03*
X183624279Y-83938321D03*
X187424279Y-83938321D03*
D11*
X135295599Y-75195001D03*
X135295599Y-72655001D03*
X137835599Y-75195001D03*
X137835599Y-72655001D03*
X140375599Y-75195001D03*
X140375599Y-72655001D03*
X142915599Y-75195001D03*
X142915599Y-72655001D03*
X145455599Y-75195001D03*
X145455599Y-72655001D03*
X147995599Y-75195001D03*
X147995599Y-72655001D03*
X150535599Y-75195001D03*
X150535599Y-72655001D03*
X153075599Y-75195001D03*
X153075599Y-72655001D03*
X155615599Y-75195001D03*
X155615599Y-72655001D03*
X158155599Y-75195001D03*
X158155599Y-72655001D03*
X160695599Y-75195001D03*
X160695599Y-72655001D03*
X163235599Y-75195001D03*
X163235599Y-72655001D03*
X165775599Y-75195001D03*
X165775599Y-72655001D03*
X168315599Y-75195001D03*
X168315599Y-72655001D03*
X170855599Y-75195001D03*
X170855599Y-72655001D03*
X173395599Y-75195001D03*
X173395599Y-72655001D03*
X175935599Y-75195001D03*
X175935599Y-72655001D03*
X178475599Y-75195001D03*
X178475599Y-72655001D03*
X181015599Y-75195001D03*
X181015599Y-72655001D03*
X183555599Y-75195001D03*
X183555599Y-72655001D03*
D12*
X164604279Y-108521921D03*
X150888279Y-92646921D03*
X162242079Y-117208721D03*
X147713279Y-114033721D03*
X146875079Y-107607521D03*
X135274279Y-85438321D03*
X166585479Y-86703321D03*
X148272079Y-80658121D03*
X145706679Y-97980921D03*
X151218479Y-98184121D03*
X142774279Y-122938321D03*
X190817079Y-114948121D03*
X185813279Y-100774921D03*
X164502679Y-100089121D03*
X164502679Y-98006321D03*
X149186479Y-74003321D03*
X147840279Y-107582121D03*
X175274279Y-120438321D03*
X135274279Y-82938321D03*
X190474279Y-110438321D03*
X162191279Y-125133521D03*
X167677679Y-115862521D03*
X145732079Y-100012921D03*
X190474279Y-97938321D03*
X157441479Y-125133521D03*
X135274279Y-107938321D03*
X178218679Y-80607321D03*
X183674279Y-95238321D03*
X142861879Y-120231321D03*
X165747279Y-83985521D03*
X156674279Y-117038321D03*
X178218679Y-83375921D03*
X182841479Y-117437321D03*
X190474279Y-87938321D03*
X130274279Y-107938321D03*
X159498879Y-73952521D03*
X147774279Y-122938321D03*
X190842479Y-117792921D03*
X190274279Y-102938321D03*
X172097279Y-73927121D03*
X190474279Y-82938321D03*
X175881879Y-115989521D03*
X152564679Y-81674121D03*
X162902479Y-89167121D03*
X180758679Y-100800321D03*
X135274279Y-80438321D03*
X172774279Y-102938321D03*
X169455679Y-99200121D03*
X183882879Y-98488921D03*
X171995679Y-86627121D03*
X156674279Y-114238321D03*
X137774279Y-80438321D03*
X182079479Y-98488921D03*
X147738679Y-120256721D03*
X169989079Y-92723121D03*
X190474279Y-92938321D03*
X152336079Y-90919721D03*
X159397279Y-86500121D03*
X151548679Y-87719321D03*
X151320079Y-82918721D03*
X186422879Y-119291521D03*
X140982279Y-87490721D03*
X141744279Y-74003321D03*
X190474279Y-107938321D03*
X184289279Y-80734321D03*
X140982279Y-84772921D03*
X185457679Y-76822721D03*
X185824279Y-85688321D03*
X142912679Y-114033721D03*
X167774279Y-122938321D03*
X190817079Y-116421321D03*
X165747279Y-107632921D03*
X151447079Y-125158921D03*
X156603279Y-110503121D03*
X140982279Y-86195321D03*
X171995679Y-85560321D03*
X171791286Y-87743139D03*
X143374279Y-80638321D03*
X149174279Y-86038321D03*
X168574279Y-80638321D03*
X154974279Y-79038321D03*
X170644978Y-88851921D03*
X149215825Y-87664321D03*
X134574279Y-78638321D03*
X188256871Y-119574104D03*
X136174279Y-78638321D03*
X154342679Y-81775721D03*
X155774279Y-78438321D03*
X156174279Y-79038321D03*
X176847079Y-116573721D03*
X153774279Y-112638321D03*
X135374279Y-78638321D03*
X189403179Y-118465322D03*
X142022585Y-80448087D03*
X153474279Y-113538321D03*
X149282052Y-84730548D03*
X159374279Y-85638321D03*
X155726279Y-105372721D03*
X165774279Y-100142371D03*
X168973079Y-104559521D03*
X164299479Y-95552121D03*
X146974279Y-100138321D03*
X136981079Y-105372721D03*
X149008679Y-104534121D03*
X146570279Y-97371321D03*
X185000000Y-88688321D03*
X180024279Y-95288321D03*
X180024279Y-80788321D03*
X185000000Y-87638321D03*
X164352378Y-87632121D03*
X161953432Y-81619433D03*
X182003279Y-118123121D03*
X151374279Y-113438321D03*
X141774279Y-76838321D03*
X146836279Y-76838321D03*
X176669279Y-118402521D03*
X149772662Y-115277689D03*
X144774279Y-85538321D03*
X166974279Y-73838321D03*
X170974279Y-78638321D03*
X159430778Y-87438321D03*
X150571019Y-85138321D03*
X164474279Y-71038321D03*
X149974279Y-80838321D03*
X152894879Y-118504121D03*
X138620079Y-93027921D03*
X169574279Y-76838321D03*
X144774279Y-88038321D03*
X167174279Y-87638321D03*
X183755879Y-118097721D03*
X163774279Y-80038321D03*
X162653630Y-92903621D03*
X165417079Y-92068121D03*
X160006879Y-119545521D03*
X157847879Y-92900921D03*
X144399279Y-92588321D03*
X145984142Y-92063157D03*
X154374279Y-87738321D03*
X168058679Y-102933921D03*
X164629679Y-110757121D03*
X167677679Y-111569921D03*
X184619479Y-116167321D03*
X178421879Y-112408121D03*
X167677679Y-110782521D03*
X178421879Y-114617921D03*
X166128279Y-110782521D03*
X180352279Y-112408121D03*
X167740779Y-119584021D03*
X178421879Y-113525721D03*
G04 #@! TA.AperFunction,Conductor*
G36*
X188713483Y-70151110D02*
G01*
X189001014Y-70167873D01*
X189014802Y-70169455D01*
X189288858Y-70216577D01*
X189295343Y-70217692D01*
X189308876Y-70220808D01*
X189582258Y-70300107D01*
X189595346Y-70304712D01*
X189858159Y-70414084D01*
X189870652Y-70420125D01*
X190119586Y-70558195D01*
X190131333Y-70565599D01*
X190360313Y-70728532D01*
X190363258Y-70730627D01*
X190374091Y-70739288D01*
X190586142Y-70929241D01*
X190595930Y-70939052D01*
X190714041Y-71071491D01*
X190785391Y-71151497D01*
X190794037Y-71162359D01*
X190935435Y-71362010D01*
X190958558Y-71394658D01*
X190965932Y-71406416D01*
X191102610Y-71654129D01*
X191103450Y-71655652D01*
X191109467Y-71668167D01*
X191218252Y-71931209D01*
X191222832Y-71944318D01*
X191301524Y-72217872D01*
X191304610Y-72231410D01*
X191352225Y-72512058D01*
X191353777Y-72525857D01*
X191369904Y-72813416D01*
X191370099Y-72820359D01*
X191370099Y-123337369D01*
X191369873Y-123344857D01*
X191353957Y-123607959D01*
X191352152Y-123622823D01*
X191300961Y-123902164D01*
X191297377Y-123916702D01*
X191212894Y-124187820D01*
X191207585Y-124201821D01*
X191091030Y-124460796D01*
X191084071Y-124474055D01*
X190937153Y-124717086D01*
X190928647Y-124729409D01*
X190753504Y-124952963D01*
X190743574Y-124964171D01*
X190542769Y-125164975D01*
X190531561Y-125174905D01*
X190308008Y-125350048D01*
X190295684Y-125358554D01*
X190052653Y-125505470D01*
X190039395Y-125512429D01*
X189780419Y-125628985D01*
X189766418Y-125634294D01*
X189495301Y-125718777D01*
X189480763Y-125722361D01*
X189201421Y-125773553D01*
X189186556Y-125775358D01*
X188923423Y-125791275D01*
X188915936Y-125791501D01*
X129875809Y-125791501D01*
X129868322Y-125791275D01*
X129604646Y-125775325D01*
X129589781Y-125773520D01*
X129310443Y-125722329D01*
X129295905Y-125718745D01*
X129024792Y-125634263D01*
X129010791Y-125628954D01*
X128751819Y-125512401D01*
X128738560Y-125505442D01*
X128495530Y-125358524D01*
X128483209Y-125350020D01*
X128259659Y-125174879D01*
X128248451Y-125164949D01*
X128047650Y-124964148D01*
X128037720Y-124952940D01*
X127862579Y-124729390D01*
X127854077Y-124717073D01*
X127707154Y-124474033D01*
X127700202Y-124460787D01*
X127583643Y-124201804D01*
X127578336Y-124187807D01*
X127550428Y-124098248D01*
X127493853Y-123916693D01*
X127490270Y-123902156D01*
X127439079Y-123622818D01*
X127437274Y-123607953D01*
X127421325Y-123344277D01*
X127421099Y-123336790D01*
X127421099Y-122705550D01*
X128695099Y-122705550D01*
X128695099Y-122928451D01*
X128695100Y-122928467D01*
X128724193Y-123149453D01*
X128724194Y-123149458D01*
X128724195Y-123149464D01*
X128766625Y-123307814D01*
X128781889Y-123364781D01*
X128781892Y-123364791D01*
X128867192Y-123570723D01*
X128867194Y-123570727D01*
X128978651Y-123763775D01*
X128978656Y-123763781D01*
X128978657Y-123763783D01*
X129114350Y-123940623D01*
X129114356Y-123940630D01*
X129271969Y-124098243D01*
X129271975Y-124098248D01*
X129448825Y-124233949D01*
X129641873Y-124345406D01*
X129847818Y-124430711D01*
X130063136Y-124488405D01*
X130284142Y-124517501D01*
X130284149Y-124517501D01*
X130507049Y-124517501D01*
X130507056Y-124517501D01*
X130728062Y-124488405D01*
X130943380Y-124430711D01*
X131149325Y-124345406D01*
X131342373Y-124233949D01*
X131519223Y-124098248D01*
X131676846Y-123940625D01*
X131812547Y-123763775D01*
X131924004Y-123570727D01*
X132009309Y-123364782D01*
X132067003Y-123149464D01*
X132096099Y-122928458D01*
X132096099Y-122705544D01*
X132067003Y-122484538D01*
X132009309Y-122269220D01*
X131924004Y-122063275D01*
X131812547Y-121870227D01*
X131676846Y-121693377D01*
X131676841Y-121693371D01*
X131519228Y-121535758D01*
X131519221Y-121535752D01*
X131342381Y-121400059D01*
X131342379Y-121400058D01*
X131342373Y-121400053D01*
X131149325Y-121288596D01*
X131149321Y-121288594D01*
X130943389Y-121203294D01*
X130943382Y-121203292D01*
X130943380Y-121203291D01*
X130728062Y-121145597D01*
X130728056Y-121145596D01*
X130728051Y-121145595D01*
X130507065Y-121116502D01*
X130507062Y-121116501D01*
X130507056Y-121116501D01*
X130284142Y-121116501D01*
X130284136Y-121116501D01*
X130284132Y-121116502D01*
X130063146Y-121145595D01*
X130063139Y-121145596D01*
X130063136Y-121145597D01*
X129858719Y-121200370D01*
X129847818Y-121203291D01*
X129847808Y-121203294D01*
X129641876Y-121288594D01*
X129641872Y-121288596D01*
X129448825Y-121400053D01*
X129448816Y-121400059D01*
X129271976Y-121535752D01*
X129271969Y-121535758D01*
X129114356Y-121693371D01*
X129114350Y-121693378D01*
X128978657Y-121870218D01*
X128978651Y-121870227D01*
X128867194Y-122063274D01*
X128867192Y-122063278D01*
X128781892Y-122269210D01*
X128781889Y-122269220D01*
X128737014Y-122436699D01*
X128724196Y-122484535D01*
X128724193Y-122484548D01*
X128695100Y-122705534D01*
X128695099Y-122705550D01*
X127421099Y-122705550D01*
X127421099Y-120336864D01*
X139036278Y-120336864D01*
X139074726Y-120530150D01*
X139074729Y-120530160D01*
X139150143Y-120712228D01*
X139150150Y-120712241D01*
X139259639Y-120876102D01*
X139259642Y-120876106D01*
X139398993Y-121015457D01*
X139398997Y-121015460D01*
X139562858Y-121124949D01*
X139562871Y-121124956D01*
X139744939Y-121200370D01*
X139744944Y-121200372D01*
X139744948Y-121200372D01*
X139744949Y-121200373D01*
X139938235Y-121238821D01*
X139938238Y-121238821D01*
X140135322Y-121238821D01*
X140313939Y-121203291D01*
X140328614Y-121200372D01*
X140510693Y-121124953D01*
X140674561Y-121015460D01*
X140813918Y-120876103D01*
X140923411Y-120712235D01*
X140998830Y-120530156D01*
X141037279Y-120336862D01*
X141037279Y-120139780D01*
X141037279Y-120139777D01*
X140998831Y-119946491D01*
X140998830Y-119946490D01*
X140998830Y-119946486D01*
X140995374Y-119938142D01*
X140923414Y-119764413D01*
X140923407Y-119764400D01*
X140813918Y-119600539D01*
X140813915Y-119600535D01*
X140758900Y-119545520D01*
X159451629Y-119545520D01*
X159451629Y-119545521D01*
X159470549Y-119689229D01*
X159470550Y-119689233D01*
X159526016Y-119823143D01*
X159526017Y-119823145D01*
X159526018Y-119823146D01*
X159614258Y-119938142D01*
X159729254Y-120026382D01*
X159863170Y-120081851D01*
X159990159Y-120098569D01*
X160006878Y-120100771D01*
X160006879Y-120100771D01*
X160006880Y-120100771D01*
X160021856Y-120098799D01*
X160150588Y-120081851D01*
X160284504Y-120026382D01*
X160399500Y-119938142D01*
X160487740Y-119823146D01*
X160543209Y-119689230D01*
X160557060Y-119584021D01*
X167185529Y-119584021D01*
X167203143Y-119717813D01*
X167204449Y-119727729D01*
X167204450Y-119727733D01*
X167259916Y-119861643D01*
X167259917Y-119861645D01*
X167259918Y-119861646D01*
X167348158Y-119976642D01*
X167463154Y-120064882D01*
X167597070Y-120120351D01*
X167724059Y-120137069D01*
X167740778Y-120139271D01*
X167740779Y-120139271D01*
X167740780Y-120139271D01*
X167755756Y-120137299D01*
X167884488Y-120120351D01*
X168018404Y-120064882D01*
X168133400Y-119976642D01*
X168221640Y-119861646D01*
X168277109Y-119727730D01*
X168296029Y-119584021D01*
X168277109Y-119440312D01*
X168221640Y-119306396D01*
X168133400Y-119191400D01*
X168018404Y-119103160D01*
X168018403Y-119103159D01*
X168018401Y-119103158D01*
X167884491Y-119047692D01*
X167884489Y-119047691D01*
X167884488Y-119047691D01*
X167809162Y-119037774D01*
X167740780Y-119028771D01*
X167740778Y-119028771D01*
X167597070Y-119047691D01*
X167597066Y-119047692D01*
X167463156Y-119103158D01*
X167348158Y-119191400D01*
X167259916Y-119306398D01*
X167204450Y-119440308D01*
X167204449Y-119440312D01*
X167186835Y-119574104D01*
X167185529Y-119584021D01*
X160557060Y-119584021D01*
X160562129Y-119545521D01*
X160543209Y-119401812D01*
X160487740Y-119267896D01*
X160399500Y-119152900D01*
X160284504Y-119064660D01*
X160284503Y-119064659D01*
X160284501Y-119064658D01*
X160150591Y-119009192D01*
X160150589Y-119009191D01*
X160150588Y-119009191D01*
X160078733Y-118999731D01*
X160006880Y-118990271D01*
X160006878Y-118990271D01*
X159863170Y-119009191D01*
X159863166Y-119009192D01*
X159729256Y-119064658D01*
X159614258Y-119152900D01*
X159526016Y-119267898D01*
X159470550Y-119401808D01*
X159470549Y-119401812D01*
X159451629Y-119545520D01*
X140758900Y-119545520D01*
X140674564Y-119461184D01*
X140674560Y-119461181D01*
X140510699Y-119351692D01*
X140510686Y-119351685D01*
X140328618Y-119276271D01*
X140328608Y-119276268D01*
X140135322Y-119237821D01*
X140135320Y-119237821D01*
X139938238Y-119237821D01*
X139938236Y-119237821D01*
X139744949Y-119276268D01*
X139744939Y-119276271D01*
X139562871Y-119351685D01*
X139562858Y-119351692D01*
X139398997Y-119461181D01*
X139398993Y-119461184D01*
X139259642Y-119600535D01*
X139259639Y-119600539D01*
X139150150Y-119764400D01*
X139150143Y-119764413D01*
X139074729Y-119946481D01*
X139074726Y-119946491D01*
X139036279Y-120139777D01*
X139036279Y-120139780D01*
X139036279Y-120336862D01*
X139036279Y-120336864D01*
X139036278Y-120336864D01*
X127421099Y-120336864D01*
X127421099Y-118504120D01*
X152339629Y-118504120D01*
X152339629Y-118504121D01*
X152358549Y-118647829D01*
X152358550Y-118647833D01*
X152414016Y-118781743D01*
X152414017Y-118781745D01*
X152414018Y-118781746D01*
X152502258Y-118896742D01*
X152617254Y-118984982D01*
X152617255Y-118984982D01*
X152617256Y-118984983D01*
X152661892Y-119003471D01*
X152751170Y-119040451D01*
X152878159Y-119057169D01*
X152894878Y-119059371D01*
X152894879Y-119059371D01*
X152894880Y-119059371D01*
X152909856Y-119057399D01*
X153038588Y-119040451D01*
X153172504Y-118984982D01*
X153287500Y-118896742D01*
X153375740Y-118781746D01*
X153431209Y-118647830D01*
X153450129Y-118504121D01*
X153431209Y-118360412D01*
X153375740Y-118226496D01*
X153287500Y-118111500D01*
X153172504Y-118023260D01*
X153172503Y-118023259D01*
X153172501Y-118023258D01*
X153038591Y-117967792D01*
X153038589Y-117967791D01*
X153038588Y-117967791D01*
X152966733Y-117958331D01*
X152894880Y-117948871D01*
X152894878Y-117948871D01*
X152751170Y-117967791D01*
X152751166Y-117967792D01*
X152617256Y-118023258D01*
X152502258Y-118111500D01*
X152414016Y-118226498D01*
X152358550Y-118360408D01*
X152358549Y-118360412D01*
X152339629Y-118504120D01*
X127421099Y-118504120D01*
X127421099Y-115651710D01*
X138936279Y-115651710D01*
X138936279Y-115824932D01*
X138963377Y-115996022D01*
X139016906Y-116160766D01*
X139095547Y-116315109D01*
X139197365Y-116455249D01*
X139319851Y-116577735D01*
X139459991Y-116679553D01*
X139614334Y-116758194D01*
X139779078Y-116811723D01*
X139950168Y-116838821D01*
X139950169Y-116838821D01*
X140123389Y-116838821D01*
X140123390Y-116838821D01*
X140294480Y-116811723D01*
X140459224Y-116758194D01*
X140613567Y-116679553D01*
X140753707Y-116577735D01*
X140876193Y-116455249D01*
X140978011Y-116315109D01*
X141056652Y-116160766D01*
X141110181Y-115996022D01*
X141137279Y-115824932D01*
X141137279Y-115651710D01*
X141110181Y-115480620D01*
X141056652Y-115315876D01*
X141037194Y-115277688D01*
X149217412Y-115277688D01*
X149217412Y-115277689D01*
X149236332Y-115421397D01*
X149236333Y-115421401D01*
X149291799Y-115555311D01*
X149291800Y-115555313D01*
X149291801Y-115555314D01*
X149380041Y-115670310D01*
X149495037Y-115758550D01*
X149628953Y-115814019D01*
X149755942Y-115830737D01*
X149772661Y-115832939D01*
X149772662Y-115832939D01*
X149772663Y-115832939D01*
X149787639Y-115830967D01*
X149916371Y-115814019D01*
X150050287Y-115758550D01*
X150165283Y-115670310D01*
X150253523Y-115555314D01*
X150308992Y-115421398D01*
X150327912Y-115277689D01*
X150308992Y-115133980D01*
X150253523Y-115000064D01*
X150165283Y-114885068D01*
X150050287Y-114796828D01*
X150050286Y-114796827D01*
X150050284Y-114796826D01*
X149916374Y-114741360D01*
X149916372Y-114741359D01*
X149916371Y-114741359D01*
X149844516Y-114731899D01*
X149772663Y-114722439D01*
X149772661Y-114722439D01*
X149628953Y-114741359D01*
X149628949Y-114741360D01*
X149495039Y-114796826D01*
X149380041Y-114885068D01*
X149291799Y-115000066D01*
X149236333Y-115133976D01*
X149236332Y-115133980D01*
X149217412Y-115277688D01*
X141037194Y-115277688D01*
X140978011Y-115161533D01*
X140876193Y-115021393D01*
X140753707Y-114898907D01*
X140613567Y-114797089D01*
X140459224Y-114718448D01*
X140294480Y-114664919D01*
X140294478Y-114664918D01*
X140294477Y-114664918D01*
X140163050Y-114644102D01*
X140123390Y-114637821D01*
X139950168Y-114637821D01*
X139910507Y-114644102D01*
X139779081Y-114664918D01*
X139614331Y-114718449D01*
X139459990Y-114797089D01*
X139380035Y-114855180D01*
X139319851Y-114898907D01*
X139319849Y-114898909D01*
X139319848Y-114898909D01*
X139197367Y-115021390D01*
X139197367Y-115021391D01*
X139197365Y-115021393D01*
X139153638Y-115081577D01*
X139095547Y-115161532D01*
X139016907Y-115315873D01*
X138963376Y-115480623D01*
X138942557Y-115612071D01*
X138936279Y-115651710D01*
X127421099Y-115651710D01*
X127421099Y-113438321D01*
X150819029Y-113438321D01*
X150832194Y-113538321D01*
X150837949Y-113582029D01*
X150837950Y-113582033D01*
X150893416Y-113715943D01*
X150893417Y-113715945D01*
X150893418Y-113715946D01*
X150981658Y-113830942D01*
X151096654Y-113919182D01*
X151096655Y-113919182D01*
X151096656Y-113919183D01*
X151141292Y-113937671D01*
X151230570Y-113974651D01*
X151357559Y-113991369D01*
X151374278Y-113993571D01*
X151374279Y-113993571D01*
X151374280Y-113993571D01*
X151389256Y-113991599D01*
X151517988Y-113974651D01*
X151651904Y-113919182D01*
X151766900Y-113830942D01*
X151855140Y-113715946D01*
X151910609Y-113582030D01*
X151916364Y-113538320D01*
X152919029Y-113538320D01*
X152919029Y-113538321D01*
X152937949Y-113682029D01*
X152937950Y-113682033D01*
X152993416Y-113815943D01*
X152993417Y-113815945D01*
X152993418Y-113815946D01*
X153081658Y-113930942D01*
X153196654Y-114019182D01*
X153330570Y-114074651D01*
X153457559Y-114091369D01*
X153474278Y-114093571D01*
X153474279Y-114093571D01*
X153474280Y-114093571D01*
X153489256Y-114091599D01*
X153617988Y-114074651D01*
X153751904Y-114019182D01*
X153866900Y-113930942D01*
X153955140Y-113815946D01*
X154010609Y-113682030D01*
X154029529Y-113538321D01*
X154010609Y-113394612D01*
X153966730Y-113288677D01*
X153959261Y-113219208D01*
X153990536Y-113156729D01*
X154033836Y-113126665D01*
X154051904Y-113119182D01*
X154166900Y-113030942D01*
X154255140Y-112915946D01*
X154310609Y-112782030D01*
X154329529Y-112638321D01*
X154310609Y-112494612D01*
X154255140Y-112360696D01*
X154166900Y-112245700D01*
X154051904Y-112157460D01*
X154051903Y-112157459D01*
X154051901Y-112157458D01*
X153917991Y-112101992D01*
X153917989Y-112101991D01*
X153917988Y-112101991D01*
X153846133Y-112092531D01*
X153774280Y-112083071D01*
X153774278Y-112083071D01*
X153630570Y-112101991D01*
X153630566Y-112101992D01*
X153496656Y-112157458D01*
X153381658Y-112245700D01*
X153293416Y-112360698D01*
X153237950Y-112494608D01*
X153237949Y-112494612D01*
X153219029Y-112638320D01*
X153219029Y-112638321D01*
X153237949Y-112782029D01*
X153237950Y-112782033D01*
X153281827Y-112887964D01*
X153289296Y-112957434D01*
X153258020Y-113019913D01*
X153214720Y-113049977D01*
X153196655Y-113057459D01*
X153081658Y-113145700D01*
X152993416Y-113260698D01*
X152937950Y-113394608D01*
X152937949Y-113394612D01*
X152919029Y-113538320D01*
X151916364Y-113538320D01*
X151929529Y-113438321D01*
X151910609Y-113294612D01*
X151855140Y-113160696D01*
X151766900Y-113045700D01*
X151651904Y-112957460D01*
X151651903Y-112957459D01*
X151651901Y-112957458D01*
X151517991Y-112901992D01*
X151517989Y-112901991D01*
X151517988Y-112901991D01*
X151446133Y-112892531D01*
X151374280Y-112883071D01*
X151374278Y-112883071D01*
X151230570Y-112901991D01*
X151230566Y-112901992D01*
X151096656Y-112957458D01*
X150981658Y-113045700D01*
X150893416Y-113160698D01*
X150837950Y-113294608D01*
X150837949Y-113294612D01*
X150824784Y-113394612D01*
X150819029Y-113438321D01*
X127421099Y-113438321D01*
X127421099Y-110757120D01*
X164074429Y-110757120D01*
X164074429Y-110757121D01*
X164093349Y-110900829D01*
X164093350Y-110900833D01*
X164148816Y-111034743D01*
X164148817Y-111034745D01*
X164148818Y-111034746D01*
X164237058Y-111149742D01*
X164352054Y-111237982D01*
X164352055Y-111237982D01*
X164352056Y-111237983D01*
X164385194Y-111251709D01*
X164485970Y-111293451D01*
X164612959Y-111310169D01*
X164629678Y-111312371D01*
X164629679Y-111312371D01*
X164629680Y-111312371D01*
X164644656Y-111310399D01*
X164773388Y-111293451D01*
X164907304Y-111237982D01*
X165022300Y-111149742D01*
X165110540Y-111034746D01*
X165166009Y-110900830D01*
X165181585Y-110782520D01*
X165573029Y-110782520D01*
X165573029Y-110782521D01*
X165591949Y-110926229D01*
X165591950Y-110926233D01*
X165647416Y-111060143D01*
X165647417Y-111060144D01*
X165647418Y-111060146D01*
X165735658Y-111175142D01*
X165850654Y-111263382D01*
X165984570Y-111318851D01*
X166111559Y-111335569D01*
X166128278Y-111337771D01*
X166128279Y-111337771D01*
X166128280Y-111337771D01*
X166143256Y-111335799D01*
X166271988Y-111318851D01*
X166405904Y-111263382D01*
X166520900Y-111175142D01*
X166609140Y-111060146D01*
X166664609Y-110926230D01*
X166683529Y-110782521D01*
X166683529Y-110782520D01*
X167122429Y-110782520D01*
X167122429Y-110782521D01*
X167141349Y-110926229D01*
X167141350Y-110926233D01*
X167196817Y-111060144D01*
X167196818Y-111060146D01*
X167227963Y-111100735D01*
X167253157Y-111165904D01*
X167239119Y-111234349D01*
X167227963Y-111251707D01*
X167196818Y-111292295D01*
X167196817Y-111292297D01*
X167141350Y-111426208D01*
X167141349Y-111426212D01*
X167122429Y-111569920D01*
X167122429Y-111569921D01*
X167141349Y-111713629D01*
X167141350Y-111713633D01*
X167196816Y-111847543D01*
X167196817Y-111847545D01*
X167196818Y-111847546D01*
X167285058Y-111962542D01*
X167400054Y-112050782D01*
X167533970Y-112106251D01*
X167660959Y-112122969D01*
X167677678Y-112125171D01*
X167677679Y-112125171D01*
X167677680Y-112125171D01*
X167692656Y-112123199D01*
X167821388Y-112106251D01*
X167955304Y-112050782D01*
X168070300Y-111962542D01*
X168158540Y-111847546D01*
X168214009Y-111713630D01*
X168232929Y-111569921D01*
X168214009Y-111426212D01*
X168169539Y-111318850D01*
X168158541Y-111292298D01*
X168158540Y-111292297D01*
X168158540Y-111292296D01*
X168127393Y-111251705D01*
X168102200Y-111186540D01*
X168116238Y-111118095D01*
X168127388Y-111100743D01*
X168158540Y-111060146D01*
X168214009Y-110926230D01*
X168232929Y-110782521D01*
X168214009Y-110638812D01*
X168158540Y-110504896D01*
X168070300Y-110389900D01*
X167955304Y-110301660D01*
X167955303Y-110301659D01*
X167955301Y-110301658D01*
X167821391Y-110246192D01*
X167821389Y-110246191D01*
X167821388Y-110246191D01*
X167749533Y-110236731D01*
X167677680Y-110227271D01*
X167677678Y-110227271D01*
X167533970Y-110246191D01*
X167533966Y-110246192D01*
X167400056Y-110301658D01*
X167285058Y-110389900D01*
X167196816Y-110504898D01*
X167141350Y-110638808D01*
X167141349Y-110638812D01*
X167122429Y-110782520D01*
X166683529Y-110782520D01*
X166664609Y-110638812D01*
X166609140Y-110504896D01*
X166520900Y-110389900D01*
X166405904Y-110301660D01*
X166405903Y-110301659D01*
X166405901Y-110301658D01*
X166271991Y-110246192D01*
X166271989Y-110246191D01*
X166271988Y-110246191D01*
X166200133Y-110236731D01*
X166128280Y-110227271D01*
X166128278Y-110227271D01*
X165984570Y-110246191D01*
X165984566Y-110246192D01*
X165850656Y-110301658D01*
X165735658Y-110389900D01*
X165647416Y-110504898D01*
X165591950Y-110638808D01*
X165591949Y-110638812D01*
X165573029Y-110782520D01*
X165181585Y-110782520D01*
X165184929Y-110757121D01*
X165166009Y-110613412D01*
X165110540Y-110479496D01*
X165022300Y-110364500D01*
X164907304Y-110276260D01*
X164907303Y-110276259D01*
X164907301Y-110276258D01*
X164773391Y-110220792D01*
X164773389Y-110220791D01*
X164773388Y-110220791D01*
X164701533Y-110211331D01*
X164629680Y-110201871D01*
X164629678Y-110201871D01*
X164485970Y-110220791D01*
X164485966Y-110220792D01*
X164352056Y-110276258D01*
X164237058Y-110364500D01*
X164148816Y-110479498D01*
X164093350Y-110613408D01*
X164093349Y-110613412D01*
X164074429Y-110757120D01*
X127421099Y-110757120D01*
X127421099Y-107892985D01*
X127423482Y-107868791D01*
X127424862Y-107861853D01*
X127424862Y-107825125D01*
X127425923Y-107808940D01*
X127437301Y-107722520D01*
X127438771Y-107711349D01*
X127447149Y-107680082D01*
X127481682Y-107596712D01*
X127497867Y-107568679D01*
X127552799Y-107497089D01*
X127575686Y-107474201D01*
X127647280Y-107419265D01*
X127675309Y-107403082D01*
X127758682Y-107368548D01*
X127789948Y-107360171D01*
X127887525Y-107347325D01*
X127903710Y-107346264D01*
X127940455Y-107346264D01*
X127947393Y-107344884D01*
X127971584Y-107342501D01*
X130952275Y-107342501D01*
X130952295Y-107342499D01*
X131004703Y-107342499D01*
X131004706Y-107342499D01*
X131220696Y-107311445D01*
X131354528Y-107272148D01*
X170370099Y-107272148D01*
X170370099Y-122361858D01*
X170372298Y-122372913D01*
X170374681Y-122397104D01*
X170374681Y-122436699D01*
X170412131Y-122673151D01*
X170412131Y-122673154D01*
X170486107Y-122900828D01*
X170500190Y-122928467D01*
X170594793Y-123114136D01*
X170735508Y-123307813D01*
X170904787Y-123477092D01*
X171098464Y-123617807D01*
X171311769Y-123726491D01*
X171311771Y-123726492D01*
X171539446Y-123800468D01*
X171539447Y-123800468D01*
X171539450Y-123800469D01*
X171775900Y-123837919D01*
X171775901Y-123837919D01*
X172015297Y-123837919D01*
X172015298Y-123837919D01*
X172251748Y-123800469D01*
X172251751Y-123800468D01*
X172251752Y-123800468D01*
X172479426Y-123726492D01*
X172479426Y-123726491D01*
X172479429Y-123726491D01*
X172692734Y-123617807D01*
X172886411Y-123477092D01*
X173055690Y-123307813D01*
X173196405Y-123114136D01*
X173305089Y-122900831D01*
X173368540Y-122705550D01*
X186695099Y-122705550D01*
X186695099Y-122928451D01*
X186695100Y-122928467D01*
X186724193Y-123149453D01*
X186724194Y-123149458D01*
X186724195Y-123149464D01*
X186766625Y-123307814D01*
X186781889Y-123364781D01*
X186781892Y-123364791D01*
X186867192Y-123570723D01*
X186867194Y-123570727D01*
X186978651Y-123763775D01*
X186978656Y-123763781D01*
X186978657Y-123763783D01*
X187114350Y-123940623D01*
X187114356Y-123940630D01*
X187271969Y-124098243D01*
X187271975Y-124098248D01*
X187448825Y-124233949D01*
X187641873Y-124345406D01*
X187847818Y-124430711D01*
X188063136Y-124488405D01*
X188284142Y-124517501D01*
X188284149Y-124517501D01*
X188507049Y-124517501D01*
X188507056Y-124517501D01*
X188728062Y-124488405D01*
X188943380Y-124430711D01*
X189149325Y-124345406D01*
X189342373Y-124233949D01*
X189519223Y-124098248D01*
X189676846Y-123940625D01*
X189812547Y-123763775D01*
X189924004Y-123570727D01*
X190009309Y-123364782D01*
X190067003Y-123149464D01*
X190096099Y-122928458D01*
X190096099Y-122705544D01*
X190067003Y-122484538D01*
X190009309Y-122269220D01*
X189924004Y-122063275D01*
X189812547Y-121870227D01*
X189676846Y-121693377D01*
X189676841Y-121693371D01*
X189519228Y-121535758D01*
X189519221Y-121535752D01*
X189342381Y-121400059D01*
X189342379Y-121400058D01*
X189342373Y-121400053D01*
X189149325Y-121288596D01*
X189149321Y-121288594D01*
X188943389Y-121203294D01*
X188943382Y-121203292D01*
X188943380Y-121203291D01*
X188728062Y-121145597D01*
X188728056Y-121145596D01*
X188728051Y-121145595D01*
X188507065Y-121116502D01*
X188507062Y-121116501D01*
X188507056Y-121116501D01*
X188284142Y-121116501D01*
X188284136Y-121116501D01*
X188284132Y-121116502D01*
X188063146Y-121145595D01*
X188063139Y-121145596D01*
X188063136Y-121145597D01*
X187858719Y-121200370D01*
X187847818Y-121203291D01*
X187847808Y-121203294D01*
X187641876Y-121288594D01*
X187641872Y-121288596D01*
X187448825Y-121400053D01*
X187448816Y-121400059D01*
X187271976Y-121535752D01*
X187271969Y-121535758D01*
X187114356Y-121693371D01*
X187114350Y-121693378D01*
X186978657Y-121870218D01*
X186978651Y-121870227D01*
X186867194Y-122063274D01*
X186867192Y-122063278D01*
X186781892Y-122269210D01*
X186781889Y-122269220D01*
X186737014Y-122436699D01*
X186724196Y-122484535D01*
X186724193Y-122484548D01*
X186695100Y-122705534D01*
X186695099Y-122705550D01*
X173368540Y-122705550D01*
X173379067Y-122673150D01*
X173416517Y-122436700D01*
X173416517Y-122397104D01*
X173418900Y-122372913D01*
X173421099Y-122361858D01*
X173421099Y-119574103D01*
X187701621Y-119574103D01*
X187701621Y-119574104D01*
X187720541Y-119717812D01*
X187720542Y-119717816D01*
X187776008Y-119851726D01*
X187776009Y-119851728D01*
X187776010Y-119851729D01*
X187864250Y-119966725D01*
X187979246Y-120054965D01*
X187979247Y-120054965D01*
X187979248Y-120054966D01*
X188023884Y-120073454D01*
X188113162Y-120110434D01*
X188240151Y-120127152D01*
X188256870Y-120129354D01*
X188256871Y-120129354D01*
X188256872Y-120129354D01*
X188271848Y-120127382D01*
X188400580Y-120110434D01*
X188534496Y-120054965D01*
X188649492Y-119966725D01*
X188737732Y-119851729D01*
X188793201Y-119717813D01*
X188812121Y-119574104D01*
X188793201Y-119430395D01*
X188737732Y-119296479D01*
X188649492Y-119181483D01*
X188534496Y-119093243D01*
X188534495Y-119093242D01*
X188534493Y-119093241D01*
X188400583Y-119037775D01*
X188400581Y-119037774D01*
X188400580Y-119037774D01*
X188328725Y-119028314D01*
X188256872Y-119018854D01*
X188256870Y-119018854D01*
X188113162Y-119037774D01*
X188113158Y-119037775D01*
X187979248Y-119093241D01*
X187864250Y-119181483D01*
X187776008Y-119296481D01*
X187720542Y-119430391D01*
X187720541Y-119430395D01*
X187701621Y-119574103D01*
X173421099Y-119574103D01*
X173421099Y-118402520D01*
X176114029Y-118402520D01*
X176114029Y-118402521D01*
X176132949Y-118546229D01*
X176132950Y-118546233D01*
X176188416Y-118680143D01*
X176188417Y-118680145D01*
X176188418Y-118680146D01*
X176276658Y-118795142D01*
X176391654Y-118883382D01*
X176525570Y-118938851D01*
X176652559Y-118955569D01*
X176669278Y-118957771D01*
X176669279Y-118957771D01*
X176669280Y-118957771D01*
X176684256Y-118955799D01*
X176812988Y-118938851D01*
X176946904Y-118883382D01*
X177061900Y-118795142D01*
X177150140Y-118680146D01*
X177205609Y-118546230D01*
X177224529Y-118402521D01*
X177205609Y-118258812D01*
X177150140Y-118124896D01*
X177148778Y-118123121D01*
X181448029Y-118123121D01*
X181465893Y-118258812D01*
X181466949Y-118266829D01*
X181466950Y-118266833D01*
X181522416Y-118400743D01*
X181522417Y-118400745D01*
X181522418Y-118400746D01*
X181610658Y-118515742D01*
X181725654Y-118603982D01*
X181725655Y-118603982D01*
X181725656Y-118603983D01*
X181770292Y-118622471D01*
X181859570Y-118659451D01*
X181986559Y-118676169D01*
X182003278Y-118678371D01*
X182003279Y-118678371D01*
X182003280Y-118678371D01*
X182018256Y-118676399D01*
X182146988Y-118659451D01*
X182280904Y-118603982D01*
X182395900Y-118515742D01*
X182484140Y-118400746D01*
X182539609Y-118266830D01*
X182558529Y-118123121D01*
X182555185Y-118097720D01*
X183200629Y-118097720D01*
X183200629Y-118097721D01*
X183219549Y-118241429D01*
X183219550Y-118241433D01*
X183275016Y-118375343D01*
X183275017Y-118375345D01*
X183275018Y-118375346D01*
X183363258Y-118490342D01*
X183478254Y-118578582D01*
X183612170Y-118634051D01*
X183739159Y-118650769D01*
X183755878Y-118652971D01*
X183755879Y-118652971D01*
X183755880Y-118652971D01*
X183770856Y-118650999D01*
X183899588Y-118634051D01*
X184033504Y-118578582D01*
X184148500Y-118490342D01*
X184167699Y-118465322D01*
X188847929Y-118465322D01*
X188866184Y-118603983D01*
X188866849Y-118609030D01*
X188866850Y-118609034D01*
X188922316Y-118742944D01*
X188922317Y-118742946D01*
X188922318Y-118742947D01*
X189010558Y-118857943D01*
X189125554Y-118946183D01*
X189259470Y-119001652D01*
X189386459Y-119018370D01*
X189403178Y-119020572D01*
X189403179Y-119020572D01*
X189403180Y-119020572D01*
X189418156Y-119018600D01*
X189546888Y-119001652D01*
X189680804Y-118946183D01*
X189795800Y-118857943D01*
X189884040Y-118742947D01*
X189939509Y-118609031D01*
X189958429Y-118465322D01*
X189939509Y-118321613D01*
X189884040Y-118187697D01*
X189795800Y-118072701D01*
X189680804Y-117984461D01*
X189680803Y-117984460D01*
X189680801Y-117984459D01*
X189546891Y-117928993D01*
X189546889Y-117928992D01*
X189546888Y-117928992D01*
X189475033Y-117919532D01*
X189403180Y-117910072D01*
X189403178Y-117910072D01*
X189259470Y-117928992D01*
X189259466Y-117928993D01*
X189125556Y-117984459D01*
X189010558Y-118072701D01*
X188922316Y-118187699D01*
X188866850Y-118321609D01*
X188866849Y-118321613D01*
X188847929Y-118465322D01*
X184167699Y-118465322D01*
X184236740Y-118375346D01*
X184292209Y-118241430D01*
X184311129Y-118097721D01*
X184292209Y-117954012D01*
X184236740Y-117820096D01*
X184148500Y-117705100D01*
X184033504Y-117616860D01*
X184033503Y-117616859D01*
X184033501Y-117616858D01*
X183899591Y-117561392D01*
X183899589Y-117561391D01*
X183899588Y-117561391D01*
X183827733Y-117551931D01*
X183755880Y-117542471D01*
X183755878Y-117542471D01*
X183612170Y-117561391D01*
X183612166Y-117561392D01*
X183478256Y-117616858D01*
X183363258Y-117705100D01*
X183275016Y-117820098D01*
X183219550Y-117954008D01*
X183219549Y-117954012D01*
X183200629Y-118097720D01*
X182555185Y-118097720D01*
X182539609Y-117979412D01*
X182502629Y-117890134D01*
X182484141Y-117845498D01*
X182484140Y-117845497D01*
X182484140Y-117845496D01*
X182395900Y-117730500D01*
X182280904Y-117642260D01*
X182280903Y-117642259D01*
X182280901Y-117642258D01*
X182146991Y-117586792D01*
X182146989Y-117586791D01*
X182146988Y-117586791D01*
X182075133Y-117577331D01*
X182003280Y-117567871D01*
X182003278Y-117567871D01*
X181859570Y-117586791D01*
X181859566Y-117586792D01*
X181725656Y-117642258D01*
X181610658Y-117730500D01*
X181522416Y-117845498D01*
X181466950Y-117979408D01*
X181466949Y-117979412D01*
X181448029Y-118123121D01*
X177148778Y-118123121D01*
X177061900Y-118009900D01*
X176946904Y-117921660D01*
X176946903Y-117921659D01*
X176946901Y-117921658D01*
X176812991Y-117866192D01*
X176812989Y-117866191D01*
X176812988Y-117866191D01*
X176741133Y-117856731D01*
X176669280Y-117847271D01*
X176669278Y-117847271D01*
X176525570Y-117866191D01*
X176525566Y-117866192D01*
X176391656Y-117921658D01*
X176276658Y-118009900D01*
X176188416Y-118124898D01*
X176132950Y-118258808D01*
X176132949Y-118258812D01*
X176114029Y-118402520D01*
X173421099Y-118402520D01*
X173421099Y-116573720D01*
X176291829Y-116573720D01*
X176291829Y-116573721D01*
X176310749Y-116717429D01*
X176310750Y-116717433D01*
X176366216Y-116851343D01*
X176366217Y-116851345D01*
X176366218Y-116851346D01*
X176454458Y-116966342D01*
X176569454Y-117054582D01*
X176703370Y-117110051D01*
X176830359Y-117126769D01*
X176847078Y-117128971D01*
X176847079Y-117128971D01*
X176847080Y-117128971D01*
X176862056Y-117126999D01*
X176990788Y-117110051D01*
X177124704Y-117054582D01*
X177239700Y-116966342D01*
X177327940Y-116851346D01*
X177383409Y-116717430D01*
X177402329Y-116573721D01*
X177383409Y-116430012D01*
X177327940Y-116296096D01*
X177239700Y-116181100D01*
X177221742Y-116167320D01*
X184064229Y-116167320D01*
X184064229Y-116167321D01*
X184083149Y-116311029D01*
X184083150Y-116311033D01*
X184138616Y-116444943D01*
X184138617Y-116444945D01*
X184138618Y-116444946D01*
X184226858Y-116559942D01*
X184341854Y-116648182D01*
X184475770Y-116703651D01*
X184602759Y-116720369D01*
X184619478Y-116722571D01*
X184619479Y-116722571D01*
X184619480Y-116722571D01*
X184634456Y-116720599D01*
X184763188Y-116703651D01*
X184897104Y-116648182D01*
X185012100Y-116559942D01*
X185100340Y-116444946D01*
X185155809Y-116311030D01*
X185174729Y-116167321D01*
X185155809Y-116023612D01*
X185100340Y-115889696D01*
X185012100Y-115774700D01*
X184897104Y-115686460D01*
X184897103Y-115686459D01*
X184897101Y-115686458D01*
X184763191Y-115630992D01*
X184763189Y-115630991D01*
X184763188Y-115630991D01*
X184691333Y-115621531D01*
X184619480Y-115612071D01*
X184619478Y-115612071D01*
X184475770Y-115630991D01*
X184475766Y-115630992D01*
X184341856Y-115686458D01*
X184226858Y-115774700D01*
X184138616Y-115889698D01*
X184083150Y-116023608D01*
X184083149Y-116023612D01*
X184064229Y-116167320D01*
X177221742Y-116167320D01*
X177124704Y-116092860D01*
X177124703Y-116092859D01*
X177124701Y-116092858D01*
X176990791Y-116037392D01*
X176990789Y-116037391D01*
X176990788Y-116037391D01*
X176918933Y-116027931D01*
X176847080Y-116018471D01*
X176847078Y-116018471D01*
X176703370Y-116037391D01*
X176703366Y-116037392D01*
X176569456Y-116092858D01*
X176454458Y-116181100D01*
X176366216Y-116296098D01*
X176310750Y-116430008D01*
X176310749Y-116430012D01*
X176291829Y-116573720D01*
X173421099Y-116573720D01*
X173421099Y-112408121D01*
X177866629Y-112408121D01*
X177878015Y-112494608D01*
X177885549Y-112551829D01*
X177885550Y-112551833D01*
X177941016Y-112685743D01*
X177941017Y-112685745D01*
X177941018Y-112685746D01*
X178029258Y-112800742D01*
X178084054Y-112842789D01*
X178117621Y-112868546D01*
X178158823Y-112924974D01*
X178162978Y-112994720D01*
X178128765Y-113055640D01*
X178117621Y-113065296D01*
X178029260Y-113133098D01*
X177941016Y-113248098D01*
X177885550Y-113382008D01*
X177885549Y-113382012D01*
X177866629Y-113525720D01*
X177866629Y-113525721D01*
X177885549Y-113669429D01*
X177885550Y-113669433D01*
X177941016Y-113803343D01*
X177941017Y-113803345D01*
X177941018Y-113803346D01*
X178029258Y-113918342D01*
X178045679Y-113930942D01*
X178101070Y-113973446D01*
X178142272Y-114029874D01*
X178146427Y-114099620D01*
X178112214Y-114160540D01*
X178101070Y-114170196D01*
X178029260Y-114225298D01*
X177941016Y-114340298D01*
X177885550Y-114474208D01*
X177885549Y-114474212D01*
X177866629Y-114617920D01*
X177866629Y-114617921D01*
X177885549Y-114761629D01*
X177885550Y-114761633D01*
X177941016Y-114895543D01*
X177941017Y-114895545D01*
X177941018Y-114895546D01*
X178029258Y-115010542D01*
X178144254Y-115098782D01*
X178278170Y-115154251D01*
X178405159Y-115170969D01*
X178421878Y-115173171D01*
X178421879Y-115173171D01*
X178421880Y-115173171D01*
X178436856Y-115171199D01*
X178565588Y-115154251D01*
X178699504Y-115098782D01*
X178814500Y-115010542D01*
X178902740Y-114895546D01*
X178958209Y-114761630D01*
X178977129Y-114617921D01*
X178958209Y-114474212D01*
X178902740Y-114340296D01*
X178814500Y-114225300D01*
X178814498Y-114225299D01*
X178814498Y-114225298D01*
X178782423Y-114200686D01*
X178742687Y-114170195D01*
X178701485Y-114113769D01*
X178697330Y-114044023D01*
X178731542Y-113983103D01*
X178742687Y-113973446D01*
X178814500Y-113918342D01*
X178902740Y-113803346D01*
X178958209Y-113669430D01*
X178977129Y-113525721D01*
X178958209Y-113382012D01*
X178902740Y-113248096D01*
X178814500Y-113133100D01*
X178814498Y-113133099D01*
X178814498Y-113133098D01*
X178778360Y-113105369D01*
X178726135Y-113065295D01*
X178684934Y-113008869D01*
X178680779Y-112939123D01*
X178714991Y-112878203D01*
X178726130Y-112868550D01*
X178814500Y-112800742D01*
X178902740Y-112685746D01*
X178958209Y-112551830D01*
X178977129Y-112408121D01*
X179797029Y-112408121D01*
X179808415Y-112494608D01*
X179815949Y-112551829D01*
X179815950Y-112551833D01*
X179871416Y-112685743D01*
X179871417Y-112685745D01*
X179871418Y-112685746D01*
X179959658Y-112800742D01*
X180074654Y-112888982D01*
X180208570Y-112944451D01*
X180335559Y-112961169D01*
X180352278Y-112963371D01*
X180352279Y-112963371D01*
X180352280Y-112963371D01*
X180367256Y-112961399D01*
X180495988Y-112944451D01*
X180629904Y-112888982D01*
X180744900Y-112800742D01*
X180833140Y-112685746D01*
X180888609Y-112551830D01*
X180907529Y-112408121D01*
X180888609Y-112264412D01*
X180833140Y-112130496D01*
X180744900Y-112015500D01*
X180629904Y-111927260D01*
X180629903Y-111927259D01*
X180629901Y-111927258D01*
X180495991Y-111871792D01*
X180495989Y-111871791D01*
X180495988Y-111871791D01*
X180424133Y-111862331D01*
X180352280Y-111852871D01*
X180352278Y-111852871D01*
X180208570Y-111871791D01*
X180208566Y-111871792D01*
X180074656Y-111927258D01*
X179959658Y-112015500D01*
X179871416Y-112130498D01*
X179815950Y-112264408D01*
X179815949Y-112264412D01*
X179797029Y-112408121D01*
X178977129Y-112408121D01*
X178958209Y-112264412D01*
X178902740Y-112130496D01*
X178814500Y-112015500D01*
X178699504Y-111927260D01*
X178699503Y-111927259D01*
X178699501Y-111927258D01*
X178565591Y-111871792D01*
X178565589Y-111871791D01*
X178565588Y-111871791D01*
X178493733Y-111862331D01*
X178421880Y-111852871D01*
X178421878Y-111852871D01*
X178278170Y-111871791D01*
X178278166Y-111871792D01*
X178144256Y-111927258D01*
X178029258Y-112015500D01*
X177941016Y-112130498D01*
X177885550Y-112264408D01*
X177885549Y-112264412D01*
X177866629Y-112408121D01*
X173421099Y-112408121D01*
X173421099Y-107272148D01*
X173419011Y-107261651D01*
X173416629Y-107237461D01*
X173416629Y-107197293D01*
X173391929Y-107041345D01*
X173379176Y-106960826D01*
X173305192Y-106733128D01*
X173196500Y-106519808D01*
X173055775Y-106326117D01*
X172886483Y-106156825D01*
X172692792Y-106016100D01*
X172479472Y-105907408D01*
X172251774Y-105833424D01*
X172251772Y-105833423D01*
X172251770Y-105833423D01*
X172086665Y-105807273D01*
X172015307Y-105795971D01*
X171775891Y-105795971D01*
X171721074Y-105804653D01*
X171539427Y-105833423D01*
X171311723Y-105907409D01*
X171098405Y-106016100D01*
X170987898Y-106096388D01*
X170904715Y-106156825D01*
X170904713Y-106156827D01*
X170904712Y-106156827D01*
X170735425Y-106326114D01*
X170735425Y-106326115D01*
X170735423Y-106326117D01*
X170674986Y-106409300D01*
X170594698Y-106519807D01*
X170486007Y-106733125D01*
X170412021Y-106960829D01*
X170374569Y-107197293D01*
X170374569Y-107237461D01*
X170372187Y-107261651D01*
X170370099Y-107272148D01*
X131354528Y-107272148D01*
X131430069Y-107249967D01*
X131628561Y-107159319D01*
X131812132Y-107041345D01*
X131977045Y-106898447D01*
X132119944Y-106733534D01*
X132237918Y-106549963D01*
X132328567Y-106351471D01*
X132390044Y-106142098D01*
X132421099Y-105926108D01*
X132421099Y-105817002D01*
X132421099Y-105772148D01*
X132421099Y-105772147D01*
X132421099Y-105372720D01*
X136425829Y-105372720D01*
X136425829Y-105372721D01*
X136444749Y-105516429D01*
X136444750Y-105516433D01*
X136500216Y-105650343D01*
X136500217Y-105650345D01*
X136500218Y-105650346D01*
X136588458Y-105765342D01*
X136703454Y-105853582D01*
X136837370Y-105909051D01*
X136964359Y-105925769D01*
X136981078Y-105927971D01*
X136981079Y-105927971D01*
X136981080Y-105927971D01*
X136996056Y-105925999D01*
X137124788Y-105909051D01*
X137258704Y-105853582D01*
X137373700Y-105765342D01*
X137461940Y-105650346D01*
X137517409Y-105516430D01*
X137536329Y-105372721D01*
X137536329Y-105372720D01*
X155171029Y-105372720D01*
X155171029Y-105372721D01*
X155189949Y-105516429D01*
X155189950Y-105516433D01*
X155245416Y-105650343D01*
X155245417Y-105650345D01*
X155245418Y-105650346D01*
X155333658Y-105765342D01*
X155448654Y-105853582D01*
X155582570Y-105909051D01*
X155709559Y-105925769D01*
X155726278Y-105927971D01*
X155726279Y-105927971D01*
X155726280Y-105927971D01*
X155741256Y-105925999D01*
X155869988Y-105909051D01*
X156003904Y-105853582D01*
X156118900Y-105765342D01*
X156207140Y-105650346D01*
X156262609Y-105516430D01*
X156281529Y-105372721D01*
X156262609Y-105229012D01*
X156207140Y-105095096D01*
X156118900Y-104980100D01*
X156003904Y-104891860D01*
X156003903Y-104891859D01*
X156003901Y-104891858D01*
X155869991Y-104836392D01*
X155869989Y-104836391D01*
X155869988Y-104836391D01*
X155798133Y-104826931D01*
X155726280Y-104817471D01*
X155726278Y-104817471D01*
X155582570Y-104836391D01*
X155582566Y-104836392D01*
X155448656Y-104891858D01*
X155333658Y-104980100D01*
X155245416Y-105095098D01*
X155189950Y-105229008D01*
X155189949Y-105229012D01*
X155171029Y-105372720D01*
X137536329Y-105372720D01*
X137517409Y-105229012D01*
X137461940Y-105095096D01*
X137373700Y-104980100D01*
X137258704Y-104891860D01*
X137258703Y-104891859D01*
X137258701Y-104891858D01*
X137124791Y-104836392D01*
X137124789Y-104836391D01*
X137124788Y-104836391D01*
X137052933Y-104826931D01*
X136981080Y-104817471D01*
X136981078Y-104817471D01*
X136837370Y-104836391D01*
X136837366Y-104836392D01*
X136703456Y-104891858D01*
X136588458Y-104980100D01*
X136500216Y-105095098D01*
X136444750Y-105229008D01*
X136444749Y-105229012D01*
X136425829Y-105372720D01*
X132421099Y-105372720D01*
X132421099Y-104534120D01*
X148453429Y-104534120D01*
X148453429Y-104534121D01*
X148472349Y-104677829D01*
X148472350Y-104677833D01*
X148527816Y-104811743D01*
X148527817Y-104811745D01*
X148527818Y-104811746D01*
X148616058Y-104926742D01*
X148731054Y-105014982D01*
X148864970Y-105070451D01*
X148991959Y-105087169D01*
X149008678Y-105089371D01*
X149008679Y-105089371D01*
X149008680Y-105089371D01*
X149023656Y-105087399D01*
X149152388Y-105070451D01*
X149286304Y-105014982D01*
X149401300Y-104926742D01*
X149489540Y-104811746D01*
X149545009Y-104677830D01*
X149560585Y-104559520D01*
X168417829Y-104559520D01*
X168417829Y-104559521D01*
X168436749Y-104703229D01*
X168436750Y-104703233D01*
X168492216Y-104837143D01*
X168492217Y-104837145D01*
X168492218Y-104837146D01*
X168580458Y-104952142D01*
X168695454Y-105040382D01*
X168829370Y-105095851D01*
X168956359Y-105112569D01*
X168973078Y-105114771D01*
X168973079Y-105114771D01*
X168973080Y-105114771D01*
X168988056Y-105112799D01*
X169116788Y-105095851D01*
X169250704Y-105040382D01*
X169365700Y-104952142D01*
X169453940Y-104837146D01*
X169509409Y-104703230D01*
X169528329Y-104559521D01*
X169509409Y-104415812D01*
X169472429Y-104326534D01*
X169453941Y-104281898D01*
X169453940Y-104281897D01*
X169453940Y-104281896D01*
X169365700Y-104166900D01*
X169250704Y-104078660D01*
X169250703Y-104078659D01*
X169250701Y-104078658D01*
X169116791Y-104023192D01*
X169116789Y-104023191D01*
X169116788Y-104023191D01*
X169033616Y-104012241D01*
X168973080Y-104004271D01*
X168973078Y-104004271D01*
X168829370Y-104023191D01*
X168829366Y-104023192D01*
X168695456Y-104078658D01*
X168580458Y-104166900D01*
X168492216Y-104281898D01*
X168436750Y-104415808D01*
X168436749Y-104415812D01*
X168417829Y-104559520D01*
X149560585Y-104559520D01*
X149563929Y-104534121D01*
X149545009Y-104390412D01*
X149489540Y-104256496D01*
X149401300Y-104141500D01*
X149286304Y-104053260D01*
X149286303Y-104053259D01*
X149286301Y-104053258D01*
X149152391Y-103997792D01*
X149152389Y-103997791D01*
X149152388Y-103997791D01*
X149080533Y-103988331D01*
X149008680Y-103978871D01*
X149008678Y-103978871D01*
X148864970Y-103997791D01*
X148864966Y-103997792D01*
X148731056Y-104053258D01*
X148616058Y-104141500D01*
X148527816Y-104256498D01*
X148472350Y-104390408D01*
X148472349Y-104390412D01*
X148453429Y-104534120D01*
X132421099Y-104534120D01*
X132421099Y-102933920D01*
X167503429Y-102933920D01*
X167503429Y-102933921D01*
X167522349Y-103077629D01*
X167522350Y-103077633D01*
X167577816Y-103211543D01*
X167577817Y-103211545D01*
X167577818Y-103211546D01*
X167666058Y-103326542D01*
X167781054Y-103414782D01*
X167914970Y-103470251D01*
X168041959Y-103486969D01*
X168058678Y-103489171D01*
X168058679Y-103489171D01*
X168058680Y-103489171D01*
X168073656Y-103487199D01*
X168202388Y-103470251D01*
X168247151Y-103451710D01*
X180573779Y-103451710D01*
X180573779Y-103624932D01*
X180600877Y-103796022D01*
X180654406Y-103960766D01*
X180733047Y-104115109D01*
X180834865Y-104255249D01*
X180957351Y-104377735D01*
X181097491Y-104479553D01*
X181251834Y-104558194D01*
X181416578Y-104611723D01*
X181587668Y-104638821D01*
X181587669Y-104638821D01*
X181760889Y-104638821D01*
X181760890Y-104638821D01*
X181931980Y-104611723D01*
X182096724Y-104558194D01*
X182251067Y-104479553D01*
X182391207Y-104377735D01*
X182513693Y-104255249D01*
X182615511Y-104115109D01*
X182694152Y-103960766D01*
X182747681Y-103796022D01*
X182772889Y-103636864D01*
X185173778Y-103636864D01*
X185212226Y-103830150D01*
X185212229Y-103830160D01*
X185287643Y-104012228D01*
X185287650Y-104012241D01*
X185397139Y-104176102D01*
X185397142Y-104176106D01*
X185536493Y-104315457D01*
X185536497Y-104315460D01*
X185700358Y-104424949D01*
X185700371Y-104424956D01*
X185832182Y-104479553D01*
X185882444Y-104500372D01*
X185882448Y-104500372D01*
X185882449Y-104500373D01*
X186075735Y-104538821D01*
X186075738Y-104538821D01*
X186272822Y-104538821D01*
X186402861Y-104512953D01*
X186466114Y-104500372D01*
X186648193Y-104424953D01*
X186812061Y-104315460D01*
X186951418Y-104176103D01*
X187060911Y-104012235D01*
X187066894Y-103997792D01*
X187136328Y-103830160D01*
X187136330Y-103830156D01*
X187174779Y-103636862D01*
X187174779Y-103439780D01*
X187174779Y-103439777D01*
X187136331Y-103246491D01*
X187136330Y-103246490D01*
X187136330Y-103246486D01*
X187136328Y-103246481D01*
X187060914Y-103064413D01*
X187060907Y-103064400D01*
X186951418Y-102900539D01*
X186951415Y-102900535D01*
X186812064Y-102761184D01*
X186812060Y-102761181D01*
X186648199Y-102651692D01*
X186648186Y-102651685D01*
X186466118Y-102576271D01*
X186466108Y-102576268D01*
X186272822Y-102537821D01*
X186272820Y-102537821D01*
X186075738Y-102537821D01*
X186075736Y-102537821D01*
X185882449Y-102576268D01*
X185882439Y-102576271D01*
X185700371Y-102651685D01*
X185700358Y-102651692D01*
X185536497Y-102761181D01*
X185536493Y-102761184D01*
X185397142Y-102900535D01*
X185397139Y-102900539D01*
X185287650Y-103064400D01*
X185287643Y-103064413D01*
X185212229Y-103246481D01*
X185212226Y-103246491D01*
X185173779Y-103439777D01*
X185173779Y-103439780D01*
X185173779Y-103636862D01*
X185173779Y-103636864D01*
X185173778Y-103636864D01*
X182772889Y-103636864D01*
X182774779Y-103624932D01*
X182774779Y-103451710D01*
X182747681Y-103280620D01*
X182694152Y-103115876D01*
X182615511Y-102961533D01*
X182513693Y-102821393D01*
X182391207Y-102698907D01*
X182251067Y-102597089D01*
X182096724Y-102518448D01*
X181931980Y-102464919D01*
X181931978Y-102464918D01*
X181931977Y-102464918D01*
X181800550Y-102444102D01*
X181760890Y-102437821D01*
X181587668Y-102437821D01*
X181548007Y-102444102D01*
X181416581Y-102464918D01*
X181251831Y-102518449D01*
X181097490Y-102597089D01*
X181022346Y-102651685D01*
X180957351Y-102698907D01*
X180957349Y-102698909D01*
X180957348Y-102698909D01*
X180834867Y-102821390D01*
X180834867Y-102821391D01*
X180834865Y-102821393D01*
X180791138Y-102881577D01*
X180733047Y-102961532D01*
X180654407Y-103115873D01*
X180600876Y-103280623D01*
X180573779Y-103451710D01*
X168247151Y-103451710D01*
X168336304Y-103414782D01*
X168451300Y-103326542D01*
X168539540Y-103211546D01*
X168595009Y-103077630D01*
X168613929Y-102933921D01*
X168595009Y-102790212D01*
X168539540Y-102656296D01*
X168451300Y-102541300D01*
X168336304Y-102453060D01*
X168336303Y-102453059D01*
X168336301Y-102453058D01*
X168202391Y-102397592D01*
X168202389Y-102397591D01*
X168202388Y-102397591D01*
X168130533Y-102388131D01*
X168058680Y-102378671D01*
X168058678Y-102378671D01*
X167914970Y-102397591D01*
X167914966Y-102397592D01*
X167781056Y-102453058D01*
X167666058Y-102541300D01*
X167577816Y-102656298D01*
X167522350Y-102790208D01*
X167522349Y-102790212D01*
X167503429Y-102933920D01*
X132421099Y-102933920D01*
X132421099Y-100138320D01*
X146419029Y-100138320D01*
X146419029Y-100138321D01*
X146437949Y-100282029D01*
X146437950Y-100282033D01*
X146493416Y-100415943D01*
X146493417Y-100415945D01*
X146493418Y-100415946D01*
X146581658Y-100530942D01*
X146696654Y-100619182D01*
X146696655Y-100619182D01*
X146696656Y-100619183D01*
X146706434Y-100623233D01*
X146830570Y-100674651D01*
X146957559Y-100691369D01*
X146974278Y-100693571D01*
X146974279Y-100693571D01*
X146974280Y-100693571D01*
X146989256Y-100691599D01*
X147117988Y-100674651D01*
X147251904Y-100619182D01*
X147366900Y-100530942D01*
X147455140Y-100415946D01*
X147510609Y-100282030D01*
X147528996Y-100142370D01*
X165219029Y-100142370D01*
X165219029Y-100142371D01*
X165237949Y-100286079D01*
X165237950Y-100286083D01*
X165293416Y-100419993D01*
X165293417Y-100419995D01*
X165293418Y-100419996D01*
X165381658Y-100534992D01*
X165496654Y-100623232D01*
X165630570Y-100678701D01*
X165757559Y-100695419D01*
X165774278Y-100697621D01*
X165774279Y-100697621D01*
X165774280Y-100697621D01*
X165789256Y-100695649D01*
X165917988Y-100678701D01*
X166051904Y-100623232D01*
X166166900Y-100534992D01*
X166255140Y-100419996D01*
X166310609Y-100286080D01*
X166329529Y-100142371D01*
X166310609Y-99998662D01*
X166255140Y-99864746D01*
X166166900Y-99749750D01*
X166051904Y-99661510D01*
X166051903Y-99661509D01*
X166051901Y-99661508D01*
X165917991Y-99606042D01*
X165917989Y-99606041D01*
X165917988Y-99606041D01*
X165846133Y-99596581D01*
X165774280Y-99587121D01*
X165774278Y-99587121D01*
X165630570Y-99606041D01*
X165630566Y-99606042D01*
X165496656Y-99661508D01*
X165381658Y-99749750D01*
X165293416Y-99864748D01*
X165237950Y-99998658D01*
X165237949Y-99998662D01*
X165219029Y-100142370D01*
X147528996Y-100142370D01*
X147529529Y-100138321D01*
X147510609Y-99994612D01*
X147473629Y-99905334D01*
X147455141Y-99860698D01*
X147455140Y-99860697D01*
X147455140Y-99860696D01*
X147366900Y-99745700D01*
X147251904Y-99657460D01*
X147251903Y-99657459D01*
X147251901Y-99657458D01*
X147117991Y-99601992D01*
X147117989Y-99601991D01*
X147117988Y-99601991D01*
X147046133Y-99592531D01*
X146974280Y-99583071D01*
X146974278Y-99583071D01*
X146830570Y-99601991D01*
X146830566Y-99601992D01*
X146696656Y-99657458D01*
X146581658Y-99745700D01*
X146493416Y-99860698D01*
X146437950Y-99994608D01*
X146437949Y-99994612D01*
X146419029Y-100138320D01*
X132421099Y-100138320D01*
X132421099Y-97371320D01*
X146015029Y-97371320D01*
X146015029Y-97371321D01*
X146033949Y-97515029D01*
X146033950Y-97515033D01*
X146089416Y-97648943D01*
X146089417Y-97648945D01*
X146089418Y-97648946D01*
X146177658Y-97763942D01*
X146292654Y-97852182D01*
X146426570Y-97907651D01*
X146553559Y-97924369D01*
X146570278Y-97926571D01*
X146570279Y-97926571D01*
X146570280Y-97926571D01*
X146585256Y-97924599D01*
X146713988Y-97907651D01*
X146847904Y-97852182D01*
X146962900Y-97763942D01*
X147051140Y-97648946D01*
X147106609Y-97515030D01*
X147125529Y-97371321D01*
X147106609Y-97227612D01*
X147051140Y-97093696D01*
X146962900Y-96978700D01*
X146847904Y-96890460D01*
X146847903Y-96890459D01*
X146847901Y-96890458D01*
X146713991Y-96834992D01*
X146713989Y-96834991D01*
X146713988Y-96834991D01*
X146642133Y-96825531D01*
X146570280Y-96816071D01*
X146570278Y-96816071D01*
X146426570Y-96834991D01*
X146426566Y-96834992D01*
X146292656Y-96890458D01*
X146177658Y-96978700D01*
X146089416Y-97093698D01*
X146033950Y-97227608D01*
X146033949Y-97227612D01*
X146015029Y-97371320D01*
X132421099Y-97371320D01*
X132421099Y-95552120D01*
X163744229Y-95552120D01*
X163744229Y-95552121D01*
X163763149Y-95695829D01*
X163763150Y-95695833D01*
X163818616Y-95829743D01*
X163818617Y-95829745D01*
X163818618Y-95829746D01*
X163906858Y-95944742D01*
X164021854Y-96032982D01*
X164155770Y-96088451D01*
X164282759Y-96105169D01*
X164299478Y-96107371D01*
X164299479Y-96107371D01*
X164299480Y-96107371D01*
X164314456Y-96105399D01*
X164443188Y-96088451D01*
X164577104Y-96032982D01*
X164692100Y-95944742D01*
X164780340Y-95829746D01*
X164835809Y-95695830D01*
X164854729Y-95552121D01*
X164835809Y-95408412D01*
X164798829Y-95319134D01*
X164786066Y-95288320D01*
X179469029Y-95288320D01*
X179469029Y-95288321D01*
X179487949Y-95432029D01*
X179487950Y-95432033D01*
X179543416Y-95565943D01*
X179543417Y-95565945D01*
X179543418Y-95565946D01*
X179631658Y-95680942D01*
X179746654Y-95769182D01*
X179880570Y-95824651D01*
X180007559Y-95841369D01*
X180024278Y-95843571D01*
X180024279Y-95843571D01*
X180024280Y-95843571D01*
X180039256Y-95841599D01*
X180167988Y-95824651D01*
X180301904Y-95769182D01*
X180416900Y-95680942D01*
X180505140Y-95565946D01*
X180560609Y-95432030D01*
X180579529Y-95288321D01*
X180560609Y-95144612D01*
X180507251Y-95015792D01*
X180505141Y-95010698D01*
X180505140Y-95010697D01*
X180505140Y-95010696D01*
X180416900Y-94895700D01*
X180301904Y-94807460D01*
X180301903Y-94807459D01*
X180301901Y-94807458D01*
X180167991Y-94751992D01*
X180167989Y-94751991D01*
X180167988Y-94751991D01*
X180096133Y-94742531D01*
X180024280Y-94733071D01*
X180024278Y-94733071D01*
X179880570Y-94751991D01*
X179880566Y-94751992D01*
X179746656Y-94807458D01*
X179631658Y-94895700D01*
X179543416Y-95010698D01*
X179487950Y-95144608D01*
X179487949Y-95144612D01*
X179469029Y-95288320D01*
X164786066Y-95288320D01*
X164780341Y-95274498D01*
X164780340Y-95274497D01*
X164780340Y-95274496D01*
X164692100Y-95159500D01*
X164577104Y-95071260D01*
X164577103Y-95071259D01*
X164577101Y-95071258D01*
X164443191Y-95015792D01*
X164443189Y-95015791D01*
X164443188Y-95015791D01*
X164371333Y-95006331D01*
X164299480Y-94996871D01*
X164299478Y-94996871D01*
X164155770Y-95015791D01*
X164155766Y-95015792D01*
X164021856Y-95071258D01*
X163906858Y-95159500D01*
X163818616Y-95274498D01*
X163763150Y-95408408D01*
X163763149Y-95408412D01*
X163744229Y-95552120D01*
X132421099Y-95552120D01*
X132421099Y-93027920D01*
X138064829Y-93027920D01*
X138064829Y-93027921D01*
X138083749Y-93171629D01*
X138083750Y-93171633D01*
X138139216Y-93305543D01*
X138139217Y-93305545D01*
X138139218Y-93305546D01*
X138227458Y-93420542D01*
X138342454Y-93508782D01*
X138476370Y-93564251D01*
X138603359Y-93580969D01*
X138620078Y-93583171D01*
X138620079Y-93583171D01*
X138620080Y-93583171D01*
X138635056Y-93581199D01*
X138763788Y-93564251D01*
X138897704Y-93508782D01*
X139012700Y-93420542D01*
X139100940Y-93305546D01*
X139156409Y-93171630D01*
X139175329Y-93027921D01*
X139156409Y-92884212D01*
X139100940Y-92750296D01*
X139012700Y-92635300D01*
X138951475Y-92588320D01*
X143844029Y-92588320D01*
X143844029Y-92588321D01*
X143862949Y-92732029D01*
X143862950Y-92732033D01*
X143918416Y-92865943D01*
X143918417Y-92865945D01*
X143918418Y-92865946D01*
X144006658Y-92980942D01*
X144121654Y-93069182D01*
X144255570Y-93124651D01*
X144382559Y-93141369D01*
X144399278Y-93143571D01*
X144399279Y-93143571D01*
X144399280Y-93143571D01*
X144414256Y-93141599D01*
X144542988Y-93124651D01*
X144676904Y-93069182D01*
X144791900Y-92980942D01*
X144853303Y-92900920D01*
X157292629Y-92900920D01*
X157292629Y-92900921D01*
X157311549Y-93044629D01*
X157311550Y-93044633D01*
X157367016Y-93178543D01*
X157367017Y-93178545D01*
X157367018Y-93178546D01*
X157455258Y-93293542D01*
X157570254Y-93381782D01*
X157704170Y-93437251D01*
X157831159Y-93453969D01*
X157847878Y-93456171D01*
X157847879Y-93456171D01*
X157847880Y-93456171D01*
X157862856Y-93454199D01*
X157991588Y-93437251D01*
X158125504Y-93381782D01*
X158240500Y-93293542D01*
X158328740Y-93178546D01*
X158384209Y-93044630D01*
X158402774Y-92903621D01*
X162098380Y-92903621D01*
X162116944Y-93044629D01*
X162117300Y-93047329D01*
X162117301Y-93047333D01*
X162172767Y-93181243D01*
X162172768Y-93181245D01*
X162172769Y-93181246D01*
X162261009Y-93296242D01*
X162376005Y-93384482D01*
X162509921Y-93439951D01*
X162633122Y-93456171D01*
X162653629Y-93458871D01*
X162653630Y-93458871D01*
X162653631Y-93458871D01*
X162674138Y-93456171D01*
X162797339Y-93439951D01*
X162931255Y-93384482D01*
X163046251Y-93296242D01*
X163134491Y-93181246D01*
X163189960Y-93047330D01*
X163208880Y-92903621D01*
X163208524Y-92900920D01*
X163203920Y-92865946D01*
X163189960Y-92759912D01*
X163134491Y-92625996D01*
X163046251Y-92511000D01*
X162931255Y-92422760D01*
X162931254Y-92422759D01*
X162931252Y-92422758D01*
X162797342Y-92367292D01*
X162797340Y-92367291D01*
X162797339Y-92367291D01*
X162725484Y-92357831D01*
X162653631Y-92348371D01*
X162653629Y-92348371D01*
X162509921Y-92367291D01*
X162509917Y-92367292D01*
X162376007Y-92422758D01*
X162261009Y-92511000D01*
X162172767Y-92625998D01*
X162117301Y-92759908D01*
X162117300Y-92759912D01*
X162098736Y-92900920D01*
X162098380Y-92903621D01*
X158402774Y-92903621D01*
X158403129Y-92900921D01*
X158384209Y-92757212D01*
X158347229Y-92667934D01*
X158328741Y-92623298D01*
X158328740Y-92623297D01*
X158328740Y-92623296D01*
X158240500Y-92508300D01*
X158125504Y-92420060D01*
X158125503Y-92420059D01*
X158125501Y-92420058D01*
X157991591Y-92364592D01*
X157991589Y-92364591D01*
X157991588Y-92364591D01*
X157919733Y-92355131D01*
X157847880Y-92345671D01*
X157847878Y-92345671D01*
X157704170Y-92364591D01*
X157704166Y-92364592D01*
X157570256Y-92420058D01*
X157455258Y-92508300D01*
X157367016Y-92623298D01*
X157311550Y-92757208D01*
X157311549Y-92757212D01*
X157292629Y-92900920D01*
X144853303Y-92900920D01*
X144880140Y-92865946D01*
X144935609Y-92732030D01*
X144954529Y-92588321D01*
X144935609Y-92444612D01*
X144880140Y-92310696D01*
X144791900Y-92195700D01*
X144676904Y-92107460D01*
X144676903Y-92107459D01*
X144676901Y-92107458D01*
X144569944Y-92063156D01*
X145428892Y-92063156D01*
X145428892Y-92063157D01*
X145447812Y-92206865D01*
X145447813Y-92206869D01*
X145503279Y-92340779D01*
X145503280Y-92340781D01*
X145503281Y-92340782D01*
X145591521Y-92455778D01*
X145706517Y-92544018D01*
X145706518Y-92544018D01*
X145706519Y-92544019D01*
X145751155Y-92562507D01*
X145840433Y-92599487D01*
X145967422Y-92616205D01*
X145984141Y-92618407D01*
X145984142Y-92618407D01*
X145984143Y-92618407D01*
X145999119Y-92616435D01*
X146127851Y-92599487D01*
X146261767Y-92544018D01*
X146376763Y-92455778D01*
X146465003Y-92340782D01*
X146520472Y-92206866D01*
X146538738Y-92068121D01*
X164861829Y-92068121D01*
X164880095Y-92206866D01*
X164880749Y-92211829D01*
X164880750Y-92211833D01*
X164936216Y-92345743D01*
X164936217Y-92345745D01*
X164936218Y-92345746D01*
X165024458Y-92460742D01*
X165139454Y-92548982D01*
X165273370Y-92604451D01*
X165400359Y-92621169D01*
X165417078Y-92623371D01*
X165417079Y-92623371D01*
X165417080Y-92623371D01*
X165432056Y-92621399D01*
X165560788Y-92604451D01*
X165694704Y-92548982D01*
X165809700Y-92460742D01*
X165897940Y-92345746D01*
X165953409Y-92211830D01*
X165969670Y-92088320D01*
X182516038Y-92088320D01*
X182516038Y-92088321D01*
X183057291Y-92088321D01*
X183040074Y-92098261D01*
X182984219Y-92154116D01*
X182944723Y-92222525D01*
X182924279Y-92298825D01*
X182924279Y-92377817D01*
X182944723Y-92454117D01*
X182984219Y-92522526D01*
X183040074Y-92578381D01*
X183057291Y-92588321D01*
X182516038Y-92588321D01*
X182559636Y-92693575D01*
X182559641Y-92693585D01*
X182641715Y-92816417D01*
X182641718Y-92816421D01*
X182746178Y-92920881D01*
X182746182Y-92920884D01*
X182869014Y-93002958D01*
X182869024Y-93002963D01*
X183005511Y-93059498D01*
X183005519Y-93059500D01*
X183150405Y-93088320D01*
X183150408Y-93088321D01*
X183374279Y-93088321D01*
X183374279Y-92638321D01*
X183874279Y-92638321D01*
X183874279Y-93088321D01*
X184098150Y-93088321D01*
X184098152Y-93088320D01*
X184243038Y-93059500D01*
X184243046Y-93059498D01*
X184379533Y-93002963D01*
X184379543Y-93002958D01*
X184502375Y-92920884D01*
X184502379Y-92920881D01*
X184606839Y-92816421D01*
X184606842Y-92816417D01*
X184688916Y-92693585D01*
X184688921Y-92693575D01*
X184732520Y-92588321D01*
X184191267Y-92588321D01*
X184208484Y-92578381D01*
X184264339Y-92522526D01*
X184303835Y-92454117D01*
X184324279Y-92377817D01*
X184324279Y-92298825D01*
X184303835Y-92222525D01*
X184264339Y-92154116D01*
X184208484Y-92098261D01*
X184191267Y-92088321D01*
X184732520Y-92088321D01*
X184732519Y-92088320D01*
X186316038Y-92088320D01*
X186316038Y-92088321D01*
X186857291Y-92088321D01*
X186840074Y-92098261D01*
X186784219Y-92154116D01*
X186744723Y-92222525D01*
X186724279Y-92298825D01*
X186724279Y-92377817D01*
X186744723Y-92454117D01*
X186784219Y-92522526D01*
X186840074Y-92578381D01*
X186857291Y-92588321D01*
X186316038Y-92588321D01*
X186359636Y-92693575D01*
X186359641Y-92693585D01*
X186441715Y-92816417D01*
X186441718Y-92816421D01*
X186546178Y-92920881D01*
X186546182Y-92920884D01*
X186669014Y-93002958D01*
X186669024Y-93002963D01*
X186805511Y-93059498D01*
X186805519Y-93059500D01*
X186950405Y-93088320D01*
X186950408Y-93088321D01*
X187174279Y-93088321D01*
X187174279Y-92638321D01*
X187674279Y-92638321D01*
X187674279Y-93088321D01*
X187898150Y-93088321D01*
X187898152Y-93088320D01*
X188043038Y-93059500D01*
X188043046Y-93059498D01*
X188179533Y-93002963D01*
X188179543Y-93002958D01*
X188302375Y-92920884D01*
X188302379Y-92920881D01*
X188406839Y-92816421D01*
X188406842Y-92816417D01*
X188488916Y-92693585D01*
X188488921Y-92693575D01*
X188532520Y-92588321D01*
X187991267Y-92588321D01*
X188008484Y-92578381D01*
X188064339Y-92522526D01*
X188103835Y-92454117D01*
X188124279Y-92377817D01*
X188124279Y-92298825D01*
X188103835Y-92222525D01*
X188064339Y-92154116D01*
X188008484Y-92098261D01*
X187991267Y-92088321D01*
X188532520Y-92088321D01*
X188532519Y-92088320D01*
X188488921Y-91983066D01*
X188488916Y-91983056D01*
X188406842Y-91860224D01*
X188406839Y-91860220D01*
X188302379Y-91755760D01*
X188302375Y-91755757D01*
X188179543Y-91673683D01*
X188179533Y-91673678D01*
X188043046Y-91617143D01*
X188043038Y-91617141D01*
X187898151Y-91588321D01*
X187674279Y-91588321D01*
X187674279Y-92038321D01*
X187174279Y-92038321D01*
X187174279Y-91588321D01*
X186950407Y-91588321D01*
X186805519Y-91617141D01*
X186805511Y-91617143D01*
X186669024Y-91673678D01*
X186669014Y-91673683D01*
X186546182Y-91755757D01*
X186546178Y-91755760D01*
X186441718Y-91860220D01*
X186441715Y-91860224D01*
X186359641Y-91983056D01*
X186359636Y-91983066D01*
X186316038Y-92088320D01*
X184732519Y-92088320D01*
X184688921Y-91983066D01*
X184688916Y-91983056D01*
X184606842Y-91860224D01*
X184606839Y-91860220D01*
X184502379Y-91755760D01*
X184502375Y-91755757D01*
X184379543Y-91673683D01*
X184379533Y-91673678D01*
X184243046Y-91617143D01*
X184243038Y-91617141D01*
X184098151Y-91588321D01*
X183874279Y-91588321D01*
X183874279Y-92038321D01*
X183374279Y-92038321D01*
X183374279Y-91588321D01*
X183150407Y-91588321D01*
X183005519Y-91617141D01*
X183005511Y-91617143D01*
X182869024Y-91673678D01*
X182869014Y-91673683D01*
X182746182Y-91755757D01*
X182746178Y-91755760D01*
X182641718Y-91860220D01*
X182641715Y-91860224D01*
X182559641Y-91983056D01*
X182559636Y-91983066D01*
X182516038Y-92088320D01*
X165969670Y-92088320D01*
X165972329Y-92068121D01*
X165971675Y-92063157D01*
X165961131Y-91983066D01*
X165953409Y-91924412D01*
X165897940Y-91790496D01*
X165809700Y-91675500D01*
X165694704Y-91587260D01*
X165694703Y-91587259D01*
X165694701Y-91587258D01*
X165560791Y-91531792D01*
X165560789Y-91531791D01*
X165560788Y-91531791D01*
X165488933Y-91522331D01*
X165417080Y-91512871D01*
X165417078Y-91512871D01*
X165273370Y-91531791D01*
X165273366Y-91531792D01*
X165139456Y-91587258D01*
X165024458Y-91675500D01*
X164936216Y-91790498D01*
X164880750Y-91924408D01*
X164880749Y-91924412D01*
X164862483Y-92063157D01*
X164861829Y-92068121D01*
X146538738Y-92068121D01*
X146539392Y-92063157D01*
X146520472Y-91919448D01*
X146465003Y-91785532D01*
X146376763Y-91670536D01*
X146261767Y-91582296D01*
X146261766Y-91582295D01*
X146261764Y-91582294D01*
X146127854Y-91526828D01*
X146127852Y-91526827D01*
X146127851Y-91526827D01*
X146021847Y-91512871D01*
X145984143Y-91507907D01*
X145984141Y-91507907D01*
X145840433Y-91526827D01*
X145840429Y-91526828D01*
X145706519Y-91582294D01*
X145591521Y-91670536D01*
X145503279Y-91785534D01*
X145447813Y-91919444D01*
X145447812Y-91919448D01*
X145428892Y-92063156D01*
X144569944Y-92063156D01*
X144542991Y-92051992D01*
X144542989Y-92051991D01*
X144542988Y-92051991D01*
X144439156Y-92038321D01*
X144399280Y-92033071D01*
X144399278Y-92033071D01*
X144255570Y-92051991D01*
X144255566Y-92051992D01*
X144121656Y-92107458D01*
X144006658Y-92195700D01*
X143918416Y-92310698D01*
X143862950Y-92444608D01*
X143862949Y-92444612D01*
X143844029Y-92588320D01*
X138951475Y-92588320D01*
X138897704Y-92547060D01*
X138897703Y-92547059D01*
X138897701Y-92547058D01*
X138763791Y-92491592D01*
X138763789Y-92491591D01*
X138763788Y-92491591D01*
X138691933Y-92482131D01*
X138620080Y-92472671D01*
X138620078Y-92472671D01*
X138476370Y-92491591D01*
X138476366Y-92491592D01*
X138342456Y-92547058D01*
X138227458Y-92635300D01*
X138139216Y-92750298D01*
X138083750Y-92884208D01*
X138083749Y-92884212D01*
X138064829Y-93027920D01*
X132421099Y-93027920D01*
X132421099Y-90772146D01*
X132421099Y-90763890D01*
X132420327Y-90756052D01*
X132420327Y-90707952D01*
X132420327Y-90707949D01*
X132389288Y-90492068D01*
X132327842Y-90282801D01*
X132327841Y-90282799D01*
X132327840Y-90282795D01*
X132237245Y-90084420D01*
X132237236Y-90084403D01*
X132119325Y-89900931D01*
X131976499Y-89736100D01*
X131811668Y-89593274D01*
X131628196Y-89475363D01*
X131628179Y-89475354D01*
X131429804Y-89384759D01*
X131220530Y-89323311D01*
X131066727Y-89301198D01*
X131004651Y-89292273D01*
X131004649Y-89292273D01*
X130956548Y-89292273D01*
X130948709Y-89291501D01*
X130940454Y-89291501D01*
X127872849Y-89291501D01*
X127856664Y-89290440D01*
X127787923Y-89281390D01*
X127756656Y-89273012D01*
X127671397Y-89237696D01*
X127643367Y-89221513D01*
X127619437Y-89203150D01*
X127570153Y-89165333D01*
X127547266Y-89142446D01*
X127513252Y-89098119D01*
X127491084Y-89069230D01*
X127474904Y-89041204D01*
X127439585Y-88955938D01*
X127431210Y-88924680D01*
X127422160Y-88855934D01*
X127421897Y-88851920D01*
X170089728Y-88851920D01*
X170089728Y-88851921D01*
X170108648Y-88995629D01*
X170108649Y-88995633D01*
X170164115Y-89129543D01*
X170164116Y-89129545D01*
X170164117Y-89129546D01*
X170252357Y-89244542D01*
X170367353Y-89332782D01*
X170501269Y-89388251D01*
X170628258Y-89404969D01*
X170644977Y-89407171D01*
X170644978Y-89407171D01*
X170644979Y-89407171D01*
X170659955Y-89405199D01*
X170788687Y-89388251D01*
X170922603Y-89332782D01*
X171037599Y-89244542D01*
X171125839Y-89129546D01*
X171181308Y-88995630D01*
X171200228Y-88851921D01*
X171181308Y-88708212D01*
X171125839Y-88574296D01*
X171037599Y-88459300D01*
X170922603Y-88371060D01*
X170922602Y-88371059D01*
X170922600Y-88371058D01*
X170788690Y-88315592D01*
X170788688Y-88315591D01*
X170788687Y-88315591D01*
X170716832Y-88306131D01*
X170644979Y-88296671D01*
X170644977Y-88296671D01*
X170501269Y-88315591D01*
X170501265Y-88315592D01*
X170367355Y-88371058D01*
X170252357Y-88459300D01*
X170164115Y-88574298D01*
X170108649Y-88708208D01*
X170108648Y-88708212D01*
X170089728Y-88851920D01*
X127421897Y-88851920D01*
X127421099Y-88839750D01*
X127421099Y-88038321D01*
X144219029Y-88038321D01*
X144236977Y-88174650D01*
X144237949Y-88182029D01*
X144237950Y-88182033D01*
X144293416Y-88315943D01*
X144293417Y-88315945D01*
X144293418Y-88315946D01*
X144381658Y-88430942D01*
X144496654Y-88519182D01*
X144630570Y-88574651D01*
X144757559Y-88591369D01*
X144774278Y-88593571D01*
X144774279Y-88593571D01*
X144774280Y-88593571D01*
X144789256Y-88591599D01*
X144917988Y-88574651D01*
X145051904Y-88519182D01*
X145166900Y-88430942D01*
X145255140Y-88315946D01*
X145310609Y-88182030D01*
X145329529Y-88038321D01*
X145310609Y-87894612D01*
X145255140Y-87760696D01*
X145181188Y-87664321D01*
X148660575Y-87664321D01*
X148670317Y-87738321D01*
X148679495Y-87808029D01*
X148679496Y-87808033D01*
X148734962Y-87941943D01*
X148734963Y-87941945D01*
X148734964Y-87941946D01*
X148823204Y-88056942D01*
X148938200Y-88145182D01*
X149072116Y-88200651D01*
X149199105Y-88217369D01*
X149215824Y-88219571D01*
X149215825Y-88219571D01*
X149215826Y-88219571D01*
X149230802Y-88217599D01*
X149359534Y-88200651D01*
X149493450Y-88145182D01*
X149608446Y-88056942D01*
X149696686Y-87941946D01*
X149752155Y-87808030D01*
X149761333Y-87738320D01*
X153819029Y-87738320D01*
X153819029Y-87738321D01*
X153837949Y-87882029D01*
X153837950Y-87882033D01*
X153893416Y-88015943D01*
X153893417Y-88015945D01*
X153893418Y-88015946D01*
X153981658Y-88130942D01*
X154096654Y-88219182D01*
X154230570Y-88274651D01*
X154357559Y-88291369D01*
X154374278Y-88293571D01*
X154374279Y-88293571D01*
X154374280Y-88293571D01*
X154389256Y-88291599D01*
X154517988Y-88274651D01*
X154651904Y-88219182D01*
X154766900Y-88130942D01*
X154855140Y-88015946D01*
X154910609Y-87882030D01*
X154929529Y-87738321D01*
X154910609Y-87594612D01*
X154864408Y-87483071D01*
X154855141Y-87460698D01*
X154855140Y-87460697D01*
X154855140Y-87460696D01*
X154837971Y-87438321D01*
X158875528Y-87438321D01*
X158886361Y-87520608D01*
X158894448Y-87582029D01*
X158894449Y-87582033D01*
X158949915Y-87715943D01*
X158949916Y-87715945D01*
X158949917Y-87715946D01*
X159038157Y-87830942D01*
X159153153Y-87919182D01*
X159287069Y-87974651D01*
X159414058Y-87991369D01*
X159430777Y-87993571D01*
X159430778Y-87993571D01*
X159430779Y-87993571D01*
X159445755Y-87991599D01*
X159574487Y-87974651D01*
X159708403Y-87919182D01*
X159823399Y-87830942D01*
X159911639Y-87715946D01*
X159946360Y-87632120D01*
X163797128Y-87632120D01*
X163797128Y-87632121D01*
X163816048Y-87775829D01*
X163816049Y-87775833D01*
X163871515Y-87909743D01*
X163871516Y-87909745D01*
X163871517Y-87909746D01*
X163959757Y-88024742D01*
X164074753Y-88112982D01*
X164074754Y-88112982D01*
X164074755Y-88112983D01*
X164118113Y-88130942D01*
X164208669Y-88168451D01*
X164335658Y-88185169D01*
X164352377Y-88187371D01*
X164352378Y-88187371D01*
X164352379Y-88187371D01*
X164367355Y-88185399D01*
X164496087Y-88168451D01*
X164630003Y-88112982D01*
X164744999Y-88024742D01*
X164833239Y-87909746D01*
X164888708Y-87775830D01*
X164906812Y-87638321D01*
X166619029Y-87638321D01*
X166632194Y-87738321D01*
X166637949Y-87782029D01*
X166637950Y-87782033D01*
X166693416Y-87915943D01*
X166693417Y-87915945D01*
X166693418Y-87915946D01*
X166781658Y-88030942D01*
X166896654Y-88119182D01*
X166896655Y-88119182D01*
X166896656Y-88119183D01*
X166936105Y-88135523D01*
X167030570Y-88174651D01*
X167155662Y-88191120D01*
X167174278Y-88193571D01*
X167174279Y-88193571D01*
X167174280Y-88193571D01*
X167192896Y-88191120D01*
X167317988Y-88174651D01*
X167451904Y-88119182D01*
X167566900Y-88030942D01*
X167655140Y-87915946D01*
X167710609Y-87782030D01*
X167715729Y-87743138D01*
X171236036Y-87743138D01*
X171236036Y-87743139D01*
X171254956Y-87886847D01*
X171254957Y-87886851D01*
X171310423Y-88020761D01*
X171310424Y-88020763D01*
X171310425Y-88020764D01*
X171398665Y-88135760D01*
X171513661Y-88224000D01*
X171647577Y-88279469D01*
X171774566Y-88296187D01*
X171791285Y-88298389D01*
X171791286Y-88298389D01*
X171791287Y-88298389D01*
X171806263Y-88296417D01*
X171934995Y-88279469D01*
X172068911Y-88224000D01*
X172183907Y-88135760D01*
X172272147Y-88020764D01*
X172327616Y-87886848D01*
X172346536Y-87743139D01*
X172332736Y-87638321D01*
X184444750Y-87638321D01*
X184457915Y-87738321D01*
X184463670Y-87782029D01*
X184463671Y-87782033D01*
X184519137Y-87915943D01*
X184519138Y-87915945D01*
X184519139Y-87915946D01*
X184607379Y-88030942D01*
X184630448Y-88048644D01*
X184651693Y-88064946D01*
X184692896Y-88121374D01*
X184697050Y-88191120D01*
X184662837Y-88252040D01*
X184651693Y-88261696D01*
X184607381Y-88295698D01*
X184607380Y-88295699D01*
X184607379Y-88295700D01*
X184591846Y-88315943D01*
X184519137Y-88410698D01*
X184463671Y-88544608D01*
X184463670Y-88544612D01*
X184444750Y-88688320D01*
X184444750Y-88688321D01*
X184463670Y-88832029D01*
X184463671Y-88832033D01*
X184519137Y-88965943D01*
X184519138Y-88965945D01*
X184519139Y-88965946D01*
X184607379Y-89080942D01*
X184722375Y-89169182D01*
X184856291Y-89224651D01*
X184983280Y-89241369D01*
X184999999Y-89243571D01*
X185000000Y-89243571D01*
X185000001Y-89243571D01*
X185014977Y-89241599D01*
X185143709Y-89224651D01*
X185277625Y-89169182D01*
X185392621Y-89080942D01*
X185480861Y-88965946D01*
X185536330Y-88832030D01*
X185555250Y-88688321D01*
X185536330Y-88544612D01*
X185480861Y-88410696D01*
X185392621Y-88295700D01*
X185392619Y-88295699D01*
X185392619Y-88295698D01*
X185371425Y-88279435D01*
X185348306Y-88261695D01*
X185307104Y-88205269D01*
X185302949Y-88135523D01*
X185337161Y-88074603D01*
X185348306Y-88064946D01*
X185392621Y-88030942D01*
X185480861Y-87915946D01*
X185536330Y-87782030D01*
X185555250Y-87638321D01*
X185536330Y-87494612D01*
X185480861Y-87360696D01*
X185392621Y-87245700D01*
X185277625Y-87157460D01*
X185277624Y-87157459D01*
X185277622Y-87157458D01*
X185143712Y-87101992D01*
X185143710Y-87101991D01*
X185143709Y-87101991D01*
X185071854Y-87092531D01*
X185000001Y-87083071D01*
X184999999Y-87083071D01*
X184856291Y-87101991D01*
X184856287Y-87101992D01*
X184722377Y-87157458D01*
X184607379Y-87245700D01*
X184519137Y-87360698D01*
X184463671Y-87494608D01*
X184463670Y-87494612D01*
X184450505Y-87594612D01*
X184444750Y-87638321D01*
X172332736Y-87638321D01*
X172327616Y-87599430D01*
X172272147Y-87465514D01*
X172183907Y-87350518D01*
X172068911Y-87262278D01*
X172068910Y-87262277D01*
X172068908Y-87262276D01*
X171934998Y-87206810D01*
X171934996Y-87206809D01*
X171934995Y-87206809D01*
X171863140Y-87197349D01*
X171791287Y-87187889D01*
X171791285Y-87187889D01*
X171647577Y-87206809D01*
X171647573Y-87206810D01*
X171513663Y-87262276D01*
X171398665Y-87350518D01*
X171310423Y-87465516D01*
X171254957Y-87599426D01*
X171254956Y-87599430D01*
X171236036Y-87743138D01*
X167715729Y-87743138D01*
X167729529Y-87638321D01*
X167710609Y-87494612D01*
X167655140Y-87360696D01*
X167566900Y-87245700D01*
X167451904Y-87157460D01*
X167451903Y-87157459D01*
X167451901Y-87157458D01*
X167317991Y-87101992D01*
X167317989Y-87101991D01*
X167317988Y-87101991D01*
X167246133Y-87092531D01*
X167174280Y-87083071D01*
X167174278Y-87083071D01*
X167030570Y-87101991D01*
X167030566Y-87101992D01*
X166896656Y-87157458D01*
X166781658Y-87245700D01*
X166693416Y-87360698D01*
X166637950Y-87494608D01*
X166637949Y-87494612D01*
X166624784Y-87594612D01*
X166619029Y-87638321D01*
X164906812Y-87638321D01*
X164907628Y-87632121D01*
X164888708Y-87488412D01*
X164846577Y-87386698D01*
X164833240Y-87354498D01*
X164833239Y-87354497D01*
X164833239Y-87354496D01*
X164744999Y-87239500D01*
X164630003Y-87151260D01*
X164630002Y-87151259D01*
X164630000Y-87151258D01*
X164496090Y-87095792D01*
X164496088Y-87095791D01*
X164496087Y-87095791D01*
X164399471Y-87083071D01*
X164352379Y-87076871D01*
X164352377Y-87076871D01*
X164208669Y-87095791D01*
X164208665Y-87095792D01*
X164074755Y-87151258D01*
X163959757Y-87239500D01*
X163871515Y-87354498D01*
X163816049Y-87488408D01*
X163816048Y-87488412D01*
X163797128Y-87632120D01*
X159946360Y-87632120D01*
X159967108Y-87582030D01*
X159986028Y-87438321D01*
X159967108Y-87294612D01*
X159911639Y-87160696D01*
X159823399Y-87045700D01*
X159708403Y-86957460D01*
X159708402Y-86957459D01*
X159708400Y-86957458D01*
X159574490Y-86901992D01*
X159574488Y-86901991D01*
X159574487Y-86901991D01*
X159502632Y-86892531D01*
X159430779Y-86883071D01*
X159430777Y-86883071D01*
X159287069Y-86901991D01*
X159287065Y-86901992D01*
X159153155Y-86957458D01*
X159038157Y-87045700D01*
X158949915Y-87160698D01*
X158894449Y-87294608D01*
X158894448Y-87294612D01*
X158875528Y-87438321D01*
X154837971Y-87438321D01*
X154766900Y-87345700D01*
X154651904Y-87257460D01*
X154651903Y-87257459D01*
X154651901Y-87257458D01*
X154517991Y-87201992D01*
X154517989Y-87201991D01*
X154517988Y-87201991D01*
X154410875Y-87187889D01*
X154374280Y-87183071D01*
X154374278Y-87183071D01*
X154230570Y-87201991D01*
X154230566Y-87201992D01*
X154096656Y-87257458D01*
X153981658Y-87345700D01*
X153893416Y-87460698D01*
X153837950Y-87594608D01*
X153837949Y-87594612D01*
X153819029Y-87738320D01*
X149761333Y-87738320D01*
X149771075Y-87664321D01*
X149752155Y-87520612D01*
X149696686Y-87386696D01*
X149608446Y-87271700D01*
X149493450Y-87183460D01*
X149493449Y-87183459D01*
X149493447Y-87183458D01*
X149359537Y-87127992D01*
X149359535Y-87127991D01*
X149359534Y-87127991D01*
X149287679Y-87118531D01*
X149215826Y-87109071D01*
X149215824Y-87109071D01*
X149072116Y-87127991D01*
X149072112Y-87127992D01*
X148938202Y-87183458D01*
X148823204Y-87271700D01*
X148734962Y-87386698D01*
X148679496Y-87520608D01*
X148679495Y-87520612D01*
X148663027Y-87645700D01*
X148660575Y-87664321D01*
X145181188Y-87664321D01*
X145166900Y-87645700D01*
X145051904Y-87557460D01*
X145051903Y-87557459D01*
X145051901Y-87557458D01*
X144917991Y-87501992D01*
X144917989Y-87501991D01*
X144917988Y-87501991D01*
X144846133Y-87492531D01*
X144774280Y-87483071D01*
X144774278Y-87483071D01*
X144630570Y-87501991D01*
X144630566Y-87501992D01*
X144496656Y-87557458D01*
X144381658Y-87645700D01*
X144293416Y-87760698D01*
X144237950Y-87894608D01*
X144237949Y-87894612D01*
X144220001Y-88030941D01*
X144219029Y-88038321D01*
X127421099Y-88038321D01*
X127421099Y-85538321D01*
X144219029Y-85538321D01*
X144236977Y-85674650D01*
X144237949Y-85682029D01*
X144237950Y-85682033D01*
X144293416Y-85815943D01*
X144293417Y-85815945D01*
X144293418Y-85815946D01*
X144381658Y-85930942D01*
X144496654Y-86019182D01*
X144496655Y-86019182D01*
X144496656Y-86019183D01*
X144541292Y-86037671D01*
X144630570Y-86074651D01*
X144757559Y-86091369D01*
X144774278Y-86093571D01*
X144774279Y-86093571D01*
X144774280Y-86093571D01*
X144789256Y-86091599D01*
X144917988Y-86074651D01*
X145005698Y-86038321D01*
X148619029Y-86038321D01*
X148636977Y-86174650D01*
X148637949Y-86182029D01*
X148637950Y-86182033D01*
X148693416Y-86315943D01*
X148693417Y-86315945D01*
X148693418Y-86315946D01*
X148781658Y-86430942D01*
X148896654Y-86519182D01*
X149030570Y-86574651D01*
X149157559Y-86591369D01*
X149174278Y-86593571D01*
X149174279Y-86593571D01*
X149174280Y-86593571D01*
X149189256Y-86591599D01*
X149317988Y-86574651D01*
X149451904Y-86519182D01*
X149566900Y-86430942D01*
X149655140Y-86315946D01*
X149710609Y-86182030D01*
X149729529Y-86038321D01*
X149710609Y-85894612D01*
X149655140Y-85760696D01*
X149566900Y-85645700D01*
X149451904Y-85557460D01*
X149451903Y-85557459D01*
X149451901Y-85557458D01*
X149340813Y-85511445D01*
X149286409Y-85467605D01*
X149264344Y-85401310D01*
X149281623Y-85333611D01*
X149332760Y-85286000D01*
X149372077Y-85273945D01*
X149425761Y-85266878D01*
X149559677Y-85211409D01*
X149654928Y-85138320D01*
X150015769Y-85138320D01*
X150015769Y-85138321D01*
X150034689Y-85282029D01*
X150034690Y-85282033D01*
X150090156Y-85415943D01*
X150090157Y-85415945D01*
X150090158Y-85415946D01*
X150178398Y-85530942D01*
X150293394Y-85619182D01*
X150427310Y-85674651D01*
X150554299Y-85691369D01*
X150571018Y-85693571D01*
X150571019Y-85693571D01*
X150571020Y-85693571D01*
X150585996Y-85691599D01*
X150714728Y-85674651D01*
X150802440Y-85638320D01*
X158819029Y-85638320D01*
X158819029Y-85638321D01*
X158837949Y-85782029D01*
X158837950Y-85782033D01*
X158893416Y-85915943D01*
X158893417Y-85915945D01*
X158893418Y-85915946D01*
X158981658Y-86030942D01*
X159096654Y-86119182D01*
X159230570Y-86174651D01*
X159357559Y-86191369D01*
X159374278Y-86193571D01*
X159374279Y-86193571D01*
X159374280Y-86193571D01*
X159389256Y-86191599D01*
X159517988Y-86174651D01*
X159651904Y-86119182D01*
X159766900Y-86030942D01*
X159855140Y-85915946D01*
X159910609Y-85782030D01*
X159929529Y-85638321D01*
X159910609Y-85494612D01*
X159855140Y-85360696D01*
X159766900Y-85245700D01*
X159651904Y-85157460D01*
X159651903Y-85157459D01*
X159651901Y-85157458D01*
X159517991Y-85101992D01*
X159517989Y-85101991D01*
X159517988Y-85101991D01*
X159446133Y-85092531D01*
X159374280Y-85083071D01*
X159374278Y-85083071D01*
X159230570Y-85101991D01*
X159230566Y-85101992D01*
X159096656Y-85157458D01*
X158981658Y-85245700D01*
X158893416Y-85360698D01*
X158837950Y-85494608D01*
X158837949Y-85494612D01*
X158819029Y-85638320D01*
X150802440Y-85638320D01*
X150848644Y-85619182D01*
X150963640Y-85530942D01*
X151051880Y-85415946D01*
X151107349Y-85282030D01*
X151126269Y-85138321D01*
X151107349Y-84994612D01*
X151051880Y-84860696D01*
X150963640Y-84745700D01*
X150848644Y-84657460D01*
X150848643Y-84657459D01*
X150848641Y-84657458D01*
X150714731Y-84601992D01*
X150714729Y-84601991D01*
X150714728Y-84601991D01*
X150642873Y-84592531D01*
X150571020Y-84583071D01*
X150571018Y-84583071D01*
X150427310Y-84601991D01*
X150427306Y-84601992D01*
X150293396Y-84657458D01*
X150178398Y-84745700D01*
X150090157Y-84860697D01*
X150054778Y-84946111D01*
X150034045Y-84971838D01*
X150036143Y-84983463D01*
X150035576Y-84986532D01*
X150035750Y-84986555D01*
X150034689Y-84994611D01*
X150034689Y-84994612D01*
X150032904Y-85008170D01*
X150015769Y-85138320D01*
X149654928Y-85138320D01*
X149674673Y-85123169D01*
X149762913Y-85008173D01*
X149798293Y-84922756D01*
X149819024Y-84897029D01*
X149816927Y-84885403D01*
X149817505Y-84882338D01*
X149817321Y-84882314D01*
X149837302Y-84730548D01*
X149837302Y-84730547D01*
X149835100Y-84713828D01*
X149818382Y-84586839D01*
X149762913Y-84452923D01*
X149674673Y-84337927D01*
X149559677Y-84249687D01*
X149559676Y-84249686D01*
X149559674Y-84249685D01*
X149425764Y-84194219D01*
X149425762Y-84194218D01*
X149425761Y-84194218D01*
X149353906Y-84184758D01*
X149282053Y-84175298D01*
X149282051Y-84175298D01*
X149138343Y-84194218D01*
X149138339Y-84194219D01*
X149004429Y-84249685D01*
X148889431Y-84337927D01*
X148801189Y-84452925D01*
X148745723Y-84586835D01*
X148745722Y-84586839D01*
X148726802Y-84730547D01*
X148726802Y-84730548D01*
X148745722Y-84874256D01*
X148745723Y-84874260D01*
X148801189Y-85008170D01*
X148801190Y-85008171D01*
X148801191Y-85008173D01*
X148889431Y-85123169D01*
X149004427Y-85211409D01*
X149115520Y-85257424D01*
X149169921Y-85301263D01*
X149191986Y-85367557D01*
X149174707Y-85435256D01*
X149123571Y-85482867D01*
X149084252Y-85494923D01*
X149030570Y-85501991D01*
X149030566Y-85501992D01*
X148896656Y-85557458D01*
X148781658Y-85645700D01*
X148693416Y-85760698D01*
X148637950Y-85894608D01*
X148637949Y-85894612D01*
X148620001Y-86030941D01*
X148619029Y-86038321D01*
X145005698Y-86038321D01*
X145051904Y-86019182D01*
X145166900Y-85930942D01*
X145255140Y-85815946D01*
X145310609Y-85682030D01*
X145329529Y-85538321D01*
X145310609Y-85394612D01*
X145265621Y-85286000D01*
X145255141Y-85260698D01*
X145255140Y-85260697D01*
X145255140Y-85260696D01*
X145166900Y-85145700D01*
X145051904Y-85057460D01*
X145051903Y-85057459D01*
X145051901Y-85057458D01*
X144917991Y-85001992D01*
X144917989Y-85001991D01*
X144917988Y-85001991D01*
X144846133Y-84992531D01*
X144774280Y-84983071D01*
X144774278Y-84983071D01*
X144630570Y-85001991D01*
X144630566Y-85001992D01*
X144496656Y-85057458D01*
X144381658Y-85145700D01*
X144293416Y-85260698D01*
X144237950Y-85394608D01*
X144237949Y-85394612D01*
X144220001Y-85530941D01*
X144219029Y-85538321D01*
X127421099Y-85538321D01*
X127421099Y-83688320D01*
X182516038Y-83688320D01*
X182516038Y-83688321D01*
X183057291Y-83688321D01*
X183040074Y-83698261D01*
X182984219Y-83754116D01*
X182944723Y-83822525D01*
X182924279Y-83898825D01*
X182924279Y-83977817D01*
X182944723Y-84054117D01*
X182984219Y-84122526D01*
X183040074Y-84178381D01*
X183057291Y-84188321D01*
X182516038Y-84188321D01*
X182559636Y-84293575D01*
X182559641Y-84293585D01*
X182641715Y-84416417D01*
X182641718Y-84416421D01*
X182746178Y-84520881D01*
X182746182Y-84520884D01*
X182869014Y-84602958D01*
X182869024Y-84602963D01*
X183005511Y-84659498D01*
X183005519Y-84659500D01*
X183150405Y-84688320D01*
X183150408Y-84688321D01*
X183374279Y-84688321D01*
X183374279Y-84238321D01*
X183874279Y-84238321D01*
X183874279Y-84688321D01*
X184098150Y-84688321D01*
X184098152Y-84688320D01*
X184243038Y-84659500D01*
X184243046Y-84659498D01*
X184379533Y-84602963D01*
X184379543Y-84602958D01*
X184502375Y-84520884D01*
X184502379Y-84520881D01*
X184606839Y-84416421D01*
X184606842Y-84416417D01*
X184688916Y-84293585D01*
X184688921Y-84293575D01*
X184732520Y-84188321D01*
X184191267Y-84188321D01*
X184208484Y-84178381D01*
X184264339Y-84122526D01*
X184303835Y-84054117D01*
X184324279Y-83977817D01*
X184324279Y-83898825D01*
X184303835Y-83822525D01*
X184264339Y-83754116D01*
X184208484Y-83698261D01*
X184191267Y-83688321D01*
X184732520Y-83688321D01*
X184732519Y-83688320D01*
X186316038Y-83688320D01*
X186316038Y-83688321D01*
X186857291Y-83688321D01*
X186840074Y-83698261D01*
X186784219Y-83754116D01*
X186744723Y-83822525D01*
X186724279Y-83898825D01*
X186724279Y-83977817D01*
X186744723Y-84054117D01*
X186784219Y-84122526D01*
X186840074Y-84178381D01*
X186857291Y-84188321D01*
X186316038Y-84188321D01*
X186359636Y-84293575D01*
X186359641Y-84293585D01*
X186441715Y-84416417D01*
X186441718Y-84416421D01*
X186546178Y-84520881D01*
X186546182Y-84520884D01*
X186669014Y-84602958D01*
X186669024Y-84602963D01*
X186805511Y-84659498D01*
X186805519Y-84659500D01*
X186950405Y-84688320D01*
X186950408Y-84688321D01*
X187174279Y-84688321D01*
X187174279Y-84238321D01*
X187674279Y-84238321D01*
X187674279Y-84688321D01*
X187898150Y-84688321D01*
X187898152Y-84688320D01*
X188043038Y-84659500D01*
X188043046Y-84659498D01*
X188179533Y-84602963D01*
X188179543Y-84602958D01*
X188302375Y-84520884D01*
X188302379Y-84520881D01*
X188406839Y-84416421D01*
X188406842Y-84416417D01*
X188488916Y-84293585D01*
X188488921Y-84293575D01*
X188532520Y-84188321D01*
X187991267Y-84188321D01*
X188008484Y-84178381D01*
X188064339Y-84122526D01*
X188103835Y-84054117D01*
X188124279Y-83977817D01*
X188124279Y-83898825D01*
X188103835Y-83822525D01*
X188064339Y-83754116D01*
X188008484Y-83698261D01*
X187991267Y-83688321D01*
X188532520Y-83688321D01*
X188532519Y-83688320D01*
X188488921Y-83583066D01*
X188488916Y-83583056D01*
X188406842Y-83460224D01*
X188406839Y-83460220D01*
X188302379Y-83355760D01*
X188302375Y-83355757D01*
X188179543Y-83273683D01*
X188179533Y-83273678D01*
X188043046Y-83217143D01*
X188043038Y-83217141D01*
X187898151Y-83188321D01*
X187674279Y-83188321D01*
X187674279Y-83638321D01*
X187174279Y-83638321D01*
X187174279Y-83188321D01*
X186950407Y-83188321D01*
X186805519Y-83217141D01*
X186805511Y-83217143D01*
X186669024Y-83273678D01*
X186669014Y-83273683D01*
X186546182Y-83355757D01*
X186546178Y-83355760D01*
X186441718Y-83460220D01*
X186441715Y-83460224D01*
X186359641Y-83583056D01*
X186359636Y-83583066D01*
X186316038Y-83688320D01*
X184732519Y-83688320D01*
X184688921Y-83583066D01*
X184688916Y-83583056D01*
X184606842Y-83460224D01*
X184606839Y-83460220D01*
X184502379Y-83355760D01*
X184502375Y-83355757D01*
X184379543Y-83273683D01*
X184379533Y-83273678D01*
X184243046Y-83217143D01*
X184243038Y-83217141D01*
X184098151Y-83188321D01*
X183874279Y-83188321D01*
X183874279Y-83638321D01*
X183374279Y-83638321D01*
X183374279Y-83188321D01*
X183150407Y-83188321D01*
X183005519Y-83217141D01*
X183005511Y-83217143D01*
X182869024Y-83273678D01*
X182869014Y-83273683D01*
X182746182Y-83355757D01*
X182746178Y-83355760D01*
X182641718Y-83460220D01*
X182641715Y-83460224D01*
X182559641Y-83583056D01*
X182559636Y-83583066D01*
X182516038Y-83688320D01*
X127421099Y-83688320D01*
X127421099Y-81775720D01*
X153787429Y-81775720D01*
X153787429Y-81775721D01*
X153806349Y-81919429D01*
X153806350Y-81919433D01*
X153861816Y-82053343D01*
X153861817Y-82053345D01*
X153861818Y-82053346D01*
X153950058Y-82168342D01*
X154065054Y-82256582D01*
X154198970Y-82312051D01*
X154325959Y-82328769D01*
X154342678Y-82330971D01*
X154342679Y-82330971D01*
X154342680Y-82330971D01*
X154357656Y-82328999D01*
X154486388Y-82312051D01*
X154620304Y-82256582D01*
X154735300Y-82168342D01*
X154823540Y-82053346D01*
X154879009Y-81919430D01*
X154897929Y-81775721D01*
X154879009Y-81632012D01*
X154873798Y-81619432D01*
X161398182Y-81619432D01*
X161398182Y-81619433D01*
X161417102Y-81763141D01*
X161417103Y-81763145D01*
X161472569Y-81897055D01*
X161472570Y-81897057D01*
X161472571Y-81897058D01*
X161560811Y-82012054D01*
X161675807Y-82100294D01*
X161809723Y-82155763D01*
X161936712Y-82172481D01*
X161953431Y-82174683D01*
X161953432Y-82174683D01*
X161953433Y-82174683D01*
X161968409Y-82172711D01*
X162097141Y-82155763D01*
X162231057Y-82100294D01*
X162346053Y-82012054D01*
X162434293Y-81897058D01*
X162489762Y-81763142D01*
X162508682Y-81619433D01*
X162489762Y-81475724D01*
X162434293Y-81341808D01*
X162346053Y-81226812D01*
X162231057Y-81138572D01*
X162231056Y-81138571D01*
X162231054Y-81138570D01*
X162097144Y-81083104D01*
X162097142Y-81083103D01*
X162097141Y-81083103D01*
X162025286Y-81073643D01*
X161953433Y-81064183D01*
X161953431Y-81064183D01*
X161809723Y-81083103D01*
X161809719Y-81083104D01*
X161675809Y-81138570D01*
X161560811Y-81226812D01*
X161472569Y-81341810D01*
X161417103Y-81475720D01*
X161417102Y-81475724D01*
X161398182Y-81619432D01*
X154873798Y-81619432D01*
X154823540Y-81498096D01*
X154735300Y-81383100D01*
X154620304Y-81294860D01*
X154620303Y-81294859D01*
X154620301Y-81294858D01*
X154486391Y-81239392D01*
X154486389Y-81239391D01*
X154486388Y-81239391D01*
X154390843Y-81226812D01*
X154342680Y-81220471D01*
X154342678Y-81220471D01*
X154198970Y-81239391D01*
X154198966Y-81239392D01*
X154065056Y-81294858D01*
X153950058Y-81383100D01*
X153861816Y-81498098D01*
X153806350Y-81632008D01*
X153806349Y-81632012D01*
X153787429Y-81775720D01*
X127421099Y-81775720D01*
X127421099Y-80448086D01*
X141467335Y-80448086D01*
X141467335Y-80448087D01*
X141486255Y-80591795D01*
X141486256Y-80591799D01*
X141541722Y-80725709D01*
X141541723Y-80725711D01*
X141541724Y-80725712D01*
X141629964Y-80840708D01*
X141744960Y-80928948D01*
X141744961Y-80928948D01*
X141744962Y-80928949D01*
X141752408Y-80932033D01*
X141878876Y-80984417D01*
X142005865Y-81001135D01*
X142022584Y-81003337D01*
X142022585Y-81003337D01*
X142022586Y-81003337D01*
X142037562Y-81001365D01*
X142166294Y-80984417D01*
X142300210Y-80928948D01*
X142415206Y-80840708D01*
X142503446Y-80725712D01*
X142539644Y-80638321D01*
X142819029Y-80638321D01*
X142830534Y-80725712D01*
X142837949Y-80782029D01*
X142837950Y-80782033D01*
X142893416Y-80915943D01*
X142893417Y-80915945D01*
X142893418Y-80915946D01*
X142981658Y-81030942D01*
X143096654Y-81119182D01*
X143230570Y-81174651D01*
X143357559Y-81191369D01*
X143374278Y-81193571D01*
X143374279Y-81193571D01*
X143374280Y-81193571D01*
X143389256Y-81191599D01*
X143517988Y-81174651D01*
X143651904Y-81119182D01*
X143766900Y-81030942D01*
X143855140Y-80915946D01*
X143887293Y-80838321D01*
X149419029Y-80838321D01*
X149430960Y-80928948D01*
X149437949Y-80982029D01*
X149437950Y-80982033D01*
X149493416Y-81115943D01*
X149493417Y-81115945D01*
X149493418Y-81115946D01*
X149581658Y-81230942D01*
X149696654Y-81319182D01*
X149696655Y-81319182D01*
X149696656Y-81319183D01*
X149741292Y-81337671D01*
X149830570Y-81374651D01*
X149957559Y-81391369D01*
X149974278Y-81393571D01*
X149974279Y-81393571D01*
X149974280Y-81393571D01*
X149989256Y-81391599D01*
X150117988Y-81374651D01*
X150251904Y-81319182D01*
X150366900Y-81230942D01*
X150455140Y-81115946D01*
X150510609Y-80982030D01*
X150529529Y-80838321D01*
X150510609Y-80694612D01*
X150487293Y-80638321D01*
X168019029Y-80638321D01*
X168030534Y-80725712D01*
X168037949Y-80782029D01*
X168037950Y-80782033D01*
X168093416Y-80915943D01*
X168093417Y-80915945D01*
X168093418Y-80915946D01*
X168181658Y-81030942D01*
X168296654Y-81119182D01*
X168430570Y-81174651D01*
X168557559Y-81191369D01*
X168574278Y-81193571D01*
X168574279Y-81193571D01*
X168574280Y-81193571D01*
X168589256Y-81191599D01*
X168717988Y-81174651D01*
X168851904Y-81119182D01*
X168966900Y-81030942D01*
X169055140Y-80915946D01*
X169108003Y-80788321D01*
X179469029Y-80788321D01*
X179485831Y-80915946D01*
X179487949Y-80932029D01*
X179487950Y-80932033D01*
X179543416Y-81065943D01*
X179543417Y-81065945D01*
X179543418Y-81065946D01*
X179631658Y-81180942D01*
X179746654Y-81269182D01*
X179880570Y-81324651D01*
X180007559Y-81341369D01*
X180024278Y-81343571D01*
X180024279Y-81343571D01*
X180024280Y-81343571D01*
X180039256Y-81341599D01*
X180167988Y-81324651D01*
X180301904Y-81269182D01*
X180416900Y-81180942D01*
X180505140Y-81065946D01*
X180560609Y-80932030D01*
X180579529Y-80788321D01*
X180560609Y-80644612D01*
X180523629Y-80555334D01*
X180505141Y-80510698D01*
X180505140Y-80510697D01*
X180505140Y-80510696D01*
X180416900Y-80395700D01*
X180301904Y-80307460D01*
X180301903Y-80307459D01*
X180301901Y-80307458D01*
X180167991Y-80251992D01*
X180167989Y-80251991D01*
X180167988Y-80251991D01*
X180096133Y-80242531D01*
X180024280Y-80233071D01*
X180024278Y-80233071D01*
X179880570Y-80251991D01*
X179880566Y-80251992D01*
X179746656Y-80307458D01*
X179631658Y-80395700D01*
X179543416Y-80510698D01*
X179487950Y-80644608D01*
X179487949Y-80644612D01*
X179469029Y-80788321D01*
X169108003Y-80788321D01*
X169110609Y-80782030D01*
X169129529Y-80638321D01*
X169110609Y-80494612D01*
X169055140Y-80360696D01*
X168966900Y-80245700D01*
X168851904Y-80157460D01*
X168851903Y-80157459D01*
X168851901Y-80157458D01*
X168717991Y-80101992D01*
X168717989Y-80101991D01*
X168717988Y-80101991D01*
X168646133Y-80092531D01*
X168574280Y-80083071D01*
X168574278Y-80083071D01*
X168430570Y-80101991D01*
X168430566Y-80101992D01*
X168296656Y-80157458D01*
X168181658Y-80245700D01*
X168093416Y-80360698D01*
X168037950Y-80494608D01*
X168037949Y-80494612D01*
X168024921Y-80593571D01*
X168019029Y-80638321D01*
X150487293Y-80638321D01*
X150460920Y-80574650D01*
X150455141Y-80560698D01*
X150455140Y-80560697D01*
X150455140Y-80560696D01*
X150366900Y-80445700D01*
X150251904Y-80357460D01*
X150251903Y-80357459D01*
X150251901Y-80357458D01*
X150117991Y-80301992D01*
X150117989Y-80301991D01*
X150117988Y-80301991D01*
X150046133Y-80292531D01*
X149974280Y-80283071D01*
X149974278Y-80283071D01*
X149830570Y-80301991D01*
X149830566Y-80301992D01*
X149696656Y-80357458D01*
X149581658Y-80445700D01*
X149493416Y-80560698D01*
X149437950Y-80694608D01*
X149437949Y-80694612D01*
X149419029Y-80838321D01*
X143887293Y-80838321D01*
X143910609Y-80782030D01*
X143929529Y-80638321D01*
X143910609Y-80494612D01*
X143855140Y-80360696D01*
X143766900Y-80245700D01*
X143651904Y-80157460D01*
X143651903Y-80157459D01*
X143651901Y-80157458D01*
X143517991Y-80101992D01*
X143517989Y-80101991D01*
X143517988Y-80101991D01*
X143446133Y-80092531D01*
X143374280Y-80083071D01*
X143374278Y-80083071D01*
X143230570Y-80101991D01*
X143230566Y-80101992D01*
X143096656Y-80157458D01*
X142981658Y-80245700D01*
X142893416Y-80360698D01*
X142837950Y-80494608D01*
X142837949Y-80494612D01*
X142824921Y-80593571D01*
X142819029Y-80638321D01*
X142539644Y-80638321D01*
X142558915Y-80591796D01*
X142577835Y-80448087D01*
X142558915Y-80304378D01*
X142503446Y-80170462D01*
X142415206Y-80055466D01*
X142392862Y-80038321D01*
X163219029Y-80038321D01*
X163227411Y-80101991D01*
X163237949Y-80182029D01*
X163237950Y-80182033D01*
X163293416Y-80315943D01*
X163293417Y-80315945D01*
X163293418Y-80315946D01*
X163381658Y-80430942D01*
X163496654Y-80519182D01*
X163630570Y-80574651D01*
X163757559Y-80591369D01*
X163774278Y-80593571D01*
X163774279Y-80593571D01*
X163774280Y-80593571D01*
X163789256Y-80591599D01*
X163917988Y-80574651D01*
X164051904Y-80519182D01*
X164166900Y-80430942D01*
X164255140Y-80315946D01*
X164310609Y-80182030D01*
X164329529Y-80038321D01*
X164310609Y-79894612D01*
X164255140Y-79760696D01*
X164166900Y-79645700D01*
X164051904Y-79557460D01*
X164051903Y-79557459D01*
X164051901Y-79557458D01*
X163917991Y-79501992D01*
X163917989Y-79501991D01*
X163917988Y-79501991D01*
X163846133Y-79492531D01*
X163774280Y-79483071D01*
X163774278Y-79483071D01*
X163630570Y-79501991D01*
X163630566Y-79501992D01*
X163496656Y-79557458D01*
X163381658Y-79645700D01*
X163293416Y-79760698D01*
X163237950Y-79894608D01*
X163237949Y-79894612D01*
X163219029Y-80038321D01*
X142392862Y-80038321D01*
X142300210Y-79967226D01*
X142300209Y-79967225D01*
X142300207Y-79967224D01*
X142166297Y-79911758D01*
X142166295Y-79911757D01*
X142166294Y-79911757D01*
X142094439Y-79902297D01*
X142022586Y-79892837D01*
X142022584Y-79892837D01*
X141878876Y-79911757D01*
X141878872Y-79911758D01*
X141744962Y-79967224D01*
X141629964Y-80055466D01*
X141541722Y-80170464D01*
X141486256Y-80304374D01*
X141486255Y-80304378D01*
X141467335Y-80448086D01*
X127421099Y-80448086D01*
X127421099Y-78638320D01*
X134019029Y-78638320D01*
X134019029Y-78638321D01*
X134037949Y-78782029D01*
X134037950Y-78782033D01*
X134093416Y-78915943D01*
X134093417Y-78915945D01*
X134093418Y-78915946D01*
X134181658Y-79030942D01*
X134296654Y-79119182D01*
X134430570Y-79174651D01*
X134557559Y-79191369D01*
X134574278Y-79193571D01*
X134574279Y-79193571D01*
X134574280Y-79193571D01*
X134589256Y-79191599D01*
X134717988Y-79174651D01*
X134851904Y-79119182D01*
X134898793Y-79083202D01*
X134963961Y-79058008D01*
X135032406Y-79072046D01*
X135049762Y-79083201D01*
X135096654Y-79119182D01*
X135230570Y-79174651D01*
X135357559Y-79191369D01*
X135374278Y-79193571D01*
X135374279Y-79193571D01*
X135374280Y-79193571D01*
X135389256Y-79191599D01*
X135517988Y-79174651D01*
X135651904Y-79119182D01*
X135698793Y-79083202D01*
X135763961Y-79058008D01*
X135832406Y-79072046D01*
X135849762Y-79083201D01*
X135896654Y-79119182D01*
X136030570Y-79174651D01*
X136157559Y-79191369D01*
X136174278Y-79193571D01*
X136174279Y-79193571D01*
X136174280Y-79193571D01*
X136189256Y-79191599D01*
X136317988Y-79174651D01*
X136451904Y-79119182D01*
X136557284Y-79038321D01*
X154419029Y-79038321D01*
X154436977Y-79174650D01*
X154437949Y-79182029D01*
X154437950Y-79182033D01*
X154493416Y-79315943D01*
X154493417Y-79315945D01*
X154493418Y-79315946D01*
X154581658Y-79430942D01*
X154696654Y-79519182D01*
X154830570Y-79574651D01*
X154957559Y-79591369D01*
X154974278Y-79593571D01*
X154974279Y-79593571D01*
X154974280Y-79593571D01*
X154989256Y-79591599D01*
X155117988Y-79574651D01*
X155251904Y-79519182D01*
X155366900Y-79430942D01*
X155455140Y-79315946D01*
X155459718Y-79304891D01*
X155503558Y-79250491D01*
X155569852Y-79228425D01*
X155637551Y-79245704D01*
X155685162Y-79296840D01*
X155688832Y-79304874D01*
X155693418Y-79315946D01*
X155781658Y-79430942D01*
X155896654Y-79519182D01*
X156030570Y-79574651D01*
X156157559Y-79591369D01*
X156174278Y-79593571D01*
X156174279Y-79593571D01*
X156174280Y-79593571D01*
X156189256Y-79591599D01*
X156317988Y-79574651D01*
X156451904Y-79519182D01*
X156566900Y-79430942D01*
X156655140Y-79315946D01*
X156710609Y-79182030D01*
X156729529Y-79038321D01*
X156710609Y-78894612D01*
X156655140Y-78760696D01*
X156566900Y-78645700D01*
X156557282Y-78638320D01*
X170419029Y-78638320D01*
X170419029Y-78638321D01*
X170437949Y-78782029D01*
X170437950Y-78782033D01*
X170493416Y-78915943D01*
X170493417Y-78915945D01*
X170493418Y-78915946D01*
X170581658Y-79030942D01*
X170696654Y-79119182D01*
X170830570Y-79174651D01*
X170957559Y-79191369D01*
X170974278Y-79193571D01*
X170974279Y-79193571D01*
X170974280Y-79193571D01*
X170989256Y-79191599D01*
X171117988Y-79174651D01*
X171251904Y-79119182D01*
X171366900Y-79030942D01*
X171455140Y-78915946D01*
X171510609Y-78782030D01*
X171529529Y-78638321D01*
X171510609Y-78494612D01*
X171455140Y-78360696D01*
X171366900Y-78245700D01*
X171251904Y-78157460D01*
X171251903Y-78157459D01*
X171251901Y-78157458D01*
X171117991Y-78101992D01*
X171117989Y-78101991D01*
X171117988Y-78101991D01*
X171046133Y-78092531D01*
X170974280Y-78083071D01*
X170974278Y-78083071D01*
X170830570Y-78101991D01*
X170830566Y-78101992D01*
X170696656Y-78157458D01*
X170581658Y-78245700D01*
X170493416Y-78360698D01*
X170437950Y-78494608D01*
X170437949Y-78494612D01*
X170419029Y-78638320D01*
X156557282Y-78638320D01*
X156451904Y-78557460D01*
X156451899Y-78557458D01*
X156405201Y-78538115D01*
X156350798Y-78494274D01*
X156329715Y-78439739D01*
X156329528Y-78438323D01*
X156329529Y-78438321D01*
X156310609Y-78294612D01*
X156255140Y-78160696D01*
X156166900Y-78045700D01*
X156051904Y-77957460D01*
X156051903Y-77957459D01*
X156051901Y-77957458D01*
X155917991Y-77901992D01*
X155917989Y-77901991D01*
X155917988Y-77901991D01*
X155846133Y-77892531D01*
X155774280Y-77883071D01*
X155774278Y-77883071D01*
X155630570Y-77901991D01*
X155630566Y-77901992D01*
X155496656Y-77957458D01*
X155381658Y-78045700D01*
X155293416Y-78160698D01*
X155237950Y-78294608D01*
X155237949Y-78294613D01*
X155225253Y-78391043D01*
X155196986Y-78454940D01*
X155138661Y-78493410D01*
X155086129Y-78497796D01*
X154974281Y-78483071D01*
X154974278Y-78483071D01*
X154830570Y-78501991D01*
X154830566Y-78501992D01*
X154696656Y-78557458D01*
X154581658Y-78645700D01*
X154493416Y-78760698D01*
X154437950Y-78894608D01*
X154437949Y-78894612D01*
X154420001Y-79030941D01*
X154419029Y-79038321D01*
X136557284Y-79038321D01*
X136566900Y-79030942D01*
X136655140Y-78915946D01*
X136710609Y-78782030D01*
X136729529Y-78638321D01*
X136710609Y-78494612D01*
X136655140Y-78360696D01*
X136566900Y-78245700D01*
X136451904Y-78157460D01*
X136451903Y-78157459D01*
X136451901Y-78157458D01*
X136317991Y-78101992D01*
X136317989Y-78101991D01*
X136317988Y-78101991D01*
X136246133Y-78092531D01*
X136174280Y-78083071D01*
X136174278Y-78083071D01*
X136030570Y-78101991D01*
X136030566Y-78101992D01*
X135896655Y-78157459D01*
X135896653Y-78157460D01*
X135849765Y-78193439D01*
X135784596Y-78218633D01*
X135716151Y-78204595D01*
X135698793Y-78193439D01*
X135651904Y-78157460D01*
X135651902Y-78157459D01*
X135517991Y-78101992D01*
X135517989Y-78101991D01*
X135517988Y-78101991D01*
X135446133Y-78092531D01*
X135374280Y-78083071D01*
X135374278Y-78083071D01*
X135230570Y-78101991D01*
X135230566Y-78101992D01*
X135096655Y-78157459D01*
X135096653Y-78157460D01*
X135049765Y-78193439D01*
X134984596Y-78218633D01*
X134916151Y-78204595D01*
X134898793Y-78193439D01*
X134851904Y-78157460D01*
X134851902Y-78157459D01*
X134717991Y-78101992D01*
X134717989Y-78101991D01*
X134717988Y-78101991D01*
X134646133Y-78092531D01*
X134574280Y-78083071D01*
X134574278Y-78083071D01*
X134430570Y-78101991D01*
X134430566Y-78101992D01*
X134296656Y-78157458D01*
X134181658Y-78245700D01*
X134093416Y-78360698D01*
X134037950Y-78494608D01*
X134037949Y-78494612D01*
X134019029Y-78638320D01*
X127421099Y-78638320D01*
X127421099Y-76838320D01*
X141219029Y-76838320D01*
X141219029Y-76838321D01*
X141237949Y-76982029D01*
X141237950Y-76982033D01*
X141293416Y-77115943D01*
X141293417Y-77115945D01*
X141293418Y-77115946D01*
X141381658Y-77230942D01*
X141496654Y-77319182D01*
X141630570Y-77374651D01*
X141757559Y-77391369D01*
X141774278Y-77393571D01*
X141774279Y-77393571D01*
X141774280Y-77393571D01*
X141789256Y-77391599D01*
X141917988Y-77374651D01*
X142051904Y-77319182D01*
X142166900Y-77230942D01*
X142255140Y-77115946D01*
X142310609Y-76982030D01*
X142329529Y-76838321D01*
X142329529Y-76838320D01*
X146281029Y-76838320D01*
X146281029Y-76838321D01*
X146299949Y-76982029D01*
X146299950Y-76982033D01*
X146355416Y-77115943D01*
X146355417Y-77115945D01*
X146355418Y-77115946D01*
X146443658Y-77230942D01*
X146558654Y-77319182D01*
X146692570Y-77374651D01*
X146819559Y-77391369D01*
X146836278Y-77393571D01*
X146836279Y-77393571D01*
X146836280Y-77393571D01*
X146851256Y-77391599D01*
X146979988Y-77374651D01*
X147113904Y-77319182D01*
X147228900Y-77230942D01*
X147317140Y-77115946D01*
X147372609Y-76982030D01*
X147391529Y-76838321D01*
X147391529Y-76838320D01*
X169019029Y-76838320D01*
X169019029Y-76838321D01*
X169037949Y-76982029D01*
X169037950Y-76982033D01*
X169093416Y-77115943D01*
X169093417Y-77115945D01*
X169093418Y-77115946D01*
X169181658Y-77230942D01*
X169296654Y-77319182D01*
X169430570Y-77374651D01*
X169557559Y-77391369D01*
X169574278Y-77393571D01*
X169574279Y-77393571D01*
X169574280Y-77393571D01*
X169589256Y-77391599D01*
X169717988Y-77374651D01*
X169851904Y-77319182D01*
X169966900Y-77230942D01*
X170055140Y-77115946D01*
X170110609Y-76982030D01*
X170129529Y-76838321D01*
X170110609Y-76694612D01*
X170055140Y-76560696D01*
X169966900Y-76445700D01*
X169851904Y-76357460D01*
X169851903Y-76357459D01*
X169851901Y-76357458D01*
X169717991Y-76301992D01*
X169717989Y-76301991D01*
X169717988Y-76301991D01*
X169646133Y-76292531D01*
X169574280Y-76283071D01*
X169574278Y-76283071D01*
X169430570Y-76301991D01*
X169430566Y-76301992D01*
X169296656Y-76357458D01*
X169181658Y-76445700D01*
X169093416Y-76560698D01*
X169037950Y-76694608D01*
X169037949Y-76694612D01*
X169019029Y-76838320D01*
X147391529Y-76838320D01*
X147372609Y-76694612D01*
X147317140Y-76560696D01*
X147228900Y-76445700D01*
X147113904Y-76357460D01*
X147113903Y-76357459D01*
X147113901Y-76357458D01*
X146979991Y-76301992D01*
X146979989Y-76301991D01*
X146979988Y-76301991D01*
X146908133Y-76292531D01*
X146836280Y-76283071D01*
X146836278Y-76283071D01*
X146692570Y-76301991D01*
X146692566Y-76301992D01*
X146558656Y-76357458D01*
X146443658Y-76445700D01*
X146355416Y-76560698D01*
X146299950Y-76694608D01*
X146299949Y-76694612D01*
X146281029Y-76838320D01*
X142329529Y-76838320D01*
X142310609Y-76694612D01*
X142255140Y-76560696D01*
X142166900Y-76445700D01*
X142051904Y-76357460D01*
X142051903Y-76357459D01*
X142051901Y-76357458D01*
X141917991Y-76301992D01*
X141917989Y-76301991D01*
X141917988Y-76301991D01*
X141846133Y-76292531D01*
X141774280Y-76283071D01*
X141774278Y-76283071D01*
X141630570Y-76301991D01*
X141630566Y-76301992D01*
X141496656Y-76357458D01*
X141381658Y-76445700D01*
X141293416Y-76560698D01*
X141237950Y-76694608D01*
X141237949Y-76694612D01*
X141219029Y-76838320D01*
X127421099Y-76838320D01*
X127421099Y-73705550D01*
X128695099Y-73705550D01*
X128695099Y-73928451D01*
X128695100Y-73928467D01*
X128724193Y-74149453D01*
X128724194Y-74149458D01*
X128724195Y-74149464D01*
X128764635Y-74300388D01*
X128781889Y-74364781D01*
X128781892Y-74364791D01*
X128836225Y-74495962D01*
X128867194Y-74570727D01*
X128978651Y-74763775D01*
X128978656Y-74763781D01*
X128978657Y-74763783D01*
X129114350Y-74940623D01*
X129114356Y-74940630D01*
X129271969Y-75098243D01*
X129271975Y-75098248D01*
X129448825Y-75233949D01*
X129641873Y-75345406D01*
X129847818Y-75430711D01*
X130063136Y-75488405D01*
X130284142Y-75517501D01*
X130284149Y-75517501D01*
X130507049Y-75517501D01*
X130507056Y-75517501D01*
X130728062Y-75488405D01*
X130943380Y-75430711D01*
X131149325Y-75345406D01*
X131342373Y-75233949D01*
X131519223Y-75098248D01*
X131676846Y-74940625D01*
X131812547Y-74763775D01*
X131924004Y-74570727D01*
X132009309Y-74364782D01*
X132067003Y-74149464D01*
X132096099Y-73928458D01*
X132096099Y-73705544D01*
X132067003Y-73484538D01*
X132009309Y-73269220D01*
X131924004Y-73063275D01*
X131812547Y-72870227D01*
X131741103Y-72777119D01*
X131676847Y-72693378D01*
X131676841Y-72693371D01*
X131638471Y-72655001D01*
X134354946Y-72655001D01*
X134375502Y-72850576D01*
X134375503Y-72850578D01*
X134436267Y-73037593D01*
X134436270Y-73037599D01*
X134534594Y-73207902D01*
X134666173Y-73354037D01*
X134666176Y-73354039D01*
X134666179Y-73354042D01*
X134792335Y-73445700D01*
X134825272Y-73469630D01*
X135004916Y-73549613D01*
X135004921Y-73549615D01*
X135197274Y-73590501D01*
X135359176Y-73590501D01*
X135426215Y-73610186D01*
X135471970Y-73662990D01*
X135481914Y-73732148D01*
X135481654Y-73733863D01*
X135465099Y-73838390D01*
X135465099Y-74011612D01*
X135481623Y-74115943D01*
X135481649Y-74116103D01*
X135472694Y-74185396D01*
X135427698Y-74238848D01*
X135360947Y-74259488D01*
X135359176Y-74259501D01*
X135197274Y-74259501D01*
X135004921Y-74300386D01*
X135004916Y-74300388D01*
X134825273Y-74380371D01*
X134825268Y-74380374D01*
X134666180Y-74495958D01*
X134666173Y-74495964D01*
X134534594Y-74642099D01*
X134436270Y-74812402D01*
X134436267Y-74812408D01*
X134375503Y-74999423D01*
X134375502Y-74999425D01*
X134354946Y-75195001D01*
X134375502Y-75390576D01*
X134375503Y-75390578D01*
X134436267Y-75577593D01*
X134436270Y-75577599D01*
X134534594Y-75747902D01*
X134666173Y-75894037D01*
X134666176Y-75894039D01*
X134666179Y-75894042D01*
X134824669Y-76009192D01*
X134825272Y-76009630D01*
X135004916Y-76089613D01*
X135004921Y-76089615D01*
X135197274Y-76130501D01*
X135393924Y-76130501D01*
X135586277Y-76089615D01*
X135765926Y-76009630D01*
X135925019Y-75894042D01*
X136056603Y-75747903D01*
X136154928Y-75577599D01*
X136215696Y-75390574D01*
X136236252Y-75195001D01*
X136230917Y-75144247D01*
X136243486Y-75075520D01*
X136291218Y-75024495D01*
X136358958Y-75007377D01*
X136373619Y-75008812D01*
X136478988Y-75025501D01*
X136478990Y-75025501D01*
X136652208Y-75025501D01*
X136652210Y-75025501D01*
X136757564Y-75008814D01*
X136826854Y-75017768D01*
X136880306Y-75062764D01*
X136900946Y-75129515D01*
X136900280Y-75144247D01*
X136894946Y-75194999D01*
X136915502Y-75390576D01*
X136915503Y-75390578D01*
X136976267Y-75577593D01*
X136976270Y-75577599D01*
X137074594Y-75747902D01*
X137206173Y-75894037D01*
X137206176Y-75894039D01*
X137206179Y-75894042D01*
X137364669Y-76009192D01*
X137365272Y-76009630D01*
X137544916Y-76089613D01*
X137544921Y-76089615D01*
X137737274Y-76130501D01*
X137933924Y-76130501D01*
X138126277Y-76089615D01*
X138305926Y-76009630D01*
X138465019Y-75894042D01*
X138596603Y-75747903D01*
X138694928Y-75577599D01*
X138755696Y-75390574D01*
X138776252Y-75195001D01*
X139434946Y-75195001D01*
X139455502Y-75390576D01*
X139455503Y-75390578D01*
X139516267Y-75577593D01*
X139516270Y-75577599D01*
X139614594Y-75747902D01*
X139746173Y-75894037D01*
X139746176Y-75894039D01*
X139746179Y-75894042D01*
X139904669Y-76009192D01*
X139905272Y-76009630D01*
X140084916Y-76089613D01*
X140084921Y-76089615D01*
X140277274Y-76130501D01*
X140473924Y-76130501D01*
X140666277Y-76089615D01*
X140845926Y-76009630D01*
X141005019Y-75894042D01*
X141136603Y-75747903D01*
X141234928Y-75577599D01*
X141295696Y-75390574D01*
X141316252Y-75195001D01*
X141974946Y-75195001D01*
X141995502Y-75390576D01*
X141995503Y-75390578D01*
X142056267Y-75577593D01*
X142056270Y-75577599D01*
X142154594Y-75747902D01*
X142286173Y-75894037D01*
X142286176Y-75894039D01*
X142286179Y-75894042D01*
X142444669Y-76009192D01*
X142445272Y-76009630D01*
X142624916Y-76089613D01*
X142624921Y-76089615D01*
X142817274Y-76130501D01*
X143013924Y-76130501D01*
X143206277Y-76089615D01*
X143385926Y-76009630D01*
X143545019Y-75894042D01*
X143676603Y-75747903D01*
X143774928Y-75577599D01*
X143835696Y-75390574D01*
X143856252Y-75195001D01*
X143835696Y-74999428D01*
X143818011Y-74945000D01*
X144553712Y-74945000D01*
X144553712Y-74945001D01*
X145011039Y-74945001D01*
X144980354Y-74998148D01*
X144945599Y-75127858D01*
X144945599Y-75262144D01*
X144980354Y-75391854D01*
X145011039Y-75445001D01*
X144553712Y-75445001D01*
X144596726Y-75577388D01*
X144596729Y-75577394D01*
X144695001Y-75747605D01*
X144826515Y-75893668D01*
X144826517Y-75893670D01*
X144985519Y-76009192D01*
X145165078Y-76089137D01*
X145205598Y-76097750D01*
X145205599Y-76097750D01*
X145205599Y-75639561D01*
X145258746Y-75670246D01*
X145388456Y-75705001D01*
X145522742Y-75705001D01*
X145652452Y-75670246D01*
X145705599Y-75639561D01*
X145705599Y-76097750D01*
X145746119Y-76089137D01*
X145925678Y-76009192D01*
X146084680Y-75893670D01*
X146084682Y-75893668D01*
X146216196Y-75747605D01*
X146314468Y-75577394D01*
X146314471Y-75577388D01*
X146357486Y-75445001D01*
X145900159Y-75445001D01*
X145930844Y-75391854D01*
X145965599Y-75262144D01*
X145965599Y-75195001D01*
X147054946Y-75195001D01*
X147075502Y-75390576D01*
X147075503Y-75390578D01*
X147136267Y-75577593D01*
X147136270Y-75577599D01*
X147234594Y-75747902D01*
X147366173Y-75894037D01*
X147366176Y-75894039D01*
X147366179Y-75894042D01*
X147524669Y-76009192D01*
X147525272Y-76009630D01*
X147704916Y-76089613D01*
X147704921Y-76089615D01*
X147897274Y-76130501D01*
X148093924Y-76130501D01*
X148286277Y-76089615D01*
X148465926Y-76009630D01*
X148625019Y-75894042D01*
X148756603Y-75747903D01*
X148854928Y-75577599D01*
X148915696Y-75390574D01*
X148936252Y-75195001D01*
X149594946Y-75195001D01*
X149615502Y-75390576D01*
X149615503Y-75390578D01*
X149676267Y-75577593D01*
X149676270Y-75577599D01*
X149774594Y-75747902D01*
X149906173Y-75894037D01*
X149906176Y-75894039D01*
X149906179Y-75894042D01*
X150064669Y-76009192D01*
X150065272Y-76009630D01*
X150244916Y-76089613D01*
X150244921Y-76089615D01*
X150437274Y-76130501D01*
X150633924Y-76130501D01*
X150826277Y-76089615D01*
X151005926Y-76009630D01*
X151165019Y-75894042D01*
X151296603Y-75747903D01*
X151394928Y-75577599D01*
X151455696Y-75390574D01*
X151476252Y-75195001D01*
X152134946Y-75195001D01*
X152155502Y-75390576D01*
X152155503Y-75390578D01*
X152216267Y-75577593D01*
X152216270Y-75577599D01*
X152314594Y-75747902D01*
X152446173Y-75894037D01*
X152446176Y-75894039D01*
X152446179Y-75894042D01*
X152604669Y-76009192D01*
X152605272Y-76009630D01*
X152784916Y-76089613D01*
X152784921Y-76089615D01*
X152977274Y-76130501D01*
X153173924Y-76130501D01*
X153366277Y-76089615D01*
X153545926Y-76009630D01*
X153705019Y-75894042D01*
X153836603Y-75747903D01*
X153934928Y-75577599D01*
X153995696Y-75390574D01*
X154016252Y-75195001D01*
X154674946Y-75195001D01*
X154695502Y-75390576D01*
X154695503Y-75390578D01*
X154756267Y-75577593D01*
X154756270Y-75577599D01*
X154854594Y-75747902D01*
X154986173Y-75894037D01*
X154986176Y-75894039D01*
X154986179Y-75894042D01*
X155144669Y-76009192D01*
X155145272Y-76009630D01*
X155324916Y-76089613D01*
X155324921Y-76089615D01*
X155517274Y-76130501D01*
X155713924Y-76130501D01*
X155906277Y-76089615D01*
X156085926Y-76009630D01*
X156245019Y-75894042D01*
X156376603Y-75747903D01*
X156474928Y-75577599D01*
X156535696Y-75390574D01*
X156556252Y-75195001D01*
X157214946Y-75195001D01*
X157235502Y-75390576D01*
X157235503Y-75390578D01*
X157296267Y-75577593D01*
X157296270Y-75577599D01*
X157394594Y-75747902D01*
X157526173Y-75894037D01*
X157526176Y-75894039D01*
X157526179Y-75894042D01*
X157684669Y-76009192D01*
X157685272Y-76009630D01*
X157864916Y-76089613D01*
X157864921Y-76089615D01*
X158057274Y-76130501D01*
X158253924Y-76130501D01*
X158446277Y-76089615D01*
X158625926Y-76009630D01*
X158785019Y-75894042D01*
X158916603Y-75747903D01*
X159014928Y-75577599D01*
X159075696Y-75390574D01*
X159096252Y-75195001D01*
X159754946Y-75195001D01*
X159775502Y-75390576D01*
X159775503Y-75390578D01*
X159836267Y-75577593D01*
X159836270Y-75577599D01*
X159934594Y-75747902D01*
X160066173Y-75894037D01*
X160066176Y-75894039D01*
X160066179Y-75894042D01*
X160224669Y-76009192D01*
X160225272Y-76009630D01*
X160404916Y-76089613D01*
X160404921Y-76089615D01*
X160597274Y-76130501D01*
X160793924Y-76130501D01*
X160986277Y-76089615D01*
X161165926Y-76009630D01*
X161325019Y-75894042D01*
X161456603Y-75747903D01*
X161554928Y-75577599D01*
X161615696Y-75390574D01*
X161636252Y-75195001D01*
X162294946Y-75195001D01*
X162315502Y-75390576D01*
X162315503Y-75390578D01*
X162376267Y-75577593D01*
X162376270Y-75577599D01*
X162474594Y-75747902D01*
X162606173Y-75894037D01*
X162606176Y-75894039D01*
X162606179Y-75894042D01*
X162764669Y-76009192D01*
X162765272Y-76009630D01*
X162944916Y-76089613D01*
X162944921Y-76089615D01*
X163137274Y-76130501D01*
X163333924Y-76130501D01*
X163526277Y-76089615D01*
X163705926Y-76009630D01*
X163865019Y-75894042D01*
X163996603Y-75747903D01*
X164094928Y-75577599D01*
X164155696Y-75390574D01*
X164176252Y-75195001D01*
X164155696Y-74999428D01*
X164138011Y-74945000D01*
X164873712Y-74945000D01*
X164873712Y-74945001D01*
X165331039Y-74945001D01*
X165300354Y-74998148D01*
X165265599Y-75127858D01*
X165265599Y-75262144D01*
X165300354Y-75391854D01*
X165331039Y-75445001D01*
X164873712Y-75445001D01*
X164916726Y-75577388D01*
X164916729Y-75577394D01*
X165015001Y-75747605D01*
X165146515Y-75893668D01*
X165146517Y-75893670D01*
X165305519Y-76009192D01*
X165485078Y-76089137D01*
X165525599Y-76097750D01*
X165525599Y-75639561D01*
X165578746Y-75670246D01*
X165708456Y-75705001D01*
X165842742Y-75705001D01*
X165972452Y-75670246D01*
X166025599Y-75639561D01*
X166025599Y-76097750D01*
X166066119Y-76089137D01*
X166245678Y-76009192D01*
X166404680Y-75893670D01*
X166404682Y-75893668D01*
X166536196Y-75747605D01*
X166634468Y-75577394D01*
X166634471Y-75577388D01*
X166677486Y-75445001D01*
X166220159Y-75445001D01*
X166250844Y-75391854D01*
X166285599Y-75262144D01*
X166285599Y-75195001D01*
X167374946Y-75195001D01*
X167395502Y-75390576D01*
X167395503Y-75390578D01*
X167456267Y-75577593D01*
X167456270Y-75577599D01*
X167554594Y-75747902D01*
X167686173Y-75894037D01*
X167686176Y-75894039D01*
X167686179Y-75894042D01*
X167844669Y-76009192D01*
X167845272Y-76009630D01*
X168024916Y-76089613D01*
X168024921Y-76089615D01*
X168217274Y-76130501D01*
X168413924Y-76130501D01*
X168606277Y-76089615D01*
X168785926Y-76009630D01*
X168945019Y-75894042D01*
X169076603Y-75747903D01*
X169174928Y-75577599D01*
X169235696Y-75390574D01*
X169256252Y-75195001D01*
X169914946Y-75195001D01*
X169935502Y-75390576D01*
X169935503Y-75390578D01*
X169996267Y-75577593D01*
X169996270Y-75577599D01*
X170094594Y-75747902D01*
X170226173Y-75894037D01*
X170226176Y-75894039D01*
X170226179Y-75894042D01*
X170384669Y-76009192D01*
X170385272Y-76009630D01*
X170564916Y-76089613D01*
X170564921Y-76089615D01*
X170757274Y-76130501D01*
X170953924Y-76130501D01*
X171146277Y-76089615D01*
X171325926Y-76009630D01*
X171485019Y-75894042D01*
X171616603Y-75747903D01*
X171714928Y-75577599D01*
X171775696Y-75390574D01*
X171796252Y-75195001D01*
X172454946Y-75195001D01*
X172475502Y-75390576D01*
X172475503Y-75390578D01*
X172536267Y-75577593D01*
X172536270Y-75577599D01*
X172634594Y-75747902D01*
X172766173Y-75894037D01*
X172766176Y-75894039D01*
X172766179Y-75894042D01*
X172924669Y-76009192D01*
X172925272Y-76009630D01*
X173104916Y-76089613D01*
X173104921Y-76089615D01*
X173297274Y-76130501D01*
X173493924Y-76130501D01*
X173686277Y-76089615D01*
X173865926Y-76009630D01*
X174025019Y-75894042D01*
X174156603Y-75747903D01*
X174254928Y-75577599D01*
X174315696Y-75390574D01*
X174336252Y-75195001D01*
X174994946Y-75195001D01*
X175015502Y-75390576D01*
X175015503Y-75390578D01*
X175076267Y-75577593D01*
X175076270Y-75577599D01*
X175174594Y-75747902D01*
X175306173Y-75894037D01*
X175306176Y-75894039D01*
X175306179Y-75894042D01*
X175464669Y-76009192D01*
X175465272Y-76009630D01*
X175644916Y-76089613D01*
X175644921Y-76089615D01*
X175837274Y-76130501D01*
X176033924Y-76130501D01*
X176226277Y-76089615D01*
X176405926Y-76009630D01*
X176565019Y-75894042D01*
X176696603Y-75747903D01*
X176794928Y-75577599D01*
X176855696Y-75390574D01*
X176876252Y-75195001D01*
X177534946Y-75195001D01*
X177555502Y-75390576D01*
X177555503Y-75390578D01*
X177616267Y-75577593D01*
X177616270Y-75577599D01*
X177714594Y-75747902D01*
X177846173Y-75894037D01*
X177846176Y-75894039D01*
X177846179Y-75894042D01*
X178004669Y-76009192D01*
X178005272Y-76009630D01*
X178184916Y-76089613D01*
X178184921Y-76089615D01*
X178377274Y-76130501D01*
X178573924Y-76130501D01*
X178766277Y-76089615D01*
X178945926Y-76009630D01*
X179105019Y-75894042D01*
X179236603Y-75747903D01*
X179334928Y-75577599D01*
X179395696Y-75390574D01*
X179416252Y-75195001D01*
X179395696Y-74999428D01*
X179357494Y-74881854D01*
X179334930Y-74812408D01*
X179334927Y-74812402D01*
X179306852Y-74763775D01*
X179236603Y-74642099D01*
X179236450Y-74641929D01*
X179105024Y-74495964D01*
X179105021Y-74495962D01*
X179105020Y-74495961D01*
X179105019Y-74495960D01*
X178964093Y-74393571D01*
X178945925Y-74380371D01*
X178766281Y-74300388D01*
X178766276Y-74300386D01*
X178573924Y-74259501D01*
X178377274Y-74259501D01*
X178184921Y-74300386D01*
X178184916Y-74300388D01*
X178005273Y-74380371D01*
X178005268Y-74380374D01*
X177846180Y-74495958D01*
X177846173Y-74495964D01*
X177714594Y-74642099D01*
X177616270Y-74812402D01*
X177616267Y-74812408D01*
X177555503Y-74999423D01*
X177555502Y-74999425D01*
X177534946Y-75195001D01*
X176876252Y-75195001D01*
X176855696Y-74999428D01*
X176817494Y-74881854D01*
X176794930Y-74812408D01*
X176794927Y-74812402D01*
X176766852Y-74763775D01*
X176696603Y-74642099D01*
X176696450Y-74641929D01*
X176565024Y-74495964D01*
X176565021Y-74495962D01*
X176565020Y-74495961D01*
X176565019Y-74495960D01*
X176424093Y-74393571D01*
X176405925Y-74380371D01*
X176226281Y-74300388D01*
X176226276Y-74300386D01*
X176033924Y-74259501D01*
X175837274Y-74259501D01*
X175644921Y-74300386D01*
X175644916Y-74300388D01*
X175465273Y-74380371D01*
X175465268Y-74380374D01*
X175306180Y-74495958D01*
X175306173Y-74495964D01*
X175174594Y-74642099D01*
X175076270Y-74812402D01*
X175076267Y-74812408D01*
X175015503Y-74999423D01*
X175015502Y-74999425D01*
X174994946Y-75195001D01*
X174336252Y-75195001D01*
X174315696Y-74999428D01*
X174277494Y-74881854D01*
X174254930Y-74812408D01*
X174254927Y-74812402D01*
X174226852Y-74763775D01*
X174156603Y-74642099D01*
X174156450Y-74641929D01*
X174025024Y-74495964D01*
X174025021Y-74495962D01*
X174025020Y-74495961D01*
X174025019Y-74495960D01*
X173884093Y-74393571D01*
X173865925Y-74380371D01*
X173686281Y-74300388D01*
X173686276Y-74300386D01*
X173493924Y-74259501D01*
X173297274Y-74259501D01*
X173104921Y-74300386D01*
X173104916Y-74300388D01*
X172925273Y-74380371D01*
X172925268Y-74380374D01*
X172766180Y-74495958D01*
X172766173Y-74495964D01*
X172634594Y-74642099D01*
X172536270Y-74812402D01*
X172536267Y-74812408D01*
X172475503Y-74999423D01*
X172475502Y-74999425D01*
X172454946Y-75195001D01*
X171796252Y-75195001D01*
X171775696Y-74999428D01*
X171737494Y-74881854D01*
X171714930Y-74812408D01*
X171714927Y-74812402D01*
X171686852Y-74763775D01*
X171616603Y-74642099D01*
X171616450Y-74641929D01*
X171485024Y-74495964D01*
X171485021Y-74495962D01*
X171485020Y-74495961D01*
X171485019Y-74495960D01*
X171344093Y-74393571D01*
X171325925Y-74380371D01*
X171146281Y-74300388D01*
X171146276Y-74300386D01*
X170953924Y-74259501D01*
X170757274Y-74259501D01*
X170564921Y-74300386D01*
X170564916Y-74300388D01*
X170385273Y-74380371D01*
X170385268Y-74380374D01*
X170226180Y-74495958D01*
X170226173Y-74495964D01*
X170094594Y-74642099D01*
X169996270Y-74812402D01*
X169996267Y-74812408D01*
X169935503Y-74999423D01*
X169935502Y-74999425D01*
X169914946Y-75195001D01*
X169256252Y-75195001D01*
X169235696Y-74999428D01*
X169197494Y-74881854D01*
X169174930Y-74812408D01*
X169174927Y-74812402D01*
X169146852Y-74763775D01*
X169076603Y-74642099D01*
X169076450Y-74641929D01*
X168945024Y-74495964D01*
X168945021Y-74495962D01*
X168945020Y-74495961D01*
X168945019Y-74495960D01*
X168804093Y-74393571D01*
X168785925Y-74380371D01*
X168606281Y-74300388D01*
X168606276Y-74300386D01*
X168413924Y-74259501D01*
X168217274Y-74259501D01*
X168024921Y-74300386D01*
X168024916Y-74300388D01*
X167845273Y-74380371D01*
X167845268Y-74380374D01*
X167686180Y-74495958D01*
X167686173Y-74495964D01*
X167554594Y-74642099D01*
X167456270Y-74812402D01*
X167456267Y-74812408D01*
X167395503Y-74999423D01*
X167395502Y-74999425D01*
X167374946Y-75195001D01*
X166285599Y-75195001D01*
X166285599Y-75127858D01*
X166250844Y-74998148D01*
X166220159Y-74945001D01*
X166677486Y-74945001D01*
X166677485Y-74945000D01*
X166634471Y-74812613D01*
X166634468Y-74812607D01*
X166536196Y-74642396D01*
X166404682Y-74496333D01*
X166404680Y-74496331D01*
X166245678Y-74380809D01*
X166245673Y-74380807D01*
X166066123Y-74300865D01*
X166025599Y-74292250D01*
X166025599Y-74750440D01*
X165972452Y-74719756D01*
X165842742Y-74685001D01*
X165708456Y-74685001D01*
X165578746Y-74719756D01*
X165525599Y-74750440D01*
X165525599Y-74292251D01*
X165525598Y-74292250D01*
X165485075Y-74300865D01*
X165485074Y-74300865D01*
X165305524Y-74380807D01*
X165305519Y-74380809D01*
X165146517Y-74496331D01*
X165146515Y-74496333D01*
X165015001Y-74642396D01*
X164916729Y-74812607D01*
X164916726Y-74812613D01*
X164873712Y-74945000D01*
X164138011Y-74945000D01*
X164117494Y-74881854D01*
X164094930Y-74812408D01*
X164094927Y-74812402D01*
X164066852Y-74763775D01*
X163996603Y-74642099D01*
X163996450Y-74641929D01*
X163865024Y-74495964D01*
X163865021Y-74495962D01*
X163865020Y-74495961D01*
X163865019Y-74495960D01*
X163724093Y-74393571D01*
X163705925Y-74380371D01*
X163526281Y-74300388D01*
X163526276Y-74300386D01*
X163333924Y-74259501D01*
X163137274Y-74259501D01*
X162944921Y-74300386D01*
X162944916Y-74300388D01*
X162765273Y-74380371D01*
X162765268Y-74380374D01*
X162606180Y-74495958D01*
X162606173Y-74495964D01*
X162474594Y-74642099D01*
X162376270Y-74812402D01*
X162376267Y-74812408D01*
X162315503Y-74999423D01*
X162315502Y-74999425D01*
X162294946Y-75195001D01*
X161636252Y-75195001D01*
X161615696Y-74999428D01*
X161577494Y-74881854D01*
X161554930Y-74812408D01*
X161554927Y-74812402D01*
X161526852Y-74763775D01*
X161456603Y-74642099D01*
X161456450Y-74641929D01*
X161325024Y-74495964D01*
X161325021Y-74495962D01*
X161325020Y-74495961D01*
X161325019Y-74495960D01*
X161184093Y-74393571D01*
X161165925Y-74380371D01*
X160986281Y-74300388D01*
X160986276Y-74300386D01*
X160793924Y-74259501D01*
X160597274Y-74259501D01*
X160404921Y-74300386D01*
X160404916Y-74300388D01*
X160225273Y-74380371D01*
X160225268Y-74380374D01*
X160066180Y-74495958D01*
X160066173Y-74495964D01*
X159934594Y-74642099D01*
X159836270Y-74812402D01*
X159836267Y-74812408D01*
X159775503Y-74999423D01*
X159775502Y-74999425D01*
X159754946Y-75195001D01*
X159096252Y-75195001D01*
X159075696Y-74999428D01*
X159037494Y-74881854D01*
X159014930Y-74812408D01*
X159014927Y-74812402D01*
X158986852Y-74763775D01*
X158916603Y-74642099D01*
X158916450Y-74641929D01*
X158785024Y-74495964D01*
X158785021Y-74495962D01*
X158785020Y-74495961D01*
X158785019Y-74495960D01*
X158644093Y-74393571D01*
X158625925Y-74380371D01*
X158446281Y-74300388D01*
X158446276Y-74300386D01*
X158253924Y-74259501D01*
X158057274Y-74259501D01*
X157864921Y-74300386D01*
X157864916Y-74300388D01*
X157685273Y-74380371D01*
X157685268Y-74380374D01*
X157526180Y-74495958D01*
X157526173Y-74495964D01*
X157394594Y-74642099D01*
X157296270Y-74812402D01*
X157296267Y-74812408D01*
X157235503Y-74999423D01*
X157235502Y-74999425D01*
X157214946Y-75195001D01*
X156556252Y-75195001D01*
X156535696Y-74999428D01*
X156497494Y-74881854D01*
X156474930Y-74812408D01*
X156474927Y-74812402D01*
X156446852Y-74763775D01*
X156376603Y-74642099D01*
X156376450Y-74641929D01*
X156245024Y-74495964D01*
X156245021Y-74495962D01*
X156245020Y-74495961D01*
X156245019Y-74495960D01*
X156104093Y-74393571D01*
X156085925Y-74380371D01*
X155906281Y-74300388D01*
X155906276Y-74300386D01*
X155713924Y-74259501D01*
X155517274Y-74259501D01*
X155324921Y-74300386D01*
X155324916Y-74300388D01*
X155145273Y-74380371D01*
X155145268Y-74380374D01*
X154986180Y-74495958D01*
X154986173Y-74495964D01*
X154854594Y-74642099D01*
X154756270Y-74812402D01*
X154756267Y-74812408D01*
X154695503Y-74999423D01*
X154695502Y-74999425D01*
X154674946Y-75195001D01*
X154016252Y-75195001D01*
X153995696Y-74999428D01*
X153957494Y-74881854D01*
X153934930Y-74812408D01*
X153934927Y-74812402D01*
X153906852Y-74763775D01*
X153836603Y-74642099D01*
X153836450Y-74641929D01*
X153705024Y-74495964D01*
X153705021Y-74495962D01*
X153705020Y-74495961D01*
X153705019Y-74495960D01*
X153564093Y-74393571D01*
X153545925Y-74380371D01*
X153366281Y-74300388D01*
X153366276Y-74300386D01*
X153173924Y-74259501D01*
X152977274Y-74259501D01*
X152784921Y-74300386D01*
X152784916Y-74300388D01*
X152605273Y-74380371D01*
X152605268Y-74380374D01*
X152446180Y-74495958D01*
X152446173Y-74495964D01*
X152314594Y-74642099D01*
X152216270Y-74812402D01*
X152216267Y-74812408D01*
X152155503Y-74999423D01*
X152155502Y-74999425D01*
X152134946Y-75195001D01*
X151476252Y-75195001D01*
X151455696Y-74999428D01*
X151417494Y-74881854D01*
X151394930Y-74812408D01*
X151394927Y-74812402D01*
X151366852Y-74763775D01*
X151296603Y-74642099D01*
X151296450Y-74641929D01*
X151165024Y-74495964D01*
X151165021Y-74495962D01*
X151165020Y-74495961D01*
X151165019Y-74495960D01*
X151024093Y-74393571D01*
X151005925Y-74380371D01*
X150826281Y-74300388D01*
X150826276Y-74300386D01*
X150633924Y-74259501D01*
X150437274Y-74259501D01*
X150244921Y-74300386D01*
X150244916Y-74300388D01*
X150065273Y-74380371D01*
X150065268Y-74380374D01*
X149906180Y-74495958D01*
X149906173Y-74495964D01*
X149774594Y-74642099D01*
X149676270Y-74812402D01*
X149676267Y-74812408D01*
X149615503Y-74999423D01*
X149615502Y-74999425D01*
X149594946Y-75195001D01*
X148936252Y-75195001D01*
X148915696Y-74999428D01*
X148877494Y-74881854D01*
X148854930Y-74812408D01*
X148854927Y-74812402D01*
X148826852Y-74763775D01*
X148756603Y-74642099D01*
X148756450Y-74641929D01*
X148625024Y-74495964D01*
X148625021Y-74495962D01*
X148625020Y-74495961D01*
X148625019Y-74495960D01*
X148484093Y-74393571D01*
X148465925Y-74380371D01*
X148286281Y-74300388D01*
X148286276Y-74300386D01*
X148093924Y-74259501D01*
X147897274Y-74259501D01*
X147704921Y-74300386D01*
X147704916Y-74300388D01*
X147525273Y-74380371D01*
X147525268Y-74380374D01*
X147366180Y-74495958D01*
X147366173Y-74495964D01*
X147234594Y-74642099D01*
X147136270Y-74812402D01*
X147136267Y-74812408D01*
X147075503Y-74999423D01*
X147075502Y-74999425D01*
X147054946Y-75195001D01*
X145965599Y-75195001D01*
X145965599Y-75127858D01*
X145930844Y-74998148D01*
X145900159Y-74945001D01*
X146357486Y-74945001D01*
X146357485Y-74945000D01*
X146314471Y-74812613D01*
X146314468Y-74812607D01*
X146216196Y-74642396D01*
X146084682Y-74496333D01*
X146084680Y-74496331D01*
X145925678Y-74380809D01*
X145925673Y-74380807D01*
X145746123Y-74300865D01*
X145705599Y-74292250D01*
X145705599Y-74750440D01*
X145652452Y-74719756D01*
X145522742Y-74685001D01*
X145388456Y-74685001D01*
X145258746Y-74719756D01*
X145205599Y-74750440D01*
X145205599Y-74292251D01*
X145205598Y-74292250D01*
X145165075Y-74300865D01*
X145165074Y-74300865D01*
X144985524Y-74380807D01*
X144985519Y-74380809D01*
X144826517Y-74496331D01*
X144826515Y-74496333D01*
X144695001Y-74642396D01*
X144596729Y-74812607D01*
X144596726Y-74812613D01*
X144553712Y-74945000D01*
X143818011Y-74945000D01*
X143797494Y-74881854D01*
X143774930Y-74812408D01*
X143774927Y-74812402D01*
X143746852Y-74763775D01*
X143676603Y-74642099D01*
X143676450Y-74641929D01*
X143545024Y-74495964D01*
X143545021Y-74495962D01*
X143545020Y-74495961D01*
X143545019Y-74495960D01*
X143404093Y-74393571D01*
X143385925Y-74380371D01*
X143206281Y-74300388D01*
X143206276Y-74300386D01*
X143013924Y-74259501D01*
X142817274Y-74259501D01*
X142624921Y-74300386D01*
X142624916Y-74300388D01*
X142445273Y-74380371D01*
X142445268Y-74380374D01*
X142286180Y-74495958D01*
X142286173Y-74495964D01*
X142154594Y-74642099D01*
X142056270Y-74812402D01*
X142056267Y-74812408D01*
X141995503Y-74999423D01*
X141995502Y-74999425D01*
X141974946Y-75195001D01*
X141316252Y-75195001D01*
X141295696Y-74999428D01*
X141257494Y-74881854D01*
X141234930Y-74812408D01*
X141234927Y-74812402D01*
X141206852Y-74763775D01*
X141136603Y-74642099D01*
X141136450Y-74641929D01*
X141005024Y-74495964D01*
X141005021Y-74495962D01*
X141005020Y-74495961D01*
X141005019Y-74495960D01*
X140864093Y-74393571D01*
X140845925Y-74380371D01*
X140666281Y-74300388D01*
X140666276Y-74300386D01*
X140473924Y-74259501D01*
X140277274Y-74259501D01*
X140084921Y-74300386D01*
X140084916Y-74300388D01*
X139905273Y-74380371D01*
X139905268Y-74380374D01*
X139746180Y-74495958D01*
X139746173Y-74495964D01*
X139614594Y-74642099D01*
X139516270Y-74812402D01*
X139516267Y-74812408D01*
X139455503Y-74999423D01*
X139455502Y-74999425D01*
X139434946Y-75195001D01*
X138776252Y-75195001D01*
X138755696Y-74999428D01*
X138717494Y-74881854D01*
X138694930Y-74812408D01*
X138694927Y-74812402D01*
X138666852Y-74763775D01*
X138596603Y-74642099D01*
X138596450Y-74641929D01*
X138465024Y-74495964D01*
X138465021Y-74495962D01*
X138465020Y-74495961D01*
X138465019Y-74495960D01*
X138324093Y-74393571D01*
X138305925Y-74380371D01*
X138126281Y-74300388D01*
X138126276Y-74300386D01*
X137933924Y-74259501D01*
X137772022Y-74259501D01*
X137704983Y-74239816D01*
X137659228Y-74187012D01*
X137649284Y-74117854D01*
X137649549Y-74116103D01*
X137649575Y-74115943D01*
X137666099Y-74011612D01*
X137666099Y-73838390D01*
X137649549Y-73733898D01*
X137658504Y-73664606D01*
X137703500Y-73611154D01*
X137770251Y-73590514D01*
X137772022Y-73590501D01*
X137933924Y-73590501D01*
X138126277Y-73549615D01*
X138305926Y-73469630D01*
X138465019Y-73354042D01*
X138488466Y-73328002D01*
X138511887Y-73301990D01*
X138596603Y-73207903D01*
X138694928Y-73037599D01*
X138755696Y-72850574D01*
X138776252Y-72655001D01*
X138755696Y-72459428D01*
X138738011Y-72405000D01*
X139473712Y-72405000D01*
X139473712Y-72405001D01*
X139931039Y-72405001D01*
X139900354Y-72458148D01*
X139865599Y-72587858D01*
X139865599Y-72722144D01*
X139900354Y-72851854D01*
X139931039Y-72905001D01*
X139473712Y-72905001D01*
X139516726Y-73037388D01*
X139516729Y-73037394D01*
X139615001Y-73207605D01*
X139746515Y-73353668D01*
X139746517Y-73353670D01*
X139905519Y-73469192D01*
X140085078Y-73549137D01*
X140125598Y-73557750D01*
X140125599Y-73557750D01*
X140125599Y-73099561D01*
X140178746Y-73130246D01*
X140308456Y-73165001D01*
X140442742Y-73165001D01*
X140572452Y-73130246D01*
X140625599Y-73099561D01*
X140625599Y-73557750D01*
X140666119Y-73549137D01*
X140845678Y-73469192D01*
X141004680Y-73353670D01*
X141004682Y-73353668D01*
X141136196Y-73207605D01*
X141234468Y-73037394D01*
X141234471Y-73037388D01*
X141277486Y-72905001D01*
X140820159Y-72905001D01*
X140850844Y-72851854D01*
X140885599Y-72722144D01*
X140885599Y-72655001D01*
X141974946Y-72655001D01*
X141995502Y-72850576D01*
X141995503Y-72850578D01*
X142056267Y-73037593D01*
X142056270Y-73037599D01*
X142154594Y-73207902D01*
X142286173Y-73354037D01*
X142286176Y-73354039D01*
X142286179Y-73354042D01*
X142412335Y-73445700D01*
X142445272Y-73469630D01*
X142624916Y-73549613D01*
X142624921Y-73549615D01*
X142817274Y-73590501D01*
X143013924Y-73590501D01*
X143206277Y-73549615D01*
X143385926Y-73469630D01*
X143545019Y-73354042D01*
X143568466Y-73328002D01*
X143591887Y-73301990D01*
X143676603Y-73207903D01*
X143774928Y-73037599D01*
X143835696Y-72850574D01*
X143856252Y-72655001D01*
X144514946Y-72655001D01*
X144535502Y-72850576D01*
X144535503Y-72850578D01*
X144596267Y-73037593D01*
X144596270Y-73037599D01*
X144694594Y-73207902D01*
X144826173Y-73354037D01*
X144826176Y-73354039D01*
X144826179Y-73354042D01*
X144952335Y-73445700D01*
X144985272Y-73469630D01*
X145164916Y-73549613D01*
X145164921Y-73549615D01*
X145357274Y-73590501D01*
X145553924Y-73590501D01*
X145746277Y-73549615D01*
X145925926Y-73469630D01*
X146085019Y-73354042D01*
X146108466Y-73328002D01*
X146131887Y-73301990D01*
X146216603Y-73207903D01*
X146314928Y-73037599D01*
X146375696Y-72850574D01*
X146396252Y-72655001D01*
X147054946Y-72655001D01*
X147075502Y-72850576D01*
X147075503Y-72850578D01*
X147136267Y-73037593D01*
X147136270Y-73037599D01*
X147234594Y-73207902D01*
X147366173Y-73354037D01*
X147366176Y-73354039D01*
X147366179Y-73354042D01*
X147492335Y-73445700D01*
X147525272Y-73469630D01*
X147704916Y-73549613D01*
X147704921Y-73549615D01*
X147897274Y-73590501D01*
X148093924Y-73590501D01*
X148286277Y-73549615D01*
X148465926Y-73469630D01*
X148625019Y-73354042D01*
X148648466Y-73328002D01*
X148671887Y-73301990D01*
X148756603Y-73207903D01*
X148854928Y-73037599D01*
X148915696Y-72850574D01*
X148936252Y-72655001D01*
X148915696Y-72459428D01*
X148898011Y-72405000D01*
X149633712Y-72405000D01*
X149633712Y-72405001D01*
X150091039Y-72405001D01*
X150060354Y-72458148D01*
X150025599Y-72587858D01*
X150025599Y-72722144D01*
X150060354Y-72851854D01*
X150091039Y-72905001D01*
X149633712Y-72905001D01*
X149676726Y-73037388D01*
X149676729Y-73037394D01*
X149775001Y-73207605D01*
X149906515Y-73353668D01*
X149906517Y-73353670D01*
X150065519Y-73469192D01*
X150245078Y-73549137D01*
X150285598Y-73557750D01*
X150285599Y-73557750D01*
X150285599Y-73099561D01*
X150338746Y-73130246D01*
X150468456Y-73165001D01*
X150602742Y-73165001D01*
X150732452Y-73130246D01*
X150785599Y-73099561D01*
X150785599Y-73557750D01*
X150826119Y-73549137D01*
X151005678Y-73469192D01*
X151164680Y-73353670D01*
X151164682Y-73353668D01*
X151296196Y-73207605D01*
X151394468Y-73037394D01*
X151394471Y-73037388D01*
X151437486Y-72905001D01*
X150980159Y-72905001D01*
X151010844Y-72851854D01*
X151045599Y-72722144D01*
X151045599Y-72655001D01*
X152134946Y-72655001D01*
X152155502Y-72850576D01*
X152155503Y-72850578D01*
X152216267Y-73037593D01*
X152216270Y-73037599D01*
X152314594Y-73207902D01*
X152446173Y-73354037D01*
X152446176Y-73354039D01*
X152446179Y-73354042D01*
X152572335Y-73445700D01*
X152605272Y-73469630D01*
X152784916Y-73549613D01*
X152784921Y-73549615D01*
X152977274Y-73590501D01*
X153173924Y-73590501D01*
X153366277Y-73549615D01*
X153545926Y-73469630D01*
X153705019Y-73354042D01*
X153728466Y-73328002D01*
X153751887Y-73301990D01*
X153836603Y-73207903D01*
X153934928Y-73037599D01*
X153995696Y-72850574D01*
X154016252Y-72655001D01*
X154674946Y-72655001D01*
X154695502Y-72850576D01*
X154695503Y-72850578D01*
X154756267Y-73037593D01*
X154756270Y-73037599D01*
X154854594Y-73207902D01*
X154986173Y-73354037D01*
X154986176Y-73354039D01*
X154986179Y-73354042D01*
X155112335Y-73445700D01*
X155145272Y-73469630D01*
X155324916Y-73549613D01*
X155324921Y-73549615D01*
X155517274Y-73590501D01*
X155713924Y-73590501D01*
X155906277Y-73549615D01*
X156085926Y-73469630D01*
X156245019Y-73354042D01*
X156268466Y-73328002D01*
X156291887Y-73301990D01*
X156376603Y-73207903D01*
X156474928Y-73037599D01*
X156535696Y-72850574D01*
X156556252Y-72655001D01*
X156535696Y-72459428D01*
X156518011Y-72405000D01*
X157253712Y-72405000D01*
X157253712Y-72405001D01*
X157711039Y-72405001D01*
X157680354Y-72458148D01*
X157645599Y-72587858D01*
X157645599Y-72722144D01*
X157680354Y-72851854D01*
X157711039Y-72905001D01*
X157253712Y-72905001D01*
X157296726Y-73037388D01*
X157296729Y-73037394D01*
X157395001Y-73207605D01*
X157526515Y-73353668D01*
X157526517Y-73353670D01*
X157685519Y-73469192D01*
X157865078Y-73549137D01*
X157905599Y-73557750D01*
X157905599Y-73099561D01*
X157958746Y-73130246D01*
X158088456Y-73165001D01*
X158222742Y-73165001D01*
X158352452Y-73130246D01*
X158405599Y-73099561D01*
X158405599Y-73557750D01*
X158446119Y-73549137D01*
X158625678Y-73469192D01*
X158784680Y-73353670D01*
X158784682Y-73353668D01*
X158916196Y-73207605D01*
X159014468Y-73037394D01*
X159014471Y-73037388D01*
X159057486Y-72905001D01*
X158600159Y-72905001D01*
X158630844Y-72851854D01*
X158665599Y-72722144D01*
X158665599Y-72655001D01*
X159754946Y-72655001D01*
X159775502Y-72850576D01*
X159775503Y-72850578D01*
X159836267Y-73037593D01*
X159836270Y-73037599D01*
X159934594Y-73207902D01*
X160066173Y-73354037D01*
X160066176Y-73354039D01*
X160066179Y-73354042D01*
X160192335Y-73445700D01*
X160225272Y-73469630D01*
X160404916Y-73549613D01*
X160404921Y-73549615D01*
X160597274Y-73590501D01*
X160793924Y-73590501D01*
X160986277Y-73549615D01*
X161165926Y-73469630D01*
X161325019Y-73354042D01*
X161348466Y-73328002D01*
X161371887Y-73301990D01*
X161456603Y-73207903D01*
X161554928Y-73037599D01*
X161615696Y-72850574D01*
X161636252Y-72655001D01*
X162294946Y-72655001D01*
X162315502Y-72850576D01*
X162315503Y-72850578D01*
X162376267Y-73037593D01*
X162376270Y-73037599D01*
X162474594Y-73207902D01*
X162606173Y-73354037D01*
X162606176Y-73354039D01*
X162606179Y-73354042D01*
X162732335Y-73445700D01*
X162765272Y-73469630D01*
X162944916Y-73549613D01*
X162944921Y-73549615D01*
X163137274Y-73590501D01*
X163333924Y-73590501D01*
X163526277Y-73549615D01*
X163705926Y-73469630D01*
X163865019Y-73354042D01*
X163888466Y-73328002D01*
X163911887Y-73301990D01*
X163996603Y-73207903D01*
X164094928Y-73037599D01*
X164155696Y-72850574D01*
X164176252Y-72655001D01*
X164834946Y-72655001D01*
X164855502Y-72850576D01*
X164855503Y-72850578D01*
X164916267Y-73037593D01*
X164916270Y-73037599D01*
X165014594Y-73207902D01*
X165146173Y-73354037D01*
X165146176Y-73354039D01*
X165146179Y-73354042D01*
X165272335Y-73445700D01*
X165305272Y-73469630D01*
X165484916Y-73549613D01*
X165484921Y-73549615D01*
X165677274Y-73590501D01*
X165873924Y-73590501D01*
X166066277Y-73549615D01*
X166245926Y-73469630D01*
X166298223Y-73431633D01*
X166364026Y-73408154D01*
X166432080Y-73423979D01*
X166480776Y-73474084D01*
X166494652Y-73542561D01*
X166485669Y-73579403D01*
X166437949Y-73694612D01*
X166419029Y-73838320D01*
X166419029Y-73838321D01*
X166437949Y-73982029D01*
X166437950Y-73982033D01*
X166493416Y-74115943D01*
X166493417Y-74115945D01*
X166493418Y-74115946D01*
X166581658Y-74230942D01*
X166696654Y-74319182D01*
X166696655Y-74319182D01*
X166696656Y-74319183D01*
X166741292Y-74337671D01*
X166830570Y-74374651D01*
X166957559Y-74391369D01*
X166974278Y-74393571D01*
X166974279Y-74393571D01*
X166974280Y-74393571D01*
X166989256Y-74391599D01*
X167117988Y-74374651D01*
X167251904Y-74319182D01*
X167366900Y-74230942D01*
X167455140Y-74115946D01*
X167510609Y-73982030D01*
X167529529Y-73838321D01*
X167510609Y-73694612D01*
X167467491Y-73590514D01*
X167455141Y-73560698D01*
X167455140Y-73560697D01*
X167455140Y-73560696D01*
X167366900Y-73445700D01*
X167251904Y-73357460D01*
X167251903Y-73357459D01*
X167251901Y-73357458D01*
X167117991Y-73301992D01*
X167117989Y-73301991D01*
X167117988Y-73301991D01*
X167046133Y-73292531D01*
X166974280Y-73283071D01*
X166974278Y-73283071D01*
X166830572Y-73301990D01*
X166710295Y-73351810D01*
X166640825Y-73359278D01*
X166578346Y-73328002D01*
X166542694Y-73267913D01*
X166545189Y-73198088D01*
X166555456Y-73175248D01*
X166581438Y-73130246D01*
X166634928Y-73037599D01*
X166695696Y-72850574D01*
X166716252Y-72655001D01*
X167374946Y-72655001D01*
X167395502Y-72850576D01*
X167395503Y-72850578D01*
X167456267Y-73037593D01*
X167456270Y-73037599D01*
X167554594Y-73207902D01*
X167686173Y-73354037D01*
X167686176Y-73354039D01*
X167686179Y-73354042D01*
X167812335Y-73445700D01*
X167845272Y-73469630D01*
X168024916Y-73549613D01*
X168024921Y-73549615D01*
X168217274Y-73590501D01*
X168413924Y-73590501D01*
X168606277Y-73549615D01*
X168785926Y-73469630D01*
X168945019Y-73354042D01*
X168968466Y-73328002D01*
X168991887Y-73301990D01*
X169076603Y-73207903D01*
X169174928Y-73037599D01*
X169235696Y-72850574D01*
X169256252Y-72655001D01*
X169235696Y-72459428D01*
X169218011Y-72405000D01*
X169953712Y-72405000D01*
X169953712Y-72405001D01*
X170411039Y-72405001D01*
X170380354Y-72458148D01*
X170345599Y-72587858D01*
X170345599Y-72722144D01*
X170380354Y-72851854D01*
X170411039Y-72905001D01*
X169953712Y-72905001D01*
X169996726Y-73037388D01*
X169996729Y-73037394D01*
X170095001Y-73207605D01*
X170226515Y-73353668D01*
X170226517Y-73353670D01*
X170385519Y-73469192D01*
X170565078Y-73549137D01*
X170605599Y-73557750D01*
X170605599Y-73099561D01*
X170658746Y-73130246D01*
X170788456Y-73165001D01*
X170922742Y-73165001D01*
X171052452Y-73130246D01*
X171105599Y-73099561D01*
X171105599Y-73557750D01*
X171146119Y-73549137D01*
X171325678Y-73469192D01*
X171484680Y-73353670D01*
X171484682Y-73353668D01*
X171616196Y-73207605D01*
X171714468Y-73037394D01*
X171714471Y-73037388D01*
X171757486Y-72905001D01*
X171300159Y-72905001D01*
X171330844Y-72851854D01*
X171365599Y-72722144D01*
X171365599Y-72655001D01*
X172454946Y-72655001D01*
X172475502Y-72850576D01*
X172475503Y-72850578D01*
X172536267Y-73037593D01*
X172536270Y-73037599D01*
X172634594Y-73207902D01*
X172766173Y-73354037D01*
X172766176Y-73354039D01*
X172766179Y-73354042D01*
X172892335Y-73445700D01*
X172925272Y-73469630D01*
X173104916Y-73549613D01*
X173104921Y-73549615D01*
X173297274Y-73590501D01*
X173493924Y-73590501D01*
X173686277Y-73549615D01*
X173865926Y-73469630D01*
X174025019Y-73354042D01*
X174048466Y-73328002D01*
X174071887Y-73301990D01*
X174156603Y-73207903D01*
X174254928Y-73037599D01*
X174315696Y-72850574D01*
X174336252Y-72655001D01*
X174315696Y-72459428D01*
X174298011Y-72405000D01*
X175033712Y-72405000D01*
X175033712Y-72405001D01*
X175491039Y-72405001D01*
X175460354Y-72458148D01*
X175425599Y-72587858D01*
X175425599Y-72722144D01*
X175460354Y-72851854D01*
X175491039Y-72905001D01*
X175033712Y-72905001D01*
X175076726Y-73037388D01*
X175076729Y-73037394D01*
X175175001Y-73207605D01*
X175306515Y-73353668D01*
X175306517Y-73353670D01*
X175465519Y-73469192D01*
X175645078Y-73549137D01*
X175685598Y-73557750D01*
X175685599Y-73557750D01*
X175685599Y-73099561D01*
X175738746Y-73130246D01*
X175868456Y-73165001D01*
X176002742Y-73165001D01*
X176132452Y-73130246D01*
X176185599Y-73099561D01*
X176185599Y-73557750D01*
X176226119Y-73549137D01*
X176405678Y-73469192D01*
X176564680Y-73353670D01*
X176564682Y-73353668D01*
X176696196Y-73207605D01*
X176794468Y-73037394D01*
X176794471Y-73037388D01*
X176837486Y-72905001D01*
X176380159Y-72905001D01*
X176410844Y-72851854D01*
X176445599Y-72722144D01*
X176445599Y-72655001D01*
X177534946Y-72655001D01*
X177555502Y-72850576D01*
X177555503Y-72850578D01*
X177616267Y-73037593D01*
X177616270Y-73037599D01*
X177714594Y-73207902D01*
X177846173Y-73354037D01*
X177846176Y-73354039D01*
X177846179Y-73354042D01*
X177972335Y-73445700D01*
X178005272Y-73469630D01*
X178184916Y-73549613D01*
X178184921Y-73549615D01*
X178377274Y-73590501D01*
X178573924Y-73590501D01*
X178766277Y-73549615D01*
X178945926Y-73469630D01*
X179105019Y-73354042D01*
X179128466Y-73328002D01*
X179151887Y-73301990D01*
X179236603Y-73207903D01*
X179334928Y-73037599D01*
X179395696Y-72850574D01*
X179416252Y-72655001D01*
X180074946Y-72655001D01*
X180095502Y-72850576D01*
X180095503Y-72850578D01*
X180156267Y-73037593D01*
X180156270Y-73037599D01*
X180254594Y-73207902D01*
X180386173Y-73354037D01*
X180386176Y-73354039D01*
X180386179Y-73354042D01*
X180512335Y-73445700D01*
X180545272Y-73469630D01*
X180724916Y-73549613D01*
X180724921Y-73549615D01*
X180917274Y-73590501D01*
X181079176Y-73590501D01*
X181146215Y-73610186D01*
X181191970Y-73662990D01*
X181201914Y-73732148D01*
X181201654Y-73733863D01*
X181185099Y-73838390D01*
X181185099Y-74011612D01*
X181201623Y-74115943D01*
X181201649Y-74116103D01*
X181192694Y-74185396D01*
X181147698Y-74238848D01*
X181080947Y-74259488D01*
X181079176Y-74259501D01*
X180917274Y-74259501D01*
X180724921Y-74300386D01*
X180724916Y-74300388D01*
X180545273Y-74380371D01*
X180545268Y-74380374D01*
X180386180Y-74495958D01*
X180386173Y-74495964D01*
X180254594Y-74642099D01*
X180156270Y-74812402D01*
X180156267Y-74812408D01*
X180095503Y-74999423D01*
X180095502Y-74999425D01*
X180074946Y-75195001D01*
X180095502Y-75390576D01*
X180095503Y-75390578D01*
X180156267Y-75577593D01*
X180156270Y-75577599D01*
X180254594Y-75747902D01*
X180386173Y-75894037D01*
X180386176Y-75894039D01*
X180386179Y-75894042D01*
X180544669Y-76009192D01*
X180545272Y-76009630D01*
X180724916Y-76089613D01*
X180724921Y-76089615D01*
X180917274Y-76130501D01*
X181113924Y-76130501D01*
X181306277Y-76089615D01*
X181485926Y-76009630D01*
X181645019Y-75894042D01*
X181776603Y-75747903D01*
X181874928Y-75577599D01*
X181935696Y-75390574D01*
X181956252Y-75195001D01*
X181950917Y-75144247D01*
X181963486Y-75075520D01*
X182011218Y-75024495D01*
X182078958Y-75007377D01*
X182093619Y-75008812D01*
X182198988Y-75025501D01*
X182198990Y-75025501D01*
X182372209Y-75025501D01*
X182372210Y-75025501D01*
X182543300Y-74998403D01*
X182688975Y-74951070D01*
X182727293Y-74945001D01*
X183111039Y-74945001D01*
X183080354Y-74998148D01*
X183045599Y-75127858D01*
X183045599Y-75262144D01*
X183080354Y-75391854D01*
X183111039Y-75445001D01*
X182653712Y-75445001D01*
X182696726Y-75577388D01*
X182696729Y-75577394D01*
X182795001Y-75747605D01*
X182926515Y-75893668D01*
X182926517Y-75893670D01*
X183085519Y-76009192D01*
X183265078Y-76089137D01*
X183305599Y-76097750D01*
X183305599Y-75639561D01*
X183358746Y-75670246D01*
X183488456Y-75705001D01*
X183622742Y-75705001D01*
X183752452Y-75670246D01*
X183805599Y-75639561D01*
X183805599Y-76097750D01*
X183846119Y-76089137D01*
X184025678Y-76009192D01*
X184184680Y-75893670D01*
X184184682Y-75893668D01*
X184316196Y-75747605D01*
X184414468Y-75577394D01*
X184414471Y-75577388D01*
X184457486Y-75445001D01*
X184000159Y-75445001D01*
X184030844Y-75391854D01*
X184065599Y-75262144D01*
X184065599Y-75127858D01*
X184030844Y-74998148D01*
X184000159Y-74945001D01*
X184457486Y-74945001D01*
X184457485Y-74945000D01*
X184414471Y-74812613D01*
X184414468Y-74812607D01*
X184316196Y-74642396D01*
X184184682Y-74496333D01*
X184184680Y-74496331D01*
X184025678Y-74380809D01*
X184025673Y-74380807D01*
X183846123Y-74300865D01*
X183805599Y-74292250D01*
X183805599Y-74750440D01*
X183752452Y-74719756D01*
X183622742Y-74685001D01*
X183488456Y-74685001D01*
X183358746Y-74719756D01*
X183305599Y-74750440D01*
X183305599Y-74366694D01*
X183311668Y-74328376D01*
X183314655Y-74319183D01*
X183359001Y-74182702D01*
X183386099Y-74011612D01*
X183386099Y-73838390D01*
X183369549Y-73733898D01*
X183373213Y-73705550D01*
X186695099Y-73705550D01*
X186695099Y-73928451D01*
X186695100Y-73928467D01*
X186724193Y-74149453D01*
X186724194Y-74149458D01*
X186724195Y-74149464D01*
X186764635Y-74300388D01*
X186781889Y-74364781D01*
X186781892Y-74364791D01*
X186836225Y-74495962D01*
X186867194Y-74570727D01*
X186978651Y-74763775D01*
X186978656Y-74763781D01*
X186978657Y-74763783D01*
X187114350Y-74940623D01*
X187114356Y-74940630D01*
X187271969Y-75098243D01*
X187271975Y-75098248D01*
X187448825Y-75233949D01*
X187641873Y-75345406D01*
X187847818Y-75430711D01*
X188063136Y-75488405D01*
X188284142Y-75517501D01*
X188284149Y-75517501D01*
X188507049Y-75517501D01*
X188507056Y-75517501D01*
X188728062Y-75488405D01*
X188943380Y-75430711D01*
X189149325Y-75345406D01*
X189342373Y-75233949D01*
X189519223Y-75098248D01*
X189676846Y-74940625D01*
X189812547Y-74763775D01*
X189924004Y-74570727D01*
X190009309Y-74364782D01*
X190067003Y-74149464D01*
X190096099Y-73928458D01*
X190096099Y-73705544D01*
X190067003Y-73484538D01*
X190009309Y-73269220D01*
X189924004Y-73063275D01*
X189812547Y-72870227D01*
X189741103Y-72777119D01*
X189676847Y-72693378D01*
X189676841Y-72693371D01*
X189519228Y-72535758D01*
X189519221Y-72535752D01*
X189342381Y-72400059D01*
X189342379Y-72400058D01*
X189342373Y-72400053D01*
X189149325Y-72288596D01*
X189149321Y-72288594D01*
X188943389Y-72203294D01*
X188943382Y-72203292D01*
X188943380Y-72203291D01*
X188728062Y-72145597D01*
X188728056Y-72145596D01*
X188728051Y-72145595D01*
X188507065Y-72116502D01*
X188507062Y-72116501D01*
X188507056Y-72116501D01*
X188284142Y-72116501D01*
X188284136Y-72116501D01*
X188284132Y-72116502D01*
X188063146Y-72145595D01*
X188063139Y-72145596D01*
X188063136Y-72145597D01*
X187847818Y-72203291D01*
X187847808Y-72203294D01*
X187641876Y-72288594D01*
X187641872Y-72288596D01*
X187448825Y-72400053D01*
X187448816Y-72400059D01*
X187271976Y-72535752D01*
X187271969Y-72535758D01*
X187114356Y-72693371D01*
X187114350Y-72693378D01*
X186978657Y-72870218D01*
X186978651Y-72870227D01*
X186867194Y-73063274D01*
X186867192Y-73063278D01*
X186781892Y-73269210D01*
X186781889Y-73269220D01*
X186759163Y-73354037D01*
X186724196Y-73484535D01*
X186724193Y-73484548D01*
X186695100Y-73705534D01*
X186695099Y-73705550D01*
X183373213Y-73705550D01*
X183378504Y-73664606D01*
X183423500Y-73611154D01*
X183490251Y-73590514D01*
X183492022Y-73590501D01*
X183653924Y-73590501D01*
X183846277Y-73549615D01*
X184025926Y-73469630D01*
X184185019Y-73354042D01*
X184208466Y-73328002D01*
X184231887Y-73301990D01*
X184316603Y-73207903D01*
X184414928Y-73037599D01*
X184475696Y-72850574D01*
X184496252Y-72655001D01*
X184475696Y-72459428D01*
X184428978Y-72315645D01*
X184414930Y-72272408D01*
X184414927Y-72272402D01*
X184391260Y-72231410D01*
X184316603Y-72102099D01*
X184185024Y-71955964D01*
X184185021Y-71955962D01*
X184185020Y-71955961D01*
X184185019Y-71955960D01*
X184078957Y-71878901D01*
X184025925Y-71840371D01*
X183846281Y-71760388D01*
X183846276Y-71760386D01*
X183653924Y-71719501D01*
X183457274Y-71719501D01*
X183264921Y-71760386D01*
X183264916Y-71760388D01*
X183085273Y-71840371D01*
X183085268Y-71840374D01*
X182926180Y-71955958D01*
X182926173Y-71955964D01*
X182794594Y-72102099D01*
X182696270Y-72272402D01*
X182696267Y-72272408D01*
X182635503Y-72459423D01*
X182635502Y-72459425D01*
X182614946Y-72655001D01*
X182620280Y-72705753D01*
X182607710Y-72774483D01*
X182559978Y-72825507D01*
X182492237Y-72842624D01*
X182477561Y-72841187D01*
X182372210Y-72824501D01*
X182198988Y-72824501D01*
X182139331Y-72833949D01*
X182093636Y-72841187D01*
X182024342Y-72832232D01*
X181970890Y-72787236D01*
X181950251Y-72720484D01*
X181950916Y-72705765D01*
X181956252Y-72655001D01*
X181935696Y-72459428D01*
X181888978Y-72315645D01*
X181874930Y-72272408D01*
X181874927Y-72272402D01*
X181851260Y-72231410D01*
X181776603Y-72102099D01*
X181645024Y-71955964D01*
X181645021Y-71955962D01*
X181645020Y-71955961D01*
X181645019Y-71955960D01*
X181538957Y-71878901D01*
X181485925Y-71840371D01*
X181306281Y-71760388D01*
X181306276Y-71760386D01*
X181113924Y-71719501D01*
X180917274Y-71719501D01*
X180724921Y-71760386D01*
X180724916Y-71760388D01*
X180545273Y-71840371D01*
X180545268Y-71840374D01*
X180386180Y-71955958D01*
X180386173Y-71955964D01*
X180254594Y-72102099D01*
X180156270Y-72272402D01*
X180156267Y-72272408D01*
X180095503Y-72459423D01*
X180095502Y-72459425D01*
X180074946Y-72655001D01*
X179416252Y-72655001D01*
X179395696Y-72459428D01*
X179348978Y-72315645D01*
X179334930Y-72272408D01*
X179334927Y-72272402D01*
X179311260Y-72231410D01*
X179236603Y-72102099D01*
X179105024Y-71955964D01*
X179105021Y-71955962D01*
X179105020Y-71955961D01*
X179105019Y-71955960D01*
X178998957Y-71878901D01*
X178945925Y-71840371D01*
X178766281Y-71760388D01*
X178766276Y-71760386D01*
X178573924Y-71719501D01*
X178377274Y-71719501D01*
X178184921Y-71760386D01*
X178184916Y-71760388D01*
X178005273Y-71840371D01*
X178005268Y-71840374D01*
X177846180Y-71955958D01*
X177846173Y-71955964D01*
X177714594Y-72102099D01*
X177616270Y-72272402D01*
X177616267Y-72272408D01*
X177555503Y-72459423D01*
X177555502Y-72459425D01*
X177534946Y-72655001D01*
X176445599Y-72655001D01*
X176445599Y-72587858D01*
X176410844Y-72458148D01*
X176380159Y-72405001D01*
X176837486Y-72405001D01*
X176837485Y-72405000D01*
X176794471Y-72272613D01*
X176794468Y-72272607D01*
X176696196Y-72102396D01*
X176564682Y-71956333D01*
X176564680Y-71956331D01*
X176405678Y-71840809D01*
X176405673Y-71840807D01*
X176226123Y-71760865D01*
X176185599Y-71752250D01*
X176185599Y-72210440D01*
X176132452Y-72179756D01*
X176002742Y-72145001D01*
X175868456Y-72145001D01*
X175738746Y-72179756D01*
X175685599Y-72210440D01*
X175685599Y-71752251D01*
X175685598Y-71752250D01*
X175645075Y-71760865D01*
X175645074Y-71760865D01*
X175465524Y-71840807D01*
X175465519Y-71840809D01*
X175306517Y-71956331D01*
X175306515Y-71956333D01*
X175175001Y-72102396D01*
X175076729Y-72272607D01*
X175076726Y-72272613D01*
X175033712Y-72405000D01*
X174298011Y-72405000D01*
X174268978Y-72315645D01*
X174254930Y-72272408D01*
X174254927Y-72272402D01*
X174231260Y-72231410D01*
X174156603Y-72102099D01*
X174025024Y-71955964D01*
X174025021Y-71955962D01*
X174025020Y-71955961D01*
X174025019Y-71955960D01*
X173918957Y-71878901D01*
X173865925Y-71840371D01*
X173686281Y-71760388D01*
X173686276Y-71760386D01*
X173493924Y-71719501D01*
X173297274Y-71719501D01*
X173104921Y-71760386D01*
X173104916Y-71760388D01*
X172925273Y-71840371D01*
X172925268Y-71840374D01*
X172766180Y-71955958D01*
X172766173Y-71955964D01*
X172634594Y-72102099D01*
X172536270Y-72272402D01*
X172536267Y-72272408D01*
X172475503Y-72459423D01*
X172475502Y-72459425D01*
X172454946Y-72655001D01*
X171365599Y-72655001D01*
X171365599Y-72587858D01*
X171330844Y-72458148D01*
X171300159Y-72405001D01*
X171757486Y-72405001D01*
X171757485Y-72405000D01*
X171714471Y-72272613D01*
X171714468Y-72272607D01*
X171616196Y-72102396D01*
X171484682Y-71956333D01*
X171484680Y-71956331D01*
X171325678Y-71840809D01*
X171325673Y-71840807D01*
X171146123Y-71760865D01*
X171105599Y-71752250D01*
X171105599Y-72210440D01*
X171052452Y-72179756D01*
X170922742Y-72145001D01*
X170788456Y-72145001D01*
X170658746Y-72179756D01*
X170605599Y-72210440D01*
X170605599Y-71752251D01*
X170605598Y-71752250D01*
X170565075Y-71760865D01*
X170565074Y-71760865D01*
X170385524Y-71840807D01*
X170385519Y-71840809D01*
X170226517Y-71956331D01*
X170226515Y-71956333D01*
X170095001Y-72102396D01*
X169996729Y-72272607D01*
X169996726Y-72272613D01*
X169953712Y-72405000D01*
X169218011Y-72405000D01*
X169188978Y-72315645D01*
X169174930Y-72272408D01*
X169174927Y-72272402D01*
X169151260Y-72231410D01*
X169076603Y-72102099D01*
X168945024Y-71955964D01*
X168945021Y-71955962D01*
X168945020Y-71955961D01*
X168945019Y-71955960D01*
X168838957Y-71878901D01*
X168785925Y-71840371D01*
X168606281Y-71760388D01*
X168606276Y-71760386D01*
X168413924Y-71719501D01*
X168217274Y-71719501D01*
X168024921Y-71760386D01*
X168024916Y-71760388D01*
X167845273Y-71840371D01*
X167845268Y-71840374D01*
X167686180Y-71955958D01*
X167686173Y-71955964D01*
X167554594Y-72102099D01*
X167456270Y-72272402D01*
X167456267Y-72272408D01*
X167395503Y-72459423D01*
X167395502Y-72459425D01*
X167374946Y-72655001D01*
X166716252Y-72655001D01*
X166695696Y-72459428D01*
X166648978Y-72315645D01*
X166634930Y-72272408D01*
X166634927Y-72272402D01*
X166611260Y-72231410D01*
X166536603Y-72102099D01*
X166405024Y-71955964D01*
X166405021Y-71955962D01*
X166405020Y-71955961D01*
X166405019Y-71955960D01*
X166298957Y-71878901D01*
X166245925Y-71840371D01*
X166066281Y-71760388D01*
X166066276Y-71760386D01*
X165873924Y-71719501D01*
X165677274Y-71719501D01*
X165484921Y-71760386D01*
X165484916Y-71760388D01*
X165305273Y-71840371D01*
X165305268Y-71840374D01*
X165146180Y-71955958D01*
X165146173Y-71955964D01*
X165014594Y-72102099D01*
X164916270Y-72272402D01*
X164916267Y-72272408D01*
X164855503Y-72459423D01*
X164855502Y-72459425D01*
X164834946Y-72655001D01*
X164176252Y-72655001D01*
X164155696Y-72459428D01*
X164108978Y-72315645D01*
X164094930Y-72272408D01*
X164094927Y-72272402D01*
X164071260Y-72231410D01*
X163996603Y-72102099D01*
X163865024Y-71955964D01*
X163865021Y-71955962D01*
X163865020Y-71955961D01*
X163865019Y-71955960D01*
X163758957Y-71878901D01*
X163705925Y-71840371D01*
X163526281Y-71760388D01*
X163526276Y-71760386D01*
X163333924Y-71719501D01*
X163137274Y-71719501D01*
X162944921Y-71760386D01*
X162944916Y-71760388D01*
X162765273Y-71840371D01*
X162765268Y-71840374D01*
X162606180Y-71955958D01*
X162606173Y-71955964D01*
X162474594Y-72102099D01*
X162376270Y-72272402D01*
X162376267Y-72272408D01*
X162315503Y-72459423D01*
X162315502Y-72459425D01*
X162294946Y-72655001D01*
X161636252Y-72655001D01*
X161615696Y-72459428D01*
X161568978Y-72315645D01*
X161554930Y-72272408D01*
X161554927Y-72272402D01*
X161531260Y-72231410D01*
X161456603Y-72102099D01*
X161325024Y-71955964D01*
X161325021Y-71955962D01*
X161325020Y-71955961D01*
X161325019Y-71955960D01*
X161218957Y-71878901D01*
X161165925Y-71840371D01*
X160986281Y-71760388D01*
X160986276Y-71760386D01*
X160793924Y-71719501D01*
X160597274Y-71719501D01*
X160404921Y-71760386D01*
X160404916Y-71760388D01*
X160225273Y-71840371D01*
X160225268Y-71840374D01*
X160066180Y-71955958D01*
X160066173Y-71955964D01*
X159934594Y-72102099D01*
X159836270Y-72272402D01*
X159836267Y-72272408D01*
X159775503Y-72459423D01*
X159775502Y-72459425D01*
X159754946Y-72655001D01*
X158665599Y-72655001D01*
X158665599Y-72587858D01*
X158630844Y-72458148D01*
X158600159Y-72405001D01*
X159057486Y-72405001D01*
X159057485Y-72405000D01*
X159014471Y-72272613D01*
X159014468Y-72272607D01*
X158916196Y-72102396D01*
X158784682Y-71956333D01*
X158784680Y-71956331D01*
X158625678Y-71840809D01*
X158625673Y-71840807D01*
X158446123Y-71760865D01*
X158405599Y-71752250D01*
X158405599Y-72210440D01*
X158352452Y-72179756D01*
X158222742Y-72145001D01*
X158088456Y-72145001D01*
X157958746Y-72179756D01*
X157905599Y-72210440D01*
X157905599Y-71752251D01*
X157905598Y-71752250D01*
X157865075Y-71760865D01*
X157865074Y-71760865D01*
X157685524Y-71840807D01*
X157685519Y-71840809D01*
X157526517Y-71956331D01*
X157526515Y-71956333D01*
X157395001Y-72102396D01*
X157296729Y-72272607D01*
X157296726Y-72272613D01*
X157253712Y-72405000D01*
X156518011Y-72405000D01*
X156488978Y-72315645D01*
X156474930Y-72272408D01*
X156474927Y-72272402D01*
X156451260Y-72231410D01*
X156376603Y-72102099D01*
X156245024Y-71955964D01*
X156245021Y-71955962D01*
X156245020Y-71955961D01*
X156245019Y-71955960D01*
X156138957Y-71878901D01*
X156085925Y-71840371D01*
X155906281Y-71760388D01*
X155906276Y-71760386D01*
X155713924Y-71719501D01*
X155517274Y-71719501D01*
X155324921Y-71760386D01*
X155324916Y-71760388D01*
X155145273Y-71840371D01*
X155145268Y-71840374D01*
X154986180Y-71955958D01*
X154986173Y-71955964D01*
X154854594Y-72102099D01*
X154756270Y-72272402D01*
X154756267Y-72272408D01*
X154695503Y-72459423D01*
X154695502Y-72459425D01*
X154674946Y-72655001D01*
X154016252Y-72655001D01*
X153995696Y-72459428D01*
X153948978Y-72315645D01*
X153934930Y-72272408D01*
X153934927Y-72272402D01*
X153911260Y-72231410D01*
X153836603Y-72102099D01*
X153705024Y-71955964D01*
X153705021Y-71955962D01*
X153705020Y-71955961D01*
X153705019Y-71955960D01*
X153598957Y-71878901D01*
X153545925Y-71840371D01*
X153366281Y-71760388D01*
X153366276Y-71760386D01*
X153173924Y-71719501D01*
X152977274Y-71719501D01*
X152784921Y-71760386D01*
X152784916Y-71760388D01*
X152605273Y-71840371D01*
X152605268Y-71840374D01*
X152446180Y-71955958D01*
X152446173Y-71955964D01*
X152314594Y-72102099D01*
X152216270Y-72272402D01*
X152216267Y-72272408D01*
X152155503Y-72459423D01*
X152155502Y-72459425D01*
X152134946Y-72655001D01*
X151045599Y-72655001D01*
X151045599Y-72587858D01*
X151010844Y-72458148D01*
X150980159Y-72405001D01*
X151437486Y-72405001D01*
X151437485Y-72405000D01*
X151394471Y-72272613D01*
X151394468Y-72272607D01*
X151296196Y-72102396D01*
X151164682Y-71956333D01*
X151164680Y-71956331D01*
X151005678Y-71840809D01*
X151005673Y-71840807D01*
X150826123Y-71760865D01*
X150785599Y-71752250D01*
X150785599Y-72210440D01*
X150732452Y-72179756D01*
X150602742Y-72145001D01*
X150468456Y-72145001D01*
X150338746Y-72179756D01*
X150285599Y-72210440D01*
X150285599Y-71752251D01*
X150285598Y-71752250D01*
X150245075Y-71760865D01*
X150245074Y-71760865D01*
X150065524Y-71840807D01*
X150065519Y-71840809D01*
X149906517Y-71956331D01*
X149906515Y-71956333D01*
X149775001Y-72102396D01*
X149676729Y-72272607D01*
X149676726Y-72272613D01*
X149633712Y-72405000D01*
X148898011Y-72405000D01*
X148868978Y-72315645D01*
X148854930Y-72272408D01*
X148854927Y-72272402D01*
X148831260Y-72231410D01*
X148756603Y-72102099D01*
X148625024Y-71955964D01*
X148625021Y-71955962D01*
X148625020Y-71955961D01*
X148625019Y-71955960D01*
X148518957Y-71878901D01*
X148465925Y-71840371D01*
X148286281Y-71760388D01*
X148286276Y-71760386D01*
X148093924Y-71719501D01*
X147897274Y-71719501D01*
X147704921Y-71760386D01*
X147704916Y-71760388D01*
X147525273Y-71840371D01*
X147525268Y-71840374D01*
X147366180Y-71955958D01*
X147366173Y-71955964D01*
X147234594Y-72102099D01*
X147136270Y-72272402D01*
X147136267Y-72272408D01*
X147075503Y-72459423D01*
X147075502Y-72459425D01*
X147054946Y-72655001D01*
X146396252Y-72655001D01*
X146375696Y-72459428D01*
X146328978Y-72315645D01*
X146314930Y-72272408D01*
X146314927Y-72272402D01*
X146291260Y-72231410D01*
X146216603Y-72102099D01*
X146085024Y-71955964D01*
X146085021Y-71955962D01*
X146085020Y-71955961D01*
X146085019Y-71955960D01*
X145978957Y-71878901D01*
X145925925Y-71840371D01*
X145746281Y-71760388D01*
X145746276Y-71760386D01*
X145553924Y-71719501D01*
X145357274Y-71719501D01*
X145164921Y-71760386D01*
X145164916Y-71760388D01*
X144985273Y-71840371D01*
X144985268Y-71840374D01*
X144826180Y-71955958D01*
X144826173Y-71955964D01*
X144694594Y-72102099D01*
X144596270Y-72272402D01*
X144596267Y-72272408D01*
X144535503Y-72459423D01*
X144535502Y-72459425D01*
X144514946Y-72655001D01*
X143856252Y-72655001D01*
X143835696Y-72459428D01*
X143788978Y-72315645D01*
X143774930Y-72272408D01*
X143774927Y-72272402D01*
X143751260Y-72231410D01*
X143676603Y-72102099D01*
X143545024Y-71955964D01*
X143545021Y-71955962D01*
X143545020Y-71955961D01*
X143545019Y-71955960D01*
X143438957Y-71878901D01*
X143385925Y-71840371D01*
X143206281Y-71760388D01*
X143206276Y-71760386D01*
X143013924Y-71719501D01*
X142817274Y-71719501D01*
X142624921Y-71760386D01*
X142624916Y-71760388D01*
X142445273Y-71840371D01*
X142445268Y-71840374D01*
X142286180Y-71955958D01*
X142286173Y-71955964D01*
X142154594Y-72102099D01*
X142056270Y-72272402D01*
X142056267Y-72272408D01*
X141995503Y-72459423D01*
X141995502Y-72459425D01*
X141974946Y-72655001D01*
X140885599Y-72655001D01*
X140885599Y-72587858D01*
X140850844Y-72458148D01*
X140820159Y-72405001D01*
X141277486Y-72405001D01*
X141277485Y-72405000D01*
X141234471Y-72272613D01*
X141234468Y-72272607D01*
X141136196Y-72102396D01*
X141004682Y-71956333D01*
X141004680Y-71956331D01*
X140845678Y-71840809D01*
X140845673Y-71840807D01*
X140666123Y-71760865D01*
X140625599Y-71752250D01*
X140625599Y-72210440D01*
X140572452Y-72179756D01*
X140442742Y-72145001D01*
X140308456Y-72145001D01*
X140178746Y-72179756D01*
X140125599Y-72210440D01*
X140125599Y-71752251D01*
X140125598Y-71752250D01*
X140085075Y-71760865D01*
X140085074Y-71760865D01*
X139905524Y-71840807D01*
X139905519Y-71840809D01*
X139746517Y-71956331D01*
X139746515Y-71956333D01*
X139615001Y-72102396D01*
X139516729Y-72272607D01*
X139516726Y-72272613D01*
X139473712Y-72405000D01*
X138738011Y-72405000D01*
X138708978Y-72315645D01*
X138694930Y-72272408D01*
X138694927Y-72272402D01*
X138671260Y-72231410D01*
X138596603Y-72102099D01*
X138465024Y-71955964D01*
X138465021Y-71955962D01*
X138465020Y-71955961D01*
X138465019Y-71955960D01*
X138358957Y-71878901D01*
X138305925Y-71840371D01*
X138126281Y-71760388D01*
X138126276Y-71760386D01*
X137933924Y-71719501D01*
X137737274Y-71719501D01*
X137544921Y-71760386D01*
X137544916Y-71760388D01*
X137365273Y-71840371D01*
X137365268Y-71840374D01*
X137206180Y-71955958D01*
X137206173Y-71955964D01*
X137074594Y-72102099D01*
X136976270Y-72272402D01*
X136976267Y-72272408D01*
X136915503Y-72459423D01*
X136915502Y-72459425D01*
X136894946Y-72655001D01*
X136900280Y-72705753D01*
X136887710Y-72774483D01*
X136839978Y-72825507D01*
X136772237Y-72842624D01*
X136757561Y-72841187D01*
X136652210Y-72824501D01*
X136478988Y-72824501D01*
X136419331Y-72833949D01*
X136373636Y-72841187D01*
X136304342Y-72832232D01*
X136250890Y-72787236D01*
X136230251Y-72720484D01*
X136230916Y-72705765D01*
X136236252Y-72655001D01*
X136215696Y-72459428D01*
X136168978Y-72315645D01*
X136154930Y-72272408D01*
X136154927Y-72272402D01*
X136131260Y-72231410D01*
X136056603Y-72102099D01*
X135925024Y-71955964D01*
X135925021Y-71955962D01*
X135925020Y-71955961D01*
X135925019Y-71955960D01*
X135818957Y-71878901D01*
X135765925Y-71840371D01*
X135586281Y-71760388D01*
X135586276Y-71760386D01*
X135393924Y-71719501D01*
X135197274Y-71719501D01*
X135004921Y-71760386D01*
X135004916Y-71760388D01*
X134825273Y-71840371D01*
X134825268Y-71840374D01*
X134666180Y-71955958D01*
X134666173Y-71955964D01*
X134534594Y-72102099D01*
X134436270Y-72272402D01*
X134436267Y-72272408D01*
X134375503Y-72459423D01*
X134375502Y-72459425D01*
X134354946Y-72655001D01*
X131638471Y-72655001D01*
X131519228Y-72535758D01*
X131519221Y-72535752D01*
X131342381Y-72400059D01*
X131342379Y-72400058D01*
X131342373Y-72400053D01*
X131149325Y-72288596D01*
X131149321Y-72288594D01*
X130943389Y-72203294D01*
X130943382Y-72203292D01*
X130943380Y-72203291D01*
X130728062Y-72145597D01*
X130728056Y-72145596D01*
X130728051Y-72145595D01*
X130507065Y-72116502D01*
X130507062Y-72116501D01*
X130507056Y-72116501D01*
X130284142Y-72116501D01*
X130284136Y-72116501D01*
X130284132Y-72116502D01*
X130063146Y-72145595D01*
X130063139Y-72145596D01*
X130063136Y-72145597D01*
X129847818Y-72203291D01*
X129847808Y-72203294D01*
X129641876Y-72288594D01*
X129641872Y-72288596D01*
X129448825Y-72400053D01*
X129448816Y-72400059D01*
X129271976Y-72535752D01*
X129271969Y-72535758D01*
X129114356Y-72693371D01*
X129114350Y-72693378D01*
X128978657Y-72870218D01*
X128978651Y-72870227D01*
X128867194Y-73063274D01*
X128867192Y-73063278D01*
X128781892Y-73269210D01*
X128781889Y-73269220D01*
X128759163Y-73354037D01*
X128724196Y-73484535D01*
X128724193Y-73484548D01*
X128695100Y-73705534D01*
X128695099Y-73705550D01*
X127421099Y-73705550D01*
X127421099Y-72820480D01*
X127421294Y-72813527D01*
X127421300Y-72813416D01*
X127437473Y-72525433D01*
X127439027Y-72511636D01*
X127486777Y-72230599D01*
X127489871Y-72217047D01*
X127493834Y-72203294D01*
X127568786Y-71943127D01*
X127573378Y-71930007D01*
X127610506Y-71840371D01*
X127682463Y-71666650D01*
X127688486Y-71654143D01*
X127826391Y-71404619D01*
X127833763Y-71392888D01*
X127998740Y-71160375D01*
X128007380Y-71149541D01*
X128106773Y-71038320D01*
X163919029Y-71038320D01*
X163919029Y-71038321D01*
X163937949Y-71182029D01*
X163937950Y-71182033D01*
X163993416Y-71315943D01*
X163993417Y-71315945D01*
X163993418Y-71315946D01*
X164081658Y-71430942D01*
X164196654Y-71519182D01*
X164330570Y-71574651D01*
X164457559Y-71591369D01*
X164474278Y-71593571D01*
X164474279Y-71593571D01*
X164474280Y-71593571D01*
X164489256Y-71591599D01*
X164617988Y-71574651D01*
X164751904Y-71519182D01*
X164866900Y-71430942D01*
X164955140Y-71315946D01*
X165010609Y-71182030D01*
X165029529Y-71038321D01*
X165010609Y-70894612D01*
X164955140Y-70760696D01*
X164866900Y-70645700D01*
X164751904Y-70557460D01*
X164751903Y-70557459D01*
X164751901Y-70557458D01*
X164617991Y-70501992D01*
X164617989Y-70501991D01*
X164617988Y-70501991D01*
X164546133Y-70492531D01*
X164474280Y-70483071D01*
X164474278Y-70483071D01*
X164330570Y-70501991D01*
X164330566Y-70501992D01*
X164196656Y-70557458D01*
X164081658Y-70645700D01*
X163993416Y-70760698D01*
X163937950Y-70894608D01*
X163937949Y-70894612D01*
X163919029Y-71038320D01*
X128106773Y-71038320D01*
X128197350Y-70936964D01*
X128207171Y-70927144D01*
X128419726Y-70737192D01*
X128430573Y-70728541D01*
X128663074Y-70563573D01*
X128674837Y-70556182D01*
X128924341Y-70418287D01*
X128936841Y-70412267D01*
X129200208Y-70303176D01*
X129213325Y-70298586D01*
X129487250Y-70219669D01*
X129500797Y-70216577D01*
X129781834Y-70168827D01*
X129795631Y-70167273D01*
X130083690Y-70151096D01*
X130090643Y-70150901D01*
X130132053Y-70150901D01*
X188706270Y-70150901D01*
X188713483Y-70151110D01*
G37*
G04 #@! TD.AperFunction*
M02*
