G04 #@! TF.GenerationSoftware,KiCad,Pcbnew,8.0.9-8.0.9-0~ubuntu24.04.1*
G04 #@! TF.CreationDate,2025-06-14T07:54:04+02:00*
G04 #@! TF.ProjectId,rpi_power_warden_hat,7270695f-706f-4776-9572-5f7761726465,rev?*
G04 #@! TF.SameCoordinates,Original*
G04 #@! TF.FileFunction,Soldermask,Top*
G04 #@! TF.FilePolarity,Negative*
%FSLAX46Y46*%
G04 Gerber Fmt 4.6, Leading zero omitted, Abs format (unit mm)*
G04 Created by KiCad (PCBNEW 8.0.9-8.0.9-0~ubuntu24.04.1) date 2025-06-14 07:54:04*
%MOMM*%
%LPD*%
G01*
G04 APERTURE LIST*
G04 Aperture macros list*
%AMRoundRect*
0 Rectangle with rounded corners*
0 $1 Rounding radius*
0 $2 $3 $4 $5 $6 $7 $8 $9 X,Y pos of 4 corners*
0 Add a 4 corners polygon primitive as box body*
4,1,4,$2,$3,$4,$5,$6,$7,$8,$9,$2,$3,0*
0 Add four circle primitives for the rounded corners*
1,1,$1+$1,$2,$3*
1,1,$1+$1,$4,$5*
1,1,$1+$1,$6,$7*
1,1,$1+$1,$8,$9*
0 Add four rect primitives between the rounded corners*
20,1,$1+$1,$2,$3,$4,$5,0*
20,1,$1+$1,$4,$5,$6,$7,0*
20,1,$1+$1,$6,$7,$8,$9,0*
20,1,$1+$1,$8,$9,$2,$3,0*%
G04 Aperture macros list end*
%ADD10RoundRect,0.100000X-0.375000X-0.100000X0.375000X-0.100000X0.375000X0.100000X-0.375000X0.100000X0*%
%ADD11RoundRect,0.237500X0.250000X0.237500X-0.250000X0.237500X-0.250000X-0.237500X0.250000X-0.237500X0*%
%ADD12RoundRect,0.237500X-0.250000X-0.237500X0.250000X-0.237500X0.250000X0.237500X-0.250000X0.237500X0*%
%ADD13C,2.500000*%
%ADD14RoundRect,0.250000X-0.337500X-0.475000X0.337500X-0.475000X0.337500X0.475000X-0.337500X0.475000X0*%
%ADD15RoundRect,0.237500X-0.237500X0.250000X-0.237500X-0.250000X0.237500X-0.250000X0.237500X0.250000X0*%
%ADD16RoundRect,0.218750X0.256250X-0.218750X0.256250X0.218750X-0.256250X0.218750X-0.256250X-0.218750X0*%
%ADD17RoundRect,0.237500X0.237500X-0.250000X0.237500X0.250000X-0.237500X0.250000X-0.237500X-0.250000X0*%
%ADD18RoundRect,0.197368X2.202632X-0.927632X2.202632X0.927632X-2.202632X0.927632X-2.202632X-0.927632X0*%
%ADD19RoundRect,0.275000X-0.275000X0.325000X-0.275000X-0.325000X0.275000X-0.325000X0.275000X0.325000X0*%
%ADD20RoundRect,0.225000X-0.587500X-0.225000X0.587500X-0.225000X0.587500X0.225000X-0.587500X0.225000X0*%
%ADD21RoundRect,0.237500X-0.300000X-0.237500X0.300000X-0.237500X0.300000X0.237500X-0.300000X0.237500X0*%
%ADD22RoundRect,0.175000X0.325000X-0.175000X0.325000X0.175000X-0.325000X0.175000X-0.325000X-0.175000X0*%
%ADD23RoundRect,0.200000X0.300000X-0.200000X0.300000X0.200000X-0.300000X0.200000X-0.300000X-0.200000X0*%
%ADD24O,1.800000X1.000000*%
%ADD25C,1.800000*%
%ADD26C,1.600000*%
%ADD27RoundRect,0.300000X1.100000X-0.900000X1.100000X0.900000X-1.100000X0.900000X-1.100000X-0.900000X0*%
%ADD28R,1.000000X1.500000*%
%ADD29C,3.000000*%
%ADD30C,1.370000*%
%ADD31RoundRect,0.150000X0.360000X0.740000X-0.360000X0.740000X-0.360000X-0.740000X0.360000X-0.740000X0*%
%ADD32RoundRect,0.150000X0.360000X0.705000X-0.360000X0.705000X-0.360000X-0.705000X0.360000X-0.705000X0*%
%ADD33RoundRect,0.237500X0.237500X-0.300000X0.237500X0.300000X-0.237500X0.300000X-0.237500X-0.300000X0*%
%ADD34RoundRect,0.225000X0.587500X0.225000X-0.587500X0.225000X-0.587500X-0.225000X0.587500X-0.225000X0*%
%ADD35RoundRect,0.237500X0.300000X0.237500X-0.300000X0.237500X-0.300000X-0.237500X0.300000X-0.237500X0*%
%ADD36RoundRect,0.300000X-0.900000X-1.100000X0.900000X-1.100000X0.900000X1.100000X-0.900000X1.100000X0*%
%ADD37RoundRect,0.118750X-0.906250X-0.356250X0.906250X-0.356250X0.906250X0.356250X-0.906250X0.356250X0*%
%ADD38RoundRect,0.237500X-0.237500X0.300000X-0.237500X-0.300000X0.237500X-0.300000X0.237500X0.300000X0*%
%ADD39RoundRect,0.177500X-0.702500X-0.177500X0.702500X-0.177500X0.702500X0.177500X-0.702500X0.177500X0*%
G04 APERTURE END LIST*
D10*
X152174279Y-84488321D03*
X152174279Y-85138321D03*
X152174279Y-85788321D03*
X154374279Y-85788321D03*
X154374279Y-84488321D03*
X151374279Y-114588321D03*
X151374279Y-115238321D03*
X151374279Y-115888321D03*
X153574279Y-115888321D03*
X153574279Y-114588321D03*
D11*
X166660780Y-104534121D03*
X164835780Y-104534121D03*
D12*
X159661779Y-78838321D03*
X161486779Y-78838321D03*
D13*
X130619079Y-114059121D03*
D14*
X160611059Y-105889200D03*
X162686059Y-105889200D03*
D15*
X152889279Y-119584021D03*
X152889279Y-121409021D03*
D11*
X147804679Y-87572094D03*
X145979679Y-87572094D03*
D16*
X152863879Y-124509821D03*
X152863879Y-122934821D03*
D17*
X178252079Y-118399621D03*
X178252079Y-116574621D03*
D14*
X160611059Y-108048200D03*
X162686059Y-108048200D03*
D12*
X164835780Y-106159721D03*
X166660780Y-106159721D03*
D11*
X150664579Y-91332921D03*
X148839579Y-91332921D03*
D18*
X136901479Y-103289921D03*
X136901479Y-99039921D03*
D19*
X142901479Y-92922521D03*
X141001479Y-92922521D03*
X141951479Y-94922521D03*
D13*
X155538480Y-95460721D03*
D11*
X169436580Y-96589121D03*
X167611580Y-96589121D03*
D20*
X160716759Y-102072400D03*
X160716759Y-103022400D03*
X160716759Y-103972400D03*
X162986759Y-103972400D03*
X162986759Y-103022400D03*
X162986759Y-102072400D03*
D12*
X160133879Y-115922721D03*
X161958879Y-115922721D03*
D11*
X169511180Y-91332921D03*
X167686180Y-91332921D03*
D14*
X141955379Y-99060521D03*
X144030379Y-99060521D03*
D17*
X160574279Y-87550821D03*
X160574279Y-85725821D03*
D20*
X141870158Y-102072400D03*
X141870158Y-103022400D03*
X141870158Y-103972400D03*
X144140158Y-103972400D03*
X144140158Y-103022400D03*
X144140158Y-102072400D03*
X161994400Y-112331121D03*
X161994400Y-113281121D03*
X161994400Y-114231121D03*
X164264400Y-114231121D03*
X164264400Y-113281121D03*
X164264400Y-112331121D03*
D21*
X164885780Y-101282921D03*
X166610780Y-101282921D03*
X146039179Y-101282921D03*
X147764179Y-101282921D03*
D11*
X166660780Y-102908521D03*
X164835780Y-102908521D03*
D21*
X164346900Y-115922721D03*
X166071900Y-115922721D03*
D14*
X141955379Y-96900921D03*
X144030379Y-96900921D03*
D22*
X183624279Y-88638321D03*
X183624279Y-86638321D03*
D23*
X183624279Y-85438321D03*
D22*
X183624279Y-87638321D03*
X183624279Y-89638321D03*
D23*
X183624279Y-90838321D03*
D24*
X183624279Y-92338321D03*
X187424279Y-92338321D03*
X183624279Y-83938321D03*
X187424279Y-83938321D03*
D25*
X181674279Y-103538321D03*
D26*
X186174279Y-103538321D03*
D27*
X180074279Y-109238321D03*
X186174279Y-109238321D03*
X186174279Y-97838321D03*
X180074279Y-97838321D03*
D13*
X155690880Y-91066521D03*
X175424679Y-113160721D03*
D16*
X164863879Y-124509821D03*
X164863879Y-122934821D03*
D18*
X155711759Y-103289921D03*
X155711759Y-99039921D03*
D11*
X167086779Y-80038321D03*
X165261779Y-80038321D03*
D28*
X148224279Y-82238321D03*
X146924279Y-82238321D03*
D17*
X166129400Y-114143621D03*
X166129400Y-112318621D03*
D13*
X136844279Y-91066521D03*
D16*
X158863879Y-124509821D03*
X158863879Y-122934821D03*
D29*
X130395599Y-73817001D03*
X130395599Y-122817001D03*
D25*
X136565599Y-73925001D03*
X182285599Y-73925001D03*
D29*
X188395599Y-73817001D03*
X188395599Y-122817001D03*
D30*
X135295599Y-75195001D03*
D31*
X135295599Y-76835001D03*
D32*
X135295599Y-71015001D03*
D30*
X135295599Y-72655001D03*
X137835599Y-75195001D03*
D31*
X137835599Y-76835001D03*
D32*
X137835599Y-71015001D03*
D30*
X137835599Y-72655001D03*
X140375599Y-75195001D03*
D31*
X140375599Y-76835001D03*
D32*
X140375599Y-71015001D03*
D30*
X140375599Y-72655001D03*
X142915599Y-75195001D03*
D31*
X142915599Y-76835001D03*
D32*
X142915599Y-71015001D03*
D30*
X142915599Y-72655001D03*
X145455599Y-75195001D03*
D31*
X145455599Y-76835001D03*
D32*
X145455599Y-71015001D03*
D30*
X145455599Y-72655001D03*
X147995599Y-75195001D03*
D31*
X147995599Y-76835001D03*
D32*
X147995599Y-71015001D03*
D30*
X147995599Y-72655001D03*
X150535599Y-75195001D03*
D31*
X150535599Y-76835001D03*
D32*
X150535599Y-71015001D03*
D30*
X150535599Y-72655001D03*
X153075599Y-75195001D03*
D31*
X153075599Y-76835001D03*
D32*
X153075599Y-71015001D03*
D30*
X153075599Y-72655001D03*
X155615599Y-75195001D03*
D31*
X155615599Y-76835001D03*
D32*
X155615599Y-71015001D03*
D30*
X155615599Y-72655001D03*
X158155599Y-75195001D03*
D31*
X158155599Y-76835001D03*
D32*
X158155599Y-71015001D03*
D30*
X158155599Y-72655001D03*
X160695599Y-75195001D03*
D31*
X160695599Y-76835001D03*
D32*
X160695599Y-71015001D03*
D30*
X160695599Y-72655001D03*
X163235599Y-75195001D03*
D31*
X163235599Y-76835001D03*
D32*
X163235599Y-71015001D03*
D30*
X163235599Y-72655001D03*
X165775599Y-75195001D03*
D31*
X165775599Y-76835001D03*
D32*
X165775599Y-71015001D03*
D30*
X165775599Y-72655001D03*
X168315599Y-75195001D03*
D31*
X168315599Y-76835001D03*
D32*
X168315599Y-71015001D03*
D30*
X168315599Y-72655001D03*
X170855599Y-75195001D03*
D31*
X170855599Y-76835001D03*
D32*
X170855599Y-71015001D03*
D30*
X170855599Y-72655001D03*
X173395599Y-75195001D03*
D31*
X173395599Y-76835001D03*
D32*
X173395599Y-71015001D03*
D30*
X173395599Y-72655001D03*
X175935599Y-75195001D03*
D31*
X175935599Y-76835001D03*
D32*
X175935599Y-71015001D03*
D30*
X175935599Y-72655001D03*
X178475599Y-75195001D03*
D31*
X178475599Y-76835001D03*
D32*
X178475599Y-71015001D03*
D30*
X178475599Y-72655001D03*
X181015599Y-75195001D03*
D31*
X181015599Y-76835001D03*
D32*
X181015599Y-71015001D03*
D30*
X181015599Y-72655001D03*
X183555599Y-75195001D03*
D31*
X183555599Y-76835001D03*
D32*
X183555599Y-71015001D03*
D30*
X183555599Y-72655001D03*
D33*
X170791080Y-87712221D03*
X170791080Y-85987221D03*
D34*
X148836279Y-94923321D03*
X148836279Y-93973321D03*
X148836279Y-93023321D03*
X146566279Y-93023321D03*
X146566279Y-93973321D03*
X146566279Y-94923321D03*
D15*
X164889279Y-119584021D03*
X164889279Y-121409021D03*
D12*
X145989179Y-106159721D03*
X147814179Y-106159721D03*
D15*
X158889279Y-119584021D03*
X158889279Y-121409021D03*
X180000000Y-82087500D03*
X180000000Y-83912500D03*
D14*
X160801980Y-99060521D03*
X162876980Y-99060521D03*
X160801980Y-96900921D03*
X162876980Y-96900921D03*
D35*
X156636779Y-112938321D03*
X154911779Y-112938321D03*
D25*
X140036779Y-115738321D03*
D26*
X140036779Y-120238321D03*
D36*
X134336779Y-114138321D03*
X134336779Y-120238321D03*
X145736779Y-120238321D03*
X145736779Y-114138321D03*
D11*
X147814179Y-104534121D03*
X145989179Y-104534121D03*
D35*
X142036779Y-81638321D03*
X140311779Y-81638321D03*
D37*
X137648079Y-83556494D03*
X137648079Y-84826494D03*
X137648079Y-86096494D03*
X137648079Y-87366494D03*
X143248079Y-87366494D03*
X143248079Y-86096494D03*
X143248079Y-84826494D03*
X143248079Y-83556494D03*
D11*
X147804679Y-85946094D03*
X145979679Y-85946094D03*
D38*
X160133879Y-112368621D03*
X160133879Y-114093621D03*
D11*
X147814179Y-102908521D03*
X145989179Y-102908521D03*
X150589979Y-96589121D03*
X148764979Y-96589121D03*
D33*
X188303879Y-118449621D03*
X188303879Y-116724621D03*
D14*
X141764458Y-105889200D03*
X143839458Y-105889200D03*
D17*
X180000000Y-93912500D03*
X180000000Y-92087500D03*
D21*
X152608958Y-82924194D03*
X154333958Y-82924194D03*
D39*
X180373279Y-113562121D03*
X180373279Y-114212121D03*
X180373279Y-114862121D03*
X180373279Y-115512121D03*
X180373279Y-116162121D03*
X180373279Y-116812121D03*
X180373279Y-117462121D03*
X180373279Y-118112121D03*
X186173279Y-118112121D03*
X186173279Y-117462121D03*
X186173279Y-116812121D03*
X186173279Y-116162121D03*
X186173279Y-115512121D03*
X186173279Y-114862121D03*
X186173279Y-114212121D03*
X186173279Y-113562121D03*
D34*
X167682880Y-94923321D03*
X167682880Y-93973321D03*
X167682880Y-93023321D03*
X165412880Y-93023321D03*
X165412880Y-93973321D03*
X165412880Y-94923321D03*
D14*
X141764458Y-108048200D03*
X143839458Y-108048200D03*
D13*
X136691879Y-95460721D03*
D39*
X162860480Y-83124721D03*
X162860480Y-83774721D03*
X162860480Y-84424721D03*
X162860480Y-85074721D03*
X162860480Y-85724721D03*
X162860480Y-86374721D03*
X162860480Y-87024721D03*
X162860480Y-87674721D03*
X168660480Y-87674721D03*
X168660480Y-87024721D03*
X168660480Y-86374721D03*
X168660480Y-85724721D03*
X168660480Y-85074721D03*
X168660480Y-84424721D03*
X168660480Y-83774721D03*
X168660480Y-83124721D03*
D11*
X147804679Y-84320094D03*
X145979679Y-84320094D03*
D19*
X161748080Y-92922521D03*
X159848080Y-92922521D03*
X160798080Y-94922521D03*
M02*
